<?xml version="1.0" standalone="no"?>
<!DOCTYPE svg PUBLIC "-//W3C//DTD SVG 1.1//EN" "http://www.w3.org/Graphics/SVG/1.1/DTD/svg11.dtd" >
<svg xmlns="http://www.w3.org/2000/svg" xmlns:xlink="http://www.w3.org/1999/xlink" version="1.1">
<metadata>
Created by FontForge 20170731 at Wed Dec  6 16:06:56 2023
 By Aleksey,,,
Copyright (c) 2020 Paratype, Inc., ParaType Ltd. All rights reserved.
</metadata>
<defs>
<font id="Stapel-Bold" horiz-adv-x="1460" >
  <font-face 
    font-family="Stapel Bold"
    font-weight="700"
    font-stretch="normal"
    units-per-em="2048"
    panose-1="2 11 7 4 2 2 2 2 2 4"
    ascent="1638"
    descent="-410"
    x-height="1024"
    cap-height="1413"
    bbox="-934 -594 2519 1958"
    underline-thickness="102"
    underline-position="-307"
    unicode-range="U+000D-FEFF"
  />
<missing-glyph horiz-adv-x="1259" 
d="M1165 -307h-1073v1966h1073v-1966zM272 -131h713v1135l-713 -775v-360zM272 449l713 776v278h-713v-1054z" />
    <glyph glyph-name="afii10017.var.accented" unicode="&#x410;`" horiz-adv-x="1542" 
d="M606 1413h334l602 -1413h-422l-76 205h-555l-75 -205h-414zM584 453h370l-184 497zM676 1540l170 311h342l-314 -311h-198z" />
    <glyph glyph-name="afii10022.var.accented" unicode="&#x415;`" horiz-adv-x="1325" 
d="M1243 0h-1147v1413h1147v-303h-768v-250h760v-303h-760v-254h768v-303zM580 1540l170 311h342l-314 -311h-198z" />
    <glyph glyph-name="afii10026.var.accented" unicode="&#x418;`" horiz-adv-x="1503" 
d="M473 586l633 827h303v-1413h-377v819l-641 -819h-295v1413h377v-827zM655 1540l170 311h342l-313 -311h-199z" />
    <glyph glyph-name="afii10032.var.accented" unicode="&#x41e;`" horiz-adv-x="1673" 
d="M836 -31q-194 0 -340 35q-143 34 -237 119q-93 84 -138 225t-45 357q0 222 48 366q48 143 143 226q96 84 238 115q145 32 331 32q185 0 331 -32q143 -31 239 -115q95 -83 143 -226q48 -144 48 -366q0 -216 -45 -357t-138 -225q-94 -85 -236 -119q-146 -35 -342 -35z
M836 287q113 0 182 14q76 15 118 59q44 46 62 127q19 87 19 218q0 134 -19 223q-18 85 -63 128t-118 57q-69 13 -181 13q-113 0 -182 -13q-73 -14 -116 -57q-45 -45 -63 -127q-18 -83 -18 -224q0 -135 18 -218q17 -80 63 -127q42 -44 116 -59q67 -14 182 -14zM739 1540
l170 311h342l-313 -311h-199z" />
    <glyph glyph-name="afii10037.var.accented" unicode="&#x423;`" horiz-adv-x="1544" 
d="M391 0l205 336l-596 1077h457l344 -719l317 719h426l-715 -1413h-438zM676 1540l170 311h342l-314 -311h-198z" />
    <glyph glyph-name="afii10045.var.accented" unicode="&#x42b;`" horiz-adv-x="1843" 
d="M1255 489q0 -253 -121 -371t-372 -118h-666v1413h379v-467h283q262 0 380 -105q117 -104 117 -352zM1747 0h-379v1413h379v-1413zM475 643v-340h205q98 0 146 39t48 137q0 99 -41 131q-42 33 -157 33h-201zM825 1540l170 311h342l-313 -311h-199z" />
    <glyph glyph-name="afii10047.var.accented" unicode="&#x42d;`" horiz-adv-x="1568" 
d="M430 575q7 -85 28 -146q19 -57 58 -88t98 -43q55 -11 148 -11q87 0 144 10q60 11 103 41q40 29 65 86t32 145h-522v285h522q-11 92 -34 143q-25 55 -65 82q-43 29 -103 38t-142 9q-89 0 -146 -10t-96 -38q-35 -25 -56 -78t-28 -130h-379q7 156 52 268q44 110 127 177
q85 68 214 98q135 31 310 31q182 0 321 -32q136 -31 229 -115q90 -81 137 -226q46 -142 46 -366q0 -218 -43 -357q-44 -142 -133 -225q-91 -85 -227 -119q-138 -35 -328 -35q-195 0 -325 34q-131 34 -216 107q-83 71 -124 188q-41 116 -48 277h381zM688 1540l170 311h342
l-313 -311h-199z" />
    <glyph glyph-name="afii10048.var.accented" unicode="&#x42e;`" horiz-adv-x="2140" 
d="M1362 -31q-164 0 -292 29q-127 29 -212 96q-86 68 -134 180t-63 283h-186v-557h-379v1413h379v-553h189q17 176 67 287q52 114 139 179q90 67 211 92q125 26 281 26q172 0 305 -32q129 -31 219 -115q88 -82 133 -226t45 -366q0 -214 -41 -357q-40 -140 -127 -225
q-86 -85 -219 -119q-135 -35 -315 -35zM1362 1126q-89 0 -148 -13q-61 -13 -100 -57q-39 -43 -57 -127q-19 -87 -19 -224q0 -131 19 -218q18 -82 57 -127q38 -44 100 -59q57 -14 148 -14q90 0 147 14q64 16 100 59q38 46 56 127q18 83 18 218q0 139 -18 223q-18 85 -57 128
t-100 57q-58 13 -146 13zM975 1540l170 311h342l-314 -311h-198z" />
    <glyph glyph-name="afii10049.var.accented" unicode="&#x42f;`" horiz-adv-x="1456" 
d="M981 0v393h-326l-174 -393h-415l233 444q-122 62 -175 189q-52 123 -52 278q0 268 128 385t408 117h752v-1413h-379zM455 903q0 -119 51 -164t156 -45h319v416h-315q-115 0 -163 -45t-48 -162zM633 1540l170 311h342l-314 -311h-198z" />
    <glyph glyph-name="afii10023.var.accented" unicode="&#x401;`" horiz-adv-x="1325" 
d="M1243 0h-1147v1413h1147v-303h-768v-250h760v-303h-760v-254h768v-303zM580 1513l-41 338h280l-41 -338h-198zM872 1540v240h238v-240h-238zM242 1540v240h237v-240h-237z" />
    <glyph glyph-name="afii10065.var.accented" unicode="&#x430;`" horiz-adv-x="1196" 
d="M401 -31q-163 0 -254 85q-92 86 -92 239q0 66 21 123q22 60 66 98q47 41 120 65q70 23 182 23q77 0 108 -1q46 -1 84 -3q29 -1 73 -5q46 -4 71 -5v78q0 70 -42 98q-43 29 -134 29q-83 0 -127 -26t-51 -97h-342q6 109 42 182q37 75 101 119q65 44 162 64q98 20 223 20
q244 0 378 -89t134 -296v-670h-344v195h-35q-33 -111 -121 -168q-90 -58 -223 -58zM571 213q83 0 144 36q60 35 65 122v53q-60 5 -106 6q-62 2 -88 2q-58 0 -91 -10q-34 -10 -53 -26q-18 -15 -23 -35q-5 -22 -5 -39q0 -60 40 -84q42 -25 117 -25zM498 1171l170 312h342
l-314 -312h-198z" />
    <glyph glyph-name="afii10070.var.accented" unicode="&#x435;`" horiz-adv-x="1214" 
d="M1155 467h-747v-4q2 -131 56 -181q56 -51 157 -51q80 0 131 30q52 30 59 108h344q-6 -112 -44 -190q-38 -77 -104 -124q-66 -46 -163 -66q-98 -20 -223 -20q-141 0 -246 27t-173 89q-70 64 -104 165q-35 103 -35 256q0 156 35 263q35 106 104 169t173 90q105 27 243 27
q262 0 400 -106q137 -105 137 -359v-123zM408 573h401q0 125 -50 172q-51 48 -143 48t-148 -43q-55 -42 -60 -160v-17zM500 1171l170 312h342l-314 -312h-198z" />
    <glyph glyph-name="afii10074.var.accented" unicode="&#x438;`" horiz-adv-x="1177" 
d="M766 0v543l-432 -543h-254v1024h332v-547l419 547h265v-1024h-330zM475 1171l170 312h342l-313 -312h-199z" />
    <glyph glyph-name="afii10080.var.accented" unicode="&#x43e;`" horiz-adv-x="1247" 
d="M623 231q110 0 163 61q54 62 54 214q0 160 -55 224q-54 63 -162 63q-110 0 -163 -62q-52 -61 -52 -225q0 -155 52 -214q53 -61 163 -61zM623 1055q141 0 246 -27q106 -27 175 -90q71 -65 105 -169q35 -107 35 -263q0 -153 -35 -256q-34 -100 -105 -165q-67 -61 -175 -89
q-105 -27 -246 -27t-246 27q-107 27 -174 89q-71 65 -105 165q-35 103 -35 256q0 156 35 263q34 104 105 169q69 63 174 90t246 27zM512 1171l170 312h342l-313 -312h-199z" />
    <glyph glyph-name="afii10085.var.accented" unicode="&#x443;`" horiz-adv-x="1234" 
d="M473 20l-473 1004h401l230 -627l207 627h397l-584 -1393h-362zM504 1171l170 312h342l-314 -312h-198z" />
    <glyph glyph-name="afii10093.var.accented" unicode="&#x44b;`" horiz-adv-x="1478" 
d="M543 711q105 0 187 -17q81 -17 130 -56q51 -40 75 -107q23 -63 23 -164q0 -176 -85 -271q-85 -96 -267 -96h-526v1024h344v-313h119zM1399 1024v-1024h-344v1024h344zM424 487v-229h111q59 0 90 28q30 27 30 89q0 51 -23 81q-24 31 -95 31h-113zM627 1171l170 312h342
l-314 -312h-198z" />
    <glyph glyph-name="afii10095.var.accented" unicode="&#x44d;`" horiz-adv-x="1208" 
d="M797 612q-16 100 -67 141q-49 40 -138 40q-77 0 -129 -38q-51 -38 -62 -141h-344q6 123 44 210q37 85 105 137q66 51 163 72q101 22 221 22q139 0 244 -27t174 -90t104 -169q35 -107 35 -263q0 -153 -35 -256q-34 -101 -104 -165q-67 -62 -174 -89q-105 -27 -244 -27
q-124 0 -224 23q-98 23 -164 75q-69 55 -105 139q-38 88 -44 216h344q7 -106 61 -149q53 -42 134 -42q92 0 142 41t65 146h-287v194h285zM494 1171l170 312h342l-314 -312h-198z" />
    <glyph glyph-name="afii10096.var.accented" unicode="&#x44e;`" horiz-adv-x="1689" 
d="M1081 -31q-121 0 -215 21q-97 21 -160 69q-68 51 -106 129q-39 79 -51 199h-125v-387h-344v1024h344v-375h127q15 117 55 193q41 78 107 125q65 46 157 67t211 21q138 0 240 -27q103 -27 170 -90q66 -61 101 -169q34 -103 34 -263q0 -155 -34 -256q-35 -103 -101 -165
q-66 -61 -170 -89q-102 -27 -240 -27zM1081 793q-99 0 -149 -62q-49 -61 -49 -225q0 -155 49 -214q50 -61 149 -61q102 0 152 61q49 59 49 214q0 162 -49 224q-50 63 -152 63zM731 1171l170 312h342l-313 -312h-199z" />
    <glyph glyph-name="afii10097.var.accented" unicode="&#x44f;`" horiz-adv-x="1175" 
d="M750 315h-172l-158 -315h-383l221 358q-99 44 -145 122q-47 80 -47 179q0 86 23 149q24 67 74 115q48 46 128 74q78 27 188 27h615v-1024h-344v315zM410 655q0 -47 24 -77q25 -31 92 -31h224v215h-215q-74 0 -100 -29q-25 -28 -25 -78zM475 1171l170 312h342l-313 -312
h-199z" />
    <glyph glyph-name="afii10071.var.accented" unicode="&#x451;`" horiz-adv-x="1214" 
d="M1155 467h-747v-4q2 -131 56 -181q56 -51 157 -51q80 0 131 30q52 30 59 108h344q-6 -112 -44 -190q-38 -77 -104 -124q-66 -46 -163 -66q-98 -20 -223 -20q-141 0 -246 27t-173 89q-70 64 -104 165q-35 103 -35 256q0 156 35 263q35 106 104 169t173 90q105 27 243 27
q262 0 400 -106q137 -105 137 -359v-123zM516 1145l-41 338h281l-41 -338h-199zM408 573h401q0 125 -50 172q-51 48 -143 48t-148 -43q-55 -42 -60 -160v-17zM178 1171v240h238v-240h-238zM811 1171v240h238v-240h-238z" />
    <glyph glyph-name="fi" unicode="fi" horiz-adv-x="1351" 
d="M616 1151q-96 0 -96 -102v-25h293v-262h-293v-762h-344v762h-164v262h164v25q0 78 21 144q21 68 67 116q46 49 123 76q79 28 186 28h240v-262h-197zM1262 1024v-1024h-344v1024h344zM909 1157v254h361v-254h-361z" />
    <glyph glyph-name="fl" unicode="fl" horiz-adv-x="1339" 
d="M616 1151q-96 0 -96 -102v-25h293v-262h-293v-762h-344v762h-164v262h164v25q0 78 21 144q21 68 67 116q46 49 123 76q79 28 186 28h240v-262h-197zM1257 0h-344v1413h344v-1413z" />
    <glyph glyph-name=".notdef" horiz-adv-x="1259" 
d="M1165 -307h-1073v1966h1073v-1966zM272 -131h713v1135l-713 -775v-360zM272 449l713 776v278h-713v-1054z" />
    <glyph glyph-name=".null" horiz-adv-x="0" 
 />
    <glyph glyph-name=".null" horiz-adv-x="0" 
 />
    <glyph glyph-name="nonmarkingreturn" unicode="&#xd;" horiz-adv-x="512" 
 />
    <glyph glyph-name="space" unicode=" " horiz-adv-x="464" 
 />
    <glyph glyph-name="exclam" unicode="!" horiz-adv-x="634" 
d="M137 0v334h361v-334h-361zM504 485h-373v928h373v-928z" />
    <glyph glyph-name="quotedbl" unicode="&#x22;" horiz-adv-x="806" 
d="M72 942v633h274v-633h-274zM461 942v633h274v-633h-274z" />
    <glyph glyph-name="numbersign" unicode="#" horiz-adv-x="1427" 
d="M741 240h-202l-50 -240h-309l49 240h-176l64 297h176l45 215h-182l63 297h180l54 254h303l-54 -254h197l49 254h303l-49 -254h174l-65 -297h-164l-41 -215h168l-64 -297h-159l-45 -240h-310zM598 537h201l43 215h-199z" />
    <glyph glyph-name="dollar" unicode="$" 
d="M825 -184v200q-30 -2 -46 -2h-46h-59q-19 0 -55 2v-200h-222v233q-170 44 -242 151q-71 106 -71 287h395q7 -101 62 -140q53 -38 188 -38q82 0 128 7q50 8 79 23q28 15 39 38q10 21 10 51q0 56 -37 78q-39 23 -94 35l-377 73q-189 37 -278 123q-88 85 -88 264
q0 122 63 218t223 141v215h222v-180q23 1 48 3q17 1 52 1q37 0 54 -1q34 -2 52 -3v180h222v-213q150 -40 219 -141q68 -100 73 -277h-374q-1 97 -57 131q-54 33 -183 33q-73 0 -123 -8q-45 -7 -73 -22q-26 -14 -33 -30q-9 -22 -9 -36q0 -50 32 -74q31 -24 110 -39l334 -61
q100 -21 179 -50q78 -29 127 -72q50 -44 76 -109q25 -63 25 -156q0 -76 -15 -142t-52 -116q-40 -54 -100 -90q-64 -38 -156 -60v-227h-222z" />
    <glyph glyph-name="percent" unicode="%" horiz-adv-x="1802" 
d="M1292 1413h236l-1014 -1413h-240zM430 1241q-30 0 -51 -6q-20 -6 -34 -26q-13 -19 -19 -57q-7 -44 -7 -99q0 -54 7 -96q6 -36 19 -56q14 -21 34 -27q21 -6 51 -6t51 6q20 6 34 27q14 22 20 56q6 36 6 96q0 61 -6 99q-6 37 -20 57t-34 26q-21 6 -51 6zM430 680
q-184 0 -267 83t-83 290q0 109 21 181q21 71 66 116q43 43 109 61q70 19 154 19t154 -19q65 -18 108 -61q44 -44 65 -116t21 -181q0 -207 -83 -290t-265 -83zM1366 535q-26 0 -51 -7q-21 -6 -34 -25q-13 -18 -19 -58q-7 -44 -7 -99q0 -53 7 -95q6 -36 19 -56q14 -21 34 -27
q21 -6 51 -6t51 6q20 6 34 27q13 20 19 56q7 42 7 95q0 55 -7 99q-6 40 -19 58q-13 19 -34 25q-24 7 -51 7zM1366 -27q-184 0 -267 83t-83 290q0 109 21 181q21 71 66 116q44 44 109 62q66 18 154 18t154 -18q63 -17 108 -62q44 -44 65 -116t21 -181q0 -207 -83 -290
t-265 -83z" />
    <glyph glyph-name="ampersand" unicode="&#x26;" horiz-adv-x="1726" 
d="M815 -31q-188 0 -317 34q-134 35 -214 98q-83 65 -122 158t-39 210q0 66 14 122q15 61 46 111q32 52 82 90t124 56q-33 50 -49 106q-14 49 -14 113q0 173 123 275t395 102q112 0 215 -25q97 -24 169 -83q69 -58 107 -154q37 -95 31 -240h-332q5 67 -7 106q-11 38 -36 63
t-61 32q-40 8 -86 8q-99 0 -141 -33q-41 -32 -41 -94q0 -32 10 -56t38 -60q26 -33 78 -82q19 -18 67 -60.5t65 -58.5l262 -236q28 89 16 227h340q24 -287 -88 -465l262 -233h-424l-55 47q-168 -78 -418 -78zM694 526q-72 61 -125 113q-53 -17 -77 -58q-25 -44 -25 -100
q0 -110 83 -160q85 -51 263 -51q88 0 154 15z" />
    <glyph glyph-name="quotesingle" unicode="'" horiz-adv-x="417" 
d="M72 942v633h274v-633h-274z" />
    <glyph glyph-name="parenleft" unicode="(" horiz-adv-x="833" 
d="M96 1008q0 214 35 362q34 143 108 234q72 88 184 126q110 37 265 37h88v-311h-31q-65 0 -120 -12t-95 -58q-39 -45 -60 -135t-21 -243v-678q0 -168 21 -265t60 -147q38 -48 95 -62q58 -14 120 -14h31v-313h-88q-155 0 -265 40q-113 41 -184 133q-74 95 -108 247
q-35 155 -35 381v678z" />
    <glyph glyph-name="parenright" unicode=")" horiz-adv-x="833" 
d="M739 330q0 -230 -34 -381q-34 -153 -109 -247q-73 -92 -185 -133q-110 -40 -266 -40h-86v313h31q63 0 121 14q56 14 94 62q40 51 61 147q21 97 21 265v678q0 153 -21 243q-21 88 -61 135q-40 46 -94 58q-55 12 -121 12h-31v311h86q156 0 266 -37q112 -38 185 -126
q75 -90 109 -234q34 -143 34 -362v-678z" />
    <glyph glyph-name="asterisk" unicode="*" horiz-adv-x="1228" 
d="M156 1075l245 29l-98 231l162 92l149 -217l150 217l162 -92l-101 -229l248 -31v-184l-248 -39l101 -221l-162 -92l-148 211l-151 -211l-162 92l98 223l-245 37v184z" />
    <glyph glyph-name="plus" unicode="+" horiz-adv-x="1146" 
d="M709 1083v-290h288v-269h-288v-291h-271v291h-288v269h288v290h271z" />
    <glyph glyph-name="comma" unicode="," horiz-adv-x="503" 
d="M92 -315l117 315h-137v334h360v-303l-145 -346h-195z" />
    <glyph glyph-name="hyphen" unicode="-" horiz-adv-x="913" 
d="M844 377h-774v297h774v-297z" />
    <glyph glyph-name="period" unicode="." horiz-adv-x="503" 
d="M72 0v334h360v-334h-360z" />
    <glyph glyph-name="slash" unicode="/" horiz-adv-x="1200" 
d="M864 1536h336l-858 -1712h-342z" />
    <glyph glyph-name="zero" unicode="0" 
d="M731 1126q-82 0 -135 -13q-56 -13 -90 -57q-35 -44 -50 -127q-16 -88 -16 -224q0 -130 16 -218q15 -81 50 -127q34 -44 90 -59q52 -14 135 -14q81 0 133 14q56 15 90 59q37 48 51 127q15 82 15 218q0 141 -15 224q-15 81 -51 127q-34 44 -90 57q-53 13 -133 13zM731 -31
q-174 0 -303 35q-125 34 -209 119q-82 83 -121 225q-39 141 -39 357q0 222 42 366q42 143 126 226q85 84 210 115q128 32 294 32t294 -32q125 -31 209 -115q83 -83 125 -226q42 -144 42 -366q0 -216 -39 -357t-120 -225q-82 -85 -208 -119q-129 -35 -303 -35z" />
    <glyph glyph-name="one" unicode="1" horiz-adv-x="866" 
d="M735 0h-379v864h-254v266h93q90 0 137 52t47 157v74h356v-1413z" />
    <glyph glyph-name="two" unicode="2" 
d="M725 647q72 42 114 80q43 39 69 78q26 40 35 76q9 38 9 75q0 78 -49 124t-176 46q-135 0 -187 -58q-52 -57 -44 -204h-379q-8 158 29 265q38 111 116 180t197 102t274 33q169 0 288 -36t190 -100q74 -66 105 -152q32 -88 32 -189q0 -68 -17 -136q-16 -64 -57 -126
q-39 -60 -112 -120t-181 -116l-254 -150v-16h623v-303h-1248v266z" />
    <glyph glyph-name="three" unicode="3" 
d="M727 -31q-159 0 -288 31q-123 30 -207 100q-81 68 -121 180q-39 109 -33 265h379q0 -142 59 -200t207 -58q154 0 215 53q59 52 59 149q0 43 -10 76q-11 36 -41 60q-31 25 -89 38q-56 13 -155 13h-145v211l252 223h-659v303h1122v-246l-340 -282l51 -2q179 -7 291 -113
q110 -104 110 -295q0 -121 -32 -213q-33 -94 -110 -159q-76 -64 -203 -99q-128 -35 -312 -35z" />
    <glyph glyph-name="four" unicode="4" 
d="M940 158h-870v274l899 981h323v-975h105v-280h-105v-158h-352v158zM940 438v482l-442 -482h442z" />
    <glyph glyph-name="five" unicode="5" 
d="M772 961q174 0 293 -29q116 -28 188 -88t102 -149q29 -86 29 -212q0 -121 -34 -214q-35 -95 -113 -161q-80 -67 -203 -103q-124 -36 -307 -36q-159 0 -288 31q-123 30 -207 100q-81 68 -121 180q-39 109 -33 265h379q0 -142 59 -200t207 -58q86 0 135 14q55 16 84 42
q31 28 43 69q12 40 12 92q0 51 -10 88q-11 39 -39 66t-80 42q-51 15 -133 15h-538v698h1091v-303h-786v-149h270z" />
    <glyph glyph-name="six" unicode="6" 
d="M733 -31q-341 0 -504 127t-163 418q0 93 18 169q17 74 59 148q39 69 106 144q53 60 157 153l315 285h469l-485 -426q-11 -8 -31 -24l-29 -25l6 -12q97 28 203 28q156 0 255 -36q104 -38 168 -100q65 -64 93 -147q29 -87 29 -184q0 -119 -33 -215q-33 -95 -111 -163
q-80 -69 -204 -104q-127 -36 -318 -36zM733 709q-82 0 -141 -16q-54 -15 -87 -43q-31 -27 -45 -65q-14 -39 -14 -85t14 -86t45 -68q32 -29 87 -44q56 -15 141 -15t137 15q51 15 86 43q33 27 45 67q13 42 13 86q0 46 -13 88q-12 38 -44 66q-31 27 -86 42q-54 15 -138 15z" />
    <glyph glyph-name="seven" unicode="7" horiz-adv-x="1249" 
d="M279 0l503 1085h-735v328h1167v-246l-516 -1167h-419z" />
    <glyph glyph-name="eight" unicode="8" 
d="M733 633q-153 0 -221 -48t-68 -136q0 -83 63 -130q64 -47 226 -47t226 47q63 47 63 130q0 88 -68 136q-67 48 -221 48zM733 825q135 0 191 41q55 40 55 123q0 86 -61 123t-185 37q-126 0 -185 -37q-61 -38 -61 -123q0 -82 55 -123t191 -41zM733 1444q167 0 290 -28
q114 -26 191 -78q75 -50 106 -120q32 -72 32 -157q0 -137 -70 -215q-68 -75 -195 -92v-21q157 -29 240 -112q84 -84 84 -232q0 -104 -32 -185q-31 -79 -110 -131q-80 -53 -209 -78q-133 -26 -327 -26t-327 26q-131 26 -209 78q-79 53 -111 131q-33 80 -33 185q0 148 85 232
q85 83 239 112v21q-127 17 -195 92q-69 76 -69 215q0 88 31 157q31 70 106 120q77 52 192 78q123 28 291 28z" />
    <glyph glyph-name="nine" unicode="9" 
d="M772 455q24 21 25 22l22 23l-6 12q-48 -8 -91 -11q-48 -3 -95 -3q-150 0 -254 37q-107 38 -171 98q-68 63 -97 143t-29 172q0 114 33 206t109 156t203 99q128 35 314 35q332 0 492 -122q159 -121 159 -400q0 -91 -19 -161q-20 -74 -58 -141q-40 -70 -98 -142
q-79 -97 -136 -163l-274 -315h-475zM737 735q85 0 137 15q57 16 87 41q33 27 45 64t12 85q0 47 -12 86q-12 40 -45 67q-34 28 -87 43q-52 15 -137 15q-83 0 -139 -15q-54 -15 -88 -44q-32 -28 -46 -68q-13 -38 -13 -86q0 -44 13 -80q13 -37 46 -64q35 -29 88 -43
q59 -16 139 -16z" />
    <glyph glyph-name="colon" unicode=":" horiz-adv-x="503" 
d="M72 0v334h360v-334h-360zM72 690v334h360v-334h-360z" />
    <glyph glyph-name="semicolon" unicode=";" horiz-adv-x="503" 
d="M92 -315l117 315h-137v334h360v-303l-145 -346h-195zM72 690v334h360v-334h-360z" />
    <glyph glyph-name="less" unicode="&#x3c;" horiz-adv-x="1146" 
d="M971 178l-795 387v156l795 387v-266l-422 -197l422 -196v-271z" />
    <glyph glyph-name="equal" unicode="=" horiz-adv-x="1146" 
d="M997 745h-847v271h847v-271zM997 303h-847v268h847v-268z" />
    <glyph glyph-name="greater" unicode="&#x3e;" horiz-adv-x="1146" 
d="M598 645l-422 197v266l795 -387v-156l-795 -387v271z" />
    <glyph glyph-name="question" unicode="?" horiz-adv-x="1267" 
d="M438 0v334h363v-334h-363zM453 485v111l180 119q109 71 153 130q43 58 43 128q0 66 -43 109q-44 44 -153 44q-117 0 -166 -58t-39 -204h-377q-12 155 22 263q35 112 110 181t193 103q115 33 263 33q156 0 269 -35q115 -36 182 -94q70 -61 101 -137q32 -79 32 -166
q0 -68 -15 -125q-17 -63 -48 -111q-37 -56 -92 -104q-66 -57 -146 -109l-127 -78h-342z" />
    <glyph glyph-name="at" unicode="@" horiz-adv-x="1775" 
d="M1694 545q0 -119 -24 -200q-25 -83 -68 -132q-46 -52 -111 -74t-152 -22q-225 0 -278 162h-27q-34 -81 -93 -122q-58 -40 -155 -40q-66 0 -118 18q-51 17 -90 63q-38 44 -57 115q-19 70 -19 179q0 112 19 184q20 75 57 118q38 44 90 63q54 20 118 20q91 0 149 -32
q56 -31 91 -118h18v129h226v-440q0 -60 19 -85q20 -26 59 -26q46 0 70 50q24 49 24 190q0 158 -35 254q-34 94 -102 145q-69 52 -166 67q-99 15 -226 15q-141 0 -246 -16q-109 -17 -182 -72t-112 -159q-39 -103 -39 -279q0 -170 40 -271q40 -102 116 -158q76 -57 189 -75
q117 -19 255 -19q97 0 184 14q83 13 154 38l57 -213q-88 -30 -181 -47q-103 -19 -214 -19q-210 0 -371 35q-157 34 -267 121q-108 86 -162 231t-54 363q0 229 56 372q57 147 164 231q107 85 262 118q150 32 351 32q185 0 329 -30q142 -30 245 -111q100 -79 153 -217
q54 -140 54 -350zM1044 541q-5 67 -40 117q-38 53 -113 53q-31 0 -67 -9q-28 -7 -50 -32q-19 -22 -32 -68q-11 -40 -11 -110t11 -107q12 -41 32 -64q22 -25 50 -32q32 -8 67 -8q85 0 120 54q33 52 33 132v74z" />
    <glyph glyph-name="A" unicode="A" horiz-adv-x="1542" 
d="M606 1413h334l602 -1413h-422l-76 205h-555l-75 -205h-414zM584 453h370l-184 497z" />
    <glyph glyph-name="B" unicode="B" horiz-adv-x="1439" 
d="M1098 719q144 -24 216 -108q70 -82 70 -212q0 -207 -114 -303t-352 -96h-822v1413h793q244 0 350 -88q107 -89 107 -297q0 -124 -69 -193q-70 -70 -179 -98v-18zM475 588v-285h350q93 0 140 32t47 114q0 81 -42 110q-43 29 -149 29h-346zM475 1110v-272h326q85 0 129 30
q43 30 43 109q0 78 -38 105q-39 28 -138 28h-322z" />
    <glyph glyph-name="C" unicode="C" horiz-adv-x="1589" 
d="M1528 575q-12 -160 -53 -277q-40 -115 -124 -188q-83 -72 -214 -107q-129 -34 -326 -34q-189 0 -329 35q-137 34 -229 119q-90 83 -134 225q-43 139 -43 357q0 224 46 366q47 145 137 226q93 84 229 115q140 32 323 32q178 0 310 -31q127 -30 212 -98t128 -177
q44 -111 59 -268h-379q-7 79 -29 130q-23 53 -57 78q-39 28 -97 38q-57 10 -147 10q-101 0 -166 -13q-67 -13 -109 -57q-43 -45 -61 -127q-18 -83 -18 -224q0 -135 18 -218q18 -80 61 -127q41 -44 109 -59q63 -14 166 -14q93 0 148 11q62 12 100 43t59 88q22 59 29 146h381z
" />
    <glyph glyph-name="D" unicode="D" horiz-adv-x="1521" 
d="M96 1413h631q173 0 313 -28q136 -27 226 -104q90 -76 135 -215q45 -138 45 -361q0 -207 -42 -344t-130 -216t-223 -112t-324 -33h-631v1413zM674 303q107 0 179 13q76 14 122 57q48 44 68 122q22 83 22 210q0 137 -22 223q-21 81 -69 122q-46 39 -122 50q-70 10 -178 10
h-199v-807h199z" />
    <glyph glyph-name="E" unicode="E" horiz-adv-x="1325" 
d="M1243 0h-1147v1413h1147v-303h-768v-250h760v-303h-760v-254h768v-303z" />
    <glyph glyph-name="F" unicode="F" horiz-adv-x="1300" 
d="M1223 557h-748v-557h-379v1413h1133v-303h-754v-250h748v-303z" />
    <glyph glyph-name="G" unicode="G" horiz-adv-x="1607" 
d="M791 772h741v-186q0 -165 -40 -281t-127 -191q-88 -76 -224 -110q-138 -35 -330 -35q-189 0 -329 35q-137 34 -229 119q-90 83 -134 225q-43 139 -43 357q0 224 46 366q47 145 137 226q93 84 229 115q140 32 323 32q178 0 307 -30q131 -30 215 -94q87 -66 133 -166
q48 -106 60 -243h-379q-7 61 -28 106q-19 42 -57 66q-40 25 -99 34q-61 9 -152 9q-101 0 -166 -13q-67 -13 -109 -57q-43 -45 -61 -127q-18 -83 -18 -224q0 -135 18 -218q18 -81 62 -127q42 -44 112 -59q64 -14 170 -14q177 0 260 45q82 45 82 170v22h-370v248z" />
    <glyph glyph-name="H" unicode="H" horiz-adv-x="1558" 
d="M475 858h608v555h379v-1413h-379v530h-608v-530h-379v1413h379v-555z" />
    <glyph glyph-name="I" unicode="I" horiz-adv-x="575" 
d="M477 0h-379v1413h379v-1413z" />
    <glyph glyph-name="J" unicode="J" horiz-adv-x="1353" 
d="M430 575q1 -89 20 -148q18 -56 48 -88t73 -42q41 -10 97 -10q128 0 177 61q50 62 50 193v569h-764v303h1145v-887q0 -274 -147 -415q-148 -142 -461 -142q-145 0 -264 31q-114 30 -193 101q-78 70 -120 188q-42 117 -42 286h381z" />
    <glyph glyph-name="K" unicode="K" horiz-adv-x="1447" 
d="M993 0l-372 596h-146v-596h-379v1413h379v-717l504 717h422l-494 -651l541 -762h-455z" />
    <glyph glyph-name="L" unicode="L" horiz-adv-x="1280" 
d="M1257 0h-1161v1413h379v-1085h782v-328z" />
    <glyph glyph-name="M" unicode="M" horiz-adv-x="1830" 
d="M475 840v-840h-379v1413h295l529 -610l522 610h293v-1413h-379v838l-441 -482z" />
    <glyph glyph-name="N" unicode="N" horiz-adv-x="1560" 
d="M387 1413l721 -848v848h358v-1413h-288l-725 831v-831h-357v1413h291z" />
    <glyph glyph-name="O" unicode="O" horiz-adv-x="1673" 
d="M836 -31q-194 0 -340 35q-143 34 -237 119q-93 84 -138 225t-45 357q0 222 48 366q48 143 143 226q96 84 238 115q145 32 331 32q185 0 331 -32q143 -31 239 -115q95 -83 143 -226q48 -144 48 -366q0 -216 -45 -357t-138 -225q-94 -85 -236 -119q-146 -35 -342 -35z
M836 287q113 0 182 14q76 15 118 59q44 46 62 127q19 87 19 218q0 134 -19 223q-18 85 -63 128t-118 57q-69 13 -181 13q-113 0 -182 -13q-73 -14 -116 -57q-45 -45 -63 -127q-18 -83 -18 -224q0 -135 18 -218q17 -80 63 -127q42 -44 116 -59q67 -14 182 -14z" />
    <glyph glyph-name="P" unicode="P" horiz-adv-x="1456" 
d="M1399 879q0 -295 -122 -434q-121 -138 -372 -138h-430v-307h-379v1413h805q131 0 225 -30q95 -30 155 -93q61 -64 89 -165q29 -104 29 -246zM475 1110v-500h334q104 0 157 58q52 56 52 200q0 75 -10 119q-11 48 -35 75t-66 38q-39 10 -102 10h-330z" />
    <glyph glyph-name="Q" unicode="Q" horiz-adv-x="1673" 
d="M1085 -328l-204 297h-45q-194 0 -340 35q-143 34 -237 119q-93 84 -138 225t-45 357q0 222 48 366q48 143 143 226q96 84 238 115q145 32 331 32q185 0 331 -32q143 -31 239 -115q95 -83 143 -226q48 -144 48 -366q0 -280 -76 -438q-76 -159 -239 -228l272 -367h-469z
M836 287q113 0 182 14q76 15 118 59q44 46 62 127q19 87 19 218q0 134 -19 223q-18 85 -63 128t-118 57q-69 13 -181 13q-113 0 -182 -13q-73 -14 -116 -57q-45 -45 -63 -127q-18 -83 -18 -224q0 -135 18 -218q17 -80 63 -127q42 -44 116 -59q67 -14 182 -14z" />
    <glyph glyph-name="R" unicode="R" horiz-adv-x="1454" 
d="M954 0l-417 651h221q111 0 172 52t61 188q0 123 -54 171t-183 48h-279v-1110h-379v1413h740q280 0 409 -114t129 -375q0 -84 -19 -156q-19 -71 -61 -132q-39 -56 -107 -98q-66 -40 -161 -57l387 -481h-459z" />
    <glyph glyph-name="S" unicode="S" horiz-adv-x="1495" 
d="M750 -31q-190 0 -326 29q-133 28 -215 91t-118 161q-36 99 -36 237h396q5 -65 19 -107q15 -44 50 -70q34 -25 90 -37q51 -11 135 -11q93 0 150 9q56 9 91 27q34 18 46 44q12 27 12 63q0 66 -46 87q-40 18 -117 34l-424 90q-93 20 -166 52q-70 30 -116 78q-46 47 -69 115
q-22 65 -22 159q0 92 33 169q34 78 109 134q77 58 203 89q128 32 312 32q173 0 300 -26q125 -26 204 -85q81 -61 119 -154t43 -235h-373q-5 67 -20 104q-16 39 -49 63t-86 33q-52 9 -131 9q-93 0 -147 -10q-57 -11 -87 -27q-30 -17 -42 -40q-11 -22 -11 -48q0 -49 36 -76
q35 -26 126 -43l378 -75q106 -21 187 -50q82 -30 134 -74q54 -46 81 -114q27 -67 27 -166q0 -108 -30 -194t-107 -146q-76 -60 -209 -90q-136 -31 -334 -31z" />
    <glyph glyph-name="T" unicode="T" horiz-adv-x="1404" 
d="M1386 1085h-493v-1085h-381v1085h-494v328h1368v-328z" />
    <glyph glyph-name="U" unicode="U" horiz-adv-x="1492" 
d="M78 1413h381v-881q0 -146 71 -195q73 -50 215 -50q145 0 218 50q71 49 71 195v881h379v-895q0 -282 -165 -415q-166 -134 -503 -134t-502 132t-165 417v895z" />
    <glyph glyph-name="V" unicode="V" horiz-adv-x="1544" 
d="M938 0h-332l-606 1413h424l352 -958l354 958h414z" />
    <glyph glyph-name="W" unicode="W" horiz-adv-x="2099" 
d="M418 1413l264 -788l248 788h248l254 -774l254 774h411l-502 -1413h-274l-266 780l-254 -780h-275l-522 1413h414z" />
    <glyph glyph-name="X" unicode="X" horiz-adv-x="1531" 
d="M762 467l-293 -467h-465l502 719l-467 694h457l272 -450l281 450h442l-465 -696l502 -717h-471z" />
    <glyph glyph-name="Y" unicode="Y" horiz-adv-x="1581" 
d="M430 1413l367 -641l360 641h424l-594 -973v-440h-381v430l-606 983h430z" />
    <glyph glyph-name="Z" unicode="Z" horiz-adv-x="1357" 
d="M1298 0h-1241v252l727 844h-688v317h1184v-252l-715 -844h733v-317z" />
    <glyph glyph-name="bracketleft" unicode="[" horiz-adv-x="858" 
d="M801 -471h-705v2238h705v-290h-359v-1655h359v-293z" />
    <glyph glyph-name="backslash" unicode="\" horiz-adv-x="1169" 
d="M827 -176l-858 1712h336l864 -1712h-342z" />
    <glyph glyph-name="bracketright" unicode="]" horiz-adv-x="858" 
d="M416 -178v1655h-357v290h705v-2238h-705v293h357z" />
    <glyph glyph-name="asciicircum" unicode="^" horiz-adv-x="1146" 
d="M573 1602l471 -394h-346l-123 160l-129 -160h-344z" />
    <glyph glyph-name="underscore" unicode="_" horiz-adv-x="964" 
d="M899 -385h-836v295h836v-295z" />
    <glyph glyph-name="grave" unicode="`" horiz-adv-x="716" 
d="M102 1483h342l170 -312h-198z" />
    <glyph glyph-name="a" unicode="a" horiz-adv-x="1196" 
d="M401 -31q-163 0 -254 85q-92 86 -92 239q0 66 21 123q22 60 66 98q47 41 120 65q70 23 182 23q77 0 108 -1q46 -1 84 -3q29 -1 73 -5q46 -4 71 -5v78q0 70 -42 98q-43 29 -134 29q-83 0 -127 -26t-51 -97h-342q6 109 42 182q37 75 101 119q65 44 162 64q98 20 223 20
q244 0 378 -89t134 -296v-670h-344v195h-35q-33 -111 -121 -168q-90 -58 -223 -58zM571 213q83 0 144 36q60 35 65 122v53q-60 5 -106 6q-62 2 -88 2q-58 0 -91 -10q-34 -10 -53 -26q-18 -15 -23 -35q-5 -22 -5 -39q0 -60 40 -84q42 -25 117 -25z" />
    <glyph glyph-name="b" unicode="b" horiz-adv-x="1257" 
d="M788 -31q-136 0 -218 63q-83 63 -111 179h-35v-211h-344v1413h344v-600h35q29 115 111 178q84 64 218 64q99 0 177 -26q75 -25 127 -89q50 -62 76 -169t26 -263q0 -155 -26 -261q-26 -104 -76 -165q-51 -62 -127 -87q-78 -26 -177 -26zM629 793q-88 0 -144 -40
q-57 -40 -61 -145v-182q0 -109 59 -152t146 -43q61 0 104 12q44 12 70 41t38 84q11 50 11 140q0 88 -12 143t-38 87q-25 31 -69 43q-43 12 -104 12z" />
    <glyph glyph-name="c" unicode="c" horiz-adv-x="1208" 
d="M1155 422q-6 -128 -44 -216q-37 -86 -104 -139q-66 -52 -163 -75q-98 -23 -223 -23q-141 0 -246 27t-173 89q-70 64 -104 165q-35 103 -35 256q0 156 35 263q35 106 104 169t173 90q105 27 246 27q120 0 221 -22q97 -21 163 -72t104 -137q38 -87 44 -210h-344
q-11 104 -60 141q-50 38 -128 38q-108 0 -161 -62q-52 -61 -52 -225q0 -154 51 -214q52 -61 162 -61q80 0 131 42t59 149h344z" />
    <glyph glyph-name="d" unicode="d" horiz-adv-x="1257" 
d="M469 -31q-98 0 -176 26q-76 25 -127 87q-52 62 -77 165q-26 106 -26 261q0 156 26 263q26 106 77 169q52 64 127 89q78 26 176 26q134 0 218 -64q83 -64 112 -178h35v600h344v-1413h-344v211h-35q-28 -115 -112 -179q-83 -63 -218 -63zM629 231q86 0 145 43q60 44 60 152
v172q0 108 -60 152q-59 43 -145 43q-61 0 -105 -12q-43 -12 -68 -43q-26 -32 -38 -87t-12 -143q0 -90 11 -140q12 -55 38 -84t69 -41q44 -12 105 -12z" />
    <glyph glyph-name="e" unicode="e" horiz-adv-x="1214" 
d="M1155 467h-747v-4q2 -131 56 -181q56 -51 157 -51q80 0 131 30q52 30 59 108h344q-6 -112 -44 -190q-38 -77 -104 -124q-66 -46 -163 -66q-98 -20 -223 -20q-141 0 -246 27t-173 89q-70 64 -104 165q-35 103 -35 256q0 156 35 263q35 106 104 169t173 90q105 27 243 27
q262 0 400 -106q137 -105 137 -359v-123zM408 573h401q0 125 -50 172q-51 48 -143 48t-148 -43q-55 -42 -60 -160v-17z" />
    <glyph glyph-name="f" unicode="f" horiz-adv-x="829" 
d="M616 1151q-96 0 -96 -102v-25h293v-262h-293v-762h-344v762h-164v262h164v25q0 78 21 144q21 68 67 116q46 49 123 76q79 28 186 28h240v-262h-197z" />
    <glyph glyph-name="g" unicode="g" horiz-adv-x="1251" 
d="M834 293h-35q-28 -115 -112 -179q-83 -63 -218 -63q-99 0 -176 24t-127 80q-52 58 -77 152q-26 98 -26 242q0 146 26 245q25 95 77 155q51 58 127 82t176 24q134 0 218 -64q83 -64 112 -178h35v211h344v-934q0 -137 -35 -233q-34 -92 -105 -151q-69 -57 -174 -81
t-243 -24q-125 0 -224 18q-96 17 -166 64q-67 45 -104 116q-36 70 -41 181h342q6 -66 59 -92q51 -25 134 -25q108 0 160 49q53 50 53 178v203zM629 313q86 0 145 43q60 44 60 152v90q0 108 -60 152q-59 43 -145 43q-57 0 -105 -10q-43 -9 -68 -35q-26 -28 -38 -75
q-12 -48 -12 -124q0 -78 11 -119q12 -46 38 -72t69 -35q48 -10 105 -10z" />
    <glyph glyph-name="h" unicode="h" horiz-adv-x="1200" 
d="M784 645q0 88 -45 118t-133 30q-82 0 -130 -36q-47 -36 -52 -110v-647h-344v1413h344v-600h35q27 116 106 179t203 63q82 0 148 -18q69 -19 114 -58q48 -42 73 -110t25 -173v-696h-344v645z" />
    <glyph glyph-name="i" unicode="i" horiz-adv-x="522" 
d="M432 1024v-1024h-344v1024h344zM80 1157v254h360v-254h-360z" />
    <glyph glyph-name="j" unicode="j" horiz-adv-x="514" 
d="M10 -102q44 0 60 31t16 110v985h344v-1006q0 -94 -19 -164q-19 -71 -64 -125q-44 -53 -115 -80q-73 -28 -171 -28h-61v277h10zM78 1157v254h360v-254h-360z" />
    <glyph glyph-name="k" unicode="k" horiz-adv-x="1187" 
d="M424 502l354 522h381l-334 -465l363 -559h-393l-250 422h-121v-422h-344v1413h344v-911z" />
    <glyph glyph-name="l" unicode="l" horiz-adv-x="509" 
d="M428 0h-344v1413h344v-1413z" />
    <glyph glyph-name="m" unicode="m" horiz-adv-x="1810" 
d="M737 645q0 88 -39 118t-110 30q-78 0 -121 -39t-43 -123v-631h-344v1024h344v-211h35q28 116 101 178q76 64 192 64q136 0 218 -55q81 -54 103 -187h29q24 116 103 179t202 63q75 0 137 -18t105 -58q41 -38 66 -110q24 -69 24 -173v-696h-344v645q0 88 -40 118
q-41 30 -114 30q-72 0 -114 -36q-41 -36 -46 -110v-647h-344v645z" />
    <glyph glyph-name="n" unicode="n" horiz-adv-x="1200" 
d="M784 645q0 88 -45 118t-133 30q-82 0 -130 -36q-47 -36 -52 -110v-647h-344v1024h344v-211h35q27 116 106 179t203 63q82 0 148 -18q69 -19 114 -58q48 -42 73 -110t25 -173v-696h-344v645z" />
    <glyph glyph-name="o" unicode="o" horiz-adv-x="1247" 
d="M623 231q110 0 163 61q54 62 54 214q0 160 -55 224q-54 63 -162 63q-110 0 -163 -62q-52 -61 -52 -225q0 -155 52 -214q53 -61 163 -61zM623 1055q141 0 246 -27q106 -27 175 -90q71 -65 105 -169q35 -107 35 -263q0 -153 -35 -256q-34 -100 -105 -165q-67 -61 -175 -89
q-105 -27 -246 -27t-246 27q-107 27 -174 89q-71 65 -105 165q-35 103 -35 256q0 156 35 263q34 104 105 169q69 63 174 90t246 27z" />
    <glyph glyph-name="p" unicode="p" horiz-adv-x="1257" 
d="M788 -31q-136 0 -218 63q-83 63 -111 179h-35v-580h-344v1393h344v-211h35q29 115 111 178q84 64 218 64q99 0 177 -26q75 -25 127 -89q50 -62 76 -169t26 -263q0 -155 -26 -261q-26 -104 -76 -165q-51 -62 -127 -87q-78 -26 -177 -26zM629 793q-88 0 -144 -40
q-57 -40 -61 -145v-182q0 -109 59 -152t146 -43q61 0 104 12q44 12 70 41t38 84q11 50 11 140q0 88 -12 143t-38 87q-25 31 -69 43q-43 12 -104 12z" />
    <glyph glyph-name="q" unicode="q" horiz-adv-x="1257" 
d="M469 -31q-98 0 -176 26q-76 25 -127 87q-52 62 -77 165q-26 106 -26 261q0 156 26 263q26 106 77 169q52 64 127 89q78 26 176 26q134 0 218 -64q83 -64 112 -178h35v211h344v-1393h-344v580h-35q-28 -115 -112 -179q-83 -63 -218 -63zM629 231q86 0 145 43q60 44 60 152
v172q0 108 -60 152q-59 43 -145 43q-61 0 -105 -12q-43 -12 -68 -43q-26 -32 -38 -87t-12 -143q0 -90 11 -140q12 -55 38 -84t69 -41q44 -12 105 -12z" />
    <glyph glyph-name="r" unicode="r" horiz-adv-x="905" 
d="M883 1024v-307h-236q-119 5 -169 -44q-49 -48 -54 -141v-532h-344v1024h344v-285h35q12 65 33 118q21 52 55 89q33 36 86 58q49 20 125 20h125z" />
    <glyph glyph-name="s" unicode="s" horiz-adv-x="1110" 
d="M549 819q-94 0 -128 -23q-36 -24 -36 -63q0 -35 30 -51t81 -27l276 -51q147 -28 219 -96t72 -195q0 -78 -26 -144t-85 -109t-155 -67t-238 -24q-130 0 -230 19q-95 18 -158 63q-62 45 -93 118t-35 181h330q5 -85 56 -114q54 -31 138 -31q106 0 141 26t35 72q0 39 -30 54
q-31 15 -84 26l-289 55q-130 24 -202 93t-72 204q0 70 23 126q24 60 80 102q56 43 148 67q95 25 230 25q118 0 215 -19q92 -18 154 -61t97 -113q33 -67 38 -172h-324q-4 76 -58 103q-52 26 -120 26z" />
    <glyph glyph-name="t" unicode="t" horiz-adv-x="845" 
d="M815 0h-246q-207 0 -300 99t-93 280v383h-164v262h164v389h344v-389h295v-262h-295v-363q0 -71 33 -97q34 -26 98 -26h164v-276z" />
    <glyph glyph-name="u" unicode="u" horiz-adv-x="1200" 
d="M416 379q0 -88 42 -118t124 -30q72 0 133 35q59 34 61 123v635h344v-1024h-344v211h-35q-28 -116 -112 -179t-207 -63q-80 0 -144 18q-65 18 -111 58q-47 41 -71 110t-24 173v696h344v-645z" />
    <glyph glyph-name="v" unicode="v" horiz-adv-x="1220" 
d="M492 0l-492 1024h401l224 -610l211 610h385l-467 -1024h-262z" />
    <glyph glyph-name="w" unicode="w" horiz-adv-x="1611" 
d="M391 0l-389 1024h356l177 -498l172 498h206l183 -494l159 494h355l-385 -1024h-215l-203 532l-201 -532h-215z" />
    <glyph glyph-name="x" unicode="x" horiz-adv-x="1159" 
d="M580 336l-187 -336h-393l352 520l-338 504h400l168 -317l166 317h397l-338 -504l352 -520h-395z" />
    <glyph glyph-name="y" unicode="y" horiz-adv-x="1234" 
d="M473 20l-473 1004h401l230 -627l207 627h397l-584 -1393h-362z" />
    <glyph glyph-name="z" unicode="z" horiz-adv-x="1046" 
d="M37 221l500 541h-471v262h909v-219l-500 -543h535v-262h-973v221z" />
    <glyph glyph-name="braceleft" unicode="{" horiz-adv-x="839" 
d="M641 -471q-210 0 -312 101q-104 102 -104 319v434q0 60 -13 93q-13 34 -33 52q-22 20 -42 27q-21 7 -41 12v211q20 5 41 12q23 8 42 25q19 18 33 53q13 33 13 93v389q0 417 416 417h141v-290h-57q-74 0 -121 -41t-47 -136v-339q0 -76 -15 -127q-15 -50 -41 -84
q-25 -32 -58 -51q-26 -15 -66 -27q33 -10 66 -29t58 -51q26 -34 41 -83t15 -126v-387q0 -93 47 -134q46 -40 121 -40h57v-293h-141z" />
    <glyph glyph-name="bar" unicode="|" horiz-adv-x="673" 
d="M510 -184h-346v1720h346v-1720z" />
    <glyph glyph-name="braceright" unicode="}" horiz-adv-x="839" 
d="M59 -178h58q75 0 121 40q47 41 47 134v387q0 74 15 125q14 49 40 84q24 33 57 51q35 19 66 29q-40 13 -66 27q-33 18 -57 51q-26 35 -40 84q-15 51 -15 127v339q0 95 -47 136t-121 41h-58v290h142q415 0 415 -417v-389q0 -57 14 -93q14 -35 33 -53q19 -17 42 -25
q24 -8 40 -12v-211q-16 -4 -40 -12q-20 -7 -42 -27q-20 -18 -33 -52q-14 -36 -14 -93v-434q0 -218 -104 -319t-311 -101h-142v293z" />
    <glyph glyph-name="asciitilde" unicode="~" horiz-adv-x="1146" 
d="M373 856q72 0 127 -25q52 -24 94 -55q50 -37 78 -55q39 -25 80 -25q28 0 46 26q16 23 21 97h242q-8 -222 -84 -310q-77 -89 -207 -89q-73 0 -121 26q-46 25 -88 59q-3 3 -74 58q-34 27 -77 27q-29 0 -50 -21q-20 -20 -26 -98h-250q8 214 84 299q77 86 205 86z" />
    <glyph glyph-name="uni00A0" unicode="&#xa0;" horiz-adv-x="464" 
 />
    <glyph glyph-name="exclamdown" unicode="&#xa1;" horiz-adv-x="634" 
d="M498 690h-361v334h361v-334zM131 -389v928h373v-928h-373z" />
    <glyph glyph-name="cent" unicode="&#xa2;" horiz-adv-x="1284" 
d="M535 -217v192q-112 11 -193 43q-80 32 -137 97q-55 62 -82 159q-27 96 -27 232q0 138 27 237t82 163q56 65 137 99q80 33 193 44v184h221v-182q202 -17 309 -115q109 -100 121 -322h-344q-11 103 -61 141t-128 38q-106 0 -159 -62q-54 -63 -54 -225q0 -153 53 -214
t160 -61q80 0 131 42q53 43 60 149h344q-12 -228 -121 -331q-107 -101 -311 -118v-190h-221z" />
    <glyph glyph-name="sterling" unicode="&#xa3;" 
d="M1341 502h-692v-199h692v-303h-1230v303h163v199h-163v207h163v260q0 102 29 191t90 151q62 63 158 98q97 35 233 35t238 -33q103 -33 169 -102q65 -68 96 -179q30 -108 18 -260h-365q11 141 -26 199q-36 57 -123 57q-79 0 -110 -43q-32 -44 -32 -122v-252h692v-207z" />
    <glyph glyph-name="currency" unicode="&#xa4;" horiz-adv-x="1419" 
d="M711 78q-134 0 -219 26l-127 -176l-234 176l139 162q-59 105 -59 277t55 278l-135 148l217 178l119 -158q101 37 244 37q139 0 243 -37l117 158l217 -178l-135 -150q55 -106 55 -276q0 -173 -61 -277l141 -162l-233 -176l-127 176q-85 -26 -217 -26zM711 766
q-107 0 -159 -45t-52 -174q0 -123 51 -166q50 -43 160 -43q106 0 158 43q53 44 53 166q0 128 -54 174q-52 45 -157 45z" />
    <glyph glyph-name="yen" unicode="&#xa5;" 
d="M1251 158h-325v-158h-379v158h-326v180h326v94h-326v180h242l-449 801h418l305 -616l299 616h410l-445 -801h250v-180h-325v-94h325v-180z" />
    <glyph glyph-name="brokenbar" unicode="&#xa6;" horiz-adv-x="673" 
d="M510 -184h-346v696h346v-696zM510 840h-346v696h346v-696z" />
    <glyph glyph-name="section" unicode="&#xa7;" horiz-adv-x="1179" 
d="M436 735q0 -60 34 -90q36 -31 122 -31t122 25q34 24 34 98q0 58 -34 86q-35 29 -122 29q-88 0 -122 -24t-34 -93zM94 705q0 98 54 146t174 69v20q-104 16 -154 80q-49 62 -49 154q0 149 126 209q128 61 351 61q245 0 355 -79q112 -80 102 -269h-322q4 65 -29 86
q-31 20 -110 20q-77 0 -106 -14q-31 -15 -31 -55q0 -19 10 -32t40 -25q21 -9 80 -21q55 -12 130 -23q119 -17 190 -37q76 -22 114 -50t54 -72q14 -39 14 -103q0 -103 -49 -158t-166 -73v-21q120 -23 175 -79t55 -175q0 -156 -118 -225q-120 -70 -392 -70q-149 0 -251 21
t-161 67q-59 45 -83 123q-23 74 -17 189h340q-8 -91 34 -116q43 -26 138 -26q84 0 125 19q39 18 39 63q0 25 -12 41q-13 17 -43 29q-32 12 -88 21q-111 18 -144 22q-113 16 -190 41q-74 24 -115 59q-40 34 -55 80q-15 45 -15 103z" />
    <glyph glyph-name="dieresis" unicode="&#xa8;" horiz-adv-x="911" 
d="M102 1171v240h265v-240h-265zM543 1171v240h266v-240h-266z" />
    <glyph glyph-name="copyright" unicode="&#xa9;" horiz-adv-x="1792" 
d="M895 1272q-136 0 -241 -18q-108 -19 -177 -76q-72 -60 -109 -172q-38 -114 -38 -301q0 -180 38 -292t109 -171q70 -59 177 -80q105 -21 241 -21q135 0 242 21t178 80t109 171t38 292q0 188 -38 300q-37 110 -110 171q-70 59 -178 77q-111 19 -241 19zM895 -98
q-207 0 -368 38q-157 37 -264 130q-106 93 -160 246q-54 154 -54 389q0 243 59 400q59 158 166 247q108 90 266 125q154 34 355 34t356 -34q159 -35 267 -125q107 -89 166 -247q59 -157 59 -400q0 -235 -54 -389t-161 -246q-108 -93 -265 -130q-161 -38 -368 -38zM1292 602
q-7 -80 -41 -138q-33 -56 -84 -91q-52 -35 -118 -50q-72 -16 -148 -16q-96 0 -176 20q-79 20 -132 64q-55 46 -83 120q-29 76 -29 185q0 113 29 191q28 76 83 123q54 46 132 66q80 20 176 20q75 0 145 -16q65 -15 117 -50t83 -90q32 -56 42 -137h-250q-6 61 -45 82
q-37 20 -92 20q-39 0 -73 -8q-30 -7 -54 -31q-23 -23 -35 -63q-12 -41 -12 -107q0 -61 12 -100q12 -38 35 -60q25 -23 54 -30q34 -8 73 -8q55 0 96 21t47 83h248z" />
    <glyph glyph-name="ordfeminine" unicode="&#xaa;" horiz-adv-x="942" 
d="M332 680q-130 0 -191 61t-61 160q0 90 63 147q62 56 226 56h247v41q0 60 -37 78t-100 18t-98 -18t-35 -78h-246q0 78 28 134q26 53 77 88q46 32 119 48q69 15 155 15q87 0 157 -15q75 -16 121 -48q52 -36 78 -88q27 -54 27 -134v-438h-246v143h-20q-22 -66 -82 -117
q-62 -53 -182 -53zM434 844q72 0 125 32t57 99v24h-172q-70 0 -89 -25t-19 -56q0 -74 98 -74z" />
    <glyph glyph-name="guillemotleft" unicode="&#xab;" horiz-adv-x="1019" 
d="M514 -2l-446 401v222l446 401v-334l-207 -180l207 -178v-332zM952 -2l-446 401v222l446 401v-334l-207 -180l207 -178v-332z" />
    <glyph glyph-name="logicalnot" unicode="&#xac;" horiz-adv-x="1146" 
d="M997 219h-272v305h-575v269h847v-574z" />
    <glyph glyph-name="uni00AD" unicode="&#xad;" horiz-adv-x="913" 
d="M844 377h-774v297h774v-297z" />
    <glyph glyph-name="registered" unicode="&#xae;" horiz-adv-x="1376" 
d="M688 586q-138 0 -243 24q-106 24 -175 86t-105 163q-36 102 -36 255q0 158 38 263q37 102 110 163q70 58 177 83q104 24 234 24q132 0 235 -24q106 -25 176 -83q73 -61 110 -163q38 -105 38 -263q0 -153 -36 -255q-36 -101 -105 -163q-70 -62 -174 -86q-105 -24 -244 -24
zM688 1485q-97 0 -160 -11q-68 -12 -117 -50t-74 -111q-26 -75 -26 -199q0 -117 26 -190q25 -71 74 -111q47 -38 117 -52q66 -13 160 -13q93 0 161 13q72 14 119 52q48 39 72 111q25 75 25 190q0 122 -26 197q-25 73 -73 112t-118 51q-63 11 -160 11zM457 1368h297
q99 0 136 -56q38 -58 38 -136q0 -59 -20 -107t-58 -74l90 -129h-164l-69 107h-105v-107h-145v502zM602 1237v-139h109q41 0 56 21t15 48q0 35 -16 52q-17 18 -74 18h-90z" />
    <glyph glyph-name="macron" unicode="&#xaf;" horiz-adv-x="927" 
d="M825 1188h-723v219h723v-219z" />
    <glyph glyph-name="degree" unicode="&#xb0;" horiz-adv-x="772" 
d="M387 981q62 0 92 27q31 28 31 102q0 84 -32 114q-30 29 -91 29q-64 0 -93 -29q-30 -30 -30 -114q0 -75 30 -102t93 -27zM387 801q-167 0 -249 84q-83 85 -83 225q0 149 83 237q82 87 249 87q165 0 247 -87q83 -88 83 -237q0 -140 -83 -225q-82 -84 -247 -84z" />
    <glyph glyph-name="plusminus" unicode="&#xb1;" horiz-adv-x="1146" 
d="M707 1190v-264h290v-258h-290v-262h-267v262h-290v258h290v264h267zM997 35h-847v258h847v-258z" />
    <glyph glyph-name="twosuperior" unicode="&#xb2;" horiz-adv-x="784" 
d="M377 1296q58 35 76 64q18 28 18 59t-18 50q-18 20 -62 20q-47 0 -65 -27q-19 -29 -15 -92h-239q-8 165 74 235t247 70q94 0 157 -18q60 -17 99 -50q36 -31 52 -76q16 -46 16 -95q0 -67 -40 -126q-41 -61 -145 -110l-83 -51v-8h270v-189h-653v158z" />
    <glyph glyph-name="threesuperior" unicode="&#xb3;" horiz-adv-x="784" 
d="M391 926q-173 0 -259 65q-86 66 -79 223h238q0 -52 21 -76t77 -24q59 0 82 21t23 57q0 35 -21 56q-22 22 -90 22h-84v106l104 94h-313v189h590v-137l-156 -129h6q91 0 148 -55q55 -54 55 -152q0 -63 -16 -110t-57 -82q-39 -33 -105 -51q-62 -17 -164 -17z" />
    <glyph glyph-name="acute" unicode="&#xb4;" horiz-adv-x="716" 
d="M102 1171l170 312h342l-313 -312h-199z" />
    <glyph glyph-name="mu" unicode="&#xb5;" horiz-adv-x="1263" 
d="M104 1024h345v-645q0 -89 41 -118q42 -30 124 -30q76 0 135 35q59 34 60 123v635h344v-1024h-344v211h-35q-28 -116 -112 -179t-207 -63h-6v-338h-345v1393z" />
    <glyph glyph-name="mu" unicode="&#x3bc;" horiz-adv-x="1263" 
d="M104 1024h345v-645q0 -89 41 -118q42 -30 124 -30q76 0 135 35q59 34 60 123v635h344v-1024h-344v211h-35q-28 -116 -112 -179t-207 -63h-6v-338h-345v1393z" />
    <glyph glyph-name="paragraph" unicode="&#xb6;" horiz-adv-x="1327" 
d="M1245 -184h-270v1376h-160v-1376h-270v784h-62q-218 0 -323 102t-105 297q0 225 112 320q110 94 361 94h717v-1597zM315 999q0 -108 47 -143t162 -35h21v371h-17q-57 0 -100 -8q-40 -7 -66 -30q-23 -20 -35 -58t-12 -97z" />
    <glyph glyph-name="periodcentered" unicode="&#xb7;" horiz-adv-x="503" 
d="M72 543v331h360v-331h-360z" />
    <glyph glyph-name="cedilla" unicode="&#xb8;" horiz-adv-x="673" 
d="M395 -76q90 -15 132 -62q44 -49 44 -124q0 -97 -66 -167q-66 -71 -206 -71q-54 0 -108 17q-52 16 -89 49v182q40 -40 79 -54q36 -13 71 -13q44 0 72 21t28 71q0 35 -29 64t-106 44v170h178v-127z" />
    <glyph glyph-name="onesuperior" unicode="&#xb9;" horiz-adv-x="552" 
d="M459 952h-256v377h-129v180h51q104 0 104 121v29h230v-707z" />
    <glyph glyph-name="ordmasculine" unicode="&#xba;" horiz-adv-x="942" 
d="M471 1241q-30 0 -57 -6q-26 -6 -48 -26q-22 -21 -34 -57q-13 -41 -13 -99q0 -57 13 -96q11 -33 34 -56q21 -21 48 -27t57 -6q31 0 58 6q28 6 49 27q20 20 32 56q13 39 13 96q0 58 -13 99q-12 39 -32 57q-21 20 -49 26q-27 6 -58 6zM471 680q-94 0 -164 19q-71 19 -122 64
q-48 42 -76 115q-27 70 -27 175q0 106 28 181q27 73 78 116q50 43 123 61q76 19 160 19t160 -19q73 -18 123 -61q51 -44 80 -116q28 -71 28 -181q0 -107 -26 -175q-28 -72 -78 -115q-53 -45 -123 -64t-164 -19z" />
    <glyph glyph-name="guillemotright" unicode="&#xbb;" horiz-adv-x="1019" 
d="M713 508l-207 180v334l446 -401v-222l-446 -401v332zM274 508l-206 180v334l446 -401v-222l-446 -401v332z" />
    <glyph glyph-name="onequarter" unicode="&#xbc;" horiz-adv-x="1605" 
d="M1194 1413h236l-1014 -1413h-240zM459 707h-256v376h-129v181h51q104 0 104 120v29h230v-706zM1268 80h-398v158l430 469h195v-471h66v-156h-66v-80h-227v80zM1268 236v182l-170 -182h170z" />
    <glyph glyph-name="onehalf" unicode="&#xbd;" horiz-adv-x="1708" 
d="M1194 1413h236l-1014 -1413h-240zM459 707h-256v376h-129v181h51q104 0 104 120v29h230v-706zM1300 344q58 35 76 64q19 30 19 59t-19 50q-18 20 -61 20q-48 0 -66 -27q-18 -28 -14 -92h-240q-7 164 75 234q83 71 247 71q94 0 157 -18q58 -17 99 -51q37 -31 52 -75
t15 -96q0 -68 -39 -126q-40 -60 -145 -109l-84 -51v-9h270v-188h-653v158z" />
    <glyph glyph-name="threequarters" unicode="&#xbe;" horiz-adv-x="1708" 
d="M1296 1413h236l-1014 -1413h-239zM391 680q-173 0 -259 65q-87 66 -79 224h238q0 -53 21 -77t77 -24q59 0 82 21t23 57q0 35 -21 56q-22 22 -90 22h-84v106l104 95h-313v188h590v-137l-156 -129h6q92 0 148 -54q55 -54 55 -153q0 -63 -16 -110q-16 -46 -57 -81
q-40 -34 -105 -52q-62 -17 -164 -17zM1370 80h-397v158l430 469h194v-471h66v-156h-66v-80h-227v80zM1370 236v182l-170 -182h170z" />
    <glyph glyph-name="questiondown" unicode="&#xbf;" horiz-adv-x="1267" 
d="M829 1024v-334h-360v334h360zM817 539v-111l-180 -119q-113 -73 -155 -130q-44 -59 -44 -128q0 -66 43 -109q44 -44 154 -44q119 0 167 58q48 59 38 204h379q12 -152 -23 -263t-111 -181t-191 -103t-263 -33q-157 0 -270 35t-181 94q-70 61 -101 137q-32 79 -32 166
q0 72 14 125q16 61 49 111q37 56 92 104q66 57 146 109l127 78h342z" />
    <glyph glyph-name="Agrave" unicode="&#xc0;" horiz-adv-x="1542" 
d="M606 1413h334l602 -1413h-422l-76 205h-555l-75 -205h-414zM584 453h370l-184 497zM350 1851h342l170 -311h-198z" />
    <glyph glyph-name="Aacute" unicode="&#xc1;" horiz-adv-x="1542" 
d="M606 1413h334l602 -1413h-422l-76 205h-555l-75 -205h-414zM584 453h370l-184 497zM676 1540l170 311h342l-314 -311h-198z" />
    <glyph glyph-name="Acircumflex" unicode="&#xc2;" horiz-adv-x="1542" 
d="M606 1413h334l602 -1413h-422l-76 205h-555l-75 -205h-414zM584 453h370l-184 497zM657 1526h-272l377 358l389 -358h-272l-115 133z" />
    <glyph glyph-name="Atilde" unicode="&#xc3;" horiz-adv-x="1542" 
d="M606 1413h334l602 -1413h-422l-76 205h-555l-75 -205h-414zM584 453h370l-184 497zM610 1855q56 0 95 -16q40 -16 74 -37q12 -7 32.5 -19.5t29.5 -17.5q26 -16 54 -16q31 0 47 20q17 21 12 74h201q6 -166 -53 -237q-60 -72 -160 -72q-55 0 -95 17q-44 19 -77 39
q-34 21 -63 39q-28 18 -58 18q-27 0 -45 -20t-14 -81h-201q-6 168 57 239q63 70 164 70z" />
    <glyph glyph-name="Adieresis" unicode="&#xc4;" horiz-adv-x="1542" 
d="M606 1413h334l602 -1413h-422l-76 205h-555l-75 -205h-414zM584 453h370l-184 497zM418 1540v240h264v-240h-264zM858 1540v240h266v-240h-266z" />
    <glyph glyph-name="Aring" unicode="&#xc5;" horiz-adv-x="1542" 
d="M606 1413h334l602 -1413h-422l-76 205h-555l-75 -205h-414zM584 453h370l-184 497zM770 1645q88 0 88 81q0 80 -88 80q-86 0 -86 -80q0 -81 86 -81zM770 1493q-133 0 -199 56q-67 57 -67 177q0 232 266 232q132 0 200 -56t68 -176q0 -121 -68 -177t-200 -56z" />
    <glyph glyph-name="AE" unicode="&#xc6;" horiz-adv-x="2152" 
d="M606 1413h1462v-303h-747v-250h741v-303h-741v-254h750v-303h-1131v297h-410l-116 -297h-414zM631 547h309v563h-84z" />
    <glyph glyph-name="Ccedilla" unicode="&#xc7;" horiz-adv-x="1589" 
d="M1528 575q-12 -155 -49 -264q-37 -110 -111 -184q-75 -75 -188 -112q-116 -38 -285 -44v-47q90 -15 132 -62q44 -49 44 -124q0 -97 -66 -167q-66 -71 -206 -71q-54 0 -108 17q-52 16 -89 49v182q40 -40 79 -54q36 -13 71 -13q43 0 71 21q29 21 29 71q0 34 -30 64
q-29 29 -105 44v90q-165 7 -287 48q-120 40 -200 126q-78 84 -116 223q-38 138 -38 337q0 224 46 366q47 145 137 226q93 84 229 115q140 32 323 32q178 0 310 -31q127 -30 212 -98t128 -177q44 -111 59 -268h-379q-7 79 -29 130q-23 53 -57 78q-39 28 -97 38
q-57 10 -147 10q-101 0 -166 -13q-67 -13 -109 -57q-43 -45 -61 -127q-18 -83 -18 -224q0 -135 18 -218q18 -80 61 -127q41 -44 109 -59q63 -14 166 -14q93 0 148 11q62 12 100 43t59 88q22 59 29 146h381z" />
    <glyph glyph-name="Egrave" unicode="&#xc8;" horiz-adv-x="1325" 
d="M1243 0h-1147v1413h1147v-303h-768v-250h760v-303h-760v-254h768v-303zM256 1851h342l170 -311h-199z" />
    <glyph glyph-name="Eacute" unicode="&#xc9;" horiz-adv-x="1325" 
d="M1243 0h-1147v1413h1147v-303h-768v-250h760v-303h-760v-254h768v-303zM580 1540l170 311h342l-314 -311h-198z" />
    <glyph glyph-name="Ecircumflex" unicode="&#xca;" horiz-adv-x="1325" 
d="M1243 0h-1147v1413h1147v-303h-768v-250h760v-303h-760v-254h768v-303zM563 1526h-272l377 358l389 -358h-273l-114 133z" />
    <glyph glyph-name="Edieresis" unicode="&#xcb;" horiz-adv-x="1325" 
d="M1243 0h-1147v1413h1147v-303h-768v-250h760v-303h-760v-254h768v-303zM324 1540v240h264v-240h-264zM764 1540v240h266v-240h-266z" />
    <glyph glyph-name="Igrave" unicode="&#xcc;" horiz-adv-x="575" 
d="M477 0h-379v1413h379v-1413zM-133 1851h342l170 -311h-199z" />
    <glyph glyph-name="Iacute" unicode="&#xcd;" horiz-adv-x="575" 
d="M477 0h-379v1413h379v-1413zM193 1540l169 311h343l-314 -311h-198z" />
    <glyph glyph-name="Icircumflex" unicode="&#xce;" horiz-adv-x="575" 
d="M477 0h-379v1413h379v-1413zM174 1526h-272l377 358l389 -358h-273l-114 133z" />
    <glyph glyph-name="Idieresis" unicode="&#xcf;" horiz-adv-x="575" 
d="M477 0h-379v1413h379v-1413zM-66 1540v240h265v-240h-265zM375 1540v240h266v-240h-266z" />
    <glyph glyph-name="Eth" unicode="&#xd0;" horiz-adv-x="1587" 
d="M20 858h142v555h633q173 0 313 -28q134 -27 225 -104q90 -76 135 -215q45 -138 45 -361q0 -207 -42 -344t-130 -216t-224 -112q-137 -33 -322 -33h-633v563h-142v295zM739 303q110 0 181 13q74 14 120 57q49 46 69 122q21 79 21 210q0 141 -21 223q-20 80 -70 122
q-47 39 -121 50q-70 10 -179 10h-198v-252h274v-295h-274v-260h198z" />
    <glyph glyph-name="Ntilde" unicode="&#xd1;" horiz-adv-x="1560" 
d="M387 1413l721 -848v848h358v-1413h-288l-725 831v-831h-357v1413h291zM618 1855q56 0 95 -16q40 -16 74 -37q12 -7 32.5 -19.5t29.5 -17.5q26 -16 54 -16q31 0 47 20q17 22 13 74h200q6 -166 -53 -237q-60 -72 -160 -72q-55 0 -95 17q-44 19 -77 39q-34 21 -63 39t-58 18
q-27 0 -45 -20t-14 -81h-201q-6 167 58 239q63 70 163 70z" />
    <glyph glyph-name="Ograve" unicode="&#xd2;" horiz-adv-x="1673" 
d="M836 -31q-194 0 -340 35q-143 34 -237 119q-93 84 -138 225t-45 357q0 222 48 366q48 143 143 226q96 84 238 115q145 32 331 32q185 0 331 -32q143 -31 239 -115q95 -83 143 -226q48 -144 48 -366q0 -216 -45 -357t-138 -225q-94 -85 -236 -119q-146 -35 -342 -35z
M836 287q113 0 182 14q76 15 118 59q44 46 62 127q19 87 19 218q0 134 -19 223q-18 85 -63 128t-118 57q-69 13 -181 13q-113 0 -182 -13q-73 -14 -116 -57q-45 -45 -63 -127q-18 -83 -18 -224q0 -135 18 -218q17 -80 63 -127q42 -44 116 -59q67 -14 182 -14zM416 1851h342
l170 -311h-199z" />
    <glyph glyph-name="Oacute" unicode="&#xd3;" horiz-adv-x="1673" 
d="M836 -31q-194 0 -340 35q-143 34 -237 119q-93 84 -138 225t-45 357q0 222 48 366q48 143 143 226q96 84 238 115q145 32 331 32q185 0 331 -32q143 -31 239 -115q95 -83 143 -226q48 -144 48 -366q0 -216 -45 -357t-138 -225q-94 -85 -236 -119q-146 -35 -342 -35z
M836 287q113 0 182 14q76 15 118 59q44 46 62 127q19 87 19 218q0 134 -19 223q-18 85 -63 128t-118 57q-69 13 -181 13q-113 0 -182 -13q-73 -14 -116 -57q-45 -45 -63 -127q-18 -83 -18 -224q0 -135 18 -218q17 -80 63 -127q42 -44 116 -59q67 -14 182 -14zM739 1540
l170 311h342l-313 -311h-199z" />
    <glyph glyph-name="Ocircumflex" unicode="&#xd4;" horiz-adv-x="1673" 
d="M836 -31q-194 0 -340 35q-143 34 -237 119q-93 84 -138 225t-45 357q0 222 48 366q48 143 143 226q96 84 238 115q145 32 331 32q185 0 331 -32q143 -31 239 -115q95 -83 143 -226q48 -144 48 -366q0 -216 -45 -357t-138 -225q-94 -85 -236 -119q-146 -35 -342 -35z
M836 287q113 0 182 14q76 15 118 59q44 46 62 127q19 87 19 218q0 134 -19 223q-18 85 -63 128t-118 57q-69 13 -181 13q-113 0 -182 -13q-73 -14 -116 -57q-45 -45 -63 -127q-18 -83 -18 -224q0 -135 18 -218q17 -80 63 -127q42 -44 116 -59q67 -14 182 -14zM723 1526h-272
l376 358l390 -358h-273l-115 133z" />
    <glyph glyph-name="Otilde" unicode="&#xd5;" horiz-adv-x="1673" 
d="M836 -31q-194 0 -340 35q-143 34 -237 119q-93 84 -138 225t-45 357q0 222 48 366q48 143 143 226q96 84 238 115q145 32 331 32q185 0 331 -32q143 -31 239 -115q95 -83 143 -226q48 -144 48 -366q0 -216 -45 -357t-138 -225q-94 -85 -236 -119q-146 -35 -342 -35z
M836 287q113 0 182 14q76 15 118 59q44 46 62 127q19 87 19 218q0 134 -19 223q-18 85 -63 128t-118 57q-69 13 -181 13q-113 0 -182 -13q-73 -14 -116 -57q-45 -45 -63 -127q-18 -83 -18 -224q0 -135 18 -218q17 -80 63 -127q42 -44 116 -59q67 -14 182 -14zM674 1855
q55 0 94 -16q43 -18 75 -37q11 -6 31 -18.5t30 -18.5q26 -16 54 -16q32 0 48 20q17 21 12 74h201q6 -165 -54 -237t-159 -72q-56 0 -96 17t-76 39q-62 38 -64 39q-28 18 -57 18q-27 0 -45 -20q-19 -21 -15 -81h-200q-6 168 57 239q63 70 164 70z" />
    <glyph glyph-name="Odieresis" unicode="&#xd6;" horiz-adv-x="1673" 
d="M836 -31q-194 0 -340 35q-143 34 -237 119q-93 84 -138 225t-45 357q0 222 48 366q48 143 143 226q96 84 238 115q145 32 331 32q185 0 331 -32q143 -31 239 -115q95 -83 143 -226q48 -144 48 -366q0 -216 -45 -357t-138 -225q-94 -85 -236 -119q-146 -35 -342 -35z
M836 287q113 0 182 14q76 15 118 59q44 46 62 127q19 87 19 218q0 134 -19 223q-18 85 -63 128t-118 57q-69 13 -181 13q-113 0 -182 -13q-73 -14 -116 -57q-45 -45 -63 -127q-18 -83 -18 -224q0 -135 18 -218q17 -80 63 -127q42 -44 116 -59q67 -14 182 -14zM483 1540v240
h265v-240h-265zM924 1540v240h266v-240h-266z" />
    <glyph glyph-name="multiply" unicode="&#xd7;" horiz-adv-x="1146" 
d="M356 1067l217 -217l220 219l190 -190l-219 -220l221 -219l-194 -194l-220 221l-219 -219l-190 190l219 219l-217 217z" />
    <glyph glyph-name="Oslash" unicode="&#xd8;" horiz-adv-x="1673" 
d="M344 61q-137 77 -203 229q-65 151 -65 415q0 222 48 366q48 143 143 226q96 84 238 115q145 32 331 32q54 0 103 -3q66 -4 97 -7l51 102h336l-94 -186q133 -76 201 -230q67 -152 67 -415q0 -216 -45 -357t-138 -225q-94 -85 -236 -119q-146 -35 -342 -35q-54 0 -101 3
q-34 2 -92 8l-76 -156h-342zM436 705q0 -121 14 -207q13 -81 48 -131l395 782q-20 2 -28 2h-29q-121 0 -192 -14q-77 -15 -123 -61q-45 -45 -65 -135q-20 -91 -20 -236zM836 262q109 0 192 16q77 15 124 62q46 46 66 134q19 85 19 231q0 243 -61 337l-390 -780h50z" />
    <glyph glyph-name="Ugrave" unicode="&#xd9;" horiz-adv-x="1492" 
d="M78 1413h381v-881q0 -146 71 -195q73 -50 215 -50q145 0 218 50q71 49 71 195v881h379v-895q0 -282 -165 -415q-166 -134 -503 -134t-502 132t-165 417v895zM326 1851h342l170 -311h-199z" />
    <glyph glyph-name="Uacute" unicode="&#xda;" horiz-adv-x="1492" 
d="M78 1413h381v-881q0 -146 71 -195q73 -50 215 -50q145 0 218 50q71 49 71 195v881h379v-895q0 -282 -165 -415q-166 -134 -503 -134t-502 132t-165 417v895zM649 1540l170 311h342l-313 -311h-199z" />
    <glyph glyph-name="Ucircumflex" unicode="&#xdb;" horiz-adv-x="1492" 
d="M78 1413h381v-881q0 -146 71 -195q73 -50 215 -50q145 0 218 50q71 49 71 195v881h379v-895q0 -282 -165 -415q-166 -134 -503 -134t-502 132t-165 417v895zM633 1526h-273l377 358l389 -358h-272l-115 133z" />
    <glyph glyph-name="Udieresis" unicode="&#xdc;" horiz-adv-x="1492" 
d="M78 1413h381v-881q0 -146 71 -195q73 -50 215 -50q145 0 218 50q71 49 71 195v881h379v-895q0 -282 -165 -415q-166 -134 -503 -134t-502 132t-165 417v895zM393 1540v240h264v-240h-264zM834 1540v240h266v-240h-266z" />
    <glyph glyph-name="Yacute" unicode="&#xdd;" horiz-adv-x="1581" 
d="M430 1413l367 -641l360 641h424l-594 -973v-440h-381v430l-606 983h430zM696 1540l170 311h342l-313 -311h-199z" />
    <glyph glyph-name="Thorn" unicode="&#xde;" horiz-adv-x="1441" 
d="M1384 729q0 -285 -121 -418t-372 -133h-416v-178h-379v1413h379v-170h412q129 0 225 -29q95 -29 155 -90q61 -63 89 -158q28 -96 28 -237zM475 940v-459h320q103 0 156 53t53 187q0 63 -11 107q-11 43 -35 67q-24 25 -65 35q-39 10 -102 10h-316z" />
    <glyph glyph-name="germandbls" unicode="&#xdf;" horiz-adv-x="1206" 
d="M80 915q0 151 36 253q36 103 104 163q69 62 167 87q101 26 221 26q134 0 230 -26q93 -25 152 -69q57 -42 85 -103q27 -58 27 -124q0 -123 -61 -187q-59 -62 -146 -91v-37q46 -7 96 -31q48 -23 84 -65q37 -43 61 -112q23 -66 23 -169q0 -221 -96 -326q-95 -104 -291 -104
h-231v262h104q33 0 60 10q30 11 50 37q22 28 35 70t13 108q0 120 -34 178t-112 58h-94v190h96q53 0 82 38t29 89q0 60 -33 101t-129 41q-82 0 -133 -45t-51 -172v-965h-344v915z" />
    <glyph glyph-name="agrave" unicode="&#xe0;" horiz-adv-x="1196" 
d="M401 -31q-163 0 -254 85q-92 86 -92 239q0 66 21 123q22 60 66 98q47 41 120 65q70 23 182 23q77 0 108 -1q46 -1 84 -3q29 -1 73 -5q46 -4 71 -5v78q0 70 -42 98q-43 29 -134 29q-83 0 -127 -26t-51 -97h-342q6 109 42 182q37 75 101 119q65 44 162 64q98 20 223 20
q244 0 378 -89t134 -296v-670h-344v195h-35q-33 -111 -121 -168q-90 -58 -223 -58zM571 213q83 0 144 36q60 35 65 122v53q-60 5 -106 6q-62 2 -88 2q-58 0 -91 -10q-34 -10 -53 -26q-18 -15 -23 -35q-5 -22 -5 -39q0 -60 40 -84q42 -25 117 -25zM225 1483h342l170 -312
h-198z" />
    <glyph glyph-name="aacute" unicode="&#xe1;" horiz-adv-x="1196" 
d="M401 -31q-163 0 -254 85q-92 86 -92 239q0 66 21 123q22 60 66 98q47 41 120 65q70 23 182 23q77 0 108 -1q46 -1 84 -3q29 -1 73 -5q46 -4 71 -5v78q0 70 -42 98q-43 29 -134 29q-83 0 -127 -26t-51 -97h-342q6 109 42 182q37 75 101 119q65 44 162 64q98 20 223 20
q244 0 378 -89t134 -296v-670h-344v195h-35q-33 -111 -121 -168q-90 -58 -223 -58zM571 213q83 0 144 36q60 35 65 122v53q-60 5 -106 6q-62 2 -88 2q-58 0 -91 -10q-34 -10 -53 -26q-18 -15 -23 -35q-5 -22 -5 -39q0 -60 40 -84q42 -25 117 -25zM498 1171l170 312h342
l-314 -312h-198z" />
    <glyph glyph-name="acircumflex" unicode="&#xe2;" horiz-adv-x="1196" 
d="M401 -31q-163 0 -254 85q-92 86 -92 239q0 66 21 123q22 60 66 98q47 41 120 65q70 23 182 23q77 0 108 -1q46 -1 84 -3q29 -1 73 -5q46 -4 71 -5v78q0 70 -42 98q-43 29 -134 29q-83 0 -127 -26t-51 -97h-342q6 109 42 182q37 75 101 119q65 44 162 64q98 20 223 20
q244 0 378 -89t134 -296v-670h-344v195h-35q-33 -111 -121 -168q-90 -58 -223 -58zM571 213q83 0 144 36q60 35 65 122v53q-60 5 -106 6q-62 2 -88 2q-58 0 -91 -10q-34 -10 -53 -26q-18 -15 -23 -35q-5 -22 -5 -39q0 -60 40 -84q42 -25 117 -25zM496 1157h-273l377 359
l389 -359h-272l-115 133z" />
    <glyph glyph-name="atilde" unicode="&#xe3;" horiz-adv-x="1196" 
d="M401 -31q-163 0 -254 85q-92 86 -92 239q0 66 21 123q22 60 66 98q47 41 120 65q70 23 182 23q77 0 108 -1q46 -1 84 -3q29 -1 73 -5q46 -4 71 -5v78q0 70 -42 98q-43 29 -134 29q-83 0 -127 -26t-51 -97h-342q6 109 42 182q37 75 101 119q65 44 162 64q98 20 223 20
q244 0 378 -89t134 -296v-670h-344v195h-35q-33 -111 -121 -168q-90 -58 -223 -58zM571 213q83 0 144 36q60 35 65 122v53q-60 5 -106 6q-62 2 -88 2q-58 0 -91 -10q-34 -10 -53 -26q-18 -15 -23 -35q-5 -22 -5 -39q0 -60 40 -84q42 -25 117 -25zM449 1487q52 0 94 -17
q45 -18 74 -36q12 -7 32.5 -19.5t29.5 -17.5q28 -17 54 -17q31 0 47 21q17 22 13 74h200q6 -167 -53 -238q-60 -72 -160 -72q-53 0 -95 18q-44 19 -77 39q-34 21 -63 39q-27 17 -58 17q-27 0 -45 -20t-14 -80h-201q-6 166 58 238q63 71 164 71z" />
    <glyph glyph-name="adieresis" unicode="&#xe4;" horiz-adv-x="1196" 
d="M401 -31q-163 0 -254 85q-92 86 -92 239q0 66 21 123q22 60 66 98q47 41 120 65q70 23 182 23q77 0 108 -1q46 -1 84 -3q29 -1 73 -5q46 -4 71 -5v78q0 70 -42 98q-43 29 -134 29q-83 0 -127 -26t-51 -97h-342q6 109 42 182q37 75 101 119q65 44 162 64q98 20 223 20
q244 0 378 -89t134 -296v-670h-344v195h-35q-33 -111 -121 -168q-90 -58 -223 -58zM571 213q83 0 144 36q60 35 65 122v53q-60 5 -106 6q-62 2 -88 2q-58 0 -91 -10q-34 -10 -53 -26q-18 -15 -23 -35q-5 -22 -5 -39q0 -60 40 -84q42 -25 117 -25zM256 1171v240h264v-240
h-264zM696 1171v240h267v-240h-267z" />
    <glyph glyph-name="aring" unicode="&#xe5;" horiz-adv-x="1196" 
d="M401 -31q-163 0 -254 85q-92 86 -92 239q0 66 21 123q22 60 66 98q47 41 120 65q70 23 182 23q77 0 108 -1q46 -1 84 -3q29 -1 73 -5q46 -4 71 -5v78q0 70 -42 98q-43 29 -134 29q-83 0 -127 -26t-51 -97h-342q6 109 42 182q37 75 101 119q65 44 162 64q98 20 223 20
q244 0 378 -89t134 -296v-670h-344v195h-35q-33 -111 -121 -168q-90 -58 -223 -58zM571 213q83 0 144 36q60 35 65 122v53q-60 5 -106 6q-62 2 -88 2q-58 0 -91 -10q-34 -10 -53 -26q-18 -15 -23 -35q-5 -22 -5 -39q0 -60 40 -84q42 -25 117 -25zM608 1276q88 0 88 82
q0 80 -88 80q-86 0 -86 -80q0 -82 86 -82zM608 1124q-130 0 -198 57t-68 177q0 231 266 231q132 0 200 -56q69 -57 69 -175q0 -120 -69 -177t-200 -57z" />
    <glyph glyph-name="ae" unicode="&#xe6;" horiz-adv-x="1931" 
d="M786 594v72q0 70 -43 98q-44 29 -139 29q-83 0 -127 -26t-51 -97h-342q6 107 41 182q35 74 98 119q61 44 156 64q94 20 213 20q131 0 229 -28q92 -26 158 -75q67 49 151 75q92 28 205 28q262 0 400 -106q137 -105 137 -359v-123h-742v-14q4 -127 58 -174q54 -48 149 -48
q80 0 131 30q53 31 60 108h344q-6 -112 -44 -190q-37 -76 -105 -124q-66 -47 -162 -66q-98 -20 -224 -20q-245 0 -385 117q-84 -66 -194 -91q-113 -26 -232 -26q-225 0 -348 81t-123 247q0 138 84 218q83 79 289 79h358zM582 229q85 0 145 45q59 44 59 156v37h-208
q-105 0 -140 -32t-35 -87q0 -63 48 -91t131 -28zM1333 793q-88 0 -142 -42q-53 -42 -58 -157h393q0 113 -52 156t-141 43z" />
    <glyph glyph-name="ccedilla" unicode="&#xe7;" horiz-adv-x="1208" 
d="M1155 422q-6 -117 -38 -201q-32 -83 -88 -135q-60 -56 -138 -81q-86 -28 -189 -34v-47q91 -15 133 -62q44 -49 44 -124q0 -95 -67 -167q-66 -71 -206 -71q-53 0 -107 17q-52 16 -89 49v182q40 -40 78 -54q36 -13 71 -13q43 0 72 21q28 21 28 71q0 35 -29 64t-106 44v92
q-115 7 -202 41q-88 34 -144 96q-58 65 -86 159q-29 99 -29 237q0 156 35 263q35 106 104 169t173 90q105 27 246 27q120 0 221 -22q97 -21 163 -72t104 -137q38 -87 44 -210h-344q-11 104 -60 141q-50 38 -128 38q-108 0 -161 -62q-52 -61 -52 -225q0 -154 51 -214
q52 -61 162 -61q80 0 131 42t59 149h344z" />
    <glyph glyph-name="egrave" unicode="&#xe8;" horiz-adv-x="1214" 
d="M1155 467h-747v-4q2 -131 56 -181q56 -51 157 -51q80 0 131 30q52 30 59 108h344q-6 -112 -44 -190q-38 -77 -104 -124q-66 -46 -163 -66q-98 -20 -223 -20q-141 0 -246 27t-173 89q-70 64 -104 165q-35 103 -35 256q0 156 35 263q35 106 104 169t173 90q105 27 243 27
q262 0 400 -106q137 -105 137 -359v-123zM408 573h401q0 125 -50 172q-51 48 -143 48t-148 -43q-55 -42 -60 -160v-17zM227 1483h342l170 -312h-198z" />
    <glyph glyph-name="eacute" unicode="&#xe9;" horiz-adv-x="1214" 
d="M1155 467h-747v-4q2 -131 56 -181q56 -51 157 -51q80 0 131 30q52 30 59 108h344q-6 -112 -44 -190q-38 -77 -104 -124q-66 -46 -163 -66q-98 -20 -223 -20q-141 0 -246 27t-173 89q-70 64 -104 165q-35 103 -35 256q0 156 35 263q35 106 104 169t173 90q105 27 243 27
q262 0 400 -106q137 -105 137 -359v-123zM408 573h401q0 125 -50 172q-51 48 -143 48t-148 -43q-55 -42 -60 -160v-17zM500 1171l170 312h342l-314 -312h-198z" />
    <glyph glyph-name="ecircumflex" unicode="&#xea;" horiz-adv-x="1214" 
d="M1155 467h-747v-4q2 -131 56 -181q56 -51 157 -51q80 0 131 30q52 30 59 108h344q-6 -112 -44 -190q-38 -77 -104 -124q-66 -46 -163 -66q-98 -20 -223 -20q-141 0 -246 27t-173 89q-70 64 -104 165q-35 103 -35 256q0 156 35 263q35 106 104 169t173 90q105 27 243 27
q262 0 400 -106q137 -105 137 -359v-123zM408 573h401q0 125 -50 172q-51 48 -143 48t-148 -43q-55 -42 -60 -160v-17zM498 1157h-273l377 359l389 -359h-272l-115 133z" />
    <glyph glyph-name="edieresis" unicode="&#xeb;" horiz-adv-x="1214" 
d="M1155 467h-747v-4q2 -131 56 -181q56 -51 157 -51q80 0 131 30q52 30 59 108h344q-6 -112 -44 -190q-38 -77 -104 -124q-66 -46 -163 -66q-98 -20 -223 -20q-141 0 -246 27t-173 89q-70 64 -104 165q-35 103 -35 256q0 156 35 263q35 106 104 169t173 90q105 27 243 27
q262 0 400 -106q137 -105 137 -359v-123zM408 573h401q0 125 -50 172q-51 48 -143 48t-148 -43q-55 -42 -60 -160v-17zM258 1171v240h264v-240h-264zM698 1171v240h267v-240h-267z" />
    <glyph glyph-name="igrave" unicode="&#xec;" horiz-adv-x="522" 
d="M432 1024v-1024h-344v1024h344zM-125 1483h342l170 -312h-199z" />
    <glyph glyph-name="iacute" unicode="&#xed;" horiz-adv-x="522" 
d="M432 1024v-1024h-344v1024h344zM147 1171l170 312h342l-313 -312h-199z" />
    <glyph glyph-name="icircumflex" unicode="&#xee;" horiz-adv-x="522" 
d="M432 1024v-1024h-344v1024h344zM147 1157h-272l377 359l389 -359h-272l-115 133z" />
    <glyph glyph-name="idieresis" unicode="&#xef;" horiz-adv-x="522" 
d="M432 1024v-1024h-344v1024h344zM-92 1171v240h264v-240h-264zM348 1171v240h266v-240h-266z" />
    <glyph glyph-name="eth" unicode="&#xf0;" horiz-adv-x="1245" 
d="M530 1556l-30 -112l192 -47q169 -40 267 -122q99 -82 148 -189q50 -108 63 -238q14 -135 14 -275q0 -168 -35 -285q-35 -115 -106 -187q-71 -71 -176 -101q-109 -31 -248 -31t-245 26q-103 25 -173 86q-69 60 -104 160q-34 98 -34 246q0 131 33 220q33 88 88 142
q56 54 130 78q72 23 157 23q128 0 210 -47q80 -46 122 -117h31q-1 57 -16 114q-13 52 -46 95q-32 42 -90 77q-56 34 -147 58l-111 29l-31 -117l-151 37l30 119l-137 35l76 285l137 -35l29 110zM619 231q111 0 166 58t55 205q0 137 -58 190t-161 53q-110 0 -163 -53
q-52 -52 -52 -190q0 -149 52 -205q53 -58 161 -58z" />
    <glyph glyph-name="ntilde" unicode="&#xf1;" horiz-adv-x="1200" 
d="M784 645q0 88 -45 118t-133 30q-82 0 -130 -36q-47 -36 -52 -110v-647h-344v1024h344v-211h35q27 116 106 179t203 63q82 0 148 -18q69 -19 114 -58q48 -42 73 -110t25 -173v-696h-344v645zM438 1487q52 0 94 -17q48 -20 75 -36q12 -7 32.5 -19.5t29.5 -17.5
q28 -17 54 -17q31 0 47 21q17 21 12 74h201q6 -167 -53 -238q-60 -72 -160 -72q-53 0 -95 18q-44 19 -77 39q-34 21 -63 39q-27 17 -58 17q-27 0 -45 -20t-14 -80h-201q-6 168 57 238q63 71 164 71z" />
    <glyph glyph-name="ograve" unicode="&#xf2;" horiz-adv-x="1247" 
d="M623 231q110 0 163 61q54 62 54 214q0 160 -55 224q-54 63 -162 63q-110 0 -163 -62q-52 -61 -52 -225q0 -155 52 -214q53 -61 163 -61zM623 1055q141 0 246 -27q106 -27 175 -90q71 -65 105 -169q35 -107 35 -263q0 -153 -35 -256q-34 -100 -105 -165q-67 -61 -175 -89
q-105 -27 -246 -27t-246 27q-107 27 -174 89q-71 65 -105 165q-35 103 -35 256q0 156 35 263q34 104 105 169q69 63 174 90t246 27zM240 1483h342l170 -312h-199z" />
    <glyph glyph-name="oacute" unicode="&#xf3;" horiz-adv-x="1247" 
d="M623 231q110 0 163 61q54 62 54 214q0 160 -55 224q-54 63 -162 63q-110 0 -163 -62q-52 -61 -52 -225q0 -155 52 -214q53 -61 163 -61zM623 1055q141 0 246 -27q106 -27 175 -90q71 -65 105 -169q35 -107 35 -263q0 -153 -35 -256q-34 -100 -105 -165q-67 -61 -175 -89
q-105 -27 -246 -27t-246 27q-107 27 -174 89q-71 65 -105 165q-35 103 -35 256q0 156 35 263q34 104 105 169q69 63 174 90t246 27zM512 1171l170 312h342l-313 -312h-199z" />
    <glyph glyph-name="ocircumflex" unicode="&#xf4;" horiz-adv-x="1247" 
d="M623 231q110 0 163 61q54 62 54 214q0 160 -55 224q-54 63 -162 63q-110 0 -163 -62q-52 -61 -52 -225q0 -155 52 -214q53 -61 163 -61zM623 1055q141 0 246 -27q106 -27 175 -90q71 -65 105 -169q35 -107 35 -263q0 -153 -35 -256q-34 -100 -105 -165q-67 -61 -175 -89
q-105 -27 -246 -27t-246 27q-107 27 -174 89q-71 65 -105 165q-35 103 -35 256q0 156 35 263q34 104 105 169q69 63 174 90t246 27zM510 1157h-272l376 359l390 -359h-273l-115 133z" />
    <glyph glyph-name="otilde" unicode="&#xf5;" horiz-adv-x="1247" 
d="M623 231q110 0 163 61q54 62 54 214q0 160 -55 224q-54 63 -162 63q-110 0 -163 -62q-52 -61 -52 -225q0 -155 52 -214q53 -61 163 -61zM623 1055q141 0 246 -27q106 -27 175 -90q71 -65 105 -169q35 -107 35 -263q0 -153 -35 -256q-34 -100 -105 -165q-67 -61 -175 -89
q-105 -27 -246 -27t-246 27q-107 27 -174 89q-71 65 -105 165q-35 103 -35 256q0 156 35 263q34 104 105 169q69 63 174 90t246 27zM463 1487q52 0 94 -17q48 -20 75 -36q11 -6 31 -18.5t30 -18.5q28 -17 55 -17q30 0 47 21t12 74h201q6 -166 -54 -238t-159 -72
q-54 0 -96 18q-40 17 -76 39q-62 38 -64 39q-27 17 -57 17q-27 0 -45 -20q-19 -21 -15 -80h-200q-6 168 57 238q63 71 164 71z" />
    <glyph glyph-name="odieresis" unicode="&#xf6;" horiz-adv-x="1247" 
d="M623 231q110 0 163 61q54 62 54 214q0 160 -55 224q-54 63 -162 63q-110 0 -163 -62q-52 -61 -52 -225q0 -155 52 -214q53 -61 163 -61zM623 1055q141 0 246 -27q106 -27 175 -90q71 -65 105 -169q35 -107 35 -263q0 -153 -35 -256q-34 -100 -105 -165q-67 -61 -175 -89
q-105 -27 -246 -27t-246 27q-107 27 -174 89q-71 65 -105 165q-35 103 -35 256q0 156 35 263q34 104 105 169q69 63 174 90t246 27zM270 1171v240h265v-240h-265zM711 1171v240h266v-240h-266z" />
    <glyph glyph-name="divide" unicode="&#xf7;" horiz-adv-x="1146" 
d="M420 135v273h307v-273h-307zM420 909v273h307v-273h-307zM997 524h-847v269h847v-269z" />
    <glyph glyph-name="oslash" unicode="&#xf8;" horiz-adv-x="1247" 
d="M623 1055q104 0 182 -15l72 144h159l-92 -183q120 -52 180 -171t60 -324q0 -153 -35 -256q-34 -100 -105 -165q-67 -61 -175 -89q-105 -27 -246 -27q-107 0 -185 15l-82 -168h-161l102 207q-116 52 -175 168t-59 315q0 156 35 263q34 104 105 169q69 63 174 90t246 27z
M623 231q116 0 172 61q55 59 55 214q0 141 -47 211l-238 -481q13 -5 27 -5h31zM397 506q0 -137 41 -199l240 481q-4 0 -12.5 1.5t-13.5 2.5q-9 1 -29 1q-114 0 -170 -62t-56 -225z" />
    <glyph glyph-name="ugrave" unicode="&#xf9;" horiz-adv-x="1200" 
d="M416 379q0 -88 42 -118t124 -30q72 0 133 35q59 34 61 123v635h344v-1024h-344v211h-35q-28 -116 -112 -179t-207 -63q-80 0 -144 18q-65 18 -111 58q-47 41 -71 110t-24 173v696h344v-645zM215 1483h342l170 -312h-199z" />
    <glyph glyph-name="uacute" unicode="&#xfa;" horiz-adv-x="1200" 
d="M416 379q0 -88 42 -118t124 -30q72 0 133 35q59 34 61 123v635h344v-1024h-344v211h-35q-28 -116 -112 -179t-207 -63q-80 0 -144 18q-65 18 -111 58q-47 41 -71 110t-24 173v696h344v-645zM487 1171l170 312h342l-313 -312h-199z" />
    <glyph glyph-name="ucircumflex" unicode="&#xfb;" horiz-adv-x="1200" 
d="M416 379q0 -88 42 -118t124 -30q72 0 133 35q59 34 61 123v635h344v-1024h-344v211h-35q-28 -116 -112 -179t-207 -63q-80 0 -144 18q-65 18 -111 58q-47 41 -71 110t-24 173v696h344v-645zM487 1157h-272l377 359l389 -359h-272l-115 133z" />
    <glyph glyph-name="udieresis" unicode="&#xfc;" horiz-adv-x="1200" 
d="M416 379q0 -88 42 -118t124 -30q72 0 133 35q59 34 61 123v635h344v-1024h-344v211h-35q-28 -116 -112 -179t-207 -63q-80 0 -144 18q-65 18 -111 58q-47 41 -71 110t-24 173v696h344v-645zM248 1171v240h264v-240h-264zM688 1171v240h266v-240h-266z" />
    <glyph glyph-name="yacute" unicode="&#xfd;" horiz-adv-x="1234" 
d="M473 20l-473 1004h401l230 -627l207 627h397l-584 -1393h-362zM504 1171l170 312h342l-314 -312h-198z" />
    <glyph glyph-name="thorn" unicode="&#xfe;" horiz-adv-x="1257" 
d="M788 -31q-136 0 -218 63q-83 63 -111 179h-35v-580h-344v1782h344v-600h35q29 115 111 178q84 64 218 64q99 0 177 -26q75 -25 127 -89q50 -62 76 -169t26 -263q0 -155 -26 -261q-26 -104 -76 -165q-51 -62 -127 -87q-78 -26 -177 -26zM629 793q-88 0 -144 -40
q-57 -40 -61 -145v-182q0 -109 59 -152t146 -43q61 0 104 12q44 12 70 41t38 84q11 50 11 140q0 88 -12 143t-38 87q-25 31 -69 43q-43 12 -104 12z" />
    <glyph glyph-name="ydieresis" unicode="&#xff;" horiz-adv-x="1234" 
d="M473 20l-473 1004h401l230 -627l207 627h397l-584 -1393h-362zM264 1171v240h264v-240h-264zM705 1171v240h266v-240h-266z" />
    <glyph glyph-name="Amacron" unicode="&#x100;" horiz-adv-x="1542" 
d="M606 1413h334l602 -1413h-422l-76 205h-555l-75 -205h-414zM584 453h370l-184 497zM1133 1556h-723v220h723v-220z" />
    <glyph glyph-name="amacron" unicode="&#x101;" horiz-adv-x="1196" 
d="M401 -31q-163 0 -254 85q-92 86 -92 239q0 66 21 123q22 60 66 98q47 41 120 65q70 23 182 23q77 0 108 -1q46 -1 84 -3q29 -1 73 -5q46 -4 71 -5v78q0 70 -42 98q-43 29 -134 29q-83 0 -127 -26t-51 -97h-342q6 109 42 182q37 75 101 119q65 44 162 64q98 20 223 20
q244 0 378 -89t134 -296v-670h-344v195h-35q-33 -111 -121 -168q-90 -58 -223 -58zM571 213q83 0 144 36q60 35 65 122v53q-60 5 -106 6q-62 2 -88 2q-58 0 -91 -10q-34 -10 -53 -26q-18 -15 -23 -35q-5 -22 -5 -39q0 -60 40 -84q42 -25 117 -25zM971 1188h-723v219h723
v-219z" />
    <glyph glyph-name="Abreve" unicode="&#x102;" horiz-adv-x="1542" 
d="M606 1413h334l602 -1413h-422l-76 205h-555l-75 -205h-414zM584 453h370l-184 497zM772 1526q-180 0 -263 77t-83 236h207q0 -72 33 -102q34 -31 106 -31q73 0 106 31q31 30 31 102h207q0 -159 -83 -236t-261 -77z" />
    <glyph glyph-name="abreve" unicode="&#x103;" horiz-adv-x="1196" 
d="M401 -31q-163 0 -254 85q-92 86 -92 239q0 66 21 123q22 60 66 98q47 41 120 65q70 23 182 23q77 0 108 -1q46 -1 84 -3q29 -1 73 -5q46 -4 71 -5v78q0 70 -42 98q-43 29 -134 29q-83 0 -127 -26t-51 -97h-342q6 109 42 182q37 75 101 119q65 44 162 64q98 20 223 20
q244 0 378 -89t134 -296v-670h-344v195h-35q-33 -111 -121 -168q-90 -58 -223 -58zM571 213q83 0 144 36q60 35 65 122v53q-60 5 -106 6q-62 2 -88 2q-58 0 -91 -10q-34 -10 -53 -26q-18 -15 -23 -35q-5 -22 -5 -39q0 -60 40 -84q42 -25 117 -25zM610 1157q-180 0 -263 77
t-83 236h207q0 -72 33 -102q34 -31 106 -31q73 0 106 31q32 30 32 102h206q0 -159 -83 -236t-261 -77z" />
    <glyph glyph-name="Aogonek" unicode="&#x104;" horiz-adv-x="1542" 
d="M1325 0h-205l-76 205h-555l-75 -205h-414l606 1413h334l602 -1413q-77 -27 -119 -56q-41 -28 -64 -58q-22 -28 -26 -50q-4 -20 -4 -37q0 -46 28 -69t73 -23q26 0 58 12q30 11 66 54v-179q-33 -36 -87 -53q-51 -16 -99 -16q-68 0 -114 21q-45 20 -73 56q-30 38 -40 73
q-13 44 -13 75q0 98 52 159t145 89v2zM584 453h370l-184 497z" />
    <glyph glyph-name="aogonek" unicode="&#x105;" horiz-adv-x="1196" 
d="M907 0h-127v195h-35q-33 -111 -121 -168q-90 -58 -223 -58q-163 0 -254 85q-92 86 -92 239q0 66 21 123q22 60 66 98q47 41 120 65q70 23 182 23q77 0 108 -1q46 -1 84 -3q29 -1 73 -5q46 -4 71 -5v78q0 70 -42 98q-43 29 -134 29q-83 0 -127 -26t-51 -97h-342
q6 109 42 182q37 75 101 119q65 44 162 64q98 20 223 20q244 0 378 -89t134 -296v-670q-75 -27 -118 -56q-43 -30 -65 -58t-26 -50q-4 -20 -4 -37q0 -46 28 -69t73 -23q26 0 58 12q31 12 67 54v-179q-33 -36 -87 -53q-51 -16 -100 -16q-66 0 -113 21t-74 56q-30 38 -40 73
q-12 41 -12 75q0 99 51 159q52 61 145 89v2zM571 213q83 0 144 36q60 35 65 122v53q-60 5 -106 6q-62 2 -88 2q-58 0 -91 -10q-34 -10 -53 -26q-18 -15 -23 -35q-5 -22 -5 -39q0 -60 40 -84q42 -25 117 -25z" />
    <glyph glyph-name="Cacute" unicode="&#x106;" horiz-adv-x="1589" 
d="M1528 575q-12 -160 -53 -277q-40 -115 -124 -188q-83 -72 -214 -107q-129 -34 -326 -34q-189 0 -329 35q-137 34 -229 119q-90 83 -134 225q-43 139 -43 357q0 224 46 366q47 145 137 226q93 84 229 115q140 32 323 32q178 0 310 -31q127 -30 212 -98t128 -177
q44 -111 59 -268h-379q-7 79 -29 130q-23 53 -57 78q-39 28 -97 38q-57 10 -147 10q-101 0 -166 -13q-67 -13 -109 -57q-43 -45 -61 -127q-18 -83 -18 -224q0 -135 18 -218q18 -80 61 -127q41 -44 109 -59q63 -14 166 -14q93 0 148 11q62 12 100 43t59 88q22 59 29 146h381z
M707 1540l170 311h342l-314 -311h-198z" />
    <glyph glyph-name="cacute" unicode="&#x107;" horiz-adv-x="1208" 
d="M1155 422q-6 -128 -44 -216q-37 -86 -104 -139q-66 -52 -163 -75q-98 -23 -223 -23q-141 0 -246 27t-173 89q-70 64 -104 165q-35 103 -35 256q0 156 35 263q35 106 104 169t173 90q105 27 246 27q120 0 221 -22q97 -21 163 -72t104 -137q38 -87 44 -210h-344
q-11 104 -60 141q-50 38 -128 38q-108 0 -161 -62q-52 -61 -52 -225q0 -154 51 -214q52 -61 162 -61q80 0 131 42t59 149h344zM500 1171l170 312h342l-314 -312h-198z" />
    <glyph glyph-name="Cdotaccent" unicode="&#x10a;" horiz-adv-x="1589" 
d="M1528 575q-12 -160 -53 -277q-40 -115 -124 -188q-83 -72 -214 -107q-129 -34 -326 -34q-189 0 -329 35q-137 34 -229 119q-90 83 -134 225q-43 139 -43 357q0 224 46 366q47 145 137 226q93 84 229 115q140 32 323 32q178 0 310 -31q127 -30 212 -98t128 -177
q44 -111 59 -268h-379q-7 79 -29 130q-23 53 -57 78q-39 28 -97 38q-57 10 -147 10q-101 0 -166 -13q-67 -13 -109 -57q-43 -45 -61 -127q-18 -83 -18 -224q0 -135 18 -218q18 -80 61 -127q41 -44 109 -59q63 -14 166 -14q93 0 148 11q62 12 100 43t59 88q22 59 29 146h381z
M623 1526v254h360v-254h-360z" />
    <glyph glyph-name="cdotaccent" unicode="&#x10b;" horiz-adv-x="1208" 
d="M1155 422q-6 -128 -44 -216q-37 -86 -104 -139q-66 -52 -163 -75q-98 -23 -223 -23q-141 0 -246 27t-173 89q-70 64 -104 165q-35 103 -35 256q0 156 35 263q35 106 104 169t173 90q105 27 246 27q120 0 221 -22q97 -21 163 -72t104 -137q38 -87 44 -210h-344
q-11 104 -60 141q-50 38 -128 38q-108 0 -161 -62q-52 -61 -52 -225q0 -154 51 -214q52 -61 162 -61q80 0 131 42t59 149h344zM432 1157v254h361v-254h-361z" />
    <glyph glyph-name="Ccaron" unicode="&#x10c;" horiz-adv-x="1589" 
d="M1528 575q-12 -160 -53 -277q-40 -115 -124 -188q-83 -72 -214 -107q-129 -34 -326 -34q-189 0 -329 35q-137 34 -229 119q-90 83 -134 225q-43 139 -43 357q0 224 46 366q47 145 137 226q93 84 229 115q140 32 323 32q178 0 310 -31q127 -30 212 -98t128 -177
q44 -111 59 -268h-379q-7 79 -29 130q-23 53 -57 78q-39 28 -97 38q-57 10 -147 10q-101 0 -166 -13q-67 -13 -109 -57q-43 -45 -61 -127q-18 -83 -18 -224q0 -135 18 -218q18 -80 61 -127q41 -44 109 -59q63 -14 166 -14q93 0 148 11q62 12 100 43t59 88q22 59 29 146h381z
M418 1858h276l103 -125l114 125h277l-393 -345z" />
    <glyph glyph-name="ccaron" unicode="&#x10d;" horiz-adv-x="1208" 
d="M1155 422q-6 -128 -44 -216q-37 -86 -104 -139q-66 -52 -163 -75q-98 -23 -223 -23q-141 0 -246 27t-173 89q-70 64 -104 165q-35 103 -35 256q0 156 35 263q35 106 104 169t173 90q105 27 246 27q120 0 221 -22q97 -21 163 -72t104 -137q38 -87 44 -210h-344
q-11 104 -60 141q-50 38 -128 38q-108 0 -161 -62q-52 -61 -52 -225q0 -154 51 -214q52 -61 162 -61q80 0 131 42t59 149h344zM227 1489h277l102 -125l115 125h276l-393 -344z" />
    <glyph glyph-name="Dcaron" unicode="&#x10e;" horiz-adv-x="1521" 
d="M96 1413h631q173 0 313 -28q136 -27 226 -104q90 -76 135 -215q45 -138 45 -361q0 -207 -42 -344t-130 -216t-223 -112t-324 -33h-631v1413zM674 303q107 0 179 13q76 14 122 57q48 44 68 122q22 83 22 210q0 137 -22 223q-21 81 -69 122q-46 39 -122 50q-70 10 -178 10
h-199v-807h199zM377 1858h276l103 -125l114 125h277l-393 -345z" />
    <glyph glyph-name="dcaron" unicode="&#x10f;" horiz-adv-x="1370" 
d="M469 -31q-98 0 -176 26q-76 25 -127 87q-52 62 -77 165q-26 106 -26 261q0 156 26 263q26 106 77 169q52 64 127 89q78 26 176 26q134 0 218 -64q83 -64 112 -178h35v600h344v-1413h-344v211h-35q-28 -115 -112 -179q-83 -63 -218 -63zM629 231q86 0 145 43q60 44 60 152
v172q0 108 -60 152q-59 43 -145 43q-61 0 -105 -12q-43 -12 -68 -43q-26 -32 -38 -87t-12 -143q0 -90 11 -140q12 -55 38 -84t69 -41q44 -12 105 -12zM1266 1483h276l-135 -365h-141v365z" />
    <glyph glyph-name="Dcroat" unicode="&#x110;" horiz-adv-x="1587" 
d="M20 858h142v555h633q173 0 313 -28q134 -27 225 -104q90 -76 135 -215q45 -138 45 -361q0 -207 -42 -344t-130 -216t-224 -112q-137 -33 -322 -33h-633v563h-142v295zM739 303q110 0 181 13q74 14 120 57q49 46 69 122q21 79 21 210q0 141 -21 223q-20 80 -70 122
q-47 39 -121 50q-70 10 -179 10h-198v-252h274v-295h-274v-260h198z" />
    <glyph glyph-name="dcroat" unicode="&#x111;" horiz-adv-x="1257" 
d="M1178 1413v-102h133v-158h-133v-1153h-344v211h-35q-28 -115 -112 -179q-83 -63 -218 -63q-98 0 -176 26q-76 25 -127 87q-52 62 -77 165q-26 106 -26 261q0 156 26 263q26 106 77 169q52 64 127 89q78 26 176 26q134 0 218 -64q83 -64 112 -178h35v340h-342v158h342v102
h344zM629 231q86 0 145 43q60 44 60 152v172q0 108 -60 152q-59 43 -145 43q-61 0 -105 -12q-43 -12 -68 -43q-26 -32 -38 -87t-12 -143q0 -90 11 -140q12 -55 38 -84t69 -41q44 -12 105 -12z" />
    <glyph glyph-name="Emacron" unicode="&#x112;" horiz-adv-x="1325" 
d="M1243 0h-1147v1413h1147v-303h-768v-250h760v-303h-760v-254h768v-303zM1038 1556h-723v220h723v-220z" />
    <glyph glyph-name="emacron" unicode="&#x113;" horiz-adv-x="1214" 
d="M1155 467h-747v-4q2 -131 56 -181q56 -51 157 -51q80 0 131 30q52 30 59 108h344q-6 -112 -44 -190q-38 -77 -104 -124q-66 -46 -163 -66q-98 -20 -223 -20q-141 0 -246 27t-173 89q-70 64 -104 165q-35 103 -35 256q0 156 35 263q35 106 104 169t173 90q105 27 243 27
q262 0 400 -106q137 -105 137 -359v-123zM408 573h401q0 125 -50 172q-51 48 -143 48t-148 -43q-55 -42 -60 -160v-17zM973 1188h-723v219h723v-219z" />
    <glyph glyph-name="Edotaccent" unicode="&#x116;" horiz-adv-x="1325" 
d="M1243 0h-1147v1413h1147v-303h-768v-250h760v-303h-760v-254h768v-303zM496 1526v254h360v-254h-360z" />
    <glyph glyph-name="edotaccent" unicode="&#x117;" horiz-adv-x="1214" 
d="M1155 467h-747v-4q2 -131 56 -181q56 -51 157 -51q80 0 131 30q52 30 59 108h344q-6 -112 -44 -190q-38 -77 -104 -124q-66 -46 -163 -66q-98 -20 -223 -20q-141 0 -246 27t-173 89q-70 64 -104 165q-35 103 -35 256q0 156 35 263q35 106 104 169t173 90q105 27 243 27
q262 0 400 -106q137 -105 137 -359v-123zM408 573h401q0 125 -50 172q-51 48 -143 48t-148 -43q-55 -42 -60 -160v-17zM432 1157v254h361v-254h-361z" />
    <glyph glyph-name="Eogonek" unicode="&#x118;" horiz-adv-x="1325" 
d="M1026 0h-930v1413h1147v-303h-768v-250h760v-303h-760v-254h768v-303q-77 -27 -119 -56q-41 -28 -64 -58q-22 -28 -26 -50q-4 -20 -4 -37q0 -46 28 -69t72 -23q28 0 59 12q30 11 66 54v-179q-33 -36 -87 -53q-51 -16 -99 -16q-67 0 -114 21q-45 20 -73 56q-30 38 -40 73
q-13 44 -13 75q0 98 52 159t145 89v2z" />
    <glyph glyph-name="eogonek" unicode="&#x119;" horiz-adv-x="1214" 
d="M1155 467h-747v-4q2 -131 56 -181q56 -51 157 -51q80 0 131 30q52 30 59 108h344q-11 -174 -89 -261q-81 -90 -224 -118q-65 -24 -102 -53q-32 -25 -53 -55q-16 -23 -21 -48q-4 -20 -4 -35q0 -47 27 -69q28 -23 73 -23q26 0 58 12q31 12 67 54v-179q-33 -36 -87 -53
q-51 -16 -100 -16q-66 0 -113 21t-74 56q-30 38 -40 73q-12 41 -12 75q0 152 127 219q-128 1 -231 31q-98 28 -163 92t-98 165q-33 102 -33 249q0 156 35 263q35 106 104 169t173 90q105 27 243 27q262 0 400 -106q137 -105 137 -359v-123zM408 573h401q0 125 -50 172
q-51 48 -143 48t-148 -43q-55 -42 -60 -160v-17z" />
    <glyph glyph-name="Ecaron" unicode="&#x11a;" horiz-adv-x="1325" 
d="M1243 0h-1147v1413h1147v-303h-768v-250h760v-303h-760v-254h768v-303zM291 1858h276l103 -125l114 125h277l-393 -345z" />
    <glyph glyph-name="ecaron" unicode="&#x11b;" horiz-adv-x="1214" 
d="M1155 467h-747v-4q2 -131 56 -181q56 -51 157 -51q80 0 131 30q52 30 59 108h344q-6 -112 -44 -190q-38 -77 -104 -124q-66 -46 -163 -66q-98 -20 -223 -20q-141 0 -246 27t-173 89q-70 64 -104 165q-35 103 -35 256q0 156 35 263q35 106 104 169t173 90q105 27 243 27
q262 0 400 -106q137 -105 137 -359v-123zM408 573h401q0 125 -50 172q-51 48 -143 48t-148 -43q-55 -42 -60 -160v-17zM227 1489h277l102 -125l115 125h276l-393 -344z" />
    <glyph glyph-name="Gbreve" unicode="&#x11e;" horiz-adv-x="1607" 
d="M791 772h741v-186q0 -165 -40 -281t-127 -191q-88 -76 -224 -110q-138 -35 -330 -35q-189 0 -329 35q-137 34 -229 119q-90 83 -134 225q-43 139 -43 357q0 224 46 366q47 145 137 226q93 84 229 115q140 32 323 32q178 0 307 -30q131 -30 215 -94q87 -66 133 -166
q48 -106 60 -243h-379q-7 61 -28 106q-19 42 -57 66q-40 25 -99 34q-61 9 -152 9q-101 0 -166 -13q-67 -13 -109 -57q-43 -45 -61 -127q-18 -83 -18 -224q0 -135 18 -218q18 -81 62 -127q42 -44 112 -59q64 -14 170 -14q177 0 260 45q82 45 82 170v22h-370v248zM805 1526
q-180 0 -263 77t-83 236h207q0 -73 32 -102q34 -31 107 -31q72 0 105 31q32 30 32 102h207q0 -159 -83 -236t-261 -77z" />
    <glyph glyph-name="gbreve" unicode="&#x11f;" horiz-adv-x="1251" 
d="M834 293h-35q-28 -115 -112 -179q-83 -63 -218 -63q-99 0 -176 24t-127 80q-52 58 -77 152q-26 98 -26 242q0 146 26 245q25 95 77 155q51 58 127 82t176 24q134 0 218 -64q83 -64 112 -178h35v211h344v-934q0 -137 -35 -233q-34 -92 -105 -151q-69 -57 -174 -81
t-243 -24q-125 0 -224 18q-96 17 -166 64q-67 45 -104 116q-36 70 -41 181h342q6 -66 59 -92q51 -25 134 -25q108 0 160 49q53 50 53 178v203zM629 313q86 0 145 43q60 44 60 152v90q0 108 -60 152q-59 43 -145 43q-57 0 -105 -10q-43 -9 -68 -35q-26 -28 -38 -75
q-12 -48 -12 -124q0 -78 11 -119q12 -46 38 -72t69 -35q48 -10 105 -10zM627 1157q-180 0 -263 77t-83 236h206q0 -72 33 -102q34 -31 107 -31q72 0 105 31q32 30 32 102h207q0 -159 -83 -236t-261 -77z" />
    <glyph glyph-name="Gdotaccent" unicode="&#x120;" horiz-adv-x="1607" 
d="M791 772h741v-186q0 -165 -40 -281t-127 -191q-88 -76 -224 -110q-138 -35 -330 -35q-189 0 -329 35q-137 34 -229 119q-90 83 -134 225q-43 139 -43 357q0 224 46 366q47 145 137 226q93 84 229 115q140 32 323 32q178 0 307 -30q131 -30 215 -94q87 -66 133 -166
q48 -106 60 -243h-379q-7 61 -28 106q-19 42 -57 66q-40 25 -99 34q-61 9 -152 9q-101 0 -166 -13q-67 -13 -109 -57q-43 -45 -61 -127q-18 -83 -18 -224q0 -135 18 -218q18 -81 62 -127q42 -44 112 -59q64 -14 170 -14q177 0 260 45q82 45 82 170v22h-370v248zM625 1526
v254h360v-254h-360z" />
    <glyph glyph-name="gdotaccent" unicode="&#x121;" horiz-adv-x="1251" 
d="M834 293h-35q-28 -115 -112 -179q-83 -63 -218 -63q-99 0 -176 24t-127 80q-52 58 -77 152q-26 98 -26 242q0 146 26 245q25 95 77 155q51 58 127 82t176 24q134 0 218 -64q83 -64 112 -178h35v211h344v-934q0 -137 -35 -233q-34 -92 -105 -151q-69 -57 -174 -81
t-243 -24q-125 0 -224 18q-96 17 -166 64q-67 45 -104 116q-36 70 -41 181h342q6 -66 59 -92q51 -25 134 -25q108 0 160 49q53 50 53 178v203zM629 313q86 0 145 43q60 44 60 152v90q0 108 -60 152q-59 43 -145 43q-57 0 -105 -10q-43 -9 -68 -35q-26 -28 -38 -75
q-12 -48 -12 -124q0 -78 11 -119q12 -46 38 -72t69 -35q48 -10 105 -10zM446 1157v254h361v-254h-361z" />
    <glyph glyph-name="Gcommaaccent" unicode="&#x122;" horiz-adv-x="1607" 
d="M791 772h741v-186q0 -165 -40 -281t-127 -191q-88 -76 -224 -110q-138 -35 -330 -35q-189 0 -329 35q-137 34 -229 119q-90 83 -134 225q-43 139 -43 357q0 224 46 366q47 145 137 226q93 84 229 115q140 32 323 32q178 0 307 -30q131 -30 215 -94q87 -66 133 -166
q48 -106 60 -243h-379q-7 61 -28 106q-19 42 -57 66q-40 25 -99 34q-61 9 -152 9q-101 0 -166 -13q-67 -13 -109 -57q-43 -45 -61 -127q-18 -83 -18 -224q0 -135 18 -218q18 -81 62 -127q42 -44 112 -59q64 -14 170 -14q177 0 260 45q82 45 82 170v22h-370v248zM672 -594
l96 213h-115v279h308v-248l-134 -244h-155z" />
    <glyph glyph-name="gcommaaccent" unicode="&#x123;" horiz-adv-x="1251" 
d="M834 293h-35q-28 -115 -112 -179q-83 -63 -218 -63q-99 0 -176 24t-127 80q-52 58 -77 152q-26 98 -26 242q0 146 26 245q25 95 77 155q51 58 127 82t176 24q134 0 218 -64q83 -64 112 -178h35v211h344v-934q0 -137 -35 -233q-34 -92 -105 -151q-69 -57 -174 -81
t-243 -24q-125 0 -224 18q-96 17 -166 64q-67 45 -104 116q-36 70 -41 181h342q6 -66 59 -92q51 -25 134 -25q108 0 160 49q53 50 53 178v203zM629 313q86 0 145 43q60 44 60 152v90q0 108 -60 152q-59 43 -145 43q-57 0 -105 -10q-43 -9 -68 -35q-26 -28 -38 -75
q-12 -48 -12 -124q0 -78 11 -119q12 -46 38 -72t69 -35q48 -10 105 -10zM762 1653l-96 -213h114v-279h-307v248l133 244h156z" />
    <glyph glyph-name="Hbar" unicode="&#x126;" horiz-adv-x="1675" 
d="M1522 1198h135v-160h-135v-1038h-381v530h-606v-530h-381v1038h-136v160h136v215h381v-215h606v215h381v-215zM535 858h606v180h-606v-180z" />
    <glyph glyph-name="hbar" unicode="&#x127;" horiz-adv-x="1214" 
d="M438 1311h346v-158h-346v-340h35q27 115 107 179q80 63 202 63q83 0 149 -18q68 -18 113 -58q48 -42 73 -110q26 -70 26 -173v-696h-344v645q0 88 -45 118t-133 30q-83 0 -131 -36q-47 -36 -52 -110v-647h-344v1153h-129v158h129v102h344v-102z" />
    <glyph glyph-name="Imacron" unicode="&#x12a;" horiz-adv-x="575" 
d="M477 0h-379v1413h379v-1413zM649 1556h-723v220h723v-220z" />
    <glyph glyph-name="imacron" unicode="&#x12b;" horiz-adv-x="522" 
d="M432 1024v-1024h-344v1024h344zM623 1188h-723v219h723v-219z" />
    <glyph glyph-name="Iogonek" unicode="&#x12e;" horiz-adv-x="575" 
d="M262 0h-164v1413h379v-1413q-77 -27 -119 -56q-39 -27 -63 -58q-20 -26 -25 -50q-4 -20 -4 -37q0 -46 28 -69t73 -23q27 0 58 12t67 54v-179q-33 -36 -88 -53q-51 -16 -99 -16q-67 0 -114 21q-45 20 -73 56q-30 38 -40 73q-12 41 -12 75q0 99 51 159q52 61 145 89v2z" />
    <glyph glyph-name="iogonek" unicode="&#x12f;" horiz-adv-x="522" 
d="M217 0h-129v1024h344v-1024h2q-77 -27 -119 -56q-41 -28 -64 -58q-22 -28 -26 -50q-4 -20 -4 -37q0 -46 28 -69t73 -23q26 0 58 12q30 11 66 54v-179q-33 -36 -87 -53q-51 -16 -99 -16q-68 0 -114 21q-45 20 -73 56q-30 38 -40 73q-13 44 -13 75q0 98 52 159t145 89v2z
M80 1157v254h360v-254h-360z" />
    <glyph glyph-name="Idotaccent" unicode="&#x130;" horiz-adv-x="575" 
d="M477 0h-379v1413h379v-1413zM109 1526v254h360v-254h-360z" />
    <glyph glyph-name="dotlessi" unicode="&#x131;" horiz-adv-x="522" 
d="M432 1024v-1024h-344v1024h344z" />
    <glyph glyph-name="Kcommaaccent" unicode="&#x136;" horiz-adv-x="1447" 
d="M993 0l-372 596h-146v-596h-379v1413h379v-717l504 717h422l-494 -651l541 -762h-455zM590 -594l96 213h-115v279h308v-248l-134 -244h-155z" />
    <glyph glyph-name="kcommaaccent" unicode="&#x137;" horiz-adv-x="1187" 
d="M424 502l354 522h381l-334 -465l363 -559h-393l-250 422h-121v-422h-344v1413h344v-911zM459 -594l96 213h-115v279h308v-248l-134 -244h-155z" />
    <glyph glyph-name="Lacute" unicode="&#x139;" horiz-adv-x="1280" 
d="M1257 0h-1161v1413h379v-1085h782v-328zM195 1540l170 311h342l-314 -311h-198z" />
    <glyph glyph-name="lacute" unicode="&#x13a;" horiz-adv-x="509" 
d="M428 0h-344v1413h344v-1413zM143 1479l170 311h342l-313 -311h-199z" />
    <glyph glyph-name="Lcommaaccent" unicode="&#x13b;" horiz-adv-x="1280" 
d="M1257 0h-1161v1413h379v-1085h782v-328zM520 -594l96 213h-114v279h307v-248l-133 -244h-156z" />
    <glyph glyph-name="lcommaaccent" unicode="&#x13c;" horiz-adv-x="509" 
d="M428 0h-344v1413h344v-1413zM121 -594l96 213h-115v279h308v-248l-134 -244h-155z" />
    <glyph glyph-name="Lcaron" unicode="&#x13d;" horiz-adv-x="1280" 
d="M1257 0h-1161v1413h379v-1085h782v-328zM856 1413h291l-121 -506h-170v506z" />
    <glyph glyph-name="lcaron" unicode="&#x13e;" horiz-adv-x="620" 
d="M428 0h-344v1413h344v-1413zM516 1483h277l-136 -365h-141v365z" />
    <glyph glyph-name="Ldot" unicode="&#x13f;" horiz-adv-x="1280" 
d="M1257 0h-1161v1413h379v-1085h782v-328zM707 543v331h360v-331h-360z" />
    <glyph glyph-name="ldot" unicode="&#x140;" horiz-adv-x="911" 
d="M428 0h-344v1413h344v-1413zM522 543v331h361v-331h-361z" />
    <glyph glyph-name="Lslash" unicode="&#x141;" horiz-adv-x="1384" 
d="M1362 0h-1161v532l-174 -59v180l174 60v700h379v-571l286 98v-180l-286 -98v-334h782v-328z" />
    <glyph glyph-name="lslash" unicode="&#x142;" horiz-adv-x="714" 
d="M530 825l160 56v-181l-160 -55v-645h-344v528l-161 -55v180l161 56v704h344v-588z" />
    <glyph glyph-name="Nacute" unicode="&#x143;" horiz-adv-x="1560" 
d="M387 1413l721 -848v848h358v-1413h-288l-725 831v-831h-357v1413h291zM684 1540l170 311h342l-313 -311h-199z" />
    <glyph glyph-name="nacute" unicode="&#x144;" horiz-adv-x="1200" 
d="M784 645q0 88 -45 118t-133 30q-82 0 -130 -36q-47 -36 -52 -110v-647h-344v1024h344v-211h35q27 116 106 179t203 63q82 0 148 -18q69 -19 114 -58q48 -42 73 -110t25 -173v-696h-344v645zM487 1171l170 312h342l-313 -312h-199z" />
    <glyph glyph-name="Ncommaaccent" unicode="&#x145;" horiz-adv-x="1560" 
d="M387 1413l721 -848v848h358v-1413h-288l-725 831v-831h-357v1413h291zM645 -594l96 213h-114v279h307v-248l-133 -244h-156z" />
    <glyph glyph-name="ncommaaccent" unicode="&#x146;" horiz-adv-x="1200" 
d="M784 645q0 88 -45 118t-133 30q-82 0 -130 -36q-47 -36 -52 -110v-647h-344v1024h344v-211h35q27 116 106 179t203 63q82 0 148 -18q69 -19 114 -58q48 -42 73 -110t25 -173v-696h-344v645zM465 -594l96 213h-115v279h308v-248l-133 -244h-156z" />
    <glyph glyph-name="Ncaron" unicode="&#x147;" horiz-adv-x="1560" 
d="M387 1413l721 -848v848h358v-1413h-288l-725 831v-831h-357v1413h291zM395 1858h277l102 -125l115 125h276l-393 -345z" />
    <glyph glyph-name="ncaron" unicode="&#x148;" horiz-adv-x="1200" 
d="M784 645q0 88 -45 118t-133 30q-82 0 -130 -36q-47 -36 -52 -110v-647h-344v1024h344v-211h35q27 116 106 179t203 63q82 0 148 -18q69 -19 114 -58q48 -42 73 -110t25 -173v-696h-344v645zM215 1489h277l102 -125l115 125h276l-393 -344z" />
    <glyph glyph-name="Omacron" unicode="&#x14c;" horiz-adv-x="1673" 
d="M836 -31q-194 0 -340 35q-143 34 -237 119q-93 84 -138 225t-45 357q0 222 48 366q48 143 143 226q96 84 238 115q145 32 331 32q185 0 331 -32q143 -31 239 -115q95 -83 143 -226q48 -144 48 -366q0 -216 -45 -357t-138 -225q-94 -85 -236 -119q-146 -35 -342 -35z
M836 287q113 0 182 14q76 15 118 59q44 46 62 127q19 87 19 218q0 134 -19 223q-18 85 -63 128t-118 57q-69 13 -181 13q-113 0 -182 -13q-73 -14 -116 -57q-45 -45 -63 -127q-18 -83 -18 -224q0 -135 18 -218q17 -80 63 -127q42 -44 116 -59q67 -14 182 -14zM1198 1556
h-723v220h723v-220z" />
    <glyph glyph-name="omacron" unicode="&#x14d;" horiz-adv-x="1247" 
d="M623 231q110 0 163 61q54 62 54 214q0 160 -55 224q-54 63 -162 63q-110 0 -163 -62q-52 -61 -52 -225q0 -155 52 -214q53 -61 163 -61zM623 1055q141 0 246 -27q106 -27 175 -90q71 -65 105 -169q35 -107 35 -263q0 -153 -35 -256q-34 -100 -105 -165q-67 -61 -175 -89
q-105 -27 -246 -27t-246 27q-107 27 -174 89q-71 65 -105 165q-35 103 -35 256q0 156 35 263q34 104 105 169q69 63 174 90t246 27zM985 1188h-723v219h723v-219z" />
    <glyph glyph-name="Ohungarumlaut" unicode="&#x150;" horiz-adv-x="1673" 
d="M836 -31q-194 0 -340 35q-143 34 -237 119q-93 84 -138 225t-45 357q0 222 48 366q48 143 143 226q96 84 238 115q145 32 331 32q185 0 331 -32q143 -31 239 -115q95 -83 143 -226q48 -144 48 -366q0 -216 -45 -357t-138 -225q-94 -85 -236 -119q-146 -35 -342 -35z
M836 287q113 0 182 14q76 15 118 59q44 46 62 127q19 87 19 218q0 134 -19 223q-18 85 -63 128t-118 57q-69 13 -181 13q-113 0 -182 -13q-73 -14 -116 -57q-45 -45 -63 -127q-18 -83 -18 -224q0 -135 18 -218q17 -80 63 -127q42 -44 116 -59q67 -14 182 -14zM606 1540
l78 330h254l-145 -330h-187zM903 1540l150 330h286l-231 -330h-205z" />
    <glyph glyph-name="ohungarumlaut" unicode="&#x151;" horiz-adv-x="1247" 
d="M623 231q110 0 163 61q54 62 54 214q0 160 -55 224q-54 63 -162 63q-110 0 -163 -62q-52 -61 -52 -225q0 -155 52 -214q53 -61 163 -61zM623 1055q141 0 246 -27q106 -27 175 -90q71 -65 105 -169q35 -107 35 -263q0 -153 -35 -256q-34 -100 -105 -165q-67 -61 -175 -89
q-105 -27 -246 -27t-246 27q-107 27 -174 89q-71 65 -105 165q-35 103 -35 256q0 156 35 263q34 104 105 169q69 63 174 90t246 27zM362 1171l78 330h254l-145 -330h-187zM659 1171l150 330h287l-232 -330h-205z" />
    <glyph glyph-name="OE" unicode="&#x152;" horiz-adv-x="2195" 
d="M2114 1110h-754v-250h745v-303h-745v-254h754v-303h-1319q-187 0 -323 33t-224 112t-130 216t-42 344q0 223 45 361q45 139 135 215q91 77 225 104q140 28 314 28h1319v-303zM981 303v807h-133q-108 0 -178 -10q-76 -11 -122 -50q-50 -42 -70 -122q-21 -82 -21 -223
q0 -131 21 -210q20 -76 69 -122q46 -43 122 -57q72 -13 179 -13h133z" />
    <glyph glyph-name="oe" unicode="&#x153;" horiz-adv-x="1992" 
d="M1397 -31q-125 0 -221 21q-99 22 -166 67q-67 -45 -166 -67q-96 -21 -221 -21q-141 0 -246 27q-107 27 -174 89q-71 65 -105 165q-35 103 -35 256q0 156 35 263q34 104 105 169q69 63 174 90t246 27q120 0 221 -22q96 -21 166 -68q66 47 166 69q96 21 221 21
q260 0 398 -106q136 -105 136 -359v-123h-747v-4q2 -132 57 -181q57 -51 158 -51q77 0 130 30t60 108h342q-6 -115 -43 -190q-39 -79 -104 -124q-67 -46 -164 -66q-98 -20 -223 -20zM623 231q110 0 163 61q54 62 54 214q0 160 -55 224q-54 63 -162 63q-110 0 -163 -62
q-52 -61 -52 -225q0 -155 52 -214q53 -61 163 -61zM1186 573h401q0 125 -51 172q-53 48 -143 48q-91 0 -147 -43q-55 -42 -60 -160v-17z" />
    <glyph glyph-name="Racute" unicode="&#x154;" horiz-adv-x="1454" 
d="M954 0l-417 651h221q111 0 172 52t61 188q0 123 -54 171t-183 48h-279v-1110h-379v1413h740q280 0 409 -114t129 -375q0 -84 -19 -156q-19 -71 -61 -132q-39 -56 -107 -98q-66 -40 -161 -57l387 -481h-459zM631 1540l170 311h342l-314 -311h-198z" />
    <glyph glyph-name="racute" unicode="&#x155;" horiz-adv-x="905" 
d="M883 1024v-307h-236q-119 5 -169 -44q-49 -48 -54 -141v-532h-344v1024h344v-285h35q12 65 33 118q21 52 55 89q33 36 86 58q49 20 125 20h125zM362 1171l170 312h342l-313 -312h-199z" />
    <glyph glyph-name="Rcommaaccent" unicode="&#x156;" horiz-adv-x="1454" 
d="M954 0l-417 651h221q111 0 172 52t61 188q0 123 -54 171t-183 48h-279v-1110h-379v1413h740q280 0 409 -114t129 -375q0 -84 -19 -156q-19 -71 -61 -132q-39 -56 -107 -98q-66 -40 -161 -57l387 -481h-459zM580 -594l96 213h-115v279h307v-248l-133 -244h-155z" />
    <glyph glyph-name="rcommaaccent" unicode="&#x157;" horiz-adv-x="905" 
d="M883 1024v-307h-236q-119 5 -169 -44q-49 -48 -54 -141v-532h-344v1024h344v-285h35q12 65 33 118q21 52 55 89q33 36 86 58q49 20 125 20h125zM121 -594l96 213h-115v279h308v-248l-134 -244h-155z" />
    <glyph glyph-name="Rcaron" unicode="&#x158;" horiz-adv-x="1454" 
d="M954 0l-417 651h221q111 0 172 52t61 188q0 123 -54 171t-183 48h-279v-1110h-379v1413h740q280 0 409 -114t129 -375q0 -84 -19 -156q-19 -71 -61 -132q-39 -56 -107 -98q-66 -40 -161 -57l387 -481h-459zM342 1858h276l103 -125l115 125h276l-393 -345z" />
    <glyph glyph-name="rcaron" unicode="&#x159;" horiz-adv-x="905" 
d="M883 1024v-307h-236q-119 5 -169 -44q-49 -48 -54 -141v-532h-344v1024h344v-285h35q12 65 33 118q21 52 55 89q33 36 86 58q49 20 125 20h125zM90 1489h277l102 -125l115 125h276l-393 -344z" />
    <glyph glyph-name="Sacute" unicode="&#x15a;" horiz-adv-x="1495" 
d="M750 -31q-190 0 -326 29q-133 28 -215 91t-118 161q-36 99 -36 237h396q5 -65 19 -107q15 -44 50 -70q34 -25 90 -37q51 -11 135 -11q93 0 150 9q56 9 91 27q34 18 46 44q12 27 12 63q0 66 -46 87q-40 18 -117 34l-424 90q-93 20 -166 52q-70 30 -116 78q-46 47 -69 115
q-22 65 -22 159q0 92 33 169q34 78 109 134q77 58 203 89q128 32 312 32q173 0 300 -26q125 -26 204 -85q81 -61 119 -154t43 -235h-373q-5 67 -20 104q-16 39 -49 63t-86 33q-52 9 -131 9q-93 0 -147 -10q-57 -11 -87 -27q-30 -17 -42 -40q-11 -22 -11 -48q0 -49 36 -76
q35 -26 126 -43l378 -75q106 -21 187 -50q82 -30 134 -74q54 -46 81 -114q27 -67 27 -166q0 -108 -30 -194t-107 -146q-76 -60 -209 -90q-136 -31 -334 -31zM653 1540l170 311h342l-313 -311h-199z" />
    <glyph glyph-name="sacute" unicode="&#x15b;" horiz-adv-x="1110" 
d="M549 819q-94 0 -128 -23q-36 -24 -36 -63q0 -35 30 -51t81 -27l276 -51q147 -28 219 -96t72 -195q0 -78 -26 -144t-85 -109t-155 -67t-238 -24q-130 0 -230 19q-95 18 -158 63q-62 45 -93 118t-35 181h330q5 -85 56 -114q54 -31 138 -31q106 0 141 26t35 72q0 39 -30 54
q-31 15 -84 26l-289 55q-130 24 -202 93t-72 204q0 70 23 126q24 60 80 102q56 43 148 67q95 25 230 25q118 0 215 -19q92 -18 154 -61t97 -113q33 -67 38 -172h-324q-4 76 -58 103q-52 26 -120 26zM442 1171l170 312h342l-313 -312h-199z" />
    <glyph glyph-name="Scedilla" unicode="&#x15e;" horiz-adv-x="1495" 
d="M1430 430q0 -104 -27 -186q-27 -83 -94 -141q-65 -57 -185 -92q-115 -34 -295 -40v-47q91 -15 133 -62q44 -49 44 -124q0 -95 -67 -167q-66 -71 -206 -71q-53 0 -107 17q-52 16 -89 49v182q41 -40 78 -54q39 -14 71 -14q42 0 72 22q28 21 28 71q0 35 -29 64t-106 44v90
q-165 6 -279 39q-115 33 -185 96q-71 63 -101 158q-31 98 -31 223h396q5 -65 19 -107q15 -44 50 -70q34 -25 90 -37q51 -11 135 -11q93 0 150 9q56 9 91 27q34 18 46 44q12 27 12 63q0 66 -46 87q-40 18 -117 34l-424 90q-93 20 -166 52q-70 30 -116 78q-46 47 -69 115
q-22 65 -22 159q0 92 33 169q34 78 109 134q77 58 203 89q128 32 312 32q173 0 300 -26q125 -26 204 -85q81 -61 119 -154t43 -235h-373q-5 67 -20 104q-16 39 -49 63t-86 33q-52 9 -131 9q-93 0 -147 -10q-57 -11 -87 -27q-30 -17 -42 -40q-11 -22 -11 -48q0 -49 36 -76
q35 -26 126 -43l378 -75q106 -21 187 -50q82 -30 134 -74q54 -46 81 -114q27 -67 27 -166z" />
    <glyph glyph-name="scedilla" unicode="&#x15f;" horiz-adv-x="1110" 
d="M549 819q-94 0 -128 -23q-36 -24 -36 -63q0 -35 30 -51t81 -27l276 -51q147 -28 219 -96t72 -195q0 -71 -22 -134q-21 -61 -70 -104q-50 -44 -129 -71t-197 -33v-47q90 -15 132 -62q44 -49 44 -124q0 -97 -66 -167q-66 -71 -206 -71q-54 0 -108 17q-52 16 -89 49v182
q40 -40 79 -54q36 -13 71 -13q42 0 71 21t29 71q0 34 -30 64q-29 29 -105 44v92q-107 6 -189 29q-79 22 -131 68q-52 45 -75 113q-25 71 -29 167h330q5 -85 56 -114q54 -31 138 -31q106 0 141 26t35 72q0 39 -30 54q-31 15 -84 26l-289 55q-130 24 -202 93t-72 204
q0 70 23 126q24 60 80 102q56 43 148 67q95 25 230 25q118 0 215 -19q92 -18 154 -61t97 -113q33 -67 38 -172h-324q-4 76 -58 103q-52 26 -120 26z" />
    <glyph glyph-name="Scaron" unicode="&#x160;" horiz-adv-x="1495" 
d="M750 -31q-190 0 -326 29q-133 28 -215 91t-118 161q-36 99 -36 237h396q5 -65 19 -107q15 -44 50 -70q34 -25 90 -37q51 -11 135 -11q93 0 150 9q56 9 91 27q34 18 46 44q12 27 12 63q0 66 -46 87q-40 18 -117 34l-424 90q-93 20 -166 52q-70 30 -116 78q-46 47 -69 115
q-22 65 -22 159q0 92 33 169q34 78 109 134q77 58 203 89q128 32 312 32q173 0 300 -26q125 -26 204 -85q81 -61 119 -154t43 -235h-373q-5 67 -20 104q-16 39 -49 63t-86 33q-52 9 -131 9q-93 0 -147 -10q-57 -11 -87 -27q-30 -17 -42 -40q-11 -22 -11 -48q0 -49 36 -76
q35 -26 126 -43l378 -75q106 -21 187 -50q82 -30 134 -74q54 -46 81 -114q27 -67 27 -166q0 -108 -30 -194t-107 -146q-76 -60 -209 -90q-136 -31 -334 -31zM365 1858h276l102 -125l115 125h277l-394 -345z" />
    <glyph glyph-name="scaron" unicode="&#x161;" horiz-adv-x="1110" 
d="M549 819q-94 0 -128 -23q-36 -24 -36 -63q0 -35 30 -51t81 -27l276 -51q147 -28 219 -96t72 -195q0 -78 -26 -144t-85 -109t-155 -67t-238 -24q-130 0 -230 19q-95 18 -158 63q-62 45 -93 118t-35 181h330q5 -85 56 -114q54 -31 138 -31q106 0 141 26t35 72q0 39 -30 54
q-31 15 -84 26l-289 55q-130 24 -202 93t-72 204q0 70 23 126q24 60 80 102q56 43 148 67q95 25 230 25q118 0 215 -19q92 -18 154 -61t97 -113q33 -67 38 -172h-324q-4 76 -58 103q-52 26 -120 26zM170 1489h276l103 -125l115 125h276l-393 -344z" />
    <glyph glyph-name="Tcedilla" unicode="&#x162;" horiz-adv-x="1404" 
d="M1386 1085h-493v-1085h-102v-76q90 -15 132 -62q44 -49 44 -124q0 -95 -67 -167q-66 -71 -206 -71q-53 0 -107 17q-52 16 -89 49v182q40 -40 79 -54q36 -13 70 -13q43 0 72 21t29 71q0 34 -30 64q-29 29 -106 44v119h-100v1085h-494v328h1368v-328z" />
    <glyph glyph-name="tcedilla" unicode="&#x163;" horiz-adv-x="845" 
d="M815 0h-205v-76q88 -15 130 -62q44 -49 44 -124q0 -97 -66 -167q-66 -71 -204 -71q-54 0 -108 17q-55 17 -91 49v182q40 -40 79 -54q36 -13 73 -13q44 0 71 21t27 71q0 35 -29 64t-106 44v133q-132 30 -193 124q-61 95 -61 241v383h-164v262h164v389h344v-389h295v-262
h-295v-363q0 -71 33 -97q34 -26 98 -26h164v-276z" />
    <glyph glyph-name="Tcaron" unicode="&#x164;" horiz-adv-x="1404" 
d="M1386 1085h-493v-1085h-381v1085h-494v328h1368v-328zM317 1858h277l102 -125l115 125h276l-393 -345z" />
    <glyph glyph-name="tcaron" unicode="&#x165;" horiz-adv-x="845" 
d="M815 0h-246q-207 0 -300 99t-93 280v383h-164v262h164v389h344v-389h295v-262h-295v-363q0 -71 33 -97q34 -26 98 -26h164v-276zM616 1483h277l-135 -365h-142v365z" />
    <glyph glyph-name="Umacron" unicode="&#x16a;" horiz-adv-x="1492" 
d="M78 1413h381v-881q0 -146 71 -195q73 -50 215 -50q145 0 218 50q71 49 71 195v881h379v-895q0 -282 -165 -415q-166 -134 -503 -134t-502 132t-165 417v895zM1108 1556h-723v220h723v-220z" />
    <glyph glyph-name="umacron" unicode="&#x16b;" horiz-adv-x="1200" 
d="M416 379q0 -88 42 -118t124 -30q72 0 133 35q59 34 61 123v635h344v-1024h-344v211h-35q-28 -116 -112 -179t-207 -63q-80 0 -144 18q-65 18 -111 58q-47 41 -71 110t-24 173v696h344v-645zM963 1188h-723v219h723v-219z" />
    <glyph glyph-name="Uring" unicode="&#x16e;" horiz-adv-x="1492" 
d="M78 1413h381v-881q0 -146 71 -195q73 -50 215 -50q145 0 218 50q71 49 71 195v881h379v-895q0 -282 -165 -415q-166 -134 -503 -134t-502 132t-165 417v895zM745 1645q89 0 89 81q0 80 -89 80q-86 0 -86 -80q0 -81 86 -81zM745 1493q-132 0 -198 56q-68 57 -68 177
q0 232 266 232q132 0 200 -56q69 -57 69 -176q0 -120 -69 -177q-68 -56 -200 -56z" />
    <glyph glyph-name="uring" unicode="&#x16f;" horiz-adv-x="1200" 
d="M416 379q0 -88 42 -118t124 -30q72 0 133 35q59 34 61 123v635h344v-1024h-344v211h-35q-28 -116 -112 -179t-207 -63q-80 0 -144 18q-65 18 -111 58q-47 41 -71 110t-24 173v696h344v-645zM600 1276q88 0 88 82q0 80 -88 80q-86 0 -86 -80q0 -82 86 -82zM600 1124
q-132 0 -199 57t-67 177q0 231 266 231q132 0 200 -56t68 -175q0 -121 -68 -177q-69 -57 -200 -57z" />
    <glyph glyph-name="Uhungarumlaut" unicode="&#x170;" horiz-adv-x="1492" 
d="M78 1413h381v-881q0 -146 71 -195q73 -50 215 -50q145 0 218 50q71 49 71 195v881h379v-895q0 -282 -165 -415q-166 -134 -503 -134t-502 132t-165 417v895zM516 1540l78 330h254l-146 -330h-186zM813 1540l150 330h286l-231 -330h-205z" />
    <glyph glyph-name="uhungarumlaut" unicode="&#x171;" horiz-adv-x="1200" 
d="M416 379q0 -88 42 -118t124 -30q72 0 133 35q59 34 61 123v635h344v-1024h-344v211h-35q-28 -116 -112 -179t-207 -63q-80 0 -144 18q-65 18 -111 58q-47 41 -71 110t-24 173v696h344v-645zM340 1171l78 330h254l-146 -330h-186zM637 1171l149 330h287l-231 -330h-205z
" />
    <glyph glyph-name="Uogonek" unicode="&#x172;" horiz-adv-x="1492" 
d="M78 1413h381v-881q0 -146 71 -195q73 -50 215 -50q145 0 218 50q71 49 71 195v881h379v-895q0 -444 -426 -526q-69 -28 -105 -55q-37 -28 -56 -55q-16 -23 -21 -48q-4 -20 -4 -35q0 -47 27 -69q28 -23 73 -23q27 0 58 12t67 54v-179q-33 -36 -87 -53q-51 -16 -99 -16
q-68 0 -114 21q-47 21 -74 56q-30 38 -40 73q-12 41 -12 75q0 78 33 132q34 55 92 87q-326 5 -486 136q-161 132 -161 413v895z" />
    <glyph glyph-name="uogonek" unicode="&#x173;" horiz-adv-x="1200" 
d="M903 0h-127v211h-35q-28 -116 -112 -179t-207 -63q-80 0 -144 18q-65 18 -111 58q-47 41 -71 110t-24 173v696h344v-645q0 -88 42 -118t124 -30q72 0 133 35q59 34 61 123v635h344v-1024q-77 -27 -119 -56q-41 -28 -64 -58q-22 -28 -26 -50q-4 -20 -4 -37q0 -46 28 -69
t73 -23q26 0 58 12q31 12 67 54v-179q-33 -36 -87 -53q-51 -16 -100 -16q-66 0 -113 21t-74 56q-30 38 -40 73q-12 41 -12 75q0 99 51 159q52 61 145 89v2z" />
    <glyph glyph-name="Ydieresis" unicode="&#x178;" horiz-adv-x="1581" 
d="M430 1413l367 -641l360 641h424l-594 -973v-440h-381v430l-606 983h430zM438 1540v240h264v-240h-264zM879 1540v240h266v-240h-266z" />
    <glyph glyph-name="Zacute" unicode="&#x179;" horiz-adv-x="1357" 
d="M1298 0h-1241v252l727 844h-688v317h1184v-252l-715 -844h733v-317zM584 1540l170 311h342l-314 -311h-198z" />
    <glyph glyph-name="zacute" unicode="&#x17a;" horiz-adv-x="1046" 
d="M37 221l500 541h-471v262h909v-219l-500 -543h535v-262h-973v221zM412 1171l170 312h342l-314 -312h-198z" />
    <glyph glyph-name="Zdotaccent" unicode="&#x17b;" horiz-adv-x="1357" 
d="M1298 0h-1241v252l727 844h-688v317h1184v-252l-715 -844h733v-317zM500 1526v254h360v-254h-360z" />
    <glyph glyph-name="zdotaccent" unicode="&#x17c;" horiz-adv-x="1046" 
d="M37 221l500 541h-471v262h909v-219l-500 -543h535v-262h-973v221zM344 1157v254h361v-254h-361z" />
    <glyph glyph-name="Zcaron" unicode="&#x17d;" horiz-adv-x="1357" 
d="M1298 0h-1241v252l727 844h-688v317h1184v-252l-715 -844h733v-317zM295 1858h276l103 -125l114 125h277l-393 -345z" />
    <glyph glyph-name="zcaron" unicode="&#x17e;" horiz-adv-x="1046" 
d="M37 221l500 541h-471v262h909v-219l-500 -543h535v-262h-973v221zM139 1489h277l102 -125l115 125h276l-393 -344z" />
    <glyph glyph-name="uni018F" unicode="&#x18f;" horiz-adv-x="1601" 
d="M795 1444q180 0 319 -32q135 -31 228 -115q92 -83 138 -226q46 -142 46 -366q0 -218 -43 -357q-44 -142 -133 -225q-90 -84 -228 -119t-327 -35q-191 0 -329 35q-135 34 -223 110q-87 75 -127 191t-40 281v186h1067q-4 114 -26 187q-21 70 -62 108q-38 35 -106 48
q-59 11 -154 11q-91 0 -151 -9q-58 -9 -99 -34q-40 -25 -58 -66q-19 -43 -26 -106h-379q12 142 58 243t132 166q84 64 215 94q129 30 308 30zM784 287q87 0 146 10q60 10 104 39t68 80q25 52 35 135h-695l2 -31q6 -134 91 -184q83 -49 249 -49z" />
    <glyph glyph-name="florin" unicode="&#x192;" horiz-adv-x="1071" 
d="M201 -102q64 0 92 31q29 32 29 110v723h-213v262h213v25q0 80 19 144q20 67 63 116q43 48 116 76q75 28 176 28h283v-262h-238q-75 0 -75 -102v-25h313v-262h-313v-744q0 -180 -92 -289q-92 -108 -306 -108h-159v277h92z" />
    <glyph glyph-name="uni01DD" unicode="&#x1dd;" horiz-adv-x="1214" 
d="M59 557h748q-1 135 -55 185q-54 51 -152 51q-78 0 -128 -30t-60 -108h-344q8 115 45 191q38 77 103 123q66 46 164 66q100 20 222 20q140 0 243 -27q105 -27 171 -89t101 -165q34 -101 34 -256q0 -160 -34 -263q-35 -107 -103 -169q-69 -63 -174 -90t-244 -27
q-261 0 -399 106t-138 359v123zM598 231q91 0 148 42q56 42 61 157h-402q0 -112 53 -156q52 -43 140 -43z" />
    <glyph glyph-name="Scommaaccent" unicode="&#x218;" horiz-adv-x="1495" 
d="M750 -31q-190 0 -326 29q-133 28 -215 91t-118 161q-36 99 -36 237h396q5 -65 19 -107q15 -44 50 -70q34 -25 90 -37q51 -11 135 -11q93 0 150 9q56 9 91 27q34 18 46 44q12 27 12 63q0 66 -46 87q-40 18 -117 34l-424 90q-93 20 -166 52q-70 30 -116 78q-46 47 -69 115
q-22 65 -22 159q0 92 33 169q34 78 109 134q77 58 203 89q128 32 312 32q173 0 300 -26q125 -26 204 -85q81 -61 119 -154t43 -235h-373q-5 67 -20 104q-16 39 -49 63t-86 33q-52 9 -131 9q-93 0 -147 -10q-57 -11 -87 -27q-30 -17 -42 -40q-11 -22 -11 -48q0 -49 36 -76
q35 -26 126 -43l378 -75q106 -21 187 -50q82 -30 134 -74q54 -46 81 -114q27 -67 27 -166q0 -108 -30 -194t-107 -146q-76 -60 -209 -90q-136 -31 -334 -31zM606 -594l96 213h-114v279h307v-248l-133 -244h-156z" />
    <glyph glyph-name="scommaaccent" unicode="&#x219;" horiz-adv-x="1110" 
d="M549 819q-94 0 -128 -23q-36 -24 -36 -63q0 -35 30 -51t81 -27l276 -51q147 -28 219 -96t72 -195q0 -78 -26 -144t-85 -109t-155 -67t-238 -24q-130 0 -230 19q-95 18 -158 63q-62 45 -93 118t-35 181h330q5 -85 56 -114q54 -31 138 -31q106 0 141 26t35 72q0 39 -30 54
q-31 15 -84 26l-289 55q-130 24 -202 93t-72 204q0 70 23 126q24 60 80 102q56 43 148 67q95 25 230 25q118 0 215 -19q92 -18 154 -61t97 -113q33 -67 38 -172h-324q-4 76 -58 103q-52 26 -120 26zM424 -594l96 213h-115v279h308v-248l-133 -244h-156z" />
    <glyph glyph-name="Tcommaaccent" unicode="&#x21a;" horiz-adv-x="1404" 
d="M1386 1085h-493v-1085h-381v1085h-494v328h1368v-328zM567 -594l97 213h-115v279h307v-248l-133 -244h-156z" />
    <glyph glyph-name="tcommaaccent" unicode="&#x21b;" horiz-adv-x="845" 
d="M815 0h-246q-207 0 -300 99t-93 280v383h-164v262h164v389h344v-389h295v-262h-295v-363q0 -71 33 -97q34 -26 98 -26h164v-276zM389 -594l96 213h-114v279h307v-248l-133 -244h-156z" />
    <glyph glyph-name="uni0259" unicode="&#x259;" horiz-adv-x="1214" 
d="M59 557h748q-1 135 -55 185q-54 51 -152 51q-78 0 -128 -30t-60 -108h-344q8 115 45 191q38 77 103 123q66 46 164 66q100 20 222 20q140 0 243 -27q105 -27 171 -89t101 -165q34 -101 34 -256q0 -160 -34 -263q-35 -107 -103 -169q-69 -63 -174 -90t-244 -27
q-261 0 -399 106t-138 359v123zM598 231q91 0 148 42q56 42 61 157h-402q0 -112 53 -156q52 -43 140 -43z" />
    <glyph glyph-name="afii57929" unicode="&#x2bc;" horiz-adv-x="481" 
d="M102 1483h277l-135 -365h-142v365z" />
    <glyph glyph-name="circumflex" unicode="&#x2c6;" horiz-adv-x="976" 
d="M375 1157h-273l377 359l389 -359h-272l-115 133z" />
    <glyph glyph-name="caron" unicode="&#x2c7;" horiz-adv-x="974" 
d="M102 1489h277l102 -125l115 125h276l-393 -344z" />
    <glyph glyph-name="breve" unicode="&#x2d8;" horiz-adv-x="894" 
d="M449 1157q-181 0 -264 77t-83 236h207q0 -72 33 -102q34 -31 107 -31q72 0 105 31q32 30 32 102h207q0 -159 -83 -236t-261 -77z" />
    <glyph glyph-name="dotaccent" unicode="&#x2d9;" horiz-adv-x="565" 
d="M102 1157v254h361v-254h-361z" />
    <glyph glyph-name="ring" unicode="&#x2da;" horiz-adv-x="739" 
d="M369 1276q88 0 88 82q0 80 -88 80q-86 0 -86 -80q0 -82 86 -82zM369 1124q-132 0 -199 57q-68 57 -68 177q0 231 267 231q131 0 199 -56q69 -57 69 -175q0 -120 -69 -177t-199 -57z" />
    <glyph glyph-name="ogonek" unicode="&#x2db;" horiz-adv-x="630" 
d="M299 109h59l158 -109q-77 -27 -119 -56q-41 -28 -64 -58q-22 -28 -26 -50q-4 -20 -4 -37q0 -46 28 -69t72 -23q27 0 59 12q30 11 66 54v-179q-33 -36 -87 -53q-51 -16 -99 -16q-68 0 -114 21q-45 20 -73 56q-30 38 -40 73q-13 44 -13 75q0 98 52 159t145 89v111z" />
    <glyph glyph-name="tilde" unicode="&#x2dc;" horiz-adv-x="972" 
d="M324 1487q52 0 94 -17q48 -20 75 -36q11 -6 31.5 -18.5t29.5 -18.5q28 -17 54 -17q30 0 47 21q17 22 13 74h200q6 -167 -53 -238q-60 -72 -160 -72q-53 0 -95 18q-44 19 -77 39q-35 21 -63 39q-27 17 -58 17q-27 0 -45 -20t-14 -80h-201q-6 166 58 238q63 71 164 71z" />
    <glyph glyph-name="hungarumlaut" unicode="&#x2dd;" horiz-adv-x="937" 
d="M102 1171l78 330h254l-145 -330h-187zM399 1171l150 330h287l-232 -330h-205z" />
    <glyph glyph-name="acutecomb" unicode="&#x301;" horiz-adv-x="0" 
d="M-735 1171l170 312h342l-314 -312h-198z" />
    <glyph glyph-name="uni0394" unicode="&#x394;" horiz-adv-x="1533" 
d="M602 1413h334l602 -1413h-1542zM502 250h522l-258 708z" />
    <glyph glyph-name="uni0394" unicode="&#x2206;" horiz-adv-x="1533" 
d="M602 1413h334l602 -1413h-1542zM502 250h522l-258 708z" />
    <glyph glyph-name="uni03A9" unicode="&#x3a9;" horiz-adv-x="1579" 
d="M872 539q84 8 136 27q54 20 85 54q32 35 44 85q12 51 12 120q0 86 -11 138q-12 57 -49 94q-35 35 -109 54q-67 17 -189 17q-123 0 -190 -17q-73 -19 -108 -54q-38 -38 -50 -94q-11 -52 -11 -138q0 -69 12 -119q12 -49 43 -85q31 -35 84 -55q52 -19 136 -27v-539h-570v268
h303v82q-197 51 -283 170q-85 118 -85 336q0 147 30 258q29 108 112 185q80 74 220 112q138 37 357 37q218 0 356 -37q140 -38 220 -112q83 -77 112 -185q30 -111 30 -258q0 -218 -85 -336q-86 -120 -285 -170v-82h303v-268h-570v539z" />
    <glyph glyph-name="uni03A9" unicode="&#x2126;" horiz-adv-x="1579" 
d="M872 539q84 8 136 27q54 20 85 54q32 35 44 85q12 51 12 120q0 86 -11 138q-12 57 -49 94q-35 35 -109 54q-67 17 -189 17q-123 0 -190 -17q-73 -19 -108 -54q-38 -38 -50 -94q-11 -52 -11 -138q0 -69 12 -119q12 -49 43 -85q31 -35 84 -55q52 -19 136 -27v-539h-570v268
h303v82q-197 51 -283 170q-85 118 -85 336q0 147 30 258q29 108 112 185q80 74 220 112q138 37 357 37q218 0 356 -37q140 -38 220 -112q83 -77 112 -185q30 -111 30 -258q0 -218 -85 -336q-86 -120 -285 -170v-82h303v-268h-570v539z" />
    <glyph glyph-name="pi" unicode="&#x3c0;" horiz-adv-x="1251" 
d="M1032 477q0 -117 32 -158q31 -40 93 -40v-287h-86q-105 0 -174 30q-71 31 -111 90q-40 60 -57 153q-16 90 -16 220v277h-221v-762h-345v762h-96v262h1106v-262h-125v-285z" />
    <glyph glyph-name="uni0400" unicode="&#x400;" horiz-adv-x="1325" 
d="M1243 0h-1147v1413h1147v-303h-768v-250h760v-303h-760v-254h768v-303zM256 1851h342l170 -311h-199z" />
    <glyph glyph-name="afii10023" unicode="&#x401;" horiz-adv-x="1325" 
d="M1243 0h-1147v1413h1147v-303h-768v-250h760v-303h-760v-254h768v-303zM324 1540v240h264v-240h-264zM764 1540v240h266v-240h-266z" />
    <glyph glyph-name="afii10051" unicode="&#x402;" horiz-adv-x="1761" 
d="M1710 424q0 -85 -17 -160q-18 -79 -69 -142t-144 -102q-91 -38 -245 -38q-23 0 -71 2q-37 2 -77 6v289q3 0 12.5 -1.5t14.5 -1.5h25q128 0 175 39q46 39 46 99q0 81 -60 111t-178 30q-50 0 -120 -5q-62 -4 -109 -15v-535h-381v1085h-494v328h1368v-328h-493v-260
q72 12 135 20q74 9 156 9q263 0 394 -104q132 -105 132 -326z" />
    <glyph glyph-name="afii10052" unicode="&#x403;" horiz-adv-x="1255" 
d="M1223 1085h-748v-1085h-379v1413h1127v-328zM553 1540l170 311h342l-313 -311h-199z" />
    <glyph glyph-name="afii10053" unicode="&#x404;" horiz-adv-x="1581" 
d="M1520 575q-7 -158 -49 -277q-41 -118 -123 -188q-85 -73 -216 -107q-130 -34 -325 -34q-190 0 -328 35q-136 34 -227 119q-89 83 -133 225q-43 139 -43 357q0 224 46 366q47 145 137 226q93 84 228 115q139 32 322 32q178 0 311 -31q127 -30 214 -98q85 -67 127 -177
q43 -111 50 -268h-378q-7 77 -28 130t-56 78q-39 28 -97 38q-57 10 -145 10q-82 0 -142 -9t-103 -38q-40 -27 -65 -82q-23 -51 -34 -143h522v-285h-524q11 -91 34 -145q25 -57 65 -86q43 -31 104 -41q59 -10 143 -10q92 0 147 11q61 12 99 43q39 31 58 88q21 61 28 146h381z
" />
    <glyph glyph-name="afii10054" unicode="&#x405;" horiz-adv-x="1495" 
d="M750 -31q-190 0 -326 29q-133 28 -215 91t-118 161q-36 99 -36 237h396q5 -65 19 -107q15 -44 50 -70q34 -25 90 -37q51 -11 135 -11q93 0 150 9q56 9 91 27q34 18 46 44q12 27 12 63q0 66 -46 87q-40 18 -117 34l-424 90q-93 20 -166 52q-70 30 -116 78q-46 47 -69 115
q-22 65 -22 159q0 92 33 169q34 78 109 134q77 58 203 89q128 32 312 32q173 0 300 -26q125 -26 204 -85q81 -61 119 -154t43 -235h-373q-5 67 -20 104q-16 39 -49 63t-86 33q-52 9 -131 9q-93 0 -147 -10q-57 -11 -87 -27q-30 -17 -42 -40q-11 -22 -11 -48q0 -49 36 -76
q35 -26 126 -43l378 -75q106 -21 187 -50q82 -30 134 -74q54 -46 81 -114q27 -67 27 -166q0 -108 -30 -194t-107 -146q-76 -60 -209 -90q-136 -31 -334 -31z" />
    <glyph glyph-name="afii10055" unicode="&#x406;" horiz-adv-x="575" 
d="M477 0h-379v1413h379v-1413z" />
    <glyph glyph-name="afii10056" unicode="&#x407;" horiz-adv-x="575" 
d="M477 0h-379v1413h379v-1413zM-66 1540v240h265v-240h-265zM375 1540v240h266v-240h-266z" />
    <glyph glyph-name="afii10057" unicode="&#x408;" horiz-adv-x="1353" 
d="M430 575q1 -89 20 -148q18 -56 48 -88t73 -42q41 -10 97 -10q128 0 177 61q50 62 50 193v569h-764v303h1145v-887q0 -274 -147 -415q-148 -142 -461 -142q-145 0 -264 31q-114 30 -193 101q-78 70 -120 188q-42 117 -42 286h381z" />
    <glyph glyph-name="afii10058" unicode="&#x409;" horiz-adv-x="2234" 
d="M551 772q0 -208 -23 -358q-23 -152 -71 -240q-51 -94 -125 -133q-77 -41 -185 -41h-120v309q53 0 88 27q34 27 55 88q22 63 29 161q8 106 8 246v582h1134v-467h345q261 0 379 -105t118 -352q0 -252 -122 -371q-121 -118 -371 -118h-729v1085h-410v-313zM1341 643v-340
h267q98 0 146 39t48 137t-42 131t-156 33h-263z" />
    <glyph glyph-name="afii10059" unicode="&#x40a;" horiz-adv-x="2314" 
d="M1421 946h344q261 0 380 -105q118 -105 118 -352q0 -252 -122 -371q-121 -118 -372 -118h-727v530h-567v-530h-379v1413h379v-555h567v555h379v-467zM1421 643v-340h267q98 0 146 39t48 137t-42 131t-157 33h-262z" />
    <glyph glyph-name="afii10060" unicode="&#x40b;" horiz-adv-x="1761" 
d="M1386 1085h-493v-286q60 11 132 18q77 8 153 8q265 0 399 -131q133 -130 133 -407v-287h-379v297q0 132 -56 178q-58 47 -165 47q-49 0 -114 -5q-58 -4 -103 -15v-502h-381v1085h-494v328h1368v-328z" />
    <glyph glyph-name="afii10061" unicode="&#x40c;" horiz-adv-x="1447" 
d="M993 0l-372 596h-146v-596h-379v1413h379v-717l504 717h422l-494 -651l541 -762h-455zM629 1540l170 311h342l-314 -311h-198z" />
    <glyph glyph-name="uni040D" unicode="&#x40d;" horiz-adv-x="1503" 
d="M473 586l633 827h303v-1413h-377v819l-641 -819h-295v1413h377v-827zM332 1851h342l170 -311h-199z" />
    <glyph glyph-name="afii10062" unicode="&#x40e;" horiz-adv-x="1544" 
d="M391 0l205 336l-596 1077h457l344 -719l317 719h426l-715 -1413h-438zM772 1475q-112 0 -187 18q-73 18 -121 56q-46 37 -66 97q-19 57 -19 138h264q0 -53 31 -73q29 -19 98 -19t98 19q31 20 31 73h264q0 -81 -19 -138q-20 -60 -66 -97q-48 -38 -121 -56
q-75 -18 -187 -18z" />
    <glyph glyph-name="afii10145" unicode="&#x40f;" horiz-adv-x="1482" 
d="M1386 0h-468v-328h-353v328h-469v1413h379v-1085h533v1085h378v-1413z" />
    <glyph glyph-name="afii10017" unicode="&#x410;" horiz-adv-x="1542" 
d="M606 1413h334l602 -1413h-422l-76 205h-555l-75 -205h-414zM584 453h370l-184 497z" />
    <glyph glyph-name="afii10018" unicode="&#x411;" horiz-adv-x="1413" 
d="M1360 461q0 -238 -124 -349q-126 -112 -380 -112h-760v1413h1166v-303h-787v-213h377q268 0 388 -99t120 -337zM475 623v-320h313q98 0 144 36q47 36 47 128q0 93 -42 124q-43 32 -153 32h-309z" />
    <glyph glyph-name="afii10019" unicode="&#x412;" horiz-adv-x="1439" 
d="M1098 719q144 -24 216 -108q70 -82 70 -212q0 -207 -114 -303t-352 -96h-822v1413h793q244 0 350 -88q107 -89 107 -297q0 -124 -69 -193q-70 -70 -179 -98v-18zM475 588v-285h350q93 0 140 32t47 114q0 81 -42 110q-43 29 -149 29h-346zM475 1110v-272h326q85 0 129 30
q43 30 43 109q0 78 -38 105q-39 28 -138 28h-322z" />
    <glyph glyph-name="afii10020" unicode="&#x413;" horiz-adv-x="1255" 
d="M1223 1085h-748v-1085h-379v1413h1127v-328z" />
    <glyph glyph-name="afii10021" unicode="&#x414;" horiz-adv-x="1658" 
d="M1452 328h184v-656h-352v328h-917v-328h-353v656h170q43 83 64 150q21 68 34 159q11 81 13 196q2 146 2 263v317h1155v-1085zM641 1010q0 -256 -25 -423q-24 -158 -71 -259h528v782h-432v-100z" />
    <glyph glyph-name="afii10022" unicode="&#x415;" horiz-adv-x="1325" 
d="M1243 0h-1147v1413h1147v-303h-768v-250h760v-303h-760v-254h768v-303z" />
    <glyph glyph-name="afii10024" unicode="&#x416;" horiz-adv-x="2060" 
d="M1221 1413v-733l389 733h403l-383 -672l426 -741h-426l-282 571h-127v-571h-381v571h-127l-283 -571h-426l424 741l-381 672h404l389 -733v733h381z" />
    <glyph glyph-name="afii10025" unicode="&#x417;" horiz-adv-x="1466" 
d="M1411 401q0 -216 -161 -324q-160 -108 -496 -108q-191 0 -321 34q-131 34 -216 107q-84 72 -125 187q-41 116 -47 278h375q6 -94 26 -148q21 -57 61 -88q41 -32 99 -42q57 -10 142 -10q151 0 217 36q65 35 65 115q0 72 -41 105q-39 32 -162 32h-209v281h195q103 0 141 38
q37 37 37 95q0 77 -59 107q-60 30 -197 30q-78 0 -131 -10q-54 -10 -92 -39q-37 -28 -55 -80q-20 -56 -21 -133h-370q0 158 42 269q42 112 125 180q86 70 210 100q130 31 296 31q327 0 481 -101q152 -100 152 -313q0 -125 -68 -193q-69 -69 -180 -96v-20q145 -22 216 -107
t71 -213z" />
    <glyph glyph-name="afii10026" unicode="&#x418;" horiz-adv-x="1503" 
d="M473 586l633 827h303v-1413h-377v819l-641 -819h-295v1413h377v-827z" />
    <glyph glyph-name="afii10027" unicode="&#x419;" horiz-adv-x="1503" 
d="M473 586l633 827h303v-1413h-377v819l-641 -819h-295v1413h377v-827zM752 1475q-113 0 -188 18q-73 18 -121 56q-45 36 -65 97q-20 60 -20 138h265q0 -54 30 -73q29 -19 99 -19q69 0 98 19q31 20 31 73h264q0 -78 -20 -138q-20 -61 -65 -97q-48 -38 -121 -56
q-75 -18 -187 -18z" />
    <glyph glyph-name="afii10028" unicode="&#x41a;" horiz-adv-x="1447" 
d="M993 0l-372 596h-146v-596h-379v1413h379v-717l504 717h422l-494 -651l541 -762h-455z" />
    <glyph glyph-name="afii10029" unicode="&#x41b;" horiz-adv-x="1476" 
d="M551 772q0 -208 -23 -358q-23 -152 -71 -240q-51 -94 -125 -133q-77 -41 -185 -41h-120v309q53 0 88 27q34 27 55 88q22 63 29 161q8 106 8 246v582h1175v-1413h-381v1085h-450v-313z" />
    <glyph glyph-name="afii10030" unicode="&#x41c;" horiz-adv-x="1830" 
d="M475 840v-840h-379v1413h295l529 -610l522 610h293v-1413h-379v838l-441 -482z" />
    <glyph glyph-name="afii10031" unicode="&#x41d;" horiz-adv-x="1558" 
d="M475 858h608v555h379v-1413h-379v530h-608v-530h-379v1413h379v-555z" />
    <glyph glyph-name="afii10032" unicode="&#x41e;" horiz-adv-x="1673" 
d="M836 -31q-194 0 -340 35q-143 34 -237 119q-93 84 -138 225t-45 357q0 222 48 366q48 143 143 226q96 84 238 115q145 32 331 32q185 0 331 -32q143 -31 239 -115q95 -83 143 -226q48 -144 48 -366q0 -216 -45 -357t-138 -225q-94 -85 -236 -119q-146 -35 -342 -35z
M836 287q113 0 182 14q76 15 118 59q44 46 62 127q19 87 19 218q0 134 -19 223q-18 85 -63 128t-118 57q-69 13 -181 13q-113 0 -182 -13q-73 -14 -116 -57q-45 -45 -63 -127q-18 -83 -18 -224q0 -135 18 -218q17 -80 63 -127q42 -44 116 -59q67 -14 182 -14z" />
    <glyph glyph-name="afii10033" unicode="&#x41f;" horiz-adv-x="1550" 
d="M1456 0h-381v1085h-600v-1085h-379v1413h1360v-1413z" />
    <glyph glyph-name="afii10034" unicode="&#x420;" horiz-adv-x="1456" 
d="M1399 879q0 -295 -122 -434q-121 -138 -372 -138h-430v-307h-379v1413h805q131 0 225 -30q95 -30 155 -93q61 -64 89 -165q29 -104 29 -246zM475 1110v-500h334q104 0 157 58q52 56 52 200q0 75 -10 119q-11 48 -35 75t-66 38q-39 10 -102 10h-330z" />
    <glyph glyph-name="afii10035" unicode="&#x421;" horiz-adv-x="1589" 
d="M1528 575q-12 -160 -53 -277q-40 -115 -124 -188q-83 -72 -214 -107q-129 -34 -326 -34q-189 0 -329 35q-137 34 -229 119q-90 83 -134 225q-43 139 -43 357q0 224 46 366q47 145 137 226q93 84 229 115q140 32 323 32q178 0 310 -31q127 -30 212 -98t128 -177
q44 -111 59 -268h-379q-7 79 -29 130q-23 53 -57 78q-39 28 -97 38q-57 10 -147 10q-101 0 -166 -13q-67 -13 -109 -57q-43 -45 -61 -127q-18 -83 -18 -224q0 -135 18 -218q18 -80 61 -127q41 -44 109 -59q63 -14 166 -14q93 0 148 11q62 12 100 43t59 88q22 59 29 146h381z
" />
    <glyph glyph-name="afii10036" unicode="&#x422;" horiz-adv-x="1404" 
d="M1386 1085h-493v-1085h-381v1085h-494v328h1368v-328z" />
    <glyph glyph-name="afii10037" unicode="&#x423;" horiz-adv-x="1544" 
d="M391 0l205 336l-596 1077h457l344 -719l317 719h426l-715 -1413h-438z" />
    <glyph glyph-name="afii10038" unicode="&#x424;" horiz-adv-x="2054" 
d="M57 723q0 328 163 472q164 144 513 144h111v129h366v-129h111q349 0 513 -144q163 -144 163 -472q0 -329 -167 -482q-166 -153 -497 -153h-123v-143h-366v143h-121q-333 0 -499 153q-167 153 -167 482zM1210 1036v-645h82q156 0 240 72t84 250q0 93 -18 156
q-18 64 -57 100q-40 37 -104 52q-65 15 -157 15h-70zM438 713q0 -178 85 -250t241 -72h80v645h-70q-92 0 -157 -15q-64 -15 -104 -52q-39 -36 -57 -100q-18 -63 -18 -156z" />
    <glyph glyph-name="afii10039" unicode="&#x425;" horiz-adv-x="1531" 
d="M762 467l-293 -467h-465l502 719l-467 694h457l272 -450l281 450h442l-465 -696l502 -717h-471z" />
    <glyph glyph-name="afii10040" unicode="&#x426;" horiz-adv-x="1654" 
d="M475 328h533v1085h378v-1085h244v-656h-352v328h-1182v1413h379v-1085z" />
    <glyph glyph-name="afii10041" unicode="&#x427;" horiz-adv-x="1435" 
d="M68 1413h381v-495q0 -132 67 -178t195 -46q58 0 133 5q61 4 117 16v698h380v-1413h-380v418q-76 -12 -147 -20q-81 -9 -173 -9q-284 0 -429 131q-144 130 -144 408v485z" />
    <glyph glyph-name="afii10042" unicode="&#x428;" horiz-adv-x="2039" 
d="M475 328h363v1085h364v-1085h363v1085h379v-1413h-1848v1413h379v-1085z" />
    <glyph glyph-name="afii10043" unicode="&#x429;" horiz-adv-x="2209" 
d="M475 328h363v1085h364v-1085h363v1085h379v-1085h243v-656h-352v328h-1739v1413h379v-1085z" />
    <glyph glyph-name="afii10044" unicode="&#x42a;" horiz-adv-x="1609" 
d="M1559 489q0 -252 -122 -371q-121 -118 -372 -118h-727v1110h-324v303h703v-467h344q261 0 380 -105q118 -105 118 -352zM717 643v-340h266q98 0 146 39q49 40 49 137q0 98 -42 131t-157 33h-262z" />
    <glyph glyph-name="afii10045" unicode="&#x42b;" horiz-adv-x="1843" 
d="M1255 489q0 -253 -121 -371t-372 -118h-666v1413h379v-467h283q262 0 380 -105q117 -104 117 -352zM1747 0h-379v1413h379v-1413zM475 643v-340h205q98 0 146 39t48 137q0 99 -41 131q-42 33 -157 33h-201z" />
    <glyph glyph-name="afii10046" unicode="&#x42c;" horiz-adv-x="1396" 
d="M1346 489q0 -252 -122 -371q-121 -118 -372 -118h-756v1413h379v-467h373q262 0 380 -105t118 -352zM475 643v-340h295q98 0 146 39q49 40 49 137q0 98 -42 131t-157 33h-291z" />
    <glyph glyph-name="afii10047" unicode="&#x42d;" horiz-adv-x="1568" 
d="M430 575q7 -85 28 -146q19 -57 58 -88t98 -43q55 -11 148 -11q87 0 144 10q60 11 103 41q40 29 65 86t32 145h-522v285h522q-11 92 -34 143q-25 55 -65 82q-43 29 -103 38t-142 9q-89 0 -146 -10t-96 -38q-35 -25 -56 -78t-28 -130h-379q7 156 52 268q44 110 127 177
q85 68 214 98q135 31 310 31q182 0 321 -32q136 -31 229 -115q90 -81 137 -226q46 -142 46 -366q0 -218 -43 -357q-44 -142 -133 -225q-91 -85 -227 -119q-138 -35 -328 -35q-195 0 -325 34q-131 34 -216 107q-83 71 -124 188q-41 116 -48 277h381z" />
    <glyph glyph-name="afii10048" unicode="&#x42e;" horiz-adv-x="2140" 
d="M1362 -31q-164 0 -292 29q-127 29 -212 96q-86 68 -134 180t-63 283h-186v-557h-379v1413h379v-553h189q17 176 67 287q52 114 139 179q90 67 211 92q125 26 281 26q172 0 305 -32q129 -31 219 -115q88 -82 133 -226t45 -366q0 -214 -41 -357q-40 -140 -127 -225
q-86 -85 -219 -119q-135 -35 -315 -35zM1362 1126q-89 0 -148 -13q-61 -13 -100 -57q-39 -43 -57 -127q-19 -87 -19 -224q0 -131 19 -218q18 -82 57 -127q38 -44 100 -59q57 -14 148 -14q90 0 147 14q64 16 100 59q38 46 56 127q18 83 18 218q0 139 -18 223q-18 85 -57 128
t-100 57q-58 13 -146 13z" />
    <glyph glyph-name="afii10049" unicode="&#x42f;" horiz-adv-x="1456" 
d="M981 0v393h-326l-174 -393h-415l233 444q-122 62 -175 189q-52 123 -52 278q0 268 128 385t408 117h752v-1413h-379zM455 903q0 -119 51 -164t156 -45h319v416h-315q-115 0 -163 -45t-48 -162z" />
    <glyph glyph-name="afii10065" unicode="&#x430;" horiz-adv-x="1196" 
d="M401 -31q-163 0 -254 85q-92 86 -92 239q0 66 21 123q22 60 66 98q47 41 120 65q70 23 182 23q77 0 108 -1q46 -1 84 -3q29 -1 73 -5q46 -4 71 -5v78q0 70 -42 98q-43 29 -134 29q-83 0 -127 -26t-51 -97h-342q6 109 42 182q37 75 101 119q65 44 162 64q98 20 223 20
q244 0 378 -89t134 -296v-670h-344v195h-35q-33 -111 -121 -168q-90 -58 -223 -58zM571 213q83 0 144 36q60 35 65 122v53q-60 5 -106 6q-62 2 -88 2q-58 0 -91 -10q-34 -10 -53 -26q-18 -15 -23 -35q-5 -22 -5 -39q0 -60 40 -84q42 -25 117 -25z" />
    <glyph glyph-name="afii10066" unicode="&#x431;" horiz-adv-x="1245" 
d="M627 -31q-141 0 -249 31q-106 30 -175 101q-71 72 -105 187q-35 117 -35 285q0 144 12 276q12 137 60 242q50 110 148 189q100 80 270 117q38 9 96.5 22.5t102 24t77.5 18.5q107 26 197 60l80 -287q-82 -31 -170 -53q-90 -22 -225 -51q-93 -18 -150 -56q-57 -37 -90 -87
t-45 -111q-13 -64 -14 -132h32q30 92 116 149q84 56 214 56q88 0 158 -23q73 -24 130 -78q56 -53 89 -142q33 -88 33 -220q0 -146 -35 -246q-35 -101 -103 -160q-70 -61 -174 -86q-107 -26 -245 -26zM627 231q107 0 160 58t53 205q0 136 -52 190q-51 53 -161 53
q-104 0 -163 -53q-58 -52 -58 -190q0 -148 54 -205q55 -58 167 -58z" />
    <glyph glyph-name="afii10067" unicode="&#x432;" horiz-adv-x="1142" 
d="M80 1024h622q107 0 174 -20q68 -20 113 -56q43 -34 63 -81q19 -45 19 -99q0 -110 -64 -162t-182 -63v-41q131 -11 202 -62t71 -168q0 -124 -84 -198q-85 -74 -266 -74h-668v1024zM424 438v-213h184q66 0 106 24t40 83q0 45 -26 76q-26 30 -103 30h-201zM424 801v-205h203
q60 0 84 32t24 72q0 47 -26 73q-28 28 -119 28h-166z" />
    <glyph glyph-name="afii10068" unicode="&#x433;" horiz-adv-x="940" 
d="M80 1024h835v-262h-491v-762h-344v1024z" />
    <glyph glyph-name="afii10069" unicode="&#x434;" horiz-adv-x="1329" 
d="M995 0h-671v-272h-312v534h119q29 28 51 73q20 41 31 98q9 45 14 116q4 55 4 123v352h918v-762h158v-534h-312v272zM522 645q0 -134 -16 -224q-16 -93 -51 -159h350v500h-283v-117z" />
    <glyph glyph-name="afii10070" unicode="&#x435;" horiz-adv-x="1214" 
d="M1155 467h-747v-4q2 -131 56 -181q56 -51 157 -51q80 0 131 30q52 30 59 108h344q-6 -112 -44 -190q-38 -77 -104 -124q-66 -46 -163 -66q-98 -20 -223 -20q-141 0 -246 27t-173 89q-70 64 -104 165q-35 103 -35 256q0 156 35 263q35 106 104 169t173 90q105 27 243 27
q262 0 400 -106q137 -105 137 -359v-123zM408 573h401q0 125 -50 172q-51 48 -143 48t-148 -43q-55 -42 -60 -160v-17z" />
    <glyph glyph-name="afii10072" unicode="&#x436;" horiz-adv-x="1681" 
d="M676 506v518h330v-520l284 520h355l-287 -469l323 -555h-366l-209 414h-100v-414h-330v414h-101l-208 -414h-367l326 555l-289 469h356z" />
    <glyph glyph-name="afii10073" unicode="&#x437;" horiz-adv-x="1161" 
d="M578 793q-82 0 -134 -38q-50 -37 -55 -141h-334q5 124 42 210q38 86 107 137t171 72q107 22 235 22q132 0 226 -23q91 -22 148 -60t81 -90q25 -55 25 -114q0 -110 -69 -162q-70 -53 -192 -65v-41q139 -10 213 -62q74 -51 74 -166q0 -139 -121 -221t-385 -82
q-134 0 -240 23q-104 22 -174 75q-71 53 -108 139q-36 84 -41 216h334q5 -108 56 -149q53 -42 145 -42q83 0 132 22q46 21 46 79q0 37 -25 64q-24 26 -100 26h-129v190h131q59 0 82 27q22 26 22 61q0 18 -6 36q-6 19 -23 30t-49 19q-34 8 -85 8z" />
    <glyph glyph-name="afii10074" unicode="&#x438;" horiz-adv-x="1177" 
d="M766 0v543l-432 -543h-254v1024h332v-547l419 547h265v-1024h-330z" />
    <glyph glyph-name="afii10075" unicode="&#x439;" horiz-adv-x="1177" 
d="M766 0v543l-432 -543h-254v1024h332v-547l419 547h265v-1024h-330zM588 1130q-180 0 -267 70q-85 69 -85 230h231q0 -60 28 -85q27 -24 93 -24t93 24q28 25 28 85h231q0 -161 -85 -230q-87 -70 -267 -70z" />
    <glyph glyph-name="afii10076" unicode="&#x43a;" horiz-adv-x="1179" 
d="M821 557l359 -557h-394l-247 424h-115v-424h-344v1024h344v-516l346 516h381z" />
    <glyph glyph-name="afii10077" unicode="&#x43b;" horiz-adv-x="1181" 
d="M152 1024h950v-1024h-344v762h-289v-277q0 -130 -16 -220q-16 -91 -58 -153q-40 -60 -110 -90q-69 -30 -174 -30h-84v287q62 0 93 40q32 41 32 158v547z" />
    <glyph glyph-name="afii10078" unicode="&#x43c;" horiz-adv-x="1392" 
d="M412 543v-543h-332v1024h274l342 -387l342 387h275v-1024h-332v543l-285 -297z" />
    <glyph glyph-name="afii10079" unicode="&#x43d;" horiz-adv-x="1208" 
d="M424 655h360v369h344v-1024h-344v393h-360v-393h-344v1024h344v-369z" />
    <glyph glyph-name="afii10080" unicode="&#x43e;" horiz-adv-x="1247" 
d="M623 231q110 0 163 61q54 62 54 214q0 160 -55 224q-54 63 -162 63q-110 0 -163 -62q-52 -61 -52 -225q0 -155 52 -214q53 -61 163 -61zM623 1055q141 0 246 -27q106 -27 175 -90q71 -65 105 -169q35 -107 35 -263q0 -153 -35 -256q-34 -100 -105 -165q-67 -61 -175 -89
q-105 -27 -246 -27t-246 27q-107 27 -174 89q-71 65 -105 165q-35 103 -35 256q0 156 35 263q34 104 105 169q69 63 174 90t246 27z" />
    <glyph glyph-name="afii10081" unicode="&#x43f;" horiz-adv-x="1208" 
d="M80 1024h1048v-1024h-344v762h-360v-762h-344v1024z" />
    <glyph glyph-name="afii10082" unicode="&#x440;" horiz-adv-x="1257" 
d="M788 -31q-136 0 -218 63q-83 63 -111 179h-35v-580h-344v1393h344v-211h35q29 115 111 178q84 64 218 64q99 0 177 -26q75 -25 127 -89q50 -62 76 -169t26 -263q0 -155 -26 -261q-26 -104 -76 -165q-51 -62 -127 -87q-78 -26 -177 -26zM629 793q-88 0 -144 -40
q-57 -40 -61 -145v-182q0 -109 59 -152t146 -43q61 0 104 12q44 12 70 41t38 84q11 50 11 140q0 88 -12 143t-38 87q-25 31 -69 43q-43 12 -104 12z" />
    <glyph glyph-name="afii10083" unicode="&#x441;" horiz-adv-x="1208" 
d="M1155 422q-6 -128 -44 -216q-37 -86 -104 -139q-66 -52 -163 -75q-98 -23 -223 -23q-141 0 -246 27t-173 89q-70 64 -104 165q-35 103 -35 256q0 156 35 263q35 106 104 169t173 90q105 27 246 27q120 0 221 -22q97 -21 163 -72t104 -137q38 -87 44 -210h-344
q-11 104 -60 141q-50 38 -128 38q-108 0 -161 -62q-52 -61 -52 -225q0 -154 51 -214q52 -61 162 -61q80 0 131 42t59 149h344z" />
    <glyph glyph-name="afii10084" unicode="&#x442;" horiz-adv-x="1036" 
d="M1018 1024v-262h-328v-762h-344v762h-328v262h1000z" />
    <glyph glyph-name="afii10085" unicode="&#x443;" horiz-adv-x="1234" 
d="M473 20l-473 1004h401l230 -627l207 627h397l-584 -1393h-362z" />
    <glyph glyph-name="afii10086" unicode="&#x444;" horiz-adv-x="1581" 
d="M956 1055h15q134 0 236 -27t171 -90q71 -65 105 -169q35 -107 35 -263q0 -153 -35 -256q-34 -100 -105 -165q-67 -62 -171 -89q-102 -27 -236 -27h-15v-338h-331v338h-15q-134 0 -236 27q-104 27 -171 89q-71 65 -105 165q-35 103 -35 256q0 156 35 263q34 104 105 169
q69 63 171 90t236 27h15v358h331v-358zM956 793v-562h15q97 0 150 61t53 214q0 159 -54 224q-52 63 -149 63h-15zM625 231v562h-15q-96 0 -149 -63q-53 -64 -53 -224q0 -155 52 -214q53 -61 150 -61h15z" />
    <glyph glyph-name="afii10087" unicode="&#x445;" horiz-adv-x="1159" 
d="M580 336l-187 -336h-393l352 520l-338 504h400l168 -317l166 317h397l-338 -504l352 -520h-395z" />
    <glyph glyph-name="afii10088" unicode="&#x446;" horiz-adv-x="1286" 
d="M424 262h340v762h344v-762h158v-534h-314v272h-872v1024h344v-762z" />
    <glyph glyph-name="afii10089" unicode="&#x447;" horiz-adv-x="1157" 
d="M66 1024h342v-358q0 -61 34 -91t113 -30q40 0 87 5q37 4 91 17v457h344v-1024h-344v315q-56 -15 -127 -28q-73 -13 -137 -13q-105 0 -183 29q-76 28 -126 77t-72 110q-22 62 -22 128v406z" />
    <glyph glyph-name="afii10090" unicode="&#x448;" horiz-adv-x="1667" 
d="M424 262h244v762h331v-762h244v762h344v-1024h-1507v1024h344v-762z" />
    <glyph glyph-name="afii10091" unicode="&#x449;" horiz-adv-x="1765" 
d="M424 262h244v762h331v-762h244v762h344v-762h158v-534h-313v272h-1352v1024h344v-762z" />
    <glyph glyph-name="afii10092" unicode="&#x44a;" horiz-adv-x="1259" 
d="M600 1024v-313h180q115 0 200 -17t137 -56q54 -41 80 -107q26 -67 26 -164q0 -175 -90 -271t-289 -96h-588v762h-246v262h590zM600 479v-217h145q65 0 100 26q34 25 34 85q0 47 -27 77q-26 29 -104 29h-148z" />
    <glyph glyph-name="afii10093" unicode="&#x44b;" horiz-adv-x="1478" 
d="M543 711q105 0 187 -17q81 -17 130 -56q51 -40 75 -107q23 -63 23 -164q0 -176 -85 -271q-85 -96 -267 -96h-526v1024h344v-313h119zM1399 1024v-1024h-344v1024h344zM424 487v-229h111q59 0 90 28q30 27 30 89q0 51 -23 81q-24 31 -95 31h-113z" />
    <glyph glyph-name="afii10094" unicode="&#x44c;" horiz-adv-x="1126" 
d="M647 711q115 0 200 -17q86 -17 136 -56q54 -41 79 -107q25 -65 25 -164q0 -175 -90 -271t-286 -96h-631v1024h344v-313h223zM424 479v-217h186q66 0 101 26q34 25 34 85q0 47 -27 77q-26 29 -106 29h-188z" />
    <glyph glyph-name="afii10095" unicode="&#x44d;" horiz-adv-x="1208" 
d="M797 612q-16 100 -67 141q-49 40 -138 40q-77 0 -129 -38q-51 -38 -62 -141h-344q6 123 44 210q37 85 105 137q66 51 163 72q101 22 221 22q139 0 244 -27t174 -90t104 -169q35 -107 35 -263q0 -153 -35 -256q-34 -101 -104 -165q-67 -62 -174 -89q-105 -27 -244 -27
q-124 0 -224 23q-98 23 -164 75q-69 55 -105 139q-38 88 -44 216h344q7 -106 61 -149q53 -42 134 -42q92 0 142 41t65 146h-287v194h285z" />
    <glyph glyph-name="afii10096" unicode="&#x44e;" horiz-adv-x="1689" 
d="M1081 -31q-121 0 -215 21q-97 21 -160 69q-68 51 -106 129q-39 79 -51 199h-125v-387h-344v1024h344v-375h127q15 117 55 193q41 78 107 125q65 46 157 67t211 21q138 0 240 -27q103 -27 170 -90q66 -61 101 -169q34 -103 34 -263q0 -155 -34 -256q-35 -103 -101 -165
q-66 -61 -170 -89q-102 -27 -240 -27zM1081 793q-99 0 -149 -62q-49 -61 -49 -225q0 -155 49 -214q50 -61 149 -61q102 0 152 61q49 59 49 214q0 162 -49 224q-50 63 -152 63z" />
    <glyph glyph-name="afii10097" unicode="&#x44f;" horiz-adv-x="1175" 
d="M750 315h-172l-158 -315h-383l221 358q-99 44 -145 122q-47 80 -47 179q0 86 23 149q24 67 74 115q48 46 128 74q78 27 188 27h615v-1024h-344v315zM410 655q0 -47 24 -77q25 -31 92 -31h224v215h-215q-74 0 -100 -29q-25 -28 -25 -78z" />
    <glyph glyph-name="uni0450" unicode="&#x450;" horiz-adv-x="1214" 
d="M1155 467h-747v-4q2 -131 56 -181q56 -51 157 -51q80 0 131 30q52 30 59 108h344q-6 -112 -44 -190q-38 -77 -104 -124q-66 -46 -163 -66q-98 -20 -223 -20q-141 0 -246 27t-173 89q-70 64 -104 165q-35 103 -35 256q0 156 35 263q35 106 104 169t173 90q105 27 243 27
q262 0 400 -106q137 -105 137 -359v-123zM408 573h401q0 125 -50 172q-51 48 -143 48t-148 -43q-55 -42 -60 -160v-17zM227 1483h342l170 -312h-198z" />
    <glyph glyph-name="afii10071" unicode="&#x451;" horiz-adv-x="1214" 
d="M1155 467h-747v-4q2 -131 56 -181q56 -51 157 -51q80 0 131 30q52 30 59 108h344q-6 -112 -44 -190q-38 -77 -104 -124q-66 -46 -163 -66q-98 -20 -223 -20q-141 0 -246 27t-173 89q-70 64 -104 165q-35 103 -35 256q0 156 35 263q35 106 104 169t173 90q105 27 243 27
q262 0 400 -106q137 -105 137 -359v-123zM408 573h401q0 125 -50 172q-51 48 -143 48t-148 -43q-55 -42 -60 -160v-17zM258 1171v240h264v-240h-264zM698 1171v240h267v-240h-267z" />
    <glyph glyph-name="afii10099" unicode="&#x452;" horiz-adv-x="1216" 
d="M440 1247h344v-157h-344v-400h35q27 115 107 179q79 63 202 63q83 0 149 -18q69 -19 114 -58q46 -40 72 -110t26 -173v-555q0 -90 -20 -164q-20 -73 -63 -125q-44 -53 -115 -80q-73 -28 -171 -28h-106v277h37q49 0 71 31q23 32 23 110v483q0 88 -45 118t-133 30
q-82 0 -130 -36t-53 -110v-524h-344v1090h-131v157h131v166h344v-166z" />
    <glyph glyph-name="afii10100" unicode="&#x453;" horiz-adv-x="940" 
d="M80 1024h835v-262h-491v-762h-344v1024zM379 1171l170 312h342l-313 -312h-199z" />
    <glyph glyph-name="afii10101" unicode="&#x454;" horiz-adv-x="1208" 
d="M696 418h-288q15 -106 65 -146q52 -41 143 -41q85 0 136 42q50 42 61 149h342q-6 -130 -43 -216q-38 -87 -104 -139q-67 -52 -164 -75q-98 -23 -223 -23q-141 0 -246 27t-173 89q-70 64 -104 165q-35 103 -35 256q0 156 35 263q35 106 104 169t173 90q105 27 246 27
q121 0 220 -22q95 -21 161 -72q68 -52 105 -137q38 -87 44 -210h-344q-11 103 -62 141q-52 38 -129 38q-89 0 -139 -40t-67 -141h286v-194z" />
    <glyph glyph-name="afii10102" unicode="&#x455;" horiz-adv-x="1110" 
d="M549 819q-94 0 -128 -23q-36 -24 -36 -63q0 -35 30 -51t81 -27l276 -51q147 -28 219 -96t72 -195q0 -78 -26 -144t-85 -109t-155 -67t-238 -24q-130 0 -230 19q-95 18 -158 63q-62 45 -93 118t-35 181h330q5 -85 56 -114q54 -31 138 -31q106 0 141 26t35 72q0 39 -30 54
q-31 15 -84 26l-289 55q-130 24 -202 93t-72 204q0 70 23 126q24 60 80 102q56 43 148 67q95 25 230 25q118 0 215 -19q92 -18 154 -61t97 -113q33 -67 38 -172h-324q-4 76 -58 103q-52 26 -120 26z" />
    <glyph glyph-name="afii10103" unicode="&#x456;" horiz-adv-x="522" 
d="M432 1024v-1024h-344v1024h344zM80 1157v254h360v-254h-360z" />
    <glyph glyph-name="afii10104" unicode="&#x457;" horiz-adv-x="522" 
d="M432 1024v-1024h-344v1024h344zM-92 1171v240h264v-240h-264zM348 1171v240h266v-240h-266z" />
    <glyph glyph-name="afii10105" unicode="&#x458;" horiz-adv-x="514" 
d="M10 -102q44 0 60 31t16 110v985h344v-1006q0 -94 -19 -164q-19 -71 -64 -125q-44 -53 -115 -80q-73 -28 -171 -28h-61v277h10zM78 1157v254h360v-254h-360z" />
    <glyph glyph-name="afii10106" unicode="&#x459;" horiz-adv-x="1755" 
d="M1276 711q115 0 200 -17q86 -17 136 -56q54 -41 79 -107q25 -65 25 -164q0 -175 -90 -271t-287 -96h-610v762h-260v-277q0 -130 -16 -220q-16 -91 -58 -153q-40 -60 -110 -90q-69 -30 -174 -30h-84v287q62 0 93 40q32 41 32 158v547h921v-313h203zM1073 479v-217h180
q65 0 100 26q33 24 33 85q0 48 -26 77t-105 29h-182z" />
    <glyph glyph-name="afii10107" unicode="&#x45a;" horiz-adv-x="1781" 
d="M1303 711q114 0 199 -17t137 -56q54 -41 80 -107q26 -67 26 -164q0 -176 -91 -271q-92 -96 -288 -96h-608v393h-334v-393h-344v1024h344v-369h334v369h344v-313h201zM1102 479v-217h178q65 0 100 26t35 85q0 47 -27 77q-26 29 -106 29h-180z" />
    <glyph glyph-name="afii10108" unicode="&#x45b;" horiz-adv-x="1216" 
d="M440 1247h344v-157h-344v-400h35q27 115 107 179q79 63 202 63q83 0 149 -18q69 -19 114 -58q46 -40 72 -110t26 -173v-573h-344v522q0 88 -45 118t-133 30q-82 0 -130 -36t-53 -110v-524h-344v1090h-131v157h131v166h344v-166z" />
    <glyph glyph-name="afii10109" unicode="&#x45c;" horiz-adv-x="1179" 
d="M821 557l359 -557h-394l-247 424h-115v-424h-344v1024h344v-516l346 516h381zM477 1171l170 312h342l-313 -312h-199z" />
    <glyph glyph-name="uni045D" unicode="&#x45d;" horiz-adv-x="1200" 
d="M416 379q0 -88 42 -118t124 -30q72 0 133 35q59 34 61 123v635h344v-1024h-344v211h-35q-28 -116 -112 -179t-207 -63q-80 0 -144 18q-65 18 -111 58q-47 41 -71 110t-24 173v696h344v-645zM215 1483h342l170 -312h-199z" />
    <glyph glyph-name="afii10110" unicode="&#x45e;" horiz-adv-x="1234" 
d="M473 20l-473 1004h401l230 -627l207 627h397l-584 -1393h-362zM616 1130q-180 0 -267 70q-85 69 -85 230h232q0 -61 27 -85t93 -24q67 0 94 24t27 85h232q0 -161 -85 -230q-87 -70 -268 -70z" />
    <glyph glyph-name="afii10193" unicode="&#x45f;" horiz-adv-x="1187" 
d="M438 0h-358v1024h344v-762h340v762h344v-1024h-358v-272h-312v272z" />
    <glyph glyph-name="afii10146" unicode="&#x462;" horiz-adv-x="1566" 
d="M1516 489q0 -252 -122 -371q-121 -118 -372 -118h-729v1083h-283v193h283v137h379v-137h358v-193h-358v-137h346q262 0 380 -105t118 -352zM672 643v-340h268q98 0 146 39q49 40 49 137q0 98 -42 131t-157 33h-264z" />
    <glyph glyph-name="afii10194" unicode="&#x463;" horiz-adv-x="1198" 
d="M195 1143v270h344v-270h321v-209h-321v-223h180q115 0 200 -17t137 -56q54 -41 80 -107q25 -65 25 -164q0 -175 -90 -271t-289 -96h-587v934h-185v209h185zM539 479v-217h145q64 0 99 26q34 25 34 85q0 48 -26 77t-105 29h-147z" />
    <glyph glyph-name="afii10147" unicode="&#x472;" horiz-adv-x="1673" 
d="M836 -31q-194 0 -340 35q-143 34 -237 119q-93 84 -138 225t-45 357q0 222 48 366q48 143 143 226q96 84 238 115q145 32 331 32q185 0 331 -32q143 -31 239 -115q95 -83 143 -226q48 -144 48 -366q0 -216 -45 -357t-138 -225q-94 -85 -236 -119q-146 -35 -342 -35z
M836 287q103 0 166 11q72 13 113 45q45 36 68 96t29 163h-753q6 -103 29 -163q23 -61 69 -96q42 -32 113 -45q62 -11 166 -11zM836 1126q-100 0 -164 -10q-68 -11 -113 -42q-43 -30 -68 -92q-24 -60 -30 -161h751q-8 103 -31 161q-24 61 -69 92t-113 42q-64 10 -163 10z" />
    <glyph glyph-name="afii10195" unicode="&#x473;" horiz-adv-x="1247" 
d="M623 1055q141 0 246 -27q106 -27 175 -90q71 -65 105 -169q35 -107 35 -263q0 -153 -35 -256q-34 -100 -105 -165q-67 -61 -175 -89q-105 -27 -246 -27t-246 27q-107 27 -174 89q-71 65 -105 165q-35 103 -35 256q0 156 35 263q34 104 105 169q69 63 174 90t246 27z
M623 231q97 0 151 48t64 163h-428q11 -117 62 -163q54 -48 151 -48zM623 793q-95 0 -147 -43t-64 -154h422q-15 111 -67 154t-144 43z" />
    <glyph glyph-name="afii10148" unicode="&#x474;" horiz-adv-x="1503" 
d="M938 0h-332l-606 1413h424l354 -964l207 649q27 100 64 172q35 69 80 105q47 38 107 53q64 16 138 16h119v-309q-71 0 -124 -81q-51 -78 -103 -223z" />
    <glyph glyph-name="afii10196" unicode="&#x475;" horiz-adv-x="1191" 
d="M0 1024h401l230 -629l127 381q25 73 43 117q21 52 53 85q31 32 84 51q51 18 133 18h109v-287q-53 0 -80 -21t-49 -67l-297 -672h-262z" />
    <glyph glyph-name="afii10050" unicode="&#x490;" horiz-adv-x="1255" 
d="M1223 1085h-748v-1085h-379v1413h774v328h353v-656z" />
    <glyph glyph-name="afii10098" unicode="&#x491;" horiz-adv-x="940" 
d="M915 762h-491v-762h-344v1024h522v272h313v-534z" />
    <glyph glyph-name="uni0492" unicode="&#x492;" horiz-adv-x="1368" 
d="M1335 1085h-747v-292h366v-238h-366v-555h-379v555h-193v238h193v620h1126v-328z" />
    <glyph glyph-name="uni0493" unicode="&#x493;" horiz-adv-x="985" 
d="M125 375h-102v180h102v469h836v-262h-492v-207h291v-180h-291v-375h-344v375z" />
    <glyph glyph-name="uni0496" unicode="&#x496;" horiz-adv-x="2140" 
d="M1630 0l-282 571h-127v-571h-381v571h-127l-283 -571h-426l424 741l-381 672h404l389 -733v733h381v-733l389 733h403l-383 -672l238 -413h248v-656h-353v328h-133z" />
    <glyph glyph-name="uni0497" unicode="&#x497;" horiz-adv-x="1744" 
d="M1315 0l-209 414h-100v-414h-330v414h-101l-208 -414h-367l326 555l-289 469h356l283 -518v518h330v-520l284 520h355l-287 -469l170 -293h196v-534h-313v272h-96z" />
    <glyph glyph-name="uni0498" unicode="&#x498;" horiz-adv-x="1466" 
d="M582 -23q-139 15 -240 56q-98 40 -163 113q-64 71 -96 180t-38 249h375q6 -94 26 -148q21 -57 61 -88q41 -32 99 -42q57 -10 142 -10q151 0 217 36q65 35 65 115q0 72 -41 105q-39 32 -162 32h-209v281h195q103 0 141 38q37 37 37 95q0 77 -59 107q-60 30 -197 30
q-78 0 -131 -10q-54 -10 -92 -39q-37 -28 -55 -80q-20 -56 -21 -133h-370q0 158 42 269q42 112 125 180q86 70 210 100q130 31 296 31q327 0 481 -101q152 -100 152 -313q0 -125 -68 -193q-69 -69 -180 -96v-20q145 -22 216 -107t71 -213q0 -370 -477 -421v-308h-352v305z
" />
    <glyph glyph-name="uni0499" unicode="&#x499;" horiz-adv-x="1161" 
d="M453 -23q-196 22 -297 125q-102 103 -109 320h334q5 -108 56 -149q53 -42 145 -42q83 0 132 22q46 21 46 79q0 37 -25 64q-24 26 -100 26h-129v190h131q59 0 82 27q22 26 22 61q0 18 -6 36q-6 19 -23 30t-49 19q-34 8 -85 8q-82 0 -134 -38q-50 -37 -55 -141h-334
q5 124 42 210q38 86 107 137t171 72q107 22 235 22q132 0 226 -23q91 -22 148 -60t81 -90q25 -55 25 -114q0 -110 -69 -162q-70 -53 -192 -65v-41q139 -10 213 -62q74 -51 74 -166q0 -116 -84 -193t-266 -99v-252h-313v249z" />
    <glyph glyph-name="uni049A" unicode="&#x49a;" horiz-adv-x="1497" 
d="M993 0l-372 596h-146v-596h-379v1413h379v-717l504 717h422l-494 -651l307 -434h259v-656h-353v328h-127z" />
    <glyph glyph-name="uni049B" unicode="&#x49b;" horiz-adv-x="1222" 
d="M786 0l-247 424h-115v-424h-344v1024h344v-516l346 516h381l-330 -467l189 -295h192v-534h-313v272h-103z" />
    <glyph glyph-name="uni049C" unicode="&#x49c;" horiz-adv-x="1550" 
d="M475 817h78v270h180v-270h47l285 596h436l-401 -690l444 -723h-461l-303 608h-47v-295h-180v295h-78v-608h-379v1413h379v-596z" />
    <glyph glyph-name="uni049D" unicode="&#x49d;" horiz-adv-x="1267" 
d="M424 625h63v231h142v-231h41l168 399h383l-256 -487l297 -537h-404l-188 442h-41v-221h-142v221h-63v-442h-344v1024h344v-399z" />
    <glyph glyph-name="uni04A0" unicode="&#x4a0;" horiz-adv-x="1689" 
d="M1235 0l-373 596h-145v-596h-379v1110h-324v303h703v-717l504 717h421l-493 -651l541 -762h-455z" />
    <glyph glyph-name="uni04A1" unicode="&#x4a1;" horiz-adv-x="1355" 
d="M997 557l359 -557h-393l-248 424h-115v-424h-344v762h-246v262h590v-516l346 516h381z" />
    <glyph glyph-name="uni04A2" unicode="&#x4a2;" horiz-adv-x="1728" 
d="M1083 0v530h-608v-530h-379v1413h379v-555h608v555h379v-1085h244v-656h-352v328h-271z" />
    <glyph glyph-name="uni04A3" unicode="&#x4a3;" horiz-adv-x="1310" 
d="M784 0v393h-360v-393h-344v1024h344v-369h360v369h344v-762h162v-534h-313v272h-193z" />
    <glyph glyph-name="uni04AA" unicode="&#x4aa;" horiz-adv-x="1589" 
d="M635 -23q-144 15 -249 60q-106 45 -175 131q-69 85 -102 217q-33 131 -33 320q0 224 46 366q47 145 137 226q93 84 229 115q140 32 323 32q178 0 310 -31q127 -30 212 -98t128 -177q44 -111 59 -268h-379q-7 79 -29 130q-23 53 -57 78q-39 28 -97 38q-57 10 -147 10
q-101 0 -166 -13q-67 -13 -109 -57q-43 -45 -61 -127q-18 -83 -18 -224q0 -135 18 -218q18 -80 61 -127q41 -44 109 -59q63 -14 166 -14q93 0 148 11q62 12 100 43t59 88q22 59 29 146h381q-12 -140 -44 -248q-32 -107 -95 -179t-161 -114t-241 -57v-305h-352v305z" />
    <glyph glyph-name="uni04AB" unicode="&#x4ab;" horiz-adv-x="1208" 
d="M465 -20q-204 27 -302 146q-100 121 -100 380q0 156 35 263q35 106 104 169t173 90q105 27 246 27q120 0 221 -22q97 -21 163 -72t104 -137q38 -87 44 -210h-344q-11 104 -60 141q-50 38 -128 38q-108 0 -161 -62q-52 -61 -52 -225q0 -154 51 -214q52 -61 162 -61
q80 0 131 42t59 149h344q-12 -216 -106 -317q-93 -101 -271 -125v-252h-313v252z" />
    <glyph glyph-name="uni04AE" unicode="&#x4ae;" horiz-adv-x="1581" 
d="M430 1413l367 -641l360 641h424l-594 -973v-440h-381v430l-606 983h430z" />
    <glyph glyph-name="uni04AF" unicode="&#x4af;" horiz-adv-x="1220" 
d="M793 84v-453h-344v457l-449 936h401l224 -610l211 610h385z" />
    <glyph glyph-name="uni04B0" unicode="&#x4b0;" horiz-adv-x="1581" 
d="M430 1413l367 -641l360 641h424l-561 -917h280v-181h-313v-315h-381v315h-313v181h272l-565 917h430z" />
    <glyph glyph-name="uni04B1" unicode="&#x4b1;" horiz-adv-x="1220" 
d="M1018 0h-230v-369h-344v369h-221v154h195l-418 870h401l224 -610l211 610h385l-398 -870h195v-154z" />
    <glyph glyph-name="uni04B2" unicode="&#x4b2;" horiz-adv-x="1589" 
d="M762 467l-293 -467h-465l502 719l-467 694h457l272 -450l281 450h442l-465 -696l272 -389h269v-656h-353v328h-157z" />
    <glyph glyph-name="uni04B3" unicode="&#x4b3;" horiz-adv-x="1208" 
d="M580 336l-187 -336h-393l352 520l-338 504h400l168 -317l166 317h397l-338 -504l174 -258h205v-534h-314v272h-108z" />
    <glyph glyph-name="uni04B6" unicode="&#x4b6;" horiz-adv-x="1607" 
d="M961 0v418q-76 -12 -147 -20q-81 -9 -173 -9q-284 0 -429 131q-144 130 -144 408v485h381v-495q0 -132 67 -178t195 -46q58 0 133 5q61 4 117 16v698h380v-1085h242v-656h-352v328h-270z" />
    <glyph glyph-name="uni04B7" unicode="&#x4b7;" horiz-adv-x="1259" 
d="M733 0v315q-56 -15 -127 -28q-73 -13 -137 -13q-105 0 -183 29q-76 28 -126 77t-72 110q-22 62 -22 128v406h342v-358q0 -61 34 -91t113 -30q40 0 87 5q37 4 91 17v457h344v-762h162v-534h-313v272h-193z" />
    <glyph glyph-name="uni04B8" unicode="&#x4b8;" horiz-adv-x="1435" 
d="M68 1413h381v-495q0 -109 45 -157t131 -63v246h180v-248q29 3 83 9q46 5 73 10v698h380v-1413h-380v418q-59 -8 -74 -10q-50 -8 -82 -11v-227h-180v219q-277 5 -417 134q-140 130 -140 405v485z" />
    <glyph glyph-name="uni04B9" unicode="&#x4b9;" horiz-adv-x="1185" 
d="M66 1024h342v-358q0 -52 25 -80q26 -29 85 -39v192h125v-192q61 5 117 20v457h344v-1024h-344v315q-10 -3 -29.5 -8t-28.5 -7q-19 -5 -59 -11v-185h-125v170h-35q-109 0 -190 29q-80 29 -130 77q-51 49 -74 110q-23 60 -23 128v406z" />
    <glyph glyph-name="uni04BA" unicode="&#x4ba;" horiz-adv-x="1435" 
d="M96 0v1413h379v-418q76 12 147 20q81 9 173 9q285 0 430 -131q143 -130 143 -408v-485h-379v496q0 131 -67 177t-195 46q-57 0 -134 -5q-61 -4 -118 -16v-698h-379z" />
    <glyph glyph-name="uni04BB" unicode="&#x4bb;" horiz-adv-x="1200" 
d="M784 645q0 88 -45 118t-133 30q-82 0 -130 -36q-47 -36 -52 -110v-647h-344v1413h344v-600h35q27 116 106 179t203 63q82 0 148 -18q69 -19 114 -58q48 -42 73 -110t25 -173v-696h-344v645z" />
    <glyph glyph-name="uni04C0" unicode="&#x4c0;" horiz-adv-x="575" 
d="M477 0h-379v1413h379v-1413z" />
    <glyph glyph-name="uni04CF" unicode="&#x4cf;" horiz-adv-x="509" 
d="M428 0h-344v1413h344v-1413z" />
    <glyph glyph-name="uni04D8" unicode="&#x4d8;" horiz-adv-x="1601" 
d="M795 1444q180 0 319 -32q135 -31 228 -115q92 -83 138 -226q46 -142 46 -366q0 -218 -43 -357q-44 -142 -133 -225q-90 -84 -228 -119t-327 -35q-191 0 -329 35q-135 34 -223 110q-87 75 -127 191t-40 281v186h1067q-4 114 -26 187q-21 70 -62 108q-38 35 -106 48
q-59 11 -154 11q-91 0 -151 -9q-58 -9 -99 -34q-40 -25 -58 -66q-19 -43 -26 -106h-379q12 142 58 243t132 166q84 64 215 94q129 30 308 30zM784 287q87 0 146 10q60 10 104 39t68 80q25 52 35 135h-695l2 -31q6 -134 91 -184q83 -49 249 -49z" />
    <glyph glyph-name="afii10846" unicode="&#x4d9;" horiz-adv-x="1214" 
d="M59 557h748q-1 135 -55 185q-54 51 -152 51q-78 0 -128 -30t-60 -108h-344q8 115 45 191q38 77 103 123q66 46 164 66q100 20 222 20q140 0 243 -27q105 -27 171 -89t101 -165q34 -101 34 -256q0 -160 -34 -263q-35 -107 -103 -169q-69 -63 -174 -90t-244 -27
q-261 0 -399 106t-138 359v123zM598 231q91 0 148 42q56 42 61 157h-402q0 -112 53 -156q52 -43 140 -43z" />
    <glyph glyph-name="uni04E2" unicode="&#x4e2;" horiz-adv-x="1503" 
d="M473 586l633 827h303v-1413h-377v819l-641 -819h-295v1413h377v-827zM1114 1556h-723v220h723v-220z" />
    <glyph glyph-name="uni04E3" unicode="&#x4e3;" horiz-adv-x="1177" 
d="M766 0v543l-432 -543h-254v1024h332v-547l419 547h265v-1024h-330zM950 1188h-723v219h723v-219z" />
    <glyph glyph-name="uni04E8" unicode="&#x4e8;" horiz-adv-x="1673" 
d="M836 -31q-194 0 -340 35q-143 34 -237 119q-93 84 -138 225t-45 357q0 222 48 366q48 143 143 226q96 84 238 115q145 32 331 32q185 0 331 -32q143 -31 239 -115q95 -83 143 -226q48 -144 48 -366q0 -216 -45 -357t-138 -225q-94 -85 -236 -119q-146 -35 -342 -35z
M836 287q103 0 166 11q72 13 113 45q45 36 68 96t29 163h-753q6 -103 29 -163q23 -61 69 -96q42 -32 113 -45q62 -11 166 -11zM836 1126q-100 0 -164 -10q-68 -11 -113 -42q-43 -30 -68 -92q-24 -60 -30 -161h751q-8 103 -31 161q-24 61 -69 92t-113 42q-64 10 -163 10z" />
    <glyph glyph-name="uni04E9" unicode="&#x4e9;" horiz-adv-x="1247" 
d="M623 1055q141 0 246 -27q106 -27 175 -90q71 -65 105 -169q35 -107 35 -263q0 -153 -35 -256q-34 -100 -105 -165q-67 -61 -175 -89q-105 -27 -246 -27t-246 27q-107 27 -174 89q-71 65 -105 165q-35 103 -35 256q0 156 35 263q34 104 105 169q69 63 174 90t246 27z
M623 231q97 0 151 48t64 163h-428q11 -117 62 -163q54 -48 151 -48zM623 793q-95 0 -147 -43t-64 -154h422q-15 111 -67 154t-144 43z" />
    <glyph glyph-name="uni04EE" unicode="&#x4ee;" horiz-adv-x="1544" 
d="M391 0l205 336l-596 1077h457l344 -719l317 719h426l-715 -1413h-438zM1135 1556h-723v220h723v-220z" />
    <glyph glyph-name="uni04EF" unicode="&#x4ef;" horiz-adv-x="1234" 
d="M473 20l-473 1004h401l230 -627l207 627h397l-584 -1393h-362zM979 1188h-723v219h723v-219z" />
    <glyph glyph-name="uni1E9E" unicode="&#x1e9e;" horiz-adv-x="1568" 
d="M88 905q0 278 148 409q146 130 446 130q41 0 121 -2q28 -1 137 -7q24 -1 183 -15q94 -8 259 -21v-246l-321 -287l125 -37q78 -22 135 -50q61 -30 106 -76q47 -49 70 -113q25 -70 25 -164q0 -105 -26 -192q-25 -83 -83 -143q-57 -59 -151 -90q-96 -32 -232 -32
q-256 0 -367 113q-113 114 -98 342h318q-2 -77 39 -107q40 -30 102 -30q86 0 116 37q29 36 29 102q0 78 -48 111q-47 32 -144 61l-264 80v186l256 250q-120 6 -169 9q-58 3 -106 3q-112 0 -169 -48q-56 -47 -56 -189v-889h-381v905z" />
    <glyph glyph-name="uni2010" unicode="&#x2010;" horiz-adv-x="913" 
d="M844 377h-774v297h774v-297z" />
    <glyph glyph-name="uni2011" unicode="&#x2011;" horiz-adv-x="913" 
d="M844 377h-774v297h774v-297z" />
    <glyph glyph-name="figuredash" unicode="&#x2012;" horiz-adv-x="1146" 
d="M997 524h-847v269h847v-269z" />
    <glyph glyph-name="endash" unicode="&#x2013;" horiz-adv-x="1071" 
d="M1001 377h-931v297h931v-297z" />
    <glyph glyph-name="emdash" unicode="&#x2014;" horiz-adv-x="1384" 
d="M1315 377h-1245v297h1245v-297z" />
    <glyph glyph-name="quoteleft" unicode="&#x2018;" horiz-adv-x="503" 
d="M295 1098h137v-334h-360v303l145 346h195z" />
    <glyph glyph-name="quoteright" unicode="&#x2019;" horiz-adv-x="503" 
d="M92 764l117 315h-137v334h360v-303l-145 -346h-195z" />
    <glyph glyph-name="quotesinglbase" unicode="&#x201a;" horiz-adv-x="503" 
d="M92 -315l117 315h-137v334h360v-303l-145 -346h-195z" />
    <glyph glyph-name="quotedblleft" unicode="&#x201c;" horiz-adv-x="968" 
d="M758 1098h139v-334h-362v303l147 346h195zM295 1098h137v-334h-360v303l145 346h195z" />
    <glyph glyph-name="quotedblright" unicode="&#x201d;" horiz-adv-x="968" 
d="M555 764l119 315h-139v334h362v-303l-145 -346h-197zM92 764l117 315h-137v334h360v-303l-145 -346h-195z" />
    <glyph glyph-name="quotedblbase" unicode="&#x201e;" horiz-adv-x="968" 
d="M555 -315l119 315h-139v334h362v-303l-145 -346h-197zM92 -315l117 315h-137v334h360v-303l-145 -346h-195z" />
    <glyph glyph-name="dagger" unicode="&#x2020;" horiz-adv-x="1040" 
d="M918 836h-224v-1020h-348v1020h-223v294h223v406h348v-406h224v-294z" />
    <glyph glyph-name="daggerdbl" unicode="&#x2021;" horiz-adv-x="1040" 
d="M918 254h-224v-438h-348v438h-223v297h223v285h-223v294h223v406h348v-406h224v-294h-224v-285h224v-297z" />
    <glyph glyph-name="bullet" unicode="&#x2022;" horiz-adv-x="747" 
d="M371 395l-312 312l318 317l311 -311z" />
    <glyph glyph-name="ellipsis" unicode="&#x2026;" horiz-adv-x="1691" 
d="M666 0v334h360v-334h-360zM1260 0v334h360v-334h-360zM72 0v334h360v-334h-360z" />
    <glyph glyph-name="perthousand" unicode="&#x2030;" horiz-adv-x="2578" 
d="M1292 1413h236l-1014 -1413h-240zM430 1241q-30 0 -51 -6q-20 -6 -34 -26q-13 -19 -19 -57q-7 -44 -7 -99q0 -54 7 -96q6 -36 19 -56q14 -21 34 -27q21 -6 51 -6t51 6q20 6 34 27q14 22 20 56q6 36 6 96q0 61 -6 99q-6 37 -20 57t-34 26q-21 6 -51 6zM430 680
q-184 0 -267 83t-83 290q0 109 21 181q21 71 66 116q43 43 109 61q70 19 154 19t154 -19q65 -18 108 -61q44 -44 65 -116t21 -181q0 -207 -83 -290t-265 -83zM1366 535q-26 0 -51 -7q-21 -6 -34 -25q-13 -18 -19 -58q-7 -44 -7 -99q0 -53 7 -95q6 -36 19 -56q14 -21 34 -27
q21 -6 51 -6t51 6q20 6 34 27q13 20 19 56q7 42 7 95q0 55 -7 99q-6 40 -19 58q-13 19 -34 25q-24 7 -51 7zM1366 -27q-184 0 -267 83t-83 290q0 109 21 181q21 71 66 116q44 44 109 62q66 18 154 18t154 -18q63 -17 108 -62q44 -44 65 -116t21 -181q0 -207 -83 -290
t-265 -83zM2171 535q-27 0 -51 -7q-21 -6 -34 -25q-14 -20 -20 -58q-6 -37 -6 -99q0 -59 6 -95q6 -34 20 -56q14 -21 34 -27q21 -6 51 -6t51 6q20 6 34 27q13 20 19 56t6 95q0 62 -6 99q-6 40 -19 58q-13 19 -34 25q-25 7 -51 7zM2171 -27q-184 0 -267 83t-83 290
q0 109 21 181q21 71 66 116q44 44 109 62q66 18 154 18q87 0 153 -18q65 -18 109 -62t65 -116t21 -181q0 -207 -83 -290t-265 -83z" />
    <glyph glyph-name="guilsinglleft" unicode="&#x2039;" horiz-adv-x="583" 
d="M514 -2l-446 401v222l446 401v-334l-207 -180l207 -178v-332z" />
    <glyph glyph-name="guilsinglright" unicode="&#x203a;" horiz-adv-x="583" 
d="M274 508l-206 180v334l446 -401v-222l-446 -401v332z" />
    <glyph glyph-name="fraction" unicode="&#x2044;" horiz-adv-x="231" 
d="M508 1413h235l-1013 -1413h-240z" />
    <glyph glyph-name="uni2070" unicode="&#x2070;" horiz-adv-x="784" 
d="M393 1487q-30 0 -51 -6q-20 -6 -34 -26q-13 -19 -19 -57t-6 -100q0 -59 6 -95t19 -56q14 -21 34 -27q21 -6 51 -6t51 6q20 6 34 27q14 22 20 56q6 36 6 95q0 62 -6 100q-6 37 -20 57t-34 26q-21 6 -51 6zM393 926q-184 0 -267 83t-83 289q0 107 22 182q21 71 65 115
t110 62t153 18q88 0 154 -18q63 -17 108 -62q44 -44 65 -115q21 -72 21 -182q0 -206 -83 -289t-265 -83z" />
    <glyph glyph-name="uni2074" unicode="&#x2074;" horiz-adv-x="784" 
d="M446 1032h-397v158l430 469h195v-471h65v-156h-65v-80h-228v80zM446 1188v182l-170 -182h170z" />
    <glyph glyph-name="uni2075" unicode="&#x2075;" horiz-adv-x="784" 
d="M391 926q-169 0 -253 65q-85 66 -79 223h238q0 -55 19 -78q19 -24 73 -24q62 0 83 21q22 22 22 61q0 42 -19 69q-18 25 -80 25h-280v371h571v-189h-387v-61h141q168 0 231 -57q62 -56 62 -178q0 -116 -77 -182q-76 -66 -265 -66z" />
    <glyph glyph-name="uni2076" unicode="&#x2076;" horiz-adv-x="784" 
d="M393 926q-182 0 -266 62q-86 63 -86 210q0 48 10 84q10 35 32 73q20 35 55 71q34 36 79 79l158 154h299l-254 -223l-27 -23l2 -6q37 12 72 12q153 0 216 -63q62 -62 62 -170q0 -63 -17 -108q-18 -48 -58 -82q-39 -33 -109 -52q-67 -18 -168 -18zM395 1290q-67 0 -91 -24
q-23 -23 -23 -64q0 -40 23 -63q25 -25 89 -25q65 0 88 24q23 25 23 62q0 42 -22 67q-20 23 -87 23z" />
    <glyph glyph-name="uni2077" unicode="&#x2077;" horiz-adv-x="696" 
d="M115 952l295 518h-365v189h610v-152l-249 -555h-291z" />
    <glyph glyph-name="uni2078" unicode="&#x2078;" horiz-adv-x="784" 
d="M393 1257q-59 0 -82 -20q-24 -21 -24 -57q0 -39 23 -59q24 -21 83 -21t83 21t24 59q0 35 -25 57q-23 20 -82 20zM393 1368q50 0 70 17t20 53q0 69 -90 69q-88 0 -88 -69q0 -35 20 -53q18 -17 68 -17zM393 926q-101 0 -168 15q-65 14 -107 44q-40 29 -57 69q-16 39 -16 89
q0 76 42 118t120 54v12q-63 7 -98 46q-35 38 -35 110q0 40 16 73q17 35 54 62t100 42q61 15 149 15q91 0 152 -15t99 -42q37 -27 54 -62q17 -36 17 -73q0 -73 -36 -110q-37 -39 -97 -46v-12q161 -24 161 -172q0 -50 -16 -89q-17 -41 -56 -69q-42 -29 -108 -44
q-68 -15 -170 -15z" />
    <glyph glyph-name="uni2079" unicode="&#x2079;" horiz-adv-x="784" 
d="M383 1165l25 21l-2 6q-30 -6 -66 -6q-156 0 -223 66q-68 66 -68 163q0 59 18 105q19 50 57 82q41 35 106 54q64 19 165 19q178 0 259 -62q83 -63 83 -200q0 -45 -9 -83q-8 -35 -28 -74q-15 -30 -47 -72q-33 -44 -67 -84l-125 -148h-309zM397 1319q62 0 83 22q22 24 22 62
q0 37 -22 61q-21 23 -87 23q-61 0 -84 -24q-22 -23 -22 -62q0 -36 22 -59t88 -23z" />
    <glyph glyph-name="uni207A" unicode="&#x207a;" horiz-adv-x="784" 
d="M485 1595v-178h179v-186h-179v-178h-186v178h-178v186h178v178h186z" />
    <glyph glyph-name="uni207B" unicode="&#x207b;" horiz-adv-x="784" 
d="M664 1231h-543v186h543v-186z" />
    <glyph glyph-name="uni207C" unicode="&#x207c;" horiz-adv-x="784" 
d="M664 1374h-543v187h543v-187zM664 1090h-543v186h543v-186z" />
    <glyph glyph-name="uni207D" unicode="&#x207d;" horiz-adv-x="538" 
d="M135 1466q0 111 19 192q18 78 57 124q38 46 99 67q60 21 143 21h45v-178h-21q-30 0 -57 -6q-26 -6 -46 -29q-19 -22 -30 -68q-10 -43 -10 -123v-270q0 -88 10 -135q11 -50 30 -74q21 -25 46 -31q27 -6 57 -6h21v-178h-45q-80 0 -143 22q-61 21 -99 70q-39 50 -57 130
q-19 86 -19 200v272z" />
    <glyph glyph-name="uni207E" unicode="&#x207e;" horiz-adv-x="538" 
d="M403 1194q0 -119 -18 -200q-18 -80 -57 -130q-38 -49 -99 -70q-63 -22 -141 -22h-45v178h18q31 0 58 6q25 6 46 31q19 23 31 74q11 45 11 135v270q0 82 -11 123q-12 47 -31 68q-20 23 -46 29q-27 6 -58 6h-18v178h45q81 0 141 -21q61 -21 99 -67q39 -46 57 -124
q18 -76 18 -192v-272z" />
    <glyph glyph-name="uni2080" unicode="&#x2080;" horiz-adv-x="784" 
d="M393 289q-30 0 -51 -6q-20 -6 -34 -26q-13 -19 -19 -57t-6 -100q0 -59 6 -95t19 -56q14 -21 34 -27q21 -6 51 -6t51 6q20 6 34 27q14 22 20 56q6 36 6 95q0 62 -6 100q-6 37 -20 57t-34 26q-21 6 -51 6zM393 -272q-184 0 -267 83t-83 289q0 107 22 182q21 71 65 115
t110 62t153 18q88 0 154 -18q63 -17 108 -62q44 -44 65 -115q21 -72 21 -182q0 -206 -83 -289t-265 -83z" />
    <glyph glyph-name="uni2081" unicode="&#x2081;" horiz-adv-x="552" 
d="M459 -246h-256v377h-129v180h51q104 0 104 121v29h230v-707z" />
    <glyph glyph-name="uni2082" unicode="&#x2082;" horiz-adv-x="784" 
d="M377 98q58 35 76 64t18 59q0 31 -18 50q-18 20 -62 20q-47 0 -65 -27q-19 -29 -15 -92h-239q-8 165 74 235t247 70q94 0 157 -18q60 -17 99 -50q36 -31 52 -76q16 -46 16 -95q0 -67 -40 -126q-41 -61 -145 -110l-83 -51v-8h270v-189h-653v158z" />
    <glyph glyph-name="uni2083" unicode="&#x2083;" horiz-adv-x="784" 
d="M391 -272q-173 0 -259 65q-86 66 -79 223h238q0 -52 21 -76t77 -24q59 0 82 21t23 57q0 35 -21 56q-22 22 -90 22h-84v106l104 94h-313v189h590v-137l-156 -129h6q91 0 148 -55q55 -54 55 -152q0 -63 -16 -110t-57 -82q-39 -33 -105 -51q-62 -17 -164 -17z" />
    <glyph glyph-name="uni2084" unicode="&#x2084;" horiz-adv-x="784" 
d="M446 -166h-397v158l430 469h195v-471h65v-156h-65v-80h-228v80zM446 -10v182l-170 -182h170z" />
    <glyph glyph-name="uni2085" unicode="&#x2085;" horiz-adv-x="784" 
d="M391 -272q-169 0 -253 65q-85 66 -79 223h238q0 -55 19 -78q20 -24 73 -24q63 0 83 20q22 22 22 62q0 42 -19 69q-18 25 -80 25h-280v371h571v-189h-387v-61h141q168 0 231 -57q62 -56 62 -179q0 -115 -77 -181q-76 -66 -265 -66z" />
    <glyph glyph-name="uni2086" unicode="&#x2086;" horiz-adv-x="784" 
d="M393 -272q-182 0 -266 62q-86 63 -86 210q0 48 10 84q10 35 32 73q20 35 55 71q34 36 79 79l158 154h299l-254 -223l-27 -23l2 -6q37 12 72 12q153 0 216 -63q62 -62 62 -170q0 -63 -17 -108q-18 -48 -58 -82q-39 -33 -109 -52q-67 -18 -168 -18zM395 92q-67 0 -91 -24
q-23 -23 -23 -64q0 -40 23 -63q25 -25 89 -25q65 0 88 24q23 25 23 62q0 42 -22 67q-20 23 -87 23z" />
    <glyph glyph-name="uni2087" unicode="&#x2087;" horiz-adv-x="696" 
d="M115 -246l295 518h-365v189h610v-152l-249 -555h-291z" />
    <glyph glyph-name="uni2088" unicode="&#x2088;" horiz-adv-x="784" 
d="M393 59q-59 0 -82 -20q-24 -21 -24 -57q0 -39 23 -59q24 -21 83 -21t83 21t24 59q0 35 -25 57q-23 20 -82 20zM393 170q50 0 70 17t20 53q0 69 -90 69q-88 0 -88 -69q0 -35 20 -53q18 -17 68 -17zM393 -272q-101 0 -168 15q-65 14 -107 44q-40 29 -57 69q-16 39 -16 89
q0 75 42 117q43 43 120 55v12q-63 7 -98 46q-35 38 -35 110q0 40 16 73q17 35 54 62t100 42q61 15 149 15q91 0 152 -15t99 -42q37 -27 54 -62q17 -36 17 -73q0 -73 -36 -110q-37 -39 -97 -46v-12q161 -24 161 -172q0 -50 -16 -89q-17 -41 -56 -69q-42 -29 -108 -44
q-68 -15 -170 -15z" />
    <glyph glyph-name="uni2089" unicode="&#x2089;" horiz-adv-x="784" 
d="M383 -33l25 21l-2 6q-30 -6 -66 -6q-156 0 -223 66q-68 66 -68 163q0 59 18 105q19 48 57 81q43 36 106 55q64 19 165 19q178 0 259 -62q83 -63 83 -200q0 -45 -9 -83q-8 -35 -28 -74q-16 -33 -47 -73q-35 -46 -67 -83l-125 -148h-309zM397 121q62 0 83 22q22 24 22 62
q0 37 -22 61q-21 23 -87 23q-61 0 -84 -24q-22 -23 -22 -62q0 -36 22 -59t88 -23z" />
    <glyph glyph-name="uni208A" unicode="&#x208a;" horiz-adv-x="784" 
d="M485 387v-178h179v-186h-179v-179h-186v179h-178v186h178v178h186z" />
    <glyph glyph-name="uni208B" unicode="&#x208b;" horiz-adv-x="784" 
d="M664 23h-543v186h543v-186z" />
    <glyph glyph-name="uni208C" unicode="&#x208c;" horiz-adv-x="784" 
d="M664 166h-543v186h543v-186zM664 -119h-543v187h543v-187z" />
    <glyph glyph-name="uni208D" unicode="&#x208d;" horiz-adv-x="538" 
d="M135 258q0 111 19 192q18 76 57 123q40 47 99 68q60 21 143 21h45v-179h-21q-30 0 -57 -6t-46 -28t-30 -68q-10 -43 -10 -123v-270q0 -88 10 -135q11 -50 30 -74q21 -25 46 -31q27 -6 57 -6h21v-178h-45q-86 0 -143 20q-61 21 -99 70q-39 50 -57 130q-19 86 -19 202v272z
" />
    <glyph glyph-name="uni208E" unicode="&#x208e;" horiz-adv-x="538" 
d="M403 -14q0 -121 -18 -202q-18 -80 -57 -130q-38 -49 -99 -70q-57 -20 -141 -20h-45v178h18q31 0 58 6q25 6 46 31q19 23 31 74q11 45 11 135v270q0 82 -11 123q-12 47 -31 68q-19 22 -46 28t-58 6h-18v179h45q81 0 141 -21q59 -21 99 -68q39 -47 57 -123t18 -192v-272z
" />
    <glyph glyph-name="Euro" unicode="&#x20ac;" 
d="M844 479h-309q12 -61 31 -98q19 -36 50 -58q30 -21 72 -29q38 -7 94 -7q72 0 113 11q46 12 75 43t46 88t24 146h377q-12 -161 -48 -277q-36 -117 -109 -188q-74 -72 -190 -107q-114 -34 -288 -34q-139 0 -253 25q-109 24 -187 84q-80 61 -125 156q-47 99 -65 245h-109
v180h96v46v49h-96v180h109q21 155 69 250q49 98 128 156t188 81q110 23 245 23q160 0 278 -31q113 -30 187 -98q73 -67 114 -177q40 -108 52 -268h-379q-7 79 -23 130q-15 51 -44 78q-29 28 -74 38q-43 10 -111 10q-56 0 -94 -7q-45 -8 -72 -27q-30 -21 -50 -59
q-19 -36 -31 -99h309v-180h-324v-49v-46h324v-180z" />
    <glyph glyph-name="uni20B4" unicode="&#x20b4;" 
d="M729 -31q-190 0 -315 26q-122 25 -193 73q-70 47 -95 112q-26 67 -26 144q0 90 58 168h-90v180h1327v-180h-858q-29 -25 -37 -52q-8 -29 -8 -55q0 -27 8 -51q7 -22 34 -39q28 -18 71 -25q50 -8 122 -8q134 0 183 34q52 36 53 126h403q2 -122 -30 -207q-32 -87 -106 -140
q-76 -55 -198 -80q-125 -26 -303 -26zM1395 752h-1327v180h819q41 27 54 57q11 26 11 53q0 23 -7 43q-7 21 -30 36q-26 17 -64 24q-45 8 -110 8q-119 0 -172 -30q-53 -31 -49 -122h-375q-4 123 30 208q35 86 109 138q73 51 188 74q117 23 269 23q164 0 281 -28
q110 -26 181 -76q69 -48 97 -113q29 -67 29 -144q0 -87 -53 -151h119v-180z" />
    <glyph glyph-name="uni20B8" unicode="&#x20b8;" 
d="M1413 813h-493v-813h-379v813h-494v246h1366v-246zM1413 1167h-1366v246h1366v-246z" />
    <glyph glyph-name="uni20BD" unicode="&#x20bd;" 
d="M1147 172h-576v-172h-378v172h-162v207h162v123h-162v207h162v704h708q261 0 380 -114q118 -114 118 -375q0 -219 -122 -321q-120 -101 -372 -101h-334v-123h576v-207zM571 1110v-401h240q105 0 156 45t51 159q0 115 -45 156q-46 41 -166 41h-236z" />
    <glyph glyph-name="uni20BF" unicode="&#x20bf;" 
d="M377 -184v184h-271v1413h271v162h221v-162h207v162h221v-168q176 -21 253 -110t77 -269q0 -123 -68 -193t-180 -98v-18q144 -24 216 -108q71 -83 71 -212q0 -187 -91 -281q-93 -96 -278 -114v-188h-221v184h-207v-184h-221zM485 588v-285h351q93 0 140 32q46 31 46 114
q0 81 -41 110t-150 29h-346zM485 1110v-272h326q85 0 129 30q43 30 43 109q0 78 -38 105q-39 28 -138 28h-322z" />
    <glyph glyph-name="afii61352" unicode="&#x2116;" horiz-adv-x="2500" 
d="M387 1413l721 -848v848h358v-1413h-288l-725 831v-831h-357v1413h291zM2019 801q-167 0 -249 84q-82 83 -82 225q0 151 82 237q82 87 249 87q165 0 247 -87q83 -88 83 -237q0 -140 -83 -225q-82 -84 -247 -84zM2331 453h-625v215h625v-215zM2019 981q62 0 92 27
q31 28 31 102q0 84 -32 114q-30 29 -91 29q-64 0 -93 -29q-30 -30 -30 -114q0 -75 30 -102t93 -27z" />
    <glyph glyph-name="trademark" unicode="&#x2122;" horiz-adv-x="1701" 
d="M1057 1118v-350h-221v717h137l258 -291l260 291h137v-717h-223v346l-174 -178zM61 1485h676v-205h-217v-512h-239v512h-220v205z" />
    <glyph glyph-name="uni2150" unicode="&#x2150;" horiz-adv-x="1665" 
d="M1194 1413h236l-1014 -1413h-240zM459 707h-256v376h-129v181h51q104 0 104 120v29h230v-706zM1083 0l295 518h-364v189h610v-152l-250 -555h-291z" />
    <glyph glyph-name="uni2151" unicode="&#x2151;" horiz-adv-x="1708" 
d="M1307 213l24 20l-2 7q-35 -7 -65 -7q-155 0 -224 67q-67 66 -67 163q0 60 17 104q19 49 58 82q41 35 106 54q68 20 165 20q177 0 259 -63q83 -63 83 -199q0 -45 -9 -83q-8 -35 -28 -74q-16 -33 -47 -73q-24 -31 -68 -84l-125 -147h-309zM1194 1413h236l-1014 -1413h-240z
M459 707h-256v376h-129v181h51q104 0 104 120v29h230v-706zM1321 367q62 0 83 22t21 62q0 39 -21 61q-21 23 -87 23q-61 0 -84 -24q-23 -25 -23 -62q0 -34 23 -59q22 -23 88 -23z" />
    <glyph glyph-name="uni2152" unicode="&#x2152;" horiz-adv-x="2236" 
d="M1194 1413h236l-1014 -1413h-240zM459 707h-256v376h-129v181h51q104 0 104 120v29h230v-706zM1370 0h-256v377h-129v180h51q105 0 105 121v29h229v-707zM1845 535q-27 0 -51 -7q-21 -6 -34 -25q-13 -18 -19 -58q-6 -37 -6 -99q0 -59 6 -95t19 -56q14 -21 34 -27
q21 -6 51 -6t51 6q20 6 34 27q14 22 20 56q6 36 6 95q0 62 -6 99q-6 38 -20 58q-13 19 -34 25q-24 7 -51 7zM1845 -27q-184 0 -267 83t-83 290q0 106 22 181q21 72 65 116t110 62t153 18q88 0 154 -18q63 -17 108 -62q44 -44 65 -116t21 -181q0 -207 -83 -290t-265 -83z" />
    <glyph glyph-name="onethird" unicode="&#x2153;" horiz-adv-x="1708" 
d="M1194 1413h236l-1014 -1413h-240zM459 707h-256v376h-129v181h51q104 0 104 120v29h230v-706zM1315 -27q-172 0 -259 66q-86 66 -79 223h237q0 -52 22 -77q20 -23 77 -23q61 0 82 20q22 21 22 58q0 36 -20 56q-21 21 -90 21h-84v107l104 94h-313v189h590v-138l-156 -129
h6q92 0 148 -54q55 -54 55 -153q0 -60 -17 -109q-17 -48 -56 -82q-39 -33 -105 -51t-164 -18z" />
    <glyph glyph-name="twothirds" unicode="&#x2154;" horiz-adv-x="1810" 
d="M1296 1413h236l-1014 -1413h-239zM377 1051q59 35 76 63q18 28 18 60q0 30 -18 50q-18 19 -62 19q-48 0 -65 -26q-19 -29 -15 -93h-239q-8 165 74 235q83 71 247 71q91 0 157 -19q60 -17 99 -50q36 -31 52 -76q16 -46 16 -95q0 -67 -40 -126q-41 -61 -145 -110l-83 -51
v-8h270v-188h-653v157zM1417 -27q-172 0 -259 66q-86 66 -79 223h238q0 -53 21 -77q20 -23 77 -23q61 0 82 20q23 21 23 58q0 35 -21 56t-90 21h-84v107l105 94h-314v189h590v-138l-156 -129h6q92 0 148 -54q55 -54 55 -153q0 -62 -16 -109q-17 -48 -56 -82
q-38 -32 -106 -51q-66 -18 -164 -18z" />
    <glyph glyph-name="uni2155" unicode="&#x2155;" horiz-adv-x="1708" 
d="M1194 1413h236l-1014 -1413h-240zM459 707h-256v376h-129v181h51q104 0 104 120v29h230v-706zM1315 -27q-167 0 -253 66q-85 66 -79 223h238q0 -56 19 -79t73 -23q63 0 83 20q21 21 21 62q0 42 -18 68t-80 26h-281v371h572v-189h-387v-61h141q166 0 230 -58
q63 -57 63 -178q0 -115 -77 -181q-78 -67 -265 -67z" />
    <glyph glyph-name="uni2156" unicode="&#x2156;" horiz-adv-x="1818" 
d="M1305 1413h235l-1014 -1413h-239zM377 1051q59 35 76 63q18 28 18 60q0 30 -18 50q-18 19 -62 19q-48 0 -65 -26q-19 -29 -15 -93h-239q-8 165 74 235q83 71 247 71q91 0 157 -19q60 -17 99 -50q36 -31 52 -76q16 -46 16 -95q0 -67 -40 -126q-41 -61 -145 -110l-83 -51
v-8h270v-188h-653v157zM1425 -27q-167 0 -253 66q-84 65 -78 223h237q0 -54 20 -79q19 -23 72 -23q63 0 83 20q22 22 22 62q0 41 -19 68q-18 26 -79 26h-281v371h571v-189h-387v-61h142q166 0 230 -58q62 -56 62 -178q0 -115 -76 -181q-78 -67 -266 -67z" />
    <glyph glyph-name="uni2157" unicode="&#x2157;" horiz-adv-x="1810" 
d="M1296 1413h236l-1014 -1413h-239zM391 680q-173 0 -259 65q-87 66 -79 224h238q0 -53 21 -77t77 -24q59 0 82 21t23 57q0 35 -21 56q-22 22 -90 22h-84v106l104 95h-313v188h590v-137l-156 -129h6q92 0 148 -54q55 -54 55 -153q0 -63 -16 -110q-16 -46 -57 -81
q-40 -34 -105 -52q-62 -17 -164 -17zM1417 -27q-167 0 -253 66q-85 66 -79 223h238q0 -56 19 -79t73 -23q63 0 83 20q22 22 22 62q0 41 -19 68q-18 26 -80 26h-280v371h571v-189h-387v-61h141q167 0 231 -58q62 -56 62 -178q0 -115 -77 -181q-78 -67 -265 -67z" />
    <glyph glyph-name="uni2158" unicode="&#x2158;" horiz-adv-x="1818" 
d="M1305 1413h235l-1014 -1413h-239zM446 786h-397v158l430 469h195v-471h65v-156h-65v-79h-228v79zM446 942v182l-170 -182h170zM1425 -27q-167 0 -253 66q-84 65 -78 223h237q0 -54 20 -79q19 -23 72 -23q63 0 83 20q22 22 22 62q0 41 -19 68q-18 26 -79 26h-281v371h571
v-189h-387v-61h142q166 0 230 -58q62 -56 62 -178q0 -115 -76 -181q-78 -67 -266 -67z" />
    <glyph glyph-name="uni2159" unicode="&#x2159;" horiz-adv-x="1640" 
d="M1249 -27q-181 0 -266 63q-86 63 -86 210q0 48 10 84q9 33 32 72q22 37 55 72q34 36 79 79l158 154h299l-254 -224l-27 -22l2 -6q37 12 72 12q152 0 216 -64q63 -63 63 -170q0 -59 -18 -107t-58 -82q-39 -33 -109 -52q-71 -19 -168 -19zM1194 1413h236l-1014 -1413h-240z
M459 707h-256v376h-129v181h51q104 0 104 120v29h230v-706zM1251 338q-66 0 -91 -25q-23 -23 -23 -63q0 -41 23 -64q24 -24 89 -24q66 0 88 23q23 25 23 63q0 41 -22 66q-21 24 -87 24z" />
    <glyph glyph-name="uni215A" unicode="&#x215a;" horiz-adv-x="1728" 
d="M1337 -27q-181 0 -266 63q-86 63 -86 210q0 48 10 84q9 33 32 72q22 37 55 72q34 36 79 79l158 154h299l-254 -224l-27 -22l2 -6q37 12 72 12q152 0 216 -64q63 -63 63 -170q0 -59 -18 -107t-58 -82q-39 -33 -109 -52q-71 -19 -168 -19zM391 680q-169 0 -253 65
q-85 66 -79 224h238q0 -56 19 -79q19 -24 73 -24q62 0 83 21q22 22 22 61q0 42 -19 69q-18 25 -80 25h-280v371h571v-188h-387v-62h141q168 0 231 -57q62 -56 62 -178q0 -116 -77 -182q-76 -66 -265 -66zM1296 1413h236l-1014 -1413h-239zM1339 338q-66 0 -91 -25
q-23 -23 -23 -63q0 -41 23 -64q24 -24 89 -24q66 0 88 23q23 25 23 63q0 41 -22 66q-21 24 -87 24z" />
    <glyph glyph-name="oneeighth" unicode="&#x215b;" horiz-adv-x="1708" 
d="M1194 1413h236l-1014 -1413h-240zM459 707h-256v376h-129v181h51q104 0 104 120v29h230v-706zM1317 305q-59 0 -82 -20q-25 -22 -25 -58q0 -37 24 -58q25 -22 83 -22t83 22q23 20 23 58q0 37 -24 58q-23 20 -82 20zM1317 416q49 0 69 17q21 18 21 52q0 70 -90 70
q-88 0 -88 -70q0 -34 19 -52q18 -17 69 -17zM1317 -27q-96 0 -168 16q-66 15 -108 44q-40 28 -56 68q-16 39 -16 89q0 76 42 118t119 54v13q-63 7 -98 46q-35 38 -35 109q0 38 17 74q17 35 54 62q38 27 99 42t150 15t151 -15q63 -15 100 -42t54 -62q16 -33 16 -74
q0 -73 -35 -109q-37 -39 -98 -46v-13q162 -24 162 -172q0 -50 -16 -89t-57 -68q-42 -30 -107 -44q-72 -16 -170 -16z" />
    <glyph glyph-name="threeeighths" unicode="&#x215c;" horiz-adv-x="1810" 
d="M1296 1413h236l-1014 -1413h-239zM391 680q-173 0 -259 65q-87 66 -79 224h238q0 -53 21 -77t77 -24q59 0 82 21t23 57q0 35 -21 56q-22 22 -90 22h-84v106l104 95h-313v188h590v-137l-156 -129h6q92 0 148 -54q55 -54 55 -153q0 -63 -16 -110q-16 -46 -57 -81
q-40 -34 -105 -52q-62 -17 -164 -17zM1419 305q-59 0 -82 -20q-24 -21 -24 -58q0 -38 23 -58q25 -22 83 -22t83 22q24 21 24 58q0 36 -25 58q-23 20 -82 20zM1419 416q50 0 70 17t20 52q0 70 -90 70q-88 0 -88 -70q0 -34 20 -52q18 -17 68 -17zM1419 -27q-96 0 -168 16
q-65 14 -107 44q-41 29 -57 68t-16 89q0 76 42 118t120 54v13q-63 7 -98 46q-35 38 -35 109q0 41 16 74q17 35 54 62t100 42q62 15 149 15q91 0 152 -15t99 -42q37 -27 54 -62q17 -36 17 -74q0 -72 -36 -109q-37 -39 -97 -46v-13q161 -24 161 -172q0 -50 -16 -89
q-16 -40 -56 -68q-42 -29 -108 -44q-72 -16 -170 -16z" />
    <glyph glyph-name="fiveeighths" unicode="&#x215d;" horiz-adv-x="1810" 
d="M1296 1413h236l-1014 -1413h-239zM391 680q-169 0 -253 65q-85 66 -79 224h238q0 -56 19 -79q19 -24 73 -24q62 0 83 21q22 22 22 61q0 42 -19 69q-18 25 -80 25h-280v371h571v-188h-387v-62h141q168 0 231 -57q62 -56 62 -178q0 -116 -77 -182q-76 -66 -265 -66z
M1419 305q-59 0 -82 -20q-24 -21 -24 -58q0 -38 23 -58q25 -22 83 -22t83 22q24 21 24 58q0 36 -25 58q-23 20 -82 20zM1419 416q50 0 70 17t20 52q0 70 -90 70q-88 0 -88 -70q0 -34 20 -52q18 -17 68 -17zM1419 -27q-96 0 -168 16q-65 14 -107 44q-41 29 -57 68t-16 89
q0 76 42 118t120 54v13q-63 7 -98 46q-35 38 -35 109q0 41 16 74q17 35 54 62t100 42q62 15 149 15q91 0 152 -15t99 -42q37 -27 54 -62q17 -36 17 -74q0 -72 -36 -109q-37 -39 -97 -46v-13q161 -24 161 -172q0 -50 -16 -89q-16 -40 -56 -68q-42 -29 -108 -44
q-72 -16 -170 -16z" />
    <glyph glyph-name="seveneighths" unicode="&#x215e;" horiz-adv-x="1677" 
d="M1163 1413h236l-1014 -1413h-240zM115 707l295 518h-365v188h610v-151l-249 -555h-291zM1286 305q-59 0 -82 -20q-24 -21 -24 -58q0 -38 23 -58q25 -22 83 -22t83 22q24 21 24 58q0 36 -25 58q-23 20 -82 20zM1286 416q50 0 70 17t20 52q0 70 -90 70q-88 0 -88 -70
q0 -34 20 -52q18 -17 68 -17zM1286 -27q-96 0 -168 16q-65 14 -107 44q-41 29 -57 68t-16 89q0 76 42 118t120 54v13q-64 8 -99 46q-34 37 -34 109q0 41 16 74q17 35 54 62t100 42q61 15 149 15q90 0 152 -15t99 -42t54 -62q17 -36 17 -74q0 -72 -36 -109q-37 -39 -97 -46
v-13q161 -24 161 -172q0 -50 -16 -89q-16 -40 -56 -68q-42 -29 -108 -44q-72 -16 -170 -16z" />
    <glyph glyph-name="partialdiff" unicode="&#x2202;" horiz-adv-x="1267" 
d="M575 -31q-108 0 -206 25q-94 24 -162 77q-69 54 -106 135q-38 84 -38 202q0 100 28 201q26 95 85 174q57 76 146 123q88 46 206 46q124 0 204 -49q82 -50 104 -135h32q15 136 -47 222q-61 85 -223 145l-362 135l114 276l398 -149q238 -85 350 -227q110 -140 110 -369
q0 -175 -30 -326q-29 -148 -105 -264q-74 -113 -194 -177q-122 -65 -304 -65zM584 233q62 0 108 27q49 29 78 73q31 48 47 106q17 62 17 126q0 95 -54 135q-52 39 -123 39q-75 0 -120 -32q-49 -34 -75 -83t-39 -108q-11 -52 -11 -106q0 -177 172 -177z" />
    <glyph glyph-name="product" unicode="&#x220f;" horiz-adv-x="1523" 
d="M1466 1085h-112v-1454h-381v1454h-416v-1454h-379v1454h-115v328h1403v-328z" />
    <glyph glyph-name="summation" unicode="&#x2211;" horiz-adv-x="1323" 
d="M59 1161v252h1186v-317h-766l299 -559l-327 -588h831v-318h-1241v252l369 654z" />
    <glyph glyph-name="minus" unicode="&#x2212;" horiz-adv-x="1146" 
d="M997 524h-847v269h847v-269z" />
    <glyph glyph-name="uni2215" unicode="&#x2215;" horiz-adv-x="1230" 
d="M881 1536h336l-859 -1712h-342z" />
    <glyph glyph-name="radical" unicode="&#x221a;" horiz-adv-x="1794" 
d="M578 -176l-525 1200h348l371 -848l686 1360h336l-858 -1712h-358z" />
    <glyph glyph-name="infinity" unicode="&#x221e;" horiz-adv-x="1271" 
d="M406 276q-90 0 -158 20q-67 20 -108 62t-62 115q-21 72 -21 176q0 105 22 180q21 72 64 115q44 44 109 62q66 18 154 18q149 0 229 -53q45 29 100 41q57 12 131 12q88 0 154 -18q65 -18 109 -62q46 -46 66 -115q22 -75 22 -180q0 -104 -21 -176q-21 -73 -63 -115
t-109 -62q-68 -20 -158 -20q-149 0 -231 54q-82 -54 -229 -54zM406 836q-28 0 -52 -7q-20 -6 -33 -25q-14 -21 -20 -56q-6 -38 -6 -99q0 -59 6 -95q6 -34 20 -56t33 -27q21 -6 52 -6t52 6q22 6 34 27t18 56q6 36 6 95q0 61 -6 99q-6 36 -18 56q-11 19 -34 25q-24 7 -52 7z
M866 836q-21 0 -49 -6q-21 -4 -34 -22q-12 -17 -20 -50q-7 -31 -7 -88v-21v-20q1 -104 27 -134q25 -30 83 -30q32 0 53 6t33 27q14 24 19 56q6 36 6 95q0 61 -6 99q-5 34 -19 56q-12 19 -33 25q-25 7 -53 7z" />
    <glyph glyph-name="integral" unicode="&#x222b;" horiz-adv-x="1001" 
d="M326 1274q0 80 19 144q19 65 64 116q44 51 115 77q72 27 176 27h236v-276h-166q-53 0 -77 -32q-23 -30 -23 -97v-1215q0 -182 -91 -289q-91 -108 -307 -108h-178v277h111q64 0 92 31q29 32 29 110v1235z" />
    <glyph glyph-name="approxequal" unicode="&#x2248;" horiz-adv-x="1146" 
d="M373 1087q71 0 121 -22q46 -21 94 -50q62 -38 82 -50q40 -23 82 -23q28 0 46 26q16 23 21 97h242q-4 -108 -26 -184q-21 -75 -58 -119q-39 -47 -89 -64q-52 -18 -118 -18t-116 25q-44 22 -88 53q-58 41 -77 53q-39 25 -79 25q-29 0 -50 -21q-20 -20 -26 -98h-250
q6 102 28 177q21 71 58 114t88 61t115 18zM373 637q69 0 121 -23q46 -21 94 -50q62 -38 82 -50q38 -22 82 -22q28 0 46 25q16 23 21 97h242q-4 -108 -26 -184q-21 -75 -58 -119q-38 -45 -89 -63q-55 -19 -118 -19q-66 0 -116 25q-44 22 -88 53q-58 41 -77 53q-39 25 -79 25
q-30 0 -50 -20t-26 -99h-250q6 102 28 177q21 71 58 114t88 61q54 19 115 19z" />
    <glyph glyph-name="notequal" unicode="&#x2260;" horiz-adv-x="1146" 
d="M997 303h-444l-72 -197h-227l74 197h-178v268h278l66 174h-344v271h444l72 188h223l-72 -188h180v-271h-280l-64 -174h344v-268z" />
    <glyph glyph-name="lessequal" unicode="&#x2264;" horiz-adv-x="1146" 
d="M971 324l-795 372v164l795 373v-264l-432 -191l432 -188v-266zM971 217v-197l-795 373v185z" />
    <glyph glyph-name="greaterequal" unicode="&#x2265;" horiz-adv-x="1146" 
d="M606 778l-430 191v264l795 -373v-164l-795 -372v266zM971 393l-795 -373v197l795 361v-185z" />
    <glyph glyph-name="lozenge" unicode="&#x25ca;" horiz-adv-x="1146" 
d="M496 -176l-387 794l387 795h155l387 -795l-387 -794h-155zM571 1040l-196 -422l196 -421l197 421z" />
    <glyph glyph-name="uniF400" unicode="&#xf400;" horiz-adv-x="0" 
d="M-735 1171l170 312h342l-314 -312h-198z" />
    <glyph glyph-name="uniF401" unicode="&#xf401;" horiz-adv-x="0" 
d="M-934 1540l170 311h342l-313 -311h-199z" />
    <glyph glyph-name="uniF406" unicode="&#xf406;" horiz-adv-x="894" 
d="M449 1526q-181 0 -264 77t-83 236h207q0 -72 33 -102q34 -31 107 -31q72 0 105 31q32 30 32 102h207q0 -159 -83 -236t-261 -77z" />
    <glyph glyph-name="uniF407" unicode="&#xf407;" horiz-adv-x="673" 
d="M395 -76q90 -15 132 -62q44 -49 44 -124q0 -97 -66 -167q-66 -71 -206 -71q-54 0 -108 17q-52 16 -89 49v182q40 -40 79 -54q36 -13 71 -13q44 0 72 21t28 71q0 35 -29 64t-106 44v170h178v-127z" />
    <glyph glyph-name="uniF408" unicode="&#xf408;" horiz-adv-x="976" 
d="M375 1526h-273l377 358l389 -358h-272l-115 133z" />
    <glyph glyph-name="uniF409" unicode="&#xf409;" horiz-adv-x="512" 
d="M121 -594l96 213h-115v279h308v-248l-134 -244h-155z" />
    <glyph glyph-name="uniF40A" unicode="&#xf40a;" horiz-adv-x="481" 
d="M78 1413h291l-121 -506h-170v506z" />
    <glyph glyph-name="uniF40B" unicode="&#xf40b;" horiz-adv-x="565" 
d="M102 1526v254h361v-254h-361z" />
    <glyph glyph-name="uniF40C" unicode="&#xf40c;" horiz-adv-x="739" 
d="M369 1645q88 0 88 81q0 80 -88 80q-86 0 -86 -80q0 -81 86 -81zM369 1493q-133 0 -199 56q-68 57 -68 177q0 232 267 232q131 0 199 -56q69 -57 69 -176q0 -120 -69 -177q-68 -56 -199 -56z" />
    <glyph glyph-name="uniF40D" unicode="&#xf40d;" horiz-adv-x="972" 
d="M324 1855q55 0 94 -16q43 -18 75 -37q11 -6 31.5 -18.5t29.5 -18.5q26 -16 54 -16q31 0 47 20q17 22 13 74h200q6 -166 -53 -237q-60 -72 -160 -72q-55 0 -95 17q-44 19 -77 39q-35 21 -63 39t-58 18q-27 0 -45 -20t-14 -81h-201q-6 167 58 239q63 70 164 70z" />
    <glyph glyph-name="uniF40E" unicode="&#xf40e;" horiz-adv-x="630" 
d="M299 109h59l158 -109q-77 -27 -119 -56q-41 -28 -64 -58q-22 -28 -26 -50q-4 -20 -4 -37q0 -46 28 -69t72 -23q27 0 59 12q30 11 66 54v-179q-33 -36 -87 -53q-51 -16 -99 -16q-68 0 -114 21q-45 20 -73 56q-30 38 -40 73q-13 44 -13 75q0 98 52 159t145 89v111z" />
    <glyph glyph-name="zero.tab" unicode="&#xf4e0;" 
d="M731 1126q-82 0 -135 -13q-56 -13 -90 -57q-35 -44 -50 -127q-16 -88 -16 -224q0 -130 16 -218q15 -81 50 -127q34 -44 90 -59q52 -14 135 -14q81 0 133 14q56 15 90 59q37 48 51 127q15 82 15 218q0 141 -15 224q-15 81 -51 127q-34 44 -90 57q-53 13 -133 13zM731 -31
q-174 0 -303 35q-125 34 -209 119q-82 83 -121 225q-39 141 -39 357q0 222 42 366q42 143 126 226q85 84 210 115q128 32 294 32t294 -32q125 -31 209 -115q83 -83 125 -226q42 -144 42 -366q0 -216 -39 -357t-120 -225q-82 -85 -208 -119q-129 -35 -303 -35z" />
    <glyph glyph-name="one.tab" unicode="&#xf4e1;" 
d="M164 303h498v451h-492v274h328q90 0 137 51q47 52 47 158v182h358v-1116h336v-303h-1212v303z" />
    <glyph glyph-name="two.tab" unicode="&#xf4e2;" 
d="M725 647q72 42 114 80q43 39 69 78q26 40 35 76q9 38 9 75q0 78 -49 124t-176 46q-135 0 -187 -58q-52 -57 -44 -204h-379q-8 158 29 265q38 111 116 180t197 102t274 33q169 0 288 -36t190 -100q74 -66 105 -152q32 -88 32 -189q0 -68 -17 -136q-16 -64 -57 -126
q-39 -60 -112 -120t-181 -116l-254 -150v-16h623v-303h-1248v266z" />
    <glyph glyph-name="three.tab" unicode="&#xf4e3;" 
d="M727 -31q-159 0 -288 31q-123 30 -207 100q-81 68 -121 180q-39 109 -33 265h379q0 -142 59 -200t207 -58q154 0 215 53q59 52 59 149q0 43 -10 76q-11 36 -41 60q-31 25 -89 38q-56 13 -155 13h-145v211l252 223h-659v303h1122v-246l-340 -282l51 -2q179 -7 291 -113
q110 -104 110 -295q0 -121 -32 -213q-33 -94 -110 -159q-76 -64 -203 -99q-128 -35 -312 -35z" />
    <glyph glyph-name="four.tab" unicode="&#xf4e4;" 
d="M940 158h-870v274l899 981h323v-975h105v-280h-105v-158h-352v158zM940 438v482l-442 -482h442z" />
    <glyph glyph-name="five.tab" unicode="&#xf4e5;" 
d="M772 961q174 0 293 -29q116 -28 188 -88t102 -149q29 -86 29 -212q0 -121 -34 -214q-35 -95 -113 -161q-80 -67 -203 -103q-124 -36 -307 -36q-159 0 -288 31q-123 30 -207 100q-81 68 -121 180q-39 109 -33 265h379q0 -142 59 -200t207 -58q86 0 135 14q55 16 84 42
q31 28 43 69q12 40 12 92q0 51 -10 88q-11 39 -39 66t-80 42q-51 15 -133 15h-538v698h1091v-303h-786v-149h270z" />
    <glyph glyph-name="six.tab" unicode="&#xf4e6;" 
d="M733 -31q-341 0 -504 127t-163 418q0 93 18 169q17 74 59 148q39 69 106 144q53 60 157 153l315 285h469l-485 -426l-60 -49l6 -12q97 28 203 28q156 0 255 -36q104 -38 168 -100q65 -64 93 -147q29 -87 29 -184q0 -119 -33 -215q-33 -95 -111 -163q-80 -69 -204 -104
q-127 -36 -318 -36zM733 709q-82 0 -141 -16q-54 -15 -87 -43q-31 -27 -45 -65q-14 -39 -14 -85t14 -86t45 -68q32 -29 87 -44q56 -15 141 -15t137 15q51 15 86 43q33 27 45 67q13 42 13 86q0 46 -13 88q-12 38 -44 66q-31 27 -86 42q-54 15 -138 15z" />
    <glyph glyph-name="seven.tab" unicode="&#xf4e7;" 
d="M385 0l504 1085h-735v328h1167v-246l-516 -1167h-420z" />
    <glyph glyph-name="eight.tab" unicode="&#xf4e8;" 
d="M733 633q-153 0 -221 -48t-68 -136q0 -83 63 -130q64 -47 226 -47t226 47q63 47 63 130q0 88 -68 136q-67 48 -221 48zM733 825q135 0 191 41q55 40 55 123q0 86 -61 123t-185 37q-126 0 -185 -37q-61 -38 -61 -123q0 -82 55 -123t191 -41zM733 1444q167 0 290 -28
q114 -26 191 -78q75 -50 106 -120q32 -72 32 -157q0 -137 -70 -215q-68 -75 -195 -92v-21q157 -29 240 -112q84 -84 84 -232q0 -104 -32 -185q-31 -79 -110 -131q-80 -53 -209 -78q-133 -26 -327 -26t-327 26q-131 26 -209 78q-79 53 -111 131q-33 80 -33 185q0 148 85 232
q85 83 239 112v21q-127 17 -195 92q-69 76 -69 215q0 88 31 157q31 70 106 120q77 52 192 78q123 28 291 28z" />
    <glyph glyph-name="nine.tab" unicode="&#xf4e9;" 
d="M772 455l47 45l-6 12q-48 -8 -91 -11q-48 -3 -95 -3q-150 0 -254 37q-107 38 -171 98q-68 63 -97 143t-29 172q0 114 33 206t109 156t203 99q128 35 314 35q332 0 492 -122q159 -121 159 -400q0 -91 -19 -161q-20 -74 -58 -141q-40 -70 -98 -142q-79 -97 -136 -163
l-274 -315h-475zM737 735q85 0 137 15q57 16 87 41q33 27 45 64t12 85q0 47 -12 86q-12 40 -45 67q-34 28 -87 43q-52 15 -137 15q-83 0 -139 -15q-54 -15 -88 -44q-32 -28 -46 -68q-13 -38 -13 -86q0 -44 13 -80q13 -37 46 -64q35 -29 88 -43q59 -16 139 -16z" />
    <glyph glyph-name="dollar.tab" unicode="&#xf4ec;" 
d="M825 -184v200q-30 -2 -46 -2h-46h-59q-19 0 -55 2v-200h-222v233q-170 44 -242 151q-71 106 -71 287h395q7 -101 62 -140q53 -38 188 -38q82 0 128 7q50 8 79 23q28 15 39 38q10 21 10 51q0 56 -37 78q-39 23 -94 35l-377 73q-189 37 -278 123q-88 85 -88 264
q0 122 63 218t223 141v215h222v-180q23 1 48 3q17 1 52 1q37 0 54 -1q34 -2 52 -3v180h222v-213q150 -40 219 -141q68 -100 73 -277h-374q-1 97 -57 131q-54 33 -183 33q-73 0 -123 -8q-45 -7 -73 -22q-26 -14 -33 -30q-9 -22 -9 -36q0 -50 32 -74q31 -24 110 -39l334 -61
q100 -21 179 -50q78 -29 127 -72q50 -44 76 -109q25 -63 25 -156q0 -76 -15 -142t-52 -116q-40 -54 -100 -90q-64 -38 -156 -60v-227h-222z" />
    <glyph glyph-name="Euro.tab" unicode="&#xf4ed;" 
d="M844 479h-309q12 -61 31 -98q19 -36 50 -58q30 -21 72 -29q38 -7 94 -7q72 0 113 11q46 12 75 43t46 88t24 146h377q-12 -161 -48 -277q-36 -117 -109 -188q-74 -72 -190 -107q-114 -34 -288 -34q-139 0 -253 25q-109 24 -187 84q-80 61 -125 156q-47 99 -65 245h-109
v180h96v95h-96v180h109q21 155 69 250q49 98 128 156t188 81q110 23 245 23q160 0 278 -31q113 -30 187 -98q73 -67 114 -177q40 -108 52 -268h-379q-7 79 -23 130q-15 51 -44 78q-29 28 -74 38q-43 10 -111 10q-56 0 -94 -7q-45 -8 -72 -27q-30 -21 -50 -59
q-19 -36 -31 -99h309v-180h-324v-95h324v-180z" />
    <glyph glyph-name="cent.tab" unicode="&#xf4ee;" 
d="M623 -217v192q-112 11 -193 43q-80 32 -137 97q-55 62 -82 159q-27 96 -27 232q0 138 27 237t82 163q56 65 137 99q80 33 193 44v184h221v-182q202 -17 309 -115q109 -100 121 -322h-344q-11 103 -61 141t-128 38q-106 0 -159 -62q-54 -63 -54 -225q0 -153 53 -214
t160 -61q80 0 131 42q53 43 60 149h344q-12 -228 -121 -331q-107 -101 -311 -118v-190h-221z" />
    <glyph glyph-name="sterling.tab" unicode="&#xf4ef;" 
d="M1341 502h-692v-199h692v-303h-1230v303h163v199h-163v207h163v260q0 102 29 191t90 151q62 63 158 98q97 35 233 35t238 -33q103 -33 169 -102q65 -68 96 -179q30 -108 18 -260h-365q11 141 -26 199q-36 57 -123 57q-79 0 -110 -43q-32 -44 -32 -122v-252h692v-207z" />
    <glyph glyph-name="yen.tab" unicode="&#xf4fa;" 
d="M1251 158h-325v-158h-379v158h-326v180h326v94h-326v180h242l-449 801h418l305 -616l299 616h410l-445 -801h250v-180h-325v-94h325v-180z" />
    <glyph glyph-name="florin.tab" unicode="&#xf4fb;" 
d="M395 -102q64 0 92 31q29 32 29 110v723h-213v262h213v25q0 76 20 144q20 67 63 116q43 48 116 76q75 28 176 28h283v-262h-238q-76 0 -76 -102v-25h314v-262h-314v-744q0 -182 -91 -289q-91 -108 -306 -108h-160v277h92z" />
    <glyph glyph-name="uni20B4.tab" unicode="&#xf4fc;" 
d="M729 -31q-190 0 -315 26q-122 25 -193 73q-70 47 -95 112q-26 67 -26 144q0 90 58 168h-90v180h1327v-180h-858q-29 -25 -37 -52q-8 -29 -8 -55q0 -27 8 -51q7 -22 34 -39q28 -18 71 -25q50 -8 122 -8q134 0 183 34q52 36 53 126h403q2 -122 -30 -207q-32 -87 -106 -140
q-76 -55 -198 -80q-125 -26 -303 -26zM1395 752h-1327v180h819q41 27 54 57q11 26 11 53q0 23 -7 43q-7 21 -30 36q-26 17 -64 24q-45 8 -110 8q-119 0 -172 -30q-53 -31 -49 -122h-375q-4 123 30 208q35 86 109 138q73 51 188 74q117 23 269 23q164 0 281 -28
q110 -26 181 -76q69 -48 97 -113q29 -67 29 -144q0 -87 -53 -151h119v-180z" />
    <glyph glyph-name="uni20BD.tab" unicode="&#xf4fd;" 
d="M1147 172h-576v-172h-378v172h-162v207h162v123h-162v207h162v704h708q261 0 380 -114q118 -114 118 -375q0 -219 -122 -321q-120 -101 -372 -101h-334v-123h576v-207zM571 1110v-401h240q105 0 156 45t51 159q0 115 -45 156q-46 41 -166 41h-236z" />
    <glyph glyph-name="uni20B8.tab" unicode="&#xf5f3;" 
d="M1413 813h-493v-813h-379v813h-494v246h1366v-246zM1413 1167h-1366v246h1366v-246z" />
    <glyph glyph-name="uniF6BA" unicode="&#xf6ba;" horiz-adv-x="913" 
d="M844 500h-774v297h774v-297z" />
    <glyph glyph-name="uniF6BB" unicode="&#xf6bb;" horiz-adv-x="1071" 
d="M1001 500h-931v297h931v-297z" />
    <glyph glyph-name="uniF6BC" unicode="&#xf6bc;" horiz-adv-x="1384" 
d="M1315 500h-1245v297h1245v-297z" />
    <glyph glyph-name="uniF6C3" unicode="&#xf6c3;" horiz-adv-x="512" 
d="M121 -594l96 213h-115v279h308v-248l-134 -244h-155z" />
    <glyph glyph-name="uniF6C9" unicode="&#xf6c9;" horiz-adv-x="716" 
d="M102 1540l170 311h342l-313 -311h-199z" />
    <glyph glyph-name="uniF6CA" unicode="&#xf6ca;" horiz-adv-x="974" 
d="M102 1858h277l102 -125l115 125h276l-393 -345z" />
    <glyph glyph-name="uniF6CB" unicode="&#xf6cb;" horiz-adv-x="911" 
d="M102 1540v240h265v-240h-265zM543 1540v240h266v-240h-266z" />
    <glyph glyph-name="uniF6CE" unicode="&#xf6ce;" horiz-adv-x="716" 
d="M102 1851h342l170 -311h-198z" />
    <glyph glyph-name="uniF6CF" unicode="&#xf6cf;" horiz-adv-x="937" 
d="M102 1540l78 330h254l-145 -330h-187zM399 1540l150 330h287l-232 -330h-205z" />
    <glyph glyph-name="uniF6D0" unicode="&#xf6d0;" horiz-adv-x="927" 
d="M825 1556h-723v220h723v-220z" />
    <glyph glyph-name="uniF6D1" unicode="&#xf6d1;" horiz-adv-x="991" 
d="M496 1475q-113 0 -188 18q-73 18 -121 56q-45 36 -65 97q-20 60 -20 138h265q0 -54 30 -73q29 -19 99 -19q69 0 98 19q31 20 31 73h264q0 -78 -20 -138q-20 -61 -65 -97q-48 -38 -121 -56q-75 -18 -187 -18z" />
    <glyph glyph-name="uniF6D4" unicode="&#xf6d4;" horiz-adv-x="909" 
d="M455 1130q-181 0 -268 70q-85 69 -85 230h232q0 -61 27 -85t94 -24q66 0 93 24t27 85h232q0 -161 -85 -230q-87 -70 -267 -70z" />
    <glyph glyph-name="uniFEFF" unicode="&#xfeff;" horiz-adv-x="0" 
 />
    <glyph glyph-name="Caronl" horiz-adv-x="481" 
d="M78 1413h291l-121 -506h-170v506z" />
    <glyph glyph-name="Esca" horiz-adv-x="452" 
d="M41 0v328h365v-656h-353v328h-12z" />
    <glyph glyph-name="K.alt" horiz-adv-x="1462" 
d="M991 0l-450 711l430 702h448l-483 -694l526 -719h-471zM475 0h-379v1413h379v-1413z" />
    <glyph glyph-name="Kcommaaccent.alt" horiz-adv-x="1462" 
d="M991 0l-450 711l430 702h448l-483 -694l526 -719h-471zM475 0h-379v1413h379v-1413zM596 -594l96 213h-114v279h307v-248l-133 -244h-156z" />
    <glyph glyph-name="Tail" horiz-adv-x="448" 
d="M47 55h352v-383h-352v383z" />
    <glyph glyph-name="a.alt" horiz-adv-x="1257" 
d="M834 211h-35q-28 -115 -112 -179q-83 -63 -218 -63q-98 0 -176 26q-76 25 -127 87q-52 62 -77 165q-26 106 -26 261q0 156 26 263q26 106 77 169q52 64 127 89q78 26 176 26q134 0 218 -64q83 -64 112 -178h35v211h344v-1024h-344v211zM629 231q86 0 145 43q60 44 60 152
v172q0 108 -60 152q-59 43 -145 43q-61 0 -105 -12q-43 -12 -68 -43q-26 -32 -38 -87t-12 -143q0 -90 11 -140q12 -55 38 -84t69 -41q44 -12 105 -12z" />
    <glyph glyph-name="aacute.alt" horiz-adv-x="1257" 
d="M834 211h-35q-28 -115 -112 -179q-83 -63 -218 -63q-98 0 -176 26q-76 25 -127 87q-52 62 -77 165q-26 106 -26 261q0 156 26 263q26 106 77 169q52 64 127 89q78 26 176 26q134 0 218 -64q83 -64 112 -178h35v211h344v-1024h-344v211zM629 231q86 0 145 43q60 44 60 152
v172q0 108 -60 152q-59 43 -145 43q-61 0 -105 -12q-43 -12 -68 -43q-26 -32 -38 -87t-12 -143q0 -90 11 -140q12 -55 38 -84t69 -41q44 -12 105 -12zM530 1171l170 312h342l-313 -312h-199z" />
    <glyph glyph-name="abreve.alt" horiz-adv-x="1257" 
d="M834 211h-35q-28 -115 -112 -179q-83 -63 -218 -63q-98 0 -176 26q-76 25 -127 87q-52 62 -77 165q-26 106 -26 261q0 156 26 263q26 106 77 169q52 64 127 89q78 26 176 26q134 0 218 -64q83 -64 112 -178h35v211h344v-1024h-344v211zM629 231q86 0 145 43q60 44 60 152
v172q0 108 -60 152q-59 43 -145 43q-61 0 -105 -12q-43 -12 -68 -43q-26 -32 -38 -87t-12 -143q0 -90 11 -140q12 -55 38 -84t69 -41q44 -12 105 -12zM643 1157q-180 0 -263 77t-83 236h207q0 -72 33 -102q34 -31 106 -31q73 0 106 31q31 30 31 102h207q0 -159 -83 -236
t-261 -77z" />
    <glyph glyph-name="acircumflex.alt" horiz-adv-x="1257" 
d="M834 211h-35q-28 -115 -112 -179q-83 -63 -218 -63q-98 0 -176 26q-76 25 -127 87q-52 62 -77 165q-26 106 -26 261q0 156 26 263q26 106 77 169q52 64 127 89q78 26 176 26q134 0 218 -64q83 -64 112 -178h35v211h344v-1024h-344v211zM629 231q86 0 145 43q60 44 60 152
v172q0 108 -60 152q-59 43 -145 43q-61 0 -105 -12q-43 -12 -68 -43q-26 -32 -38 -87t-12 -143q0 -90 11 -140q12 -55 38 -84t69 -41q44 -12 105 -12zM530 1157h-272l377 359l389 -359h-272l-115 133z" />
    <glyph glyph-name="adieresis.alt" horiz-adv-x="1257" 
d="M834 211h-35q-28 -115 -112 -179q-83 -63 -218 -63q-98 0 -176 26q-76 25 -127 87q-52 62 -77 165q-26 106 -26 261q0 156 26 263q26 106 77 169q52 64 127 89q78 26 176 26q134 0 218 -64q83 -64 112 -178h35v211h344v-1024h-344v211zM629 231q86 0 145 43q60 44 60 152
v172q0 108 -60 152q-59 43 -145 43q-61 0 -105 -12q-43 -12 -68 -43q-26 -32 -38 -87t-12 -143q0 -90 11 -140q12 -55 38 -84t69 -41q44 -12 105 -12zM291 1171v240h264v-240h-264zM731 1171v240h266v-240h-266z" />
    <glyph glyph-name="afii10021.ss01" horiz-adv-x="1662" 
d="M1642 -328h-352v328h-917v-328h-353v631h166l480 1110h333l478 -1110h165v-631zM565 303h525l-261 692z" />
    <glyph glyph-name="afii10024.alt" horiz-adv-x="2074" 
d="M1612 0l-328 711l305 702h439l-377 -684l420 -729h-459zM424 729l-377 684h438l303 -702l-327 -711h-457zM1227 0h-379v1413h379v-1413z" />
    <glyph glyph-name="afii10028.alt" horiz-adv-x="1462" 
d="M991 0l-450 711l430 702h448l-483 -694l526 -719h-471zM475 0h-379v1413h379v-1413z" />
    <glyph glyph-name="afii10029.ss01" horiz-adv-x="1542" 
d="M604 1413h334l604 -1413h-416l-354 961l-352 -961h-420z" />
    <glyph glyph-name="afii10061.alt" horiz-adv-x="1462" 
d="M991 0l-450 711l430 702h448l-483 -694l526 -719h-471zM475 0h-379v1413h379v-1413zM635 1540l170 311h342l-313 -311h-199z" />
    <glyph glyph-name="afii10065.alt" horiz-adv-x="1257" 
d="M834 211h-35q-28 -115 -112 -179q-83 -63 -218 -63q-98 0 -176 26q-76 25 -127 87q-52 62 -77 165q-26 106 -26 261q0 156 26 263q26 106 77 169q52 64 127 89q78 26 176 26q134 0 218 -64q83 -64 112 -178h35v211h344v-1024h-344v211zM629 231q86 0 145 43q60 44 60 152
v172q0 108 -60 152q-59 43 -145 43q-61 0 -105 -12q-43 -12 -68 -43q-26 -32 -38 -87t-12 -143q0 -90 11 -140q12 -55 38 -84t69 -41q44 -12 105 -12z" />
    <glyph glyph-name="afii10065.var.accented.alt" horiz-adv-x="1257" 
d="M834 211h-35q-28 -115 -112 -179q-83 -63 -218 -63q-98 0 -176 26q-76 25 -127 87q-52 62 -77 165q-26 106 -26 261q0 156 26 263q26 106 77 169q52 64 127 89q78 26 176 26q134 0 218 -64q83 -64 112 -178h35v211h344v-1024h-344v211zM629 231q86 0 145 43q60 44 60 152
v172q0 108 -60 152q-59 43 -145 43q-61 0 -105 -12q-43 -12 -68 -43q-26 -32 -38 -87t-12 -143q0 -90 11 -140q12 -55 38 -84t69 -41q44 -12 105 -12zM530 1171l170 312h342l-313 -312h-199z" />
    <glyph glyph-name="afii10066.ss05" horiz-adv-x="1130" 
d="M639 618q232 0 337 -66t105 -239q0 -147 -90 -230q-91 -83 -289 -83h-622v1024h950v-262h-606v-144h215zM424 434v-190h205q63 0 92 22q31 23 31 76q0 42 -24 67t-93 25h-211z" />
    <glyph glyph-name="afii10069.alt.ss01" horiz-adv-x="1286" 
d="M1139 262h131v-422h-314v160h-626v-160h-314v422h131l375 762h262zM463 236h358l-174 452z" />
    <glyph glyph-name="afii10069.ss01" horiz-adv-x="1286" 
d="M1139 262h131v-534h-314v272h-626v-272h-314v534h131l375 762h262zM463 236h358l-174 452z" />
    <glyph glyph-name="afii10069.ss05" horiz-adv-x="1314" 
d="M981 0h-657v-160h-312v422h119q29 28 51 73q20 41 31 98q9 45 14 116q4 55 4 123v352h906v-762h157v-422h-313v160zM522 645q0 -134 -16 -224q-16 -93 -51 -159h338v500h-271v-117z" />
    <glyph glyph-name="afii10072.alt" horiz-adv-x="1695" 
d="M1380 528l316 -528h-393l-254 520l227 504h383zM0 0l315 528l-278 496h383l227 -504l-254 -520h-393zM1014 0h-332v1024h332v-1024z" />
    <glyph glyph-name="afii10076.alt" horiz-adv-x="1193" 
d="M834 537l360 -537h-418l-303 532l283 492h397zM424 0h-344v1024h344v-1024z" />
    <glyph glyph-name="afii10077.ss01" horiz-adv-x="1220" 
d="M1221 0h-385l-213 606l-224 -606h-399l492 1024h262z" />
    <glyph glyph-name="afii10082.ss05" horiz-adv-x="1159" 
d="M80 0v1024h635q210 0 305 -104q96 -105 96 -291q0 -219 -109 -310q-110 -92 -354 -92h-229v-227h-344zM424 762v-270h197q91 0 121 37t30 98q0 71 -39 103q-40 32 -117 32h-192z" />
    <glyph glyph-name="afii10085.ss05" horiz-adv-x="1247" 
d="M481 231l-481 793h397l256 -475l226 475h368l-538 -1024h-363z" />
    <glyph glyph-name="afii10085.var.accented.ss05" horiz-adv-x="1247" 
d="M481 231l-481 793h397l256 -475l226 475h368l-538 -1024h-363zM516 1171l170 312h342l-313 -312h-199z" />
    <glyph glyph-name="afii10086.ss05" horiz-adv-x="1581" 
d="M956 993h15q138 0 236 -23q104 -24 171 -80q71 -59 105 -151q35 -96 35 -233q0 -133 -35 -226q-34 -90 -105 -147q-68 -55 -171 -79q-98 -23 -236 -23h-15v-113h-331v113h-15q-138 0 -236 23q-103 24 -171 79q-71 57 -105 147q-35 93 -35 226q0 137 35 233q34 92 105 151
q67 56 171 80q98 23 236 23h15v107h331v-107zM625 293v438h-15q-98 0 -150 -48t-52 -177q0 -121 52 -167t150 -46h15zM956 731v-438h15q98 0 150 46q53 47 53 167q0 129 -53 177t-150 48h-15z" />
    <glyph glyph-name="afii10088.ss05" horiz-adv-x="1286" 
d="M424 262h340v762h344v-762h158v-422h-314v160h-872v1024h344v-762z" />
    <glyph glyph-name="afii10091.ss05" horiz-adv-x="1765" 
d="M424 262h244v762h331v-762h244v762h344v-762h158v-422h-313v160h-1352v1024h344v-762z" />
    <glyph glyph-name="afii10099.ss05" horiz-adv-x="1363" 
d="M1325 317q0 -76 -21 -139q-20 -61 -75 -106q-52 -43 -144 -63q-90 -20 -227 -9v195q71 0 98 28q27 29 27 74q0 47 -35 70q-34 22 -112 22q-79 0 -146 -14v-375h-344v762h-328v262h1000v-262h-328v-174q42 9 113 22q63 11 119 11q115 0 193 -26t124 -69q48 -45 67 -97
q19 -53 19 -112z" />
    <glyph glyph-name="afii10105.ss05" horiz-adv-x="1081" 
d="M668 762h-586v262h930v-573q0 -139 -30 -230q-30 -92 -89 -148t-151 -80q-91 -24 -212 -24q-112 0 -201 21q-92 22 -151 68q-60 47 -94 128t-35 199h344q5 -95 41 -124q38 -30 96 -30q69 0 104 44q34 43 34 176v311z" />
    <glyph glyph-name="afii10108.ss05" horiz-adv-x="1378" 
d="M1319 0h-344v256q0 60 -34 90q-36 31 -112 31q-70 0 -139 -15v-362h-344v762h-328v262h1000v-262h-328v-172q49 12 109 21q63 10 116 10q109 0 185 -30q75 -29 125 -78q48 -46 71 -110q23 -63 23 -127v-276z" />
    <glyph glyph-name="afii10109.alt" horiz-adv-x="1193" 
d="M834 537l360 -537h-418l-303 532l283 492h397zM424 0h-344v1024h344v-1024zM485 1171l170 312h342l-313 -312h-199z" />
    <glyph glyph-name="afii10110.ss05" horiz-adv-x="1247" 
d="M481 231l-481 793h397l256 -475l226 475h368l-538 -1024h-363zM629 1130q-181 0 -268 70q-85 69 -85 230h232q0 -60 28 -85q27 -24 93 -24t93 24q28 25 28 85h231q0 -161 -85 -230q-87 -70 -267 -70z" />
    <glyph glyph-name="afii10193.ss05" horiz-adv-x="1187" 
d="M438 0h-358v1024h344v-762h340v762h344v-1024h-358v-160h-312v160z" />
    <glyph glyph-name="afii10194.ss05" horiz-adv-x="1206" 
d="M201 944v80h344v-80h321v-166h-321v-94h182q120 0 200 -16q83 -17 136 -56q54 -40 79 -102t25 -158q0 -166 -90 -259t-286 -93h-590v778h-185v166h185zM545 479v-217h145q66 0 101 26q34 25 34 85q0 47 -27 77q-26 29 -106 29h-147z" />
    <glyph glyph-name="agrave.alt" horiz-adv-x="1257" 
d="M834 211h-35q-28 -115 -112 -179q-83 -63 -218 -63q-98 0 -176 26q-76 25 -127 87q-52 62 -77 165q-26 106 -26 261q0 156 26 263q26 106 77 169q52 64 127 89q78 26 176 26q134 0 218 -64q83 -64 112 -178h35v211h344v-1024h-344v211zM629 231q86 0 145 43q60 44 60 152
v172q0 108 -60 152q-59 43 -145 43q-61 0 -105 -12q-43 -12 -68 -43q-26 -32 -38 -87t-12 -143q0 -90 11 -140q12 -55 38 -84t69 -41q44 -12 105 -12zM258 1483h342l170 -312h-199z" />
    <glyph glyph-name="amacron.alt" horiz-adv-x="1257" 
d="M834 211h-35q-28 -115 -112 -179q-83 -63 -218 -63q-98 0 -176 26q-76 25 -127 87q-52 62 -77 165q-26 106 -26 261q0 156 26 263q26 106 77 169q52 64 127 89q78 26 176 26q134 0 218 -64q83 -64 112 -178h35v211h344v-1024h-344v211zM629 231q86 0 145 43q60 44 60 152
v172q0 108 -60 152q-59 43 -145 43q-61 0 -105 -12q-43 -12 -68 -43q-26 -32 -38 -87t-12 -143q0 -90 11 -140q12 -55 38 -84t69 -41q44 -12 105 -12zM1006 1188h-723v219h723v-219z" />
    </font>
</defs>
</svg>
