<?xml version="1.0" standalone="no"?>
<!DOCTYPE svg PUBLIC "-//W3C//DTD SVG 1.1//EN" "http://www.w3.org/Graphics/SVG/1.1/DTD/svg11.dtd" >
<svg xmlns="http://www.w3.org/2000/svg" xmlns:xlink="http://www.w3.org/1999/xlink" version="1.1">
<metadata>
Created by FontForge 20170731 at Wed Dec  6 16:06:57 2023
 By Aleksey,,,
Copyright (c) 2020 Paratype, Inc., ParaType Ltd. All rights reserved.
</metadata>
<defs>
<font id="StapelText-Regular" horiz-adv-x="1318" >
  <font-face 
    font-family="Stapel Text"
    font-weight="400"
    font-stretch="normal"
    units-per-em="2048"
    panose-1="2 11 5 4 2 2 2 2 2 4"
    ascent="1638"
    descent="-410"
    x-height="1024"
    cap-height="1413"
    bbox="-836 -539 2159 1925"
    underline-thickness="102"
    underline-position="-307"
    unicode-range="U+000D-FEFF"
  />
<missing-glyph horiz-adv-x="1302" 
d="M1188 -307h-1073v1966h1073v-1966zM295 -131h713v1135l-713 -775v-360zM295 449l713 776v278h-713v-1054z" />
    <glyph glyph-name="afii10017.var.accented" unicode="&#x410;`" horiz-adv-x="1355" 
d="M616 1413h129l601 -1413h-205l-109 266h-710l-111 -266h-201zM393 436h570l-281 690zM610 1536l156 311h252l-270 -311h-138z" />
    <glyph glyph-name="afii10022.var.accented" unicode="&#x415;`" horiz-adv-x="1202" 
d="M1104 0h-975v1413h973v-178h-787v-434h768v-176h-768v-447h789v-178zM573 1536l156 311h252l-270 -311h-138z" />
    <glyph glyph-name="afii10026.var.accented" unicode="&#x418;`" horiz-adv-x="1370" 
d="M315 354l818 1059h108v-1413h-186v1057l-819 -1057h-107v1413h186v-1059zM618 1536l156 311h252l-270 -311h-138z" />
    <glyph glyph-name="afii10032.var.accented" unicode="&#x41e;`" horiz-adv-x="1538" 
d="M768 -29q-164 0 -288 33t-207 116q-83 82 -123 225q-41 144 -41 360q0 224 44 370q43 143 129 224q87 83 207 112q127 31 279 31q154 0 281 -31q120 -29 207 -112q86 -81 129 -224q45 -149 45 -370q0 -217 -42 -360q-42 -142 -125 -225t-207 -116t-288 -33zM768 150
q117 0 203 19q87 19 147 79t90 169q31 113 31 288q0 179 -31 294q-29 109 -91 169q-61 59 -147 77q-92 19 -202 19q-112 0 -201 -18q-87 -18 -147 -76q-60 -59 -90 -169q-31 -115 -31 -296q0 -175 31 -288q30 -109 90 -169t147 -79q86 -19 201 -19zM702 1536l156 311h252
l-270 -311h-138z" />
    <glyph glyph-name="afii10037.var.accented" unicode="&#x423;`" horiz-adv-x="1296" 
d="M426 0l149 311l-565 1102h213l451 -893l409 893h203l-655 -1413h-205zM582 1536l155 311h252l-270 -311h-137z" />
    <glyph glyph-name="afii10045.var.accented" unicode="&#x42b;`" horiz-adv-x="1583" 
d="M1085 438q0 -229 -113 -333q-114 -105 -349 -105h-494v1413h186v-555h308q247 0 354 -100q108 -100 108 -320zM315 680v-502h308q136 0 202 56q68 57 68 204q0 73 -13 118q-14 48 -46 74q-33 27 -85 39q-48 11 -131 11h-303zM1454 0h-186v1413h186v-1413zM725 1536
l156 311h252l-271 -311h-137z" />
    <glyph glyph-name="afii10047.var.accented" unicode="&#x42d;`" horiz-adv-x="1435" 
d="M287 463q12 -99 46 -160t86 -95q51 -34 122 -46q69 -12 153 -12q107 0 182 17q78 18 134 69t87 144q32 95 38 245h-695v176h695q-7 147 -40 242q-31 91 -87 141q-55 49 -135 64q-85 16 -179 16q-83 0 -152 -12q-72 -12 -119 -44q-51 -34 -83 -92q-33 -60 -45 -155h-199
q12 140 59 234q46 92 123 148q78 56 181 77q110 22 235 22q148 0 269 -31q114 -29 198 -112q82 -81 124 -224q42 -144 42 -370q0 -219 -40 -360q-41 -144 -119 -225q-81 -84 -197 -116q-119 -33 -277 -33q-128 0 -237 23q-108 23 -185 79q-78 57 -124 151q-46 93 -58 239
h197zM651 1536l156 311h252l-271 -311h-137z" />
    <glyph glyph-name="afii10048.var.accented" unicode="&#x42e;`" horiz-adv-x="1910" 
d="M1186 -29q-148 0 -259 30q-114 31 -189 103q-76 73 -118 201q-43 131 -49 320h-256v-625h-186v1413h186v-612h258q7 191 54 320q45 124 123 196q77 71 187 98q109 27 249 27q142 0 260 -31q112 -29 193 -112q80 -81 120 -224q41 -146 41 -370q0 -216 -38 -360
q-38 -143 -114 -225q-77 -83 -193 -116q-115 -33 -269 -33zM1186 1264q-104 0 -184 -18q-79 -18 -133 -76q-56 -60 -82 -169q-27 -111 -27 -296q0 -179 27 -288q26 -107 82 -169q54 -60 133 -79q77 -19 184 -19q105 0 182 19q81 20 133 79q55 63 81 169q28 114 28 288
q0 179 -28 294q-26 108 -81 169q-53 59 -133 77q-84 19 -182 19zM889 1536l155 311h252l-270 -311h-137z" />
    <glyph glyph-name="afii10049.var.accented" unicode="&#x42f;`" horiz-adv-x="1302" 
d="M987 0v483h-412l-249 -483h-226l283 500q-281 74 -281 458q0 124 27 209q28 88 85 142q59 56 148 80q90 24 216 24h596v-1413h-187zM291 958q0 -90 15 -148t49 -92t88 -46q59 -13 130 -13h414v576h-409q-85 0 -136 -11q-54 -12 -89 -42q-32 -28 -48 -84q-14 -49 -14 -140
zM586 1536l155 311h252l-270 -311h-137z" />
    <glyph glyph-name="afii10023.var.accented" unicode="&#x401;`" horiz-adv-x="1202" 
d="M1104 0h-975v1413h973v-178h-787v-434h768v-176h-768v-447h789v-178zM573 1536l-41 311h211l-41 -311h-129zM797 1575v199h178v-199h-178zM299 1575v199h178v-199h-178z" />
    <glyph glyph-name="afii10065.var.accented" unicode="&#x430;`" horiz-adv-x="1110" 
d="M436 -29q-73 0 -141 17q-66 17 -112 55q-44 37 -72 100q-27 61 -27 152q0 59 16 114q16 56 60 100q46 46 119 72q77 27 194 27q71 0 100 -1q14 0 41.5 -0.5t40.5 -1.5q39 -1 75 -3q10 0 36.5 -1.5t42.5 -2.5v96q0 114 -58 160q-59 47 -196 47q-58 0 -108 -8
q-44 -7 -77 -32q-34 -26 -52 -63q-20 -40 -27 -102h-172q11 103 43 171q33 70 87 110q53 40 131 58q76 18 175 18q204 0 317 -82q115 -83 115 -277v-694h-178v104h-21q-77 -76 -162 -104q-87 -29 -190 -29zM496 123q57 0 111 10q58 11 102 40q45 30 72 82q28 54 28 134v78
q-78 5 -145 6q-90 2 -125 2q-97 0 -147 -14q-57 -16 -83 -38q-30 -25 -38 -56q-9 -33 -9 -70q0 -102 57 -138t177 -36zM485 1167l156 312h252l-270 -312h-138z" />
    <glyph glyph-name="afii10070.var.accented" unicode="&#x435;`" horiz-adv-x="1146" 
d="M1051 444h-777q1 -94 25 -160q23 -64 62 -99q40 -35 98 -49q55 -13 129 -13q110 0 181 34q72 35 87 138h176q-12 -93 -48 -154q-37 -63 -92 -99q-57 -38 -133 -54q-79 -17 -171 -17q-117 0 -210 26q-92 26 -154 88t-94 165q-32 104 -32 256q0 156 32 263t94 169
q64 64 154 89q93 26 208 26q224 0 345 -112q120 -111 120 -359v-138zM586 901q-66 0 -121 -12q-53 -12 -95 -47q-40 -34 -65 -96t-29 -158h594q0 96 -19 154q-20 63 -56 97q-37 35 -90 49q-51 13 -119 13zM516 1167l156 312h252l-271 -312h-137z" />
    <glyph glyph-name="afii10074.var.accented" unicode="&#x438;`" horiz-adv-x="1126" 
d="M821 0v700l-588 -700h-104v1024h178v-711l588 711h102v-1024h-176zM496 1167l155 312h252l-270 -312h-137z" />
    <glyph glyph-name="afii10080.var.accented" unicode="&#x43e;`" horiz-adv-x="1177" 
d="M588 123q76 0 134 15q56 14 98 58q42 43 62 116q21 75 21 194q0 124 -21 200t-62 120q-43 46 -99 60q-60 15 -133 15q-74 0 -132 -15t-99 -59q-39 -42 -60 -120t-21 -201q0 -119 21 -194q21 -76 60 -116q42 -43 99 -58q58 -15 132 -15zM588 1053q119 0 212 -26
q89 -25 153 -89q63 -63 95 -169q31 -103 31 -263q0 -156 -31 -256q-31 -101 -95 -165q-63 -63 -153 -88q-93 -26 -212 -26q-117 0 -210 26q-92 26 -154 88t-94 165q-32 104 -32 256q0 156 32 263t94 169q64 64 154 89q93 26 210 26zM520 1167l156 312h252l-271 -312h-137z
" />
    <glyph glyph-name="afii10085.var.accented" unicode="&#x443;`" horiz-adv-x="1099" 
d="M483 59l-469 965h195l362 -774l322 774h192l-610 -1393h-184zM481 1167l156 312h252l-271 -312h-137z" />
    <glyph glyph-name="afii10093.var.accented" unicode="&#x44b;`" horiz-adv-x="1339" 
d="M539 655q95 0 160 -24q64 -24 105 -68q39 -42 56 -101q17 -60 17 -124q0 -149 -77 -244q-76 -94 -245 -94h-426v1024h178v-369h232zM1210 1024v-1024h-178v1024h178zM307 510v-358h211q83 0 133 41q49 40 49 145q0 78 -33 124q-35 48 -135 48h-225zM602 1167l156 312h252
l-271 -312h-137z" />
    <glyph glyph-name="afii10095.var.accented" unicode="&#x44d;`" horiz-adv-x="1124" 
d="M846 594q-6 93 -31 156q-23 58 -63 93q-38 34 -94 46q-54 12 -121 12q-50 0 -100 -8q-45 -7 -82 -32t-60 -63q-25 -42 -35 -102h-176q12 104 49 170q39 70 95 110t137 59q78 18 172 18q116 0 209 -26q90 -25 154 -89q61 -61 95 -169q33 -105 33 -263q0 -154 -33 -256
q-33 -103 -95 -165q-63 -63 -154 -88q-93 -26 -209 -26q-93 0 -177 19q-80 18 -138 60q-56 40 -95 112q-37 68 -49 172h174q11 -64 35 -105q24 -40 61 -64q38 -24 85 -33q48 -9 104 -9q69 0 125 12q55 12 94 48q37 34 62 98q24 62 30 159h-432v154h430zM494 1167l155 312
h252l-270 -312h-137z" />
    <glyph glyph-name="afii10096.var.accented" unicode="&#x44e;`" horiz-adv-x="1548" 
d="M969 -29q-110 0 -197 23q-85 22 -147 77q-63 55 -97 144q-35 91 -41 225h-180v-440h-178v1024h178v-430h182q10 127 46 219q35 89 96 141q64 54 146 76q87 23 192 23q115 0 207 -26q89 -25 151 -89q61 -63 93 -169q32 -107 32 -263q0 -152 -32 -256q-32 -102 -93 -165
t-151 -88q-92 -26 -207 -26zM969 901q-73 0 -130 -15t-95 -59q-37 -43 -58 -120q-20 -74 -20 -201q0 -123 20 -194q21 -74 58 -116q39 -43 95 -58q57 -15 130 -15t130 15q54 14 95 58q38 41 59 116t21 194q0 124 -21 200q-21 78 -59 120q-41 46 -95 60q-57 15 -130 15z
M707 1167l155 312h252l-270 -312h-137z" />
    <glyph glyph-name="afii10097.var.accented" unicode="&#x44f;`" horiz-adv-x="1097" 
d="M791 365h-302l-210 -365h-205l241 383q-103 34 -152 121q-48 86 -48 196q0 70 17 127q19 63 57 104q41 45 106 68q69 25 160 25h514v-1024h-178v365zM291 700q0 -75 32 -130q31 -54 117 -54h351v356h-322q-108 0 -143 -47t-35 -125zM481 1167l156 312h252l-271 -312h-137
z" />
    <glyph glyph-name="afii10071.var.accented" unicode="&#x451;`" horiz-adv-x="1146" 
d="M1051 444h-777q1 -94 25 -160q23 -64 62 -99q40 -35 98 -49q55 -13 129 -13q110 0 181 34q72 35 87 138h176q-12 -93 -48 -154q-37 -63 -92 -99q-57 -38 -133 -54q-79 -17 -171 -17q-117 0 -210 26q-92 26 -154 88t-94 165q-32 104 -32 256q0 156 32 263t94 169
q64 64 154 89q93 26 208 26q224 0 345 -112q120 -111 120 -359v-138zM586 901q-66 0 -121 -12q-53 -12 -95 -47q-40 -34 -65 -96t-29 -158h594q0 96 -19 154q-20 63 -56 97q-37 35 -90 49q-51 13 -119 13zM520 1167l-41 312h211l-41 -312h-129zM743 1206v199h181v-199h-181z
M248 1206v199h178v-199h-178z" />
    <glyph glyph-name="fi" unicode="fi" horiz-adv-x="1202" 
d="M549 1262q-97 0 -139 -48q-41 -47 -41 -143v-47h385v-152h-385v-872h-179v872h-163v152h163v47q0 67 19 134q18 62 60 109q40 44 111 72q69 27 167 27h207v-151h-205zM1065 1024v-1024h-178v1024h178zM879 1212v193h194v-193h-194z" />
    <glyph glyph-name="fl" unicode="fl" horiz-adv-x="1185" 
d="M549 1262q-97 0 -139 -48q-41 -47 -41 -143v-47h385v-152h-385v-872h-179v872h-163v152h163v47q0 67 19 134q18 62 60 109q40 44 111 72q69 27 167 27h207v-151h-205zM1057 0h-178v1413h178v-1413z" />
    <glyph glyph-name=".notdef" horiz-adv-x="1302" 
d="M1188 -307h-1073v1966h1073v-1966zM295 -131h713v1135l-713 -775v-360zM295 449l713 776v278h-713v-1054z" />
    <glyph glyph-name=".null" horiz-adv-x="0" 
 />
    <glyph glyph-name=".null" horiz-adv-x="0" 
 />
    <glyph glyph-name="nonmarkingreturn" unicode="&#xd;" horiz-adv-x="512" 
 />
    <glyph glyph-name="space" unicode=" " horiz-adv-x="466" 
 />
    <glyph glyph-name="exclam" unicode="!" horiz-adv-x="471" 
d="M119 0v229h233v-229h-233zM326 430h-181v983h181v-983z" />
    <glyph glyph-name="quotedbl" unicode="&#x22;" horiz-adv-x="651" 
d="M88 899v637h176v-637h-176zM387 899v637h178v-637h-178z" />
    <glyph glyph-name="numbersign" unicode="#" horiz-adv-x="1349" 
d="M758 297h-307l-60 -297h-172l62 297h-168l37 160h165l82 395h-182l37 160h178l62 291h165l-59 -291h297l57 291h168l-55 -291h172l-37 -160h-166l-73 -395h178l-37 -160h-172l-56 -297h-174zM483 457h305l76 395h-299z" />
    <glyph glyph-name="dollar" unicode="$" 
d="M750 -141v166q-30 -2 -45 -2h-46h-49q-17 0 -47 2v-166h-174v198q-128 40 -203 137q-74 95 -80 269h199q4 -81 33 -134t75 -80q48 -28 109 -38q60 -10 137 -10q109 0 172 14q71 16 106 41q37 26 52 65q15 37 15 84q0 96 -56 140q-54 42 -137 59l-354 76q-161 35 -237 129
q-77 95 -77 229q0 103 55 192q53 86 191 130v178h174v-149q28 2 43 3t45 1q33 0 49 -1q8 0 25 -1t25 -2v149h174v-184q117 -40 183 -134q67 -94 67 -259h-195q0 83 -26 133q-25 49 -69 76q-46 29 -105 36q-64 8 -128 8q-108 0 -167 -14q-61 -14 -96 -39q-33 -23 -44 -56
q-10 -30 -10 -67q0 -78 42 -125q41 -46 138 -67l360 -76q160 -35 241 -119t81 -245q0 -133 -62 -223q-63 -91 -210 -132v-192h-174z" />
    <glyph glyph-name="percent" unicode="%" horiz-adv-x="1546" 
d="M1169 1413h150l-942 -1413h-152zM381 1292q-33 0 -60 -8q-23 -7 -43 -33q-19 -25 -26 -70q-8 -50 -8 -122q0 -71 8 -119q8 -45 26 -70q19 -25 43 -32q31 -9 60 -9t60 9q24 7 43 32q18 24 27 70q9 45 9 119q0 75 -9 122q-9 46 -27 70q-20 26 -43 33q-27 8 -60 8zM381 692
q-75 0 -131 18q-55 18 -91 58t-54 113q-17 68 -17 178q0 109 20 183q20 76 56 114q38 41 91 57q56 17 126 17t126 -17q53 -16 91 -57q36 -38 56 -114q20 -74 20 -183q0 -106 -18 -178q-19 -75 -54 -113q-37 -40 -92 -58q-56 -18 -129 -18zM1165 584q-29 0 -60 -9
q-24 -7 -43 -32t-26 -71q-8 -50 -8 -122q0 -71 8 -119q7 -44 26 -69q20 -26 43 -33q27 -8 60 -8q34 0 61 8q23 7 43 33q17 22 26 69q10 50 10 119q0 70 -10 122q-9 49 -26 71q-19 25 -43 32q-31 9 -61 9zM1165 -16q-79 0 -131 17q-55 18 -91 58q-34 39 -53 113
q-18 72 -18 178q0 110 20 184t56 113q39 42 91 58t126 16t126 -16t91 -58q37 -40 57 -113q19 -70 19 -184q0 -110 -17 -178q-18 -73 -55 -113t-92 -58q-52 -17 -129 -17z" />
    <glyph glyph-name="ampersand" unicode="&#x26;" horiz-adv-x="1441" 
d="M698 -29q-312 0 -460 122t-148 356q0 147 66 249q66 103 200 125q-48 65 -71 130q-23 64 -23 134q0 171 107 263t329 92q98 0 182 -23q82 -22 143 -76q61 -53 92 -141q32 -90 26 -219h-197q5 94 -13 148q-18 55 -51 84q-34 30 -81 39q-52 10 -101 10q-122 0 -181 -42
q-58 -42 -58 -141q0 -34 8 -69q7 -33 32 -71q27 -43 62 -84q30 -36 101 -112l403 -407q26 64 34 137q9 75 1 182h194q6 -154 -17 -262q-24 -113 -73 -196l199 -199h-248l-72 70q-72 -51 -169 -75q-98 -24 -216 -24zM528 629q-39 37 -55 55q-53 -2 -90 -21q-35 -18 -59 -52
q-23 -33 -32 -74q-9 -43 -9 -91q0 -144 94 -220t321 -76q79 0 142 12q61 12 112 41z" />
    <glyph glyph-name="quotesingle" unicode="'" horiz-adv-x="352" 
d="M88 899v637h176v-637h-176z" />
    <glyph glyph-name="parenleft" unicode="(" horiz-adv-x="679" 
d="M287 614q0 -206 38 -366t94 -269q58 -113 120 -181q63 -69 114 -99v-170q-88 28 -182 107t-178 217q-83 135 -135 325q-54 196 -54 436q0 232 54 420q52 182 135 313q81 128 178 207q96 78 182 105v-170q-51 -30 -114 -96q-64 -67 -120 -172t-94 -256q-38 -152 -38 -351z
" />
    <glyph glyph-name="parenright" unicode=")" horiz-adv-x="679" 
d="M393 614q0 199 -38 351q-38 151 -94 256t-120 172q-63 66 -114 96v170q86 -27 182 -105q97 -79 178 -207q83 -131 135 -313q53 -185 53 -420q0 -244 -53 -436q-52 -190 -135 -325q-84 -138 -178 -217t-182 -107v170q51 30 114 99t120 180q55 108 94 270q38 160 38 366z
" />
    <glyph glyph-name="asterisk" unicode="*" horiz-adv-x="1165" 
d="M150 1106l327 -25l-188 271l151 88l142 -307h2l141 307l154 -88l-193 -271l330 25v-174l-330 24l193 -272l-154 -86l-141 307l-144 -307l-151 86l188 272l-327 -24v174z" />
    <glyph glyph-name="plus" unicode="+" horiz-adv-x="1083" 
d="M627 1053v-310h301v-159h-301v-312h-172v312h-299v159h299v310h172z" />
    <glyph glyph-name="comma" unicode="," horiz-adv-x="403" 
d="M51 -315l113 315h-78v229h229v-198l-147 -346h-117z" />
    <glyph glyph-name="hyphen" unicode="-" horiz-adv-x="845" 
d="M762 473h-678v160h678v-160z" />
    <glyph glyph-name="period" unicode="." horiz-adv-x="409" 
d="M88 0v229h234v-229h-234z" />
    <glyph glyph-name="slash" unicode="/" horiz-adv-x="976" 
d="M791 1536h184l-787 -1720h-186z" />
    <glyph glyph-name="zero" unicode="0" 
d="M659 1264q-94 0 -166 -20t-118 -79q-47 -61 -71 -169q-23 -105 -23 -291q0 -179 23 -284q24 -108 71 -169q46 -60 118 -81q71 -21 166 -21q97 0 167 21q72 21 118 81q47 61 71 169q23 105 23 284q0 186 -23 291q-24 108 -71 169q-46 59 -118 79t-167 20zM659 -29
q-142 0 -252 35q-108 35 -179 119q-69 82 -104 225q-34 139 -34 355q0 222 37 364q38 144 109 226q73 84 178 115q108 32 245 32q138 0 246 -32q105 -31 178 -115q71 -82 109 -226q37 -142 37 -364q0 -212 -35 -355q-34 -141 -105 -225t-178 -119q-108 -35 -252 -35z" />
    <glyph glyph-name="one" unicode="1" horiz-adv-x="823" 
d="M600 0h-188v942h-267v160h123q76 0 112 42t36 118v151h184v-1413z" />
    <glyph glyph-name="two" unicode="2" 
d="M750 655q105 89 163 178q56 86 56 189q0 51 -14 98t-47 77q-34 31 -93 49q-60 18 -153 18q-65 0 -125 -12q-61 -12 -105 -46q-47 -36 -70 -97q-24 -64 -20 -167h-195q-6 145 32 241q37 93 108 153q68 57 166 82q96 24 209 24q146 0 247 -32q100 -32 156 -88
q57 -57 81 -133q23 -73 23 -167q0 -80 -17 -139q-19 -67 -54 -123q-38 -60 -96 -117q-67 -65 -140 -121l-418 -334v-10h752v-178h-1079v135z" />
    <glyph glyph-name="three" unicode="3" 
d="M666 -29q-123 0 -229 23q-103 22 -179 79t-118 151q-43 96 -44 239h199q0 -100 30 -163q30 -62 79 -95q47 -31 118 -44q62 -11 144 -11q110 0 181 18q69 18 110 54q41 37 56 88q15 52 15 122q0 73 -11 118q-12 51 -48 84q-35 32 -107 51q-65 17 -186 17h-178v136l379 397
h-713v178h962v-141l-413 -422h92q205 -1 311 -109q105 -107 105 -311q0 -107 -29 -194q-29 -86 -95 -145t-172 -89q-109 -31 -259 -31z" />
    <glyph glyph-name="four" unicode="4" 
d="M930 215h-856v156l872 1042h172v-1020h131v-178h-131v-215h-188v215zM930 393v729l-611 -729h611z" />
    <glyph glyph-name="five" unicode="5" 
d="M737 913q152 0 244 -32t148 -94q55 -61 74 -146q20 -88 20 -192q0 -113 -30 -202q-31 -91 -95 -151q-66 -62 -172 -93q-108 -32 -260 -32q-123 0 -229 23q-103 22 -179 79t-118 151t-42 239h197q1 -98 31 -163q28 -62 78 -95q47 -31 118 -44q62 -11 144 -11q112 0 181 19
q70 19 110 58q41 39 56 95t15 129q0 74 -12 128q-12 53 -48 91q-35 36 -100 55q-63 18 -168 18h-489v670h936v-178h-760v-322h350z" />
    <glyph glyph-name="six" unicode="6" 
d="M664 -29q-131 0 -239 24q-107 24 -183 79q-77 56 -117 148q-41 94 -41 233q0 87 18 158q17 68 58 140q39 69 97 139q67 80 140 159l328 362h236l-426 -467q-2 -3 -20 -23q-7 -8 -21 -30l4 -6q45 15 110 26q63 11 117 11q145 0 243 -33q95 -32 156 -93q60 -60 84 -146
q25 -89 25 -191q0 -115 -30 -206t-97 -154q-65 -60 -176 -96q-106 -34 -266 -34zM662 762q-117 0 -192 -21q-77 -22 -117 -60q-42 -40 -58 -96q-16 -55 -16 -130q0 -76 16 -131q17 -60 58 -96q41 -37 116 -58q70 -20 190 -20q119 0 189 20q74 21 117 58q42 36 59 96
q16 55 16 131q0 78 -14 131q-15 58 -55 96q-39 37 -115 59q-74 21 -194 21z" />
    <glyph glyph-name="seven" unicode="7" horiz-adv-x="1105" 
d="M283 0l573 1235h-831v178h1046v-141l-577 -1272h-211z" />
    <glyph glyph-name="eight" unicode="8" 
d="M666 666q-198 0 -300 -63t-102 -204q0 -59 18 -106q19 -49 62 -79q45 -32 123 -48q76 -16 199 -16t197 16q77 17 122 48q44 31 63 79q17 44 17 106q0 142 -101 204q-102 63 -298 63zM666 836q97 0 161 13q65 13 105 41q38 27 55 69q17 43 17 98q0 117 -75 162t-263 45
t-265 -45q-75 -44 -75 -162q0 -57 16 -98q17 -43 56 -69q42 -28 105 -41q62 -13 163 -13zM666 1442q279 0 404 -94q126 -94 126 -279q0 -115 -60 -196t-178 -105v-14q146 -30 223 -119q76 -88 76 -242q0 -104 -32 -181q-33 -79 -104 -132q-73 -55 -183 -81
q-117 -28 -272 -28q-158 0 -275 28q-110 26 -183 81q-71 53 -104 132q-32 77 -32 181q0 154 76 242q77 89 223 119v14q-117 24 -177 105q-61 82 -61 196q0 185 126 279q125 94 407 94z" />
    <glyph glyph-name="nine" unicode="9" 
d="M815 475q2 2 5.5 7t6.5 9.5t6 8.5q4 6 19 28l-4 9q-52 -13 -109 -19q-61 -6 -112 -6q-149 0 -251 34q-106 35 -168 93q-65 60 -94 141q-30 82 -30 178q0 112 31 205q30 90 98 152q66 61 176 94q108 33 266 33q131 0 240 -23q106 -22 181 -78q76 -56 116 -147
q41 -93 41 -231q0 -86 -18 -155q-19 -73 -51 -134q-33 -64 -84 -136q-55 -78 -117 -161l-271 -377h-231zM662 676q114 0 188 18q73 18 116 56q41 37 58 90q16 51 16 123q0 73 -16 128q-16 57 -58 94t-116 57q-75 20 -191 20q-113 0 -188 -20q-73 -20 -117 -57
q-42 -36 -59 -93q-16 -54 -16 -127q0 -65 16 -116q17 -53 59 -91q45 -41 118 -61q75 -21 190 -21z" />
    <glyph glyph-name="colon" unicode=":" horiz-adv-x="409" 
d="M88 0v229h234v-229h-234zM88 795v229h234v-229h-234z" />
    <glyph glyph-name="semicolon" unicode=";" horiz-adv-x="403" 
d="M51 -315l111 315h-78v229h231v-198l-149 -346h-115zM84 795v229h231v-229h-231z" />
    <glyph glyph-name="less" unicode="&#x3c;" horiz-adv-x="1083" 
d="M922 197l-760 387v155l760 387v-184l-570 -278l570 -279v-188z" />
    <glyph glyph-name="equal" unicode="=" horiz-adv-x="1083" 
d="M924 801h-766v160h766v-160zM924 371h-766v159h766v-159z" />
    <glyph glyph-name="greater" unicode="&#x3e;" horiz-adv-x="1083" 
d="M729 664l-567 278v184l760 -387v-155l-760 -387v188z" />
    <glyph glyph-name="question" unicode="?" horiz-adv-x="1054" 
d="M393 0v229h234v-229h-234zM432 430v86l152 143q95 90 161 180q60 83 60 195q0 48 -11 87q-12 43 -42 74t-84 50q-55 19 -136 19q-57 0 -111 -12t-94 -46q-41 -35 -62 -97q-21 -63 -15 -167h-195q-6 145 29 241q34 95 99 153q64 58 155 82q90 24 194 24q130 0 218 -33
t143 -88q56 -56 80 -129q24 -74 24 -158q0 -71 -16 -132q-16 -63 -52 -122q-36 -60 -91 -121q-60 -66 -133 -131l-101 -98h-172z" />
    <glyph glyph-name="at" unicode="@" horiz-adv-x="1562" 
d="M1511 545q0 -123 -18 -205q-18 -83 -55 -132q-38 -50 -90 -71q-50 -20 -123 -20q-205 0 -254 114h-27q-40 -60 -95 -88q-52 -26 -149 -26q-61 0 -112 18q-48 17 -88 63q-38 45 -59 115q-21 72 -21 179q0 110 21 184t59 118t88 63q52 20 112 20q92 0 144 -23
q51 -22 90 -86h22v88h177v-479q0 -61 23 -84q25 -25 71 -25q24 0 44 11t33 40q13 28 19 85q6 54 6 141q0 172 -35 277q-34 103 -101 159q-66 55 -164 72q-95 16 -224 16q-144 0 -243 -17q-108 -18 -178 -77q-74 -62 -111 -172q-37 -111 -37 -303q0 -185 38 -293
q39 -111 114 -171t184 -81q110 -21 251 -21q194 0 330 50l49 -160q-80 -24 -174 -42t-205 -18q-191 0 -337 35q-143 34 -240 119t-146 225t-49 357q0 222 51 366t149 227t236 114q142 32 318 32q169 0 299 -30q133 -31 222 -108q92 -79 138 -213q47 -135 47 -343zM786 254
q90 0 128 50q37 49 42 136v92q0 89 -40 147t-130 58q-46 0 -79 -10q-36 -11 -60 -38q-25 -28 -37 -75q-12 -46 -12 -122q0 -72 12 -118q11 -44 37 -73q23 -26 60 -37q33 -10 79 -10z" />
    <glyph glyph-name="A" unicode="A" horiz-adv-x="1355" 
d="M616 1413h129l601 -1413h-205l-109 266h-710l-111 -266h-201zM393 436h570l-281 690z" />
    <glyph glyph-name="B" unicode="B" horiz-adv-x="1333" 
d="M983 713q69 -7 119 -38q50 -30 81 -72q30 -41 46 -95q14 -49 14 -111q0 -207 -115 -302t-350 -95h-649v1413h621q240 0 347 -88t107 -295q0 -105 -61 -188q-62 -85 -160 -113v-16zM315 627v-449h463q137 0 206 48t69 175q0 67 -15 110q-16 46 -47 70t-86 35t-131 11h-459
zM315 1235v-436h439q128 0 194 51t66 180q0 61 -14 101q-13 37 -44 62q-30 24 -82 33q-51 9 -124 9h-435z" />
    <glyph glyph-name="C" unicode="C" horiz-adv-x="1454" 
d="M1364 463q-12 -145 -60 -239t-126 -151q-77 -56 -187 -79t-241 -23q-160 0 -280 33t-200 116q-80 82 -120 225q-41 144 -41 360q0 228 43 370q44 145 124 224q84 83 202 112q124 31 272 31q127 0 239 -22q106 -21 185 -77q78 -55 124 -148q48 -97 60 -234h-199
q-12 96 -46 155t-85 92q-49 32 -122 44q-70 12 -156 12q-111 0 -195 -18q-83 -18 -140 -76q-56 -57 -86 -169q-30 -111 -30 -296q0 -179 30 -288q30 -110 86 -169q57 -60 140 -79q82 -19 195 -19q85 0 157 12t124 46q53 35 87 95q35 63 47 160h199z" />
    <glyph glyph-name="D" unicode="D" horiz-adv-x="1423" 
d="M129 1413h528q157 0 278 -27q123 -27 206 -103q84 -77 128 -215q44 -140 44 -363q0 -208 -41 -346q-40 -137 -123 -216q-83 -80 -205 -111q-125 -32 -287 -32h-528v1413zM657 178q113 0 200 18q89 18 145 73q61 59 90 160q30 103 30 276q0 184 -30 289q-30 104 -90 160
q-59 55 -145 68q-84 13 -200 13h-342v-1057h342z" />
    <glyph glyph-name="E" unicode="E" horiz-adv-x="1202" 
d="M1104 0h-975v1413h973v-178h-787v-434h768v-176h-768v-447h789v-178z" />
    <glyph glyph-name="F" unicode="F" horiz-adv-x="1177" 
d="M1081 625h-766v-625h-186v1413h969v-178h-783v-434h766v-176z" />
    <glyph glyph-name="G" unicode="G" horiz-adv-x="1490" 
d="M745 741h637v-217q0 -158 -48 -264t-134 -171q-84 -63 -202 -91q-116 -27 -248 -27q-160 0 -280 33q-119 33 -201 116q-80 82 -121 225q-39 137 -39 360q0 228 43 370q44 145 124 224q84 83 202 112q124 31 272 31q129 0 244 -22q109 -21 189 -77q79 -55 127 -148
t60 -234h-196q-15 96 -49 155t-88 92q-52 32 -126 44q-72 12 -161 12q-111 0 -195 -18q-83 -18 -140 -76q-56 -57 -86 -169q-30 -111 -30 -296q0 -179 30 -288q30 -110 86 -169q57 -60 140 -79q82 -19 195 -19q85 0 166 15t144 57q60 40 99 115q37 71 37 187v45h-451v172z
" />
    <glyph glyph-name="H" unicode="H" horiz-adv-x="1400" 
d="M315 801h770v612h187v-1413h-187v625h-770v-625h-186v1413h186v-612z" />
    <glyph glyph-name="I" unicode="I" horiz-adv-x="444" 
d="M315 0h-186v1413h186v-1413z" />
    <glyph glyph-name="J" unicode="J" horiz-adv-x="1253" 
d="M260 463q12 -98 42 -160q29 -60 75 -95q44 -34 103 -46q58 -12 132 -12q104 0 168 26q66 27 103 76q35 47 51 119q14 64 14 155v709h-794v178h981v-887q0 -123 -28 -229q-27 -103 -90 -175q-64 -74 -162 -112q-99 -39 -243 -39q-120 0 -214 24q-97 25 -165 81
q-70 58 -110 151q-41 96 -53 236h190z" />
    <glyph glyph-name="K" unicode="K" horiz-adv-x="1251" 
d="M1001 0l-446 637h-240v-637h-186v1413h186v-608h240l422 608h233l-497 -682l528 -731h-240z" />
    <glyph glyph-name="L" unicode="L" horiz-adv-x="1130" 
d="M1110 0h-981v1413h186v-1235h795v-178z" />
    <glyph glyph-name="M" unicode="M" horiz-adv-x="1619" 
d="M315 1081v-1081h-186v1413h133l553 -661l547 661h131v-1413h-186v1077l-496 -581z" />
    <glyph glyph-name="N" unicode="N" horiz-adv-x="1443" 
d="M244 1413l889 -1071v1071h182v-1413h-123l-883 1061v-1061h-180v1413h115z" />
    <glyph glyph-name="O" unicode="O" horiz-adv-x="1538" 
d="M768 -29q-164 0 -288 33t-207 116q-83 82 -123 225q-41 144 -41 360q0 224 44 370q43 143 129 224q87 83 207 112q127 31 279 31q154 0 281 -31q120 -29 207 -112q86 -81 129 -224q45 -149 45 -370q0 -217 -42 -360q-42 -142 -125 -225t-207 -116t-288 -33zM768 150
q117 0 203 19q87 19 147 79t90 169q31 113 31 288q0 179 -31 294q-29 109 -91 169q-61 59 -147 77q-92 19 -202 19q-112 0 -201 -18q-87 -18 -147 -76q-60 -59 -90 -169q-31 -115 -31 -296q0 -175 31 -288q30 -109 90 -169t147 -79q86 -19 201 -19z" />
    <glyph glyph-name="P" unicode="P" horiz-adv-x="1320" 
d="M1241 922q0 -273 -115 -399q-114 -124 -354 -124h-457v-399h-186v1413h641q126 0 214 -27q91 -28 146 -86q57 -60 84 -152q27 -93 27 -226zM315 1235v-660h457q140 0 209 76q70 78 70 271q0 94 -15 154q-15 62 -47 96q-33 36 -86 50q-51 13 -133 13h-455z" />
    <glyph glyph-name="Q" unicode="Q" horiz-adv-x="1538" 
d="M1167 -360l-309 335l-45 -3q-15 -1 -45 -1q-164 0 -288 33t-207 116q-83 82 -123 225q-41 144 -41 360q0 224 44 370q43 143 129 224q87 83 207 112q127 31 279 31q154 0 281 -31q120 -29 207 -112q86 -81 129 -224q45 -149 45 -370q0 -160 -23 -281q-23 -119 -68 -202
t-112 -135q-66 -51 -158 -79l344 -368h-246zM768 150q117 0 203 19q87 19 147 79t90 169q31 113 31 288q0 179 -31 294q-29 109 -91 169q-61 59 -147 77q-92 19 -202 19q-112 0 -201 -18q-87 -18 -147 -76q-60 -59 -90 -169q-31 -115 -31 -296q0 -175 31 -288
q30 -109 90 -169t147 -79q86 -19 201 -19z" />
    <glyph glyph-name="R" unicode="R" horiz-adv-x="1337" 
d="M1018 0l-346 492h-357v-492h-186v1413h629q253 0 364 -104q113 -105 113 -351q0 -212 -90 -328t-262 -134l366 -496h-231zM315 1235v-584h447q69 0 123 14t88 48q35 35 53 94q18 60 18 151t-14 140q-16 56 -48 84q-35 30 -89 42q-51 11 -135 11h-443z" />
    <glyph glyph-name="S" unicode="S" horiz-adv-x="1347" 
d="M651 -29q-129 0 -234 24q-104 24 -181 81q-75 56 -119 151q-42 92 -47 236h198q4 -97 35 -160q29 -59 82 -95q50 -34 119 -46q68 -12 147 -12q123 0 199 16q77 16 123 47q43 29 62 74q18 43 18 98q0 56 -19 96q-18 37 -51 60q-33 22 -77 36q-33 10 -93 23l-373 74
q-165 33 -244 133t-79 242q0 79 27 151q26 70 92 125q65 54 168 85q107 32 262 32q126 0 232 -23q102 -22 179 -78q75 -55 119 -148q43 -92 49 -232h-194q-6 96 -38 157q-31 58 -82 91q-48 31 -118 43q-67 12 -147 12q-116 0 -186 -18q-72 -18 -108 -47q-38 -30 -51 -69
q-14 -40 -14 -81q0 -82 44 -135q42 -50 147 -72l379 -76q85 -17 159 -46q67 -26 116 -72q45 -42 70 -107q23 -60 23 -156q0 -93 -32 -171t-102 -130q-72 -53 -183 -83q-112 -30 -277 -30z" />
    <glyph glyph-name="T" unicode="T" horiz-adv-x="1261" 
d="M1235 1235h-512v-1235h-186v1235h-510v178h1208v-178z" />
    <glyph glyph-name="U" unicode="U" horiz-adv-x="1384" 
d="M119 1413h186v-919q0 -100 25 -169q25 -67 72 -106q48 -39 121 -54q72 -15 169 -15q96 0 168 15t120 54q49 40 73 106t24 169v919h189v-919q0 -268 -143 -396q-142 -127 -431 -127t-431 127t-142 396v919z" />
    <glyph glyph-name="V" unicode="V" horiz-adv-x="1363" 
d="M748 0h-125l-613 1413h213l465 -1106l461 1106h205z" />
    <glyph glyph-name="W" unicode="W" horiz-adv-x="1869" 
d="M225 1413l320 -1010l327 1010h127l338 -1014l308 1014h204l-448 -1413h-117l-348 1051l-344 -1051h-121l-451 1413h205z" />
    <glyph glyph-name="X" unicode="X" horiz-adv-x="1302" 
d="M651 575l-393 -575h-238l521 709l-496 704h236l376 -563l373 563h227l-489 -704l516 -709h-235z" />
    <glyph glyph-name="Y" unicode="Y" horiz-adv-x="1353" 
d="M229 1413l455 -770l446 770h213l-569 -967v-446h-188v446l-576 967h219z" />
    <glyph glyph-name="Z" unicode="Z" horiz-adv-x="1204" 
d="M1145 0h-1086v106l797 1129h-731v178h1005v-98l-800 -1137h815v-178z" />
    <glyph glyph-name="bracketleft" unicode="[" horiz-adv-x="673" 
d="M627 -471h-508v2130h508v-156h-320v-1818h320v-156z" />
    <glyph glyph-name="backslash" unicode="\" horiz-adv-x="974" 
d="M786 -184l-786 1720h184l789 -1720h-187z" />
    <glyph glyph-name="bracketright" unicode="]" horiz-adv-x="673" 
d="M367 -315v1818h-320v156h508v-2130h-508v156h320z" />
    <glyph glyph-name="asciicircum" unicode="^" horiz-adv-x="1083" 
d="M539 1602l450 -394h-205l-243 234l-246 -234h-205z" />
    <glyph glyph-name="underscore" unicode="_" horiz-adv-x="966" 
d="M883 -246h-799v156h799v-156z" />
    <glyph glyph-name="grave" unicode="`" horiz-adv-x="634" 
d="M117 1479h250l151 -312h-137z" />
    <glyph glyph-name="a" unicode="a" horiz-adv-x="1110" 
d="M436 -29q-73 0 -141 17q-66 17 -112 55q-44 37 -72 100q-27 61 -27 152q0 59 16 114q16 56 60 100q46 46 119 72q77 27 194 27q71 0 100 -1q14 0 41.5 -0.5t40.5 -1.5q39 -1 75 -3q10 0 36.5 -1.5t42.5 -2.5v96q0 114 -58 160q-59 47 -196 47q-58 0 -108 -8
q-44 -7 -77 -32q-34 -26 -52 -63q-20 -40 -27 -102h-172q11 103 43 171q33 70 87 110q53 40 131 58q76 18 175 18q204 0 317 -82q115 -83 115 -277v-694h-178v104h-21q-77 -76 -162 -104q-87 -29 -190 -29zM496 123q57 0 111 10q58 11 102 40q45 30 72 82q28 54 28 134v78
q-78 5 -145 6q-90 2 -125 2q-97 0 -147 -14q-57 -16 -83 -38q-30 -25 -38 -56q-9 -33 -9 -70q0 -102 57 -138t177 -36z" />
    <glyph glyph-name="b" unicode="b" horiz-adv-x="1183" 
d="M659 -29q-101 0 -186 30q-86 30 -145 101h-21v-102h-178v1413h178v-491h21q59 71 145 101q85 30 186 30q97 0 180 -22q77 -20 134 -82q55 -60 84 -166q28 -103 28 -271t-28 -271q-29 -106 -84 -166q-57 -62 -134 -82q-83 -22 -180 -22zM596 901q-60 0 -107 -11
q-52 -12 -91 -41q-40 -30 -64 -79q-26 -53 -27 -127v-246q0 -83 24 -135q26 -56 63 -84q43 -32 92 -43q52 -12 110 -12q83 0 143 12t98 53q37 39 55 118q17 72 17 206t-17 206q-18 79 -55 118q-38 41 -98 53t-143 12z" />
    <glyph glyph-name="c" unicode="c" horiz-adv-x="1124" 
d="M1047 334q-12 -102 -50 -172q-39 -72 -95 -112q-58 -42 -138 -60q-84 -19 -176 -19q-117 0 -210 26q-92 26 -154 88t-94 165q-32 104 -32 256q0 156 32 263t94 169q64 64 154 89q93 26 210 26q94 0 172 -18q79 -18 136 -59q56 -40 95 -110q35 -64 51 -170h-178
q-10 60 -35 102q-23 38 -60 63t-82 32q-50 8 -99 8q-74 0 -132 -15t-99 -59q-39 -42 -60 -120t-21 -201q0 -119 21 -194q21 -76 60 -116q42 -43 99 -58q58 -15 132 -15q55 0 103 9q47 9 85 33q39 25 62 64t34 105h175z" />
    <glyph glyph-name="d" unicode="d" horiz-adv-x="1183" 
d="M522 -29q-94 0 -177 22q-77 20 -134 82q-55 60 -84 166q-29 107 -29 271t29 271q29 106 84 166q57 62 134 82q83 22 177 22q104 0 189 -30q86 -30 145 -101h21v491h178v-1413h-178v102h-21q-59 -71 -145 -101q-85 -30 -189 -30zM588 123q60 0 105 11q51 12 90 40
q40 28 66 79q27 51 28 128v262q-1 75 -28 127q-25 49 -66 79q-38 29 -90 41q-45 11 -105 11q-84 0 -144 -12q-59 -12 -97 -53q-37 -39 -55 -118q-18 -76 -18 -206t18 -206q18 -79 55 -118q38 -41 97 -53q60 -12 144 -12z" />
    <glyph glyph-name="e" unicode="e" horiz-adv-x="1146" 
d="M1051 444h-777q1 -94 25 -160q23 -64 62 -99q40 -35 98 -49q55 -13 129 -13q110 0 181 34q72 35 87 138h176q-12 -93 -48 -154q-37 -63 -92 -99q-57 -38 -133 -54q-79 -17 -171 -17q-117 0 -210 26q-92 26 -154 88t-94 165q-32 104 -32 256q0 156 32 263t94 169
q64 64 154 89q93 26 208 26q224 0 345 -112q120 -111 120 -359v-138zM586 901q-66 0 -121 -12q-53 -12 -95 -47q-40 -34 -65 -96t-29 -158h594q0 96 -19 154q-20 63 -56 97q-37 35 -90 49q-51 13 -119 13z" />
    <glyph glyph-name="f" unicode="f" horiz-adv-x="778" 
d="M549 1262q-97 0 -139 -48q-41 -47 -41 -143v-47h385v-152h-385v-872h-179v872h-163v152h163v47q0 67 19 134q18 62 60 109q40 44 111 72q69 27 167 27h207v-151h-205z" />
    <glyph glyph-name="g" unicode="g" horiz-adv-x="1183" 
d="M877 164h-21q-61 -74 -145 -104q-83 -29 -189 -29q-101 0 -177 20q-79 21 -134 77q-56 57 -84 157q-29 102 -29 258t29 257q28 98 84 155q55 56 134 77q80 21 177 21q104 0 189 -30q86 -30 145 -101h21v102h178v-913q0 -145 -33 -244q-33 -98 -96 -157t-156 -83
q-92 -24 -213 -24q-99 0 -173 14q-81 15 -137 47q-57 32 -95 87q-37 54 -48 134h177q18 -79 93 -105q76 -26 183 -26q77 0 137 15q61 15 100 53q40 38 61 108q22 72 22 181v53zM588 182q56 0 105 12q52 13 90 38q39 26 66 78t28 126v209q-1 75 -28 127q-25 50 -66 78
q-39 28 -90 40q-45 11 -105 11q-89 0 -144 -11q-60 -12 -97 -49q-36 -36 -55 -109q-18 -70 -18 -189t18 -190t55 -108q38 -38 97 -50q65 -13 144 -13z" />
    <glyph glyph-name="h" unicode="h" horiz-adv-x="1138" 
d="M838 719q0 113 -67 148q-65 34 -191 34q-131 0 -199 -58q-69 -59 -74 -188v-655h-178v1413h178v-491h21q56 71 135 101q78 30 182 30q79 0 153 -16q67 -15 116 -53q48 -38 75 -102q27 -65 27 -163v-719h-178v719z" />
    <glyph glyph-name="i" unicode="i" horiz-adv-x="452" 
d="M315 1024v-1024h-178v1024h178zM129 1212v193h195v-193h-195z" />
    <glyph glyph-name="j" unicode="j" horiz-adv-x="456" 
d="M29 -242q59 0 86 47q26 45 26 170v1049h178v-1049q0 -193 -68 -280q-69 -88 -220 -88h-17v151h15zM133 1212v193h195v-193h-195z" />
    <glyph glyph-name="k" unicode="k" horiz-adv-x="1040" 
d="M303 602h162l334 422h202l-395 -492l416 -532h-213l-342 453h-164v-453h-174v1413h174v-811z" />
    <glyph glyph-name="l" unicode="l" horiz-adv-x="436" 
d="M307 0h-178v1413h178v-1413z" />
    <glyph glyph-name="m" unicode="m" horiz-adv-x="1740" 
d="M784 719q0 113 -57 148q-56 34 -164 34q-121 0 -186 -58t-70 -188v-655h-178v1024h178v-102h21q56 71 133 101q76 30 174 30q123 0 192 -33q72 -34 105 -98h49q51 70 130 101q77 30 175 30q69 0 135 -16q62 -15 106 -53q43 -37 67 -102t24 -163v-719h-178v719
q0 113 -59 148q-58 34 -167 34q-119 0 -183 -58q-63 -58 -68 -188v-655h-179v719z" />
    <glyph glyph-name="n" unicode="n" horiz-adv-x="1138" 
d="M838 719q0 113 -67 148q-65 34 -191 34q-131 0 -199 -58q-69 -59 -74 -188v-655h-178v1024h178v-102h21q56 71 135 101q78 30 182 30q79 0 153 -16q67 -15 116 -53q48 -38 75 -102q27 -65 27 -163v-719h-178v719z" />
    <glyph glyph-name="o" unicode="o" horiz-adv-x="1177" 
d="M588 123q76 0 134 15q56 14 98 58q42 43 62 116q21 75 21 194q0 124 -21 200t-62 120q-43 46 -99 60q-60 15 -133 15q-74 0 -132 -15t-99 -59q-39 -42 -60 -120t-21 -201q0 -119 21 -194q21 -76 60 -116q42 -43 99 -58q58 -15 132 -15zM588 1053q119 0 212 -26
q89 -25 153 -89q63 -63 95 -169q31 -103 31 -263q0 -156 -31 -256q-31 -101 -95 -165q-63 -63 -153 -88q-93 -26 -212 -26q-117 0 -210 26q-92 26 -154 88t-94 165q-32 104 -32 256q0 156 32 263t94 169q64 64 154 89q93 26 210 26z" />
    <glyph glyph-name="p" unicode="p" horiz-adv-x="1183" 
d="M659 -29q-101 0 -186 30q-86 30 -145 101h-21v-471h-178v1393h178v-102h21q59 71 145 101q85 30 186 30q97 0 180 -22q77 -20 134 -82q55 -60 84 -166q28 -103 28 -271t-28 -271q-29 -106 -84 -166q-57 -62 -134 -82q-83 -22 -180 -22zM596 901q-60 0 -107 -11
q-52 -12 -91 -41q-40 -30 -64 -79q-26 -53 -27 -127v-246q0 -83 24 -135q26 -56 63 -84q43 -32 92 -43q52 -12 110 -12q83 0 143 12t98 53q37 39 55 118q17 72 17 206t-17 206q-18 79 -55 118q-38 41 -98 53t-143 12z" />
    <glyph glyph-name="q" unicode="q" horiz-adv-x="1183" 
d="M522 -29q-94 0 -177 22q-77 20 -134 82q-55 60 -84 166q-29 107 -29 271t29 271q29 106 84 166q57 62 134 82q83 22 177 22q104 0 189 -30q86 -30 145 -101h21v102h178v-1393h-178v471h-21q-59 -71 -145 -101q-85 -30 -189 -30zM588 123q60 0 105 11q51 12 90 40
q40 28 66 79q27 51 28 128v262q-1 75 -28 127q-25 49 -66 79q-38 29 -90 41q-45 11 -105 11q-84 0 -144 -12q-59 -12 -97 -53q-37 -39 -55 -118q-18 -76 -18 -206t18 -206q18 -79 55 -118q38 -41 97 -53q60 -12 144 -12z" />
    <glyph glyph-name="r" unicode="r" horiz-adv-x="770" 
d="M737 1028v-164l-51 2q-114 5 -188 -18t-116 -72q-41 -49 -58 -124q-17 -77 -17 -171v-481h-178v1024h178v-176h21q52 98 135 139q84 41 225 41h49z" />
    <glyph glyph-name="s" unicode="s" horiz-adv-x="1071" 
d="M532 901q-74 0 -118 -10q-49 -11 -75 -30q-27 -19 -39 -47q-11 -25 -11 -60q0 -59 42 -89q43 -31 111 -47l275 -53q135 -28 199 -94q65 -67 65 -184q0 -145 -103 -230q-104 -86 -348 -86q-92 0 -176 19q-80 18 -140 60q-59 41 -96 112q-36 70 -44 172h174q6 -65 30 -105
t61 -64t87 -33q49 -9 104 -9q84 0 136 12q54 12 85 33q33 22 44 50q12 30 12 67q0 61 -39 90q-40 29 -104 45l-287 57q-124 27 -191 92q-69 66 -69 185q0 67 23 119q24 54 74 95q48 39 129 62t189 23q92 0 170 -18q81 -19 136 -59q57 -42 93 -110q37 -69 44 -170h-178
q-6 60 -29 102q-21 38 -57 63q-35 25 -81 32q-50 8 -98 8z" />
    <glyph glyph-name="t" unicode="t" horiz-adv-x="798" 
d="M756 0h-217q-84 0 -147 16q-62 16 -109 55t-70 100q-25 66 -25 155v546h-161v152h161v328h179v-328h389v-152h-389v-546q0 -106 53 -141q50 -33 153 -33h183v-152z" />
    <glyph glyph-name="u" unicode="u" horiz-adv-x="1138" 
d="M301 305q0 -59 14 -93q15 -36 44 -55q30 -19 72 -27q39 -7 97 -7q56 0 110 12q51 11 97 43q42 29 70 84q26 51 26 135v627h179v-1024h-179v102h-20q-61 -63 -135 -96q-78 -35 -187 -35q-76 0 -150 16q-69 15 -116 53q-46 37 -73 102t-27 163v719h178v-719z" />
    <glyph glyph-name="v" unicode="v" horiz-adv-x="1095" 
d="M498 0l-484 1024h197l344 -764l332 764h194l-475 -1024h-108z" />
    <glyph glyph-name="w" unicode="w" horiz-adv-x="1476" 
d="M391 0l-371 1024h189l235 -692l244 692h107l243 -688l238 688h180l-373 -1024h-92l-250 717l-260 -717h-90z" />
    <glyph glyph-name="x" unicode="x" horiz-adv-x="1028" 
d="M512 406l-281 -406h-213l381 516l-362 508h211l270 -397l262 397h211l-358 -508l377 -516h-219z" />
    <glyph glyph-name="y" unicode="y" horiz-adv-x="1099" 
d="M483 59l-469 965h195l362 -774l322 774h192l-610 -1393h-184z" />
    <glyph glyph-name="z" unicode="z" horiz-adv-x="940" 
d="M43 104l584 768h-539v152h778v-90l-596 -782h627v-152h-854v104z" />
    <glyph glyph-name="braceleft" unicode="{" horiz-adv-x="667" 
d="M569 -471q-163 0 -245 69t-82 214v503q0 65 -13 107q-12 39 -30 60q-19 22 -40 31q-17 7 -40 13v156q21 5 40 12q21 7 40 30q18 21 30 61q13 44 13 108v483q0 283 327 283h52v-156h-50q-70 0 -116 -35q-45 -34 -45 -112v-463q0 -74 -14 -127q-14 -51 -36 -84
q-21 -31 -50 -50q-24 -16 -58 -28q31 -11 58 -29q28 -19 50 -51q22 -33 36 -84q14 -53 14 -125v-483q0 -80 45 -114q43 -33 116 -33h50v-156h-52z" />
    <glyph glyph-name="bar" unicode="|" horiz-adv-x="503" 
d="M346 -184h-188v1720h188v-1720z" />
    <glyph glyph-name="braceright" unicode="}" horiz-adv-x="669" 
d="M47 -315h51q74 0 116 33q44 35 44 114v504q0 76 13 125q13 51 36 84q22 32 50 51q26 18 59 29q-39 14 -59 27q-29 19 -50 50q-23 33 -36 84q-13 49 -13 127v443q0 77 -44 112t-116 35h-51v156h53q326 0 326 -283v-463q0 -68 13 -107q13 -40 32 -62q18 -21 40 -29
q28 -10 40 -13v-155q-23 -6 -40 -13q-20 -9 -41 -31q-20 -21 -32 -61q-12 -39 -12 -106v-524q0 -145 -81 -214t-245 -69h-53v156z" />
    <glyph glyph-name="asciitilde" unicode="~" horiz-adv-x="1083" 
d="M348 850q75 0 130 -35q53 -34 97 -78q55 -55 80 -78q37 -34 80 -34q37 0 64 31t39 135h163q-21 -179 -83 -249q-64 -73 -185 -73q-73 0 -126 35q-51 34 -94 78q-29 30 -80 77q-38 35 -85 35q-17 0 -35 -5q-16 -4 -29 -22q-12 -15 -25 -49q-11 -28 -19 -81h-162
q22 171 86 242q63 71 184 71z" />
    <glyph glyph-name="uni00A0" unicode="&#xa0;" horiz-adv-x="466" 
 />
    <glyph glyph-name="exclamdown" unicode="&#xa1;" horiz-adv-x="471" 
d="M352 795h-233v229h233v-229zM145 -389v983h181v-983h-181z" />
    <glyph glyph-name="cent" unicode="&#xa2;" horiz-adv-x="1220" 
d="M530 -238v215q-95 7 -170 41q-74 33 -123 96q-51 65 -76 158q-26 98 -26 234q0 138 26 239q25 96 76 163q50 65 123 98q75 34 170 41v196h179v-194q153 -15 250 -94q98 -80 122 -259h-178q-10 60 -35 102q-23 38 -60 63t-82 32q-50 8 -99 8q-76 0 -133 -15t-98 -59
q-39 -42 -60 -120t-21 -201q0 -119 21 -194q21 -76 60 -116q42 -43 98 -58q57 -15 133 -15q55 0 103 9q47 9 85 33q39 25 62 64t34 105h174q-21 -183 -119 -263q-99 -81 -257 -96v-213h-179z" />
    <glyph glyph-name="sterling" unicode="&#xa3;" 
d="M1188 508h-717v-330h717v-178h-1079v178h176v330h-176v176h176v283q0 240 98 357q99 118 322 118q103 0 187 -23q82 -22 140 -77t85 -147q28 -98 24 -234h-193q4 93 -11 155q-14 58 -47 92q-30 31 -79 44q-47 12 -106 12q-135 0 -185 -71q-49 -70 -49 -226v-283h717v-176
z" />
    <glyph glyph-name="currency" unicode="&#xa4;" horiz-adv-x="1247" 
d="M623 133q-116 0 -203 31l-119 -164l-162 113l137 159q-67 95 -67 273q0 174 61 272l-131 146l148 112l110 -145q93 41 226 41q137 0 227 -43l111 147l145 -112l-131 -146q63 -102 63 -272q0 -175 -69 -275l137 -157l-160 -113l-119 164q-88 -31 -204 -31zM623 819
q-62 0 -107 -12t-74 -44q-27 -30 -43 -85q-14 -49 -14 -133q0 -152 57 -206t181 -54q125 0 182 54t57 206q0 84 -14 133q-16 55 -44 85q-31 32 -75 44q-45 12 -106 12z" />
    <glyph glyph-name="yen" unicode="&#xa5;" 
d="M1106 178h-348v-178h-189v178h-352v174h352v142h-352v174h268l-438 745h219l402 -702l391 702h215l-434 -745h266v-174h-348v-142h348v-174z" />
    <glyph glyph-name="brokenbar" unicode="&#xa6;" horiz-adv-x="503" 
d="M346 -184h-188v696h188v-696zM346 840h-188v696h188v-696z" />
    <glyph glyph-name="section" unicode="&#xa7;" horiz-adv-x="976" 
d="M279 731q0 -71 46 -107q47 -36 169 -36q125 0 170 29q47 30 47 116q0 63 -47 96q-46 33 -170 33t-169 -26q-46 -27 -46 -105zM100 735q0 83 46 135q47 54 155 76v21q-74 23 -123 68q-51 47 -51 143q0 144 98 203q101 61 269 61q196 0 285 -81q89 -82 85 -276h-184
q4 110 -38 148q-41 37 -148 37q-92 0 -139 -24q-46 -24 -46 -89q0 -30 14 -53t44 -41q32 -19 82 -34q74 -22 126 -34q96 -21 155 -42q60 -21 95 -50t48 -70q14 -44 14 -104q0 -75 -42 -137q-43 -62 -140 -80v-20q90 -22 147 -76q55 -52 55 -156q0 -150 -92 -219
q-93 -70 -321 -70q-118 0 -203 20q-83 19 -132 66q-50 47 -71 126q-20 74 -18 198h194q-6 -81 5 -125q13 -49 40 -72q29 -25 75 -32q56 -9 110 -9q118 0 171 30q52 30 52 101q0 42 -15 66q-16 26 -50 43q-39 19 -94 35q-53 15 -146 37q-99 24 -155 46q-63 25 -95 56
q-35 33 -48 76q-14 45 -14 102z" />
    <glyph glyph-name="dieresis" unicode="&#xa8;" horiz-adv-x="841" 
d="M117 1206v199h190v-199h-190zM535 1206v199h190v-199h-190z" />
    <glyph glyph-name="copyright" unicode="&#xa9;" horiz-adv-x="1554" 
d="M778 1274q-134 0 -238 -18q-106 -19 -174 -76q-71 -61 -107 -172q-36 -112 -36 -303q0 -182 36 -293q36 -110 107 -171q70 -60 174 -81t238 -21t237 21t174 81q70 59 106 171q36 111 36 293q0 190 -37 301q-38 113 -107 172t-173 77q-108 19 -236 19zM778 -31
q-182 0 -322 35q-139 35 -231 119q-93 85 -139 225q-47 143 -47 357q0 221 50 366q49 143 144 226q96 84 233 115q140 32 312 32q173 0 312 -32q135 -31 231 -115q95 -83 144 -226q51 -148 51 -366q0 -211 -48 -357q-46 -140 -139 -225q-92 -85 -230 -119q-140 -35 -321 -35
zM1118 578q-15 -143 -106 -200q-90 -56 -234 -56q-85 0 -154 18q-68 18 -115 62t-71 116t-24 178q0 112 24 185t71 117q48 45 115 64t154 19q140 0 231 -55q90 -55 105 -199h-176q-6 63 -51 84t-109 21q-46 0 -80 -9q-35 -9 -59 -35q-25 -27 -37 -72q-12 -46 -12 -120
q0 -70 12 -113q12 -44 37 -69t59 -34t80 -9q64 0 113 22q47 21 53 85h174z" />
    <glyph glyph-name="ordfeminine" unicode="&#xaa;" horiz-adv-x="849" 
d="M346 690q-130 0 -193 60t-63 157q0 39 9 78q9 38 38 69q28 29 82 48q53 18 141 18h242v51q0 69 -43 93t-131 24q-92 0 -129 -24t-37 -93h-156q0 69 25 121q23 48 68 79q43 30 102 43q58 13 127 13q72 0 130 -13q63 -14 105 -43q44 -30 69 -79q26 -50 26 -121v-464h-156
v79h-20q-32 -40 -94 -69q-58 -27 -142 -27zM358 823q42 0 86 6q40 6 79 25q37 19 58 51q21 33 21 84v25h-213q-46 0 -76 -8q-29 -8 -44 -23q-14 -14 -19 -33q-4 -16 -4 -39q0 -41 26 -64q27 -24 86 -24z" />
    <glyph glyph-name="guillemotleft" unicode="&#xab;" horiz-adv-x="960" 
d="M500 25l-420 401v168l420 401v-211l-295 -272l295 -272v-215zM881 25l-420 401v168l420 401v-211l-295 -272l295 -272v-215z" />
    <glyph glyph-name="logicalnot" unicode="&#xac;" horiz-adv-x="1083" 
d="M924 225h-172v359h-594v159h766v-518z" />
    <glyph glyph-name="uni00AD" unicode="&#xad;" horiz-adv-x="845" 
d="M762 473h-678v160h678v-160z" />
    <glyph glyph-name="registered" unicode="&#xae;" horiz-adv-x="1310" 
d="M655 600q-122 0 -224 25q-96 24 -163 83q-65 57 -98 157q-33 99 -33 249q0 156 36 256t102 159q66 58 163 81q94 22 217 22t217 -22q97 -23 163 -81q68 -60 102 -159t34 -256q0 -153 -32 -249q-33 -98 -98 -157q-66 -60 -161 -83q-102 -25 -225 -25zM655 1487
q-91 0 -154 -11q-68 -12 -115 -51q-47 -40 -71 -112q-24 -73 -24 -199q0 -118 24 -190q24 -71 71 -112q45 -39 115 -53q72 -14 154 -14q86 0 156 14q68 14 114 52q45 38 70 112q25 75 25 191q0 122 -25 199q-24 73 -70 112q-47 39 -115 51q-63 11 -155 11zM717 1366
q93 0 130 -56q38 -58 38 -134q0 -117 -74 -164l92 -144h-145l-72 121h-117v-121h-129v498h277zM569 1249v-151h117q40 0 55 24t15 54q0 34 -17 54q-16 19 -69 19h-101z" />
    <glyph glyph-name="macron" unicode="&#xaf;" horiz-adv-x="864" 
d="M748 1225h-631v151h631v-151z" />
    <glyph glyph-name="degree" unicode="&#xb0;" horiz-adv-x="706" 
d="M354 950q77 0 112 34q36 35 36 132q0 104 -37 141t-111 37q-77 0 -113 -37t-36 -141q0 -97 36 -132q35 -34 113 -34zM354 811q-136 0 -225 78q-88 78 -88 227q0 159 88 238q89 80 225 80q135 0 224 -80q88 -79 88 -238q0 -149 -88 -227t-224 -78z" />
    <glyph glyph-name="plusminus" unicode="&#xb1;" horiz-adv-x="1083" 
d="M627 1126v-297h297v-159h-297v-287h-172v287h-297v159h297v297h172zM924 119h-766v160h766v-160z" />
    <glyph glyph-name="twosuperior" unicode="&#xb2;" horiz-adv-x="679" 
d="M348 1292q56 46 75 79q21 36 21 83q0 41 -20 64q-21 24 -84 24q-22 0 -41 -4q-20 -4 -35 -16q-14 -11 -22 -36q-8 -24 -6 -63h-160q-2 73 16 120q18 49 54 77q37 29 86 41q50 12 110 12q80 0 128 -16q50 -17 80 -45t42 -67q12 -37 12 -83q0 -71 -27 -128
q-25 -53 -100 -111l-166 -129v-4h307v-138h-557v103z" />
    <glyph glyph-name="threesuperior" unicode="&#xb3;" horiz-adv-x="679" 
d="M344 936q-68 0 -118 11q-54 12 -93 39q-38 27 -60 76q-22 50 -22 120h158q0 -72 38 -90q40 -19 97 -19q78 0 105 27q26 26 26 80q0 50 -22 73q-23 25 -93 25h-118v108l139 136h-295v137h502v-105l-178 -161h6q108 -2 162 -57q53 -55 53 -156q0 -118 -63 -181t-224 -63z
" />
    <glyph glyph-name="acute" unicode="&#xb4;" horiz-adv-x="641" 
d="M117 1167l155 312h252l-270 -312h-137z" />
    <glyph glyph-name="mu" unicode="&#xb5;" horiz-adv-x="1116" 
d="M115 1024h178v-719q0 -59 14 -93q15 -36 43 -55t71 -27q39 -7 97 -7q56 0 111 12q52 11 98 43q42 29 70 84q26 51 26 135v627h178v-1024h-178v164h-20q-40 -99 -133 -146q-92 -47 -209 -47q-42 0 -90 5q-37 4 -78 18v-363h-178v1393z" />
    <glyph glyph-name="mu" unicode="&#x3bc;" horiz-adv-x="1116" 
d="M115 1024h178v-719q0 -59 14 -93q15 -36 43 -55t71 -27q39 -7 97 -7q56 0 111 12q52 11 98 43q42 29 70 84q26 51 26 135v627h178v-1024h-178v164h-20q-40 -99 -133 -146q-92 -47 -209 -47q-42 0 -90 5q-37 4 -78 18v-363h-178v1393z" />
    <glyph glyph-name="paragraph" unicode="&#xb6;" horiz-adv-x="1124" 
d="M1006 -184h-185v1421h-153v-1421h-185v790h-61q-173 0 -258 103q-84 102 -84 295q0 224 91 316q92 93 296 93h539v-1597zM268 1004q0 -66 11 -110q11 -45 33 -67q24 -24 61 -33q42 -10 90 -10h20v453h-16q-55 0 -94 -9t-62 -35q-21 -24 -32 -72q-11 -49 -11 -117z" />
    <glyph glyph-name="periodcentered" unicode="&#xb7;" horiz-adv-x="436" 
d="M109 594v229h233v-229h-233z" />
    <glyph glyph-name="cedilla" unicode="&#xb8;" horiz-adv-x="641" 
d="M356 -63q92 -23 130 -71q38 -49 38 -120q0 -98 -68 -154q-69 -57 -171 -57q-55 0 -97 13q-40 12 -71 32v152q39 -33 79 -49q38 -15 74 -15q46 0 74 25q27 24 27 69t-29 77q-28 30 -109 52v158h123v-112z" />
    <glyph glyph-name="onesuperior" unicode="&#xb9;" horiz-adv-x="413" 
d="M324 952h-162v428h-107v138h47q36 0 52 22t16 64v55h154v-707z" />
    <glyph glyph-name="ordmasculine" unicode="&#xba;" horiz-adv-x="851" 
d="M426 1288q-38 0 -67 -7q-31 -8 -56 -32q-24 -24 -39 -69q-14 -42 -14 -121q0 -77 14 -119q16 -46 39 -70q25 -24 56 -32q38 -9 67 -9t67 9q31 8 56 32q23 24 39 70q14 42 14 119q0 79 -14 121q-15 45 -39 69q-25 24 -56 32q-29 7 -67 7zM426 690q-76 0 -137 18
q-63 18 -105 59q-41 40 -66 114q-24 72 -24 178q0 107 25 182q24 72 69 114t106 57q60 15 132 15t133 -15q63 -15 106 -57t69 -114q26 -73 26 -182q0 -106 -24 -178q-24 -73 -67 -114q-42 -40 -106 -59q-62 -18 -137 -18z" />
    <glyph glyph-name="guillemotright" unicode="&#xbb;" horiz-adv-x="960" 
d="M756 512l-295 272v211l420 -401v-168l-420 -401v215zM375 512l-295 272v211l420 -401v-168l-420 -401v215z" />
    <glyph glyph-name="onequarter" unicode="&#xbc;" horiz-adv-x="1294" 
d="M1028 1413h150l-942 -1413h-152zM324 707h-162v428h-107v137h47q36 0 52 22t16 64v55h154v-706zM1036 104h-383v103l430 500h111v-467h68v-136h-68v-104h-158v104zM1036 240v215l-186 -215h186z" />
    <glyph glyph-name="onehalf" unicode="&#xbd;" horiz-adv-x="1396" 
d="M1028 1413h150l-942 -1413h-152zM324 707h-162v428h-107v137h47q36 0 52 22t16 64v55h154v-706zM1065 340q56 46 75 79q21 36 21 83q0 40 -20 63q-22 25 -84 25q-22 0 -41 -4t-35 -17t-23 -35q-8 -24 -6 -63h-159q-2 73 16 120q18 49 54 77q37 29 86 41t110 12
q80 0 128 -16q49 -16 80 -46q30 -29 42 -66t12 -83q0 -69 -28 -128q-27 -56 -99 -112l-166 -129v-4h307v-137h-557v102z" />
    <glyph glyph-name="threequarters" unicode="&#xbe;" horiz-adv-x="1427" 
d="M1161 1413h150l-942 -1413h-152zM344 690q-68 0 -118 11q-54 12 -93 39q-38 27 -60 76q-22 50 -22 120h158q0 -72 38 -90q40 -19 97 -19q78 0 105 27q26 26 26 80q0 51 -22 74q-22 24 -93 24h-118v109l139 135h-295v137h502v-104l-178 -162h6q109 -2 162 -56
q53 -55 53 -157q0 -117 -63 -180q-64 -64 -224 -64zM1169 104h-383v103l431 500h110v-467h68v-136h-68v-104h-158v104zM1169 240v215l-186 -215h186z" />
    <glyph glyph-name="questiondown" unicode="&#xbf;" horiz-adv-x="1054" 
d="M662 1024v-229h-234v229h234zM621 594v-86l-150 -143q-101 -95 -161 -179t-60 -196q0 -48 11 -87q12 -43 42 -74t84 -50q55 -19 135 -19q58 0 111 12t93 46t61 97q22 65 16 167h194q6 -150 -27 -241q-34 -95 -99 -153q-64 -58 -154 -82t-195 -24q-130 0 -218 33
q-89 33 -144 88q-56 56 -80 129q-25 77 -25 158q0 70 17 133q17 64 52 122q39 66 92 121q68 72 134 130l99 98h172z" />
    <glyph glyph-name="Agrave" unicode="&#xc0;" horiz-adv-x="1355" 
d="M616 1413h129l601 -1413h-205l-109 266h-710l-111 -266h-201zM393 436h570l-281 690zM346 1847h250l152 -311h-138z" />
    <glyph glyph-name="Aacute" unicode="&#xc1;" horiz-adv-x="1355" 
d="M616 1413h129l601 -1413h-205l-109 266h-710l-111 -266h-201zM393 436h570l-281 690zM610 1536l156 311h252l-270 -311h-138z" />
    <glyph glyph-name="Acircumflex" unicode="&#xc2;" horiz-adv-x="1355" 
d="M616 1413h129l601 -1413h-205l-109 266h-710l-111 -266h-201zM393 436h570l-281 690zM539 1540h-199l332 330l329 -330h-196l-133 148z" />
    <glyph glyph-name="Atilde" unicode="&#xc3;" horiz-adv-x="1355" 
d="M616 1413h129l601 -1413h-205l-109 266h-710l-111 -266h-201zM393 436h570l-281 690zM539 1819q45 0 86 -19q26 -12 72 -40q23 -14 62 -40q27 -18 48 -18q29 0 44 19q16 20 11 73h154q0 -119 -49 -178q-49 -60 -142 -60q-45 0 -87 20q-40 19 -74 43q-13 9 -35 23.5
t-29 19.5q-28 19 -51 19q-24 0 -42 -18t-13 -78h-154q1 120 54 177q52 57 145 57z" />
    <glyph glyph-name="Adieresis" unicode="&#xc4;" horiz-adv-x="1355" 
d="M616 1413h129l601 -1413h-205l-109 266h-710l-111 -266h-201zM393 436h570l-281 690zM375 1575v199h190v-199h-190zM793 1575v199h190v-199h-190z" />
    <glyph glyph-name="Aring" unicode="&#xc5;" horiz-adv-x="1355" 
d="M616 1413h129l601 -1413h-205l-109 266h-710l-111 -266h-201zM393 436h570l-281 690zM680 1630q94 0 94 92q0 90 -94 90q-96 0 -96 -90q0 -92 96 -92zM680 1520q-113 0 -171 49t-58 153q0 203 229 203q111 0 169 -49t58 -154q0 -104 -58 -153t-169 -49z" />
    <glyph glyph-name="AE" unicode="&#xc6;" horiz-adv-x="1953" 
d="M616 1413h1235v-178h-739v-434h723v-176h-723v-447h741v-178h-927v289h-596l-119 -289h-201zM401 459h525v776h-201z" />
    <glyph glyph-name="Ccedilla" unicode="&#xc7;" horiz-adv-x="1454" 
d="M1364 463q-12 -139 -55 -229q-43 -91 -114 -148q-71 -58 -168 -83q-98 -26 -218 -30v-36q92 -23 130 -71q38 -49 38 -120q0 -97 -69 -154t-171 -57q-54 0 -96 13t-72 32v152q39 -33 79 -49q38 -15 75 -15q46 0 74 25q26 23 26 69t-28 77q-28 30 -109 52v82
q-146 6 -252 43q-109 38 -180 121t-109 222q-36 132 -36 346q0 228 43 370q44 145 124 224q84 83 202 112q124 31 272 31q127 0 239 -22q106 -21 185 -77q78 -55 124 -148q48 -97 60 -234h-199q-12 96 -46 155t-85 92q-49 32 -122 44q-70 12 -156 12q-111 0 -195 -18
q-83 -18 -140 -76q-56 -57 -86 -169q-30 -111 -30 -296q0 -179 30 -288q30 -110 86 -169q57 -60 140 -79q82 -19 195 -19q85 0 157 12t124 46q53 35 87 95q35 63 47 160h199z" />
    <glyph glyph-name="Egrave" unicode="&#xc8;" horiz-adv-x="1202" 
d="M1104 0h-975v1413h973v-178h-787v-434h768v-176h-768v-447h789v-178zM309 1847h250l152 -311h-138z" />
    <glyph glyph-name="Eacute" unicode="&#xc9;" horiz-adv-x="1202" 
d="M1104 0h-975v1413h973v-178h-787v-434h768v-176h-768v-447h789v-178zM573 1536l156 311h252l-270 -311h-138z" />
    <glyph glyph-name="Ecircumflex" unicode="&#xca;" horiz-adv-x="1202" 
d="M1104 0h-975v1413h973v-178h-787v-434h768v-176h-768v-447h789v-178zM502 1540h-199l332 330l330 -330h-197l-133 148z" />
    <glyph glyph-name="Edieresis" unicode="&#xcb;" horiz-adv-x="1202" 
d="M1104 0h-975v1413h973v-178h-787v-434h768v-176h-768v-447h789v-178zM336 1575v199h190v-199h-190zM754 1575v199h190v-199h-190z" />
    <glyph glyph-name="Igrave" unicode="&#xcc;" horiz-adv-x="444" 
d="M315 0h-186v1413h186v-1413zM-111 1847h250l152 -311h-137z" />
    <glyph glyph-name="Iacute" unicode="&#xcd;" horiz-adv-x="444" 
d="M315 0h-186v1413h186v-1413zM156 1536l155 311h252l-270 -311h-137z" />
    <glyph glyph-name="Icircumflex" unicode="&#xce;" horiz-adv-x="444" 
d="M315 0h-186v1413h186v-1413zM84 1540h-199l332 330l330 -330h-197l-133 148z" />
    <glyph glyph-name="Idieresis" unicode="&#xcf;" horiz-adv-x="444" 
d="M315 0h-186v1413h186v-1413zM-82 1575v199h191v-199h-191zM336 1575v199h190v-199h-190z" />
    <glyph glyph-name="Eth" unicode="&#xd0;" horiz-adv-x="1509" 
d="M20 807h195v606h528q157 0 278 -27q123 -27 206 -103q84 -77 128 -215q44 -140 44 -363q0 -208 -41 -346q-40 -137 -123 -216q-83 -80 -205 -111q-125 -32 -287 -32h-528v647h-195v160zM743 178q113 0 200 18q90 19 146 73q59 58 89 160q30 103 30 276q0 184 -30 289
q-30 106 -89 160q-59 55 -146 68q-84 13 -200 13h-342v-428h357v-160h-357v-469h342z" />
    <glyph glyph-name="Ntilde" unicode="&#xd1;" horiz-adv-x="1443" 
d="M244 1413l889 -1071v1071h182v-1413h-123l-883 1061v-1061h-180v1413h115zM584 1819q45 0 86 -19q26 -12 72 -40q23 -14 62 -40q27 -18 48 -18q29 0 44 19q16 20 11 73h154q0 -119 -49 -178q-50 -60 -142 -60q-45 0 -87 20q-40 19 -74 43q-13 9 -35 23.5t-29 19.5
q-28 19 -51 19q-24 0 -42 -18t-13 -78h-154q1 120 54 177t145 57z" />
    <glyph glyph-name="Ograve" unicode="&#xd2;" horiz-adv-x="1538" 
d="M768 -29q-164 0 -288 33t-207 116q-83 82 -123 225q-41 144 -41 360q0 224 44 370q43 143 129 224q87 83 207 112q127 31 279 31q154 0 281 -31q120 -29 207 -112q86 -81 129 -224q45 -149 45 -370q0 -217 -42 -360q-42 -142 -125 -225t-207 -116t-288 -33zM768 150
q117 0 203 19q87 19 147 79t90 169q31 113 31 288q0 179 -31 294q-29 109 -91 169q-61 59 -147 77q-92 19 -202 19q-112 0 -201 -18q-87 -18 -147 -76q-60 -59 -90 -169q-31 -115 -31 -296q0 -175 31 -288q30 -109 90 -169t147 -79q86 -19 201 -19zM436 1847h250l152 -311
h-138z" />
    <glyph glyph-name="Oacute" unicode="&#xd3;" horiz-adv-x="1538" 
d="M768 -29q-164 0 -288 33t-207 116q-83 82 -123 225q-41 144 -41 360q0 224 44 370q43 143 129 224q87 83 207 112q127 31 279 31q154 0 281 -31q120 -29 207 -112q86 -81 129 -224q45 -149 45 -370q0 -217 -42 -360q-42 -142 -125 -225t-207 -116t-288 -33zM768 150
q117 0 203 19q87 19 147 79t90 169q31 113 31 288q0 179 -31 294q-29 109 -91 169q-61 59 -147 77q-92 19 -202 19q-112 0 -201 -18q-87 -18 -147 -76q-60 -59 -90 -169q-31 -115 -31 -296q0 -175 31 -288q30 -109 90 -169t147 -79q86 -19 201 -19zM702 1536l156 311h252
l-270 -311h-138z" />
    <glyph glyph-name="Ocircumflex" unicode="&#xd4;" horiz-adv-x="1538" 
d="M768 -29q-164 0 -288 33t-207 116q-83 82 -123 225q-41 144 -41 360q0 224 44 370q43 143 129 224q87 83 207 112q127 31 279 31q154 0 281 -31q120 -29 207 -112q86 -81 129 -224q45 -149 45 -370q0 -217 -42 -360q-42 -142 -125 -225t-207 -116t-288 -33zM768 150
q117 0 203 19q87 19 147 79t90 169q31 113 31 288q0 179 -31 294q-29 109 -91 169q-61 59 -147 77q-92 19 -202 19q-112 0 -201 -18q-87 -18 -147 -76q-60 -59 -90 -169q-31 -115 -31 -296q0 -175 31 -288q30 -109 90 -169t147 -79q86 -19 201 -19zM631 1540h-199l332 330
l330 -330h-197l-133 148z" />
    <glyph glyph-name="Otilde" unicode="&#xd5;" horiz-adv-x="1538" 
d="M768 -29q-164 0 -288 33t-207 116q-83 82 -123 225q-41 144 -41 360q0 224 44 370q43 143 129 224q87 83 207 112q127 31 279 31q154 0 281 -31q120 -29 207 -112q86 -81 129 -224q45 -149 45 -370q0 -217 -42 -360q-42 -142 -125 -225t-207 -116t-288 -33zM768 150
q117 0 203 19q87 19 147 79t90 169q31 113 31 288q0 179 -31 294q-29 109 -91 169q-61 59 -147 77q-92 19 -202 19q-112 0 -201 -18q-87 -18 -147 -76q-60 -59 -90 -169q-31 -115 -31 -296q0 -175 31 -288q30 -109 90 -169t147 -79q86 -19 201 -19zM631 1819q45 0 86 -19
q26 -12 72 -40q23 -14 62 -40q27 -18 48 -18q29 0 44 19q16 20 11 73h154q0 -119 -49 -178q-49 -60 -142 -60q-45 0 -87 20q-40 19 -74 43q-13 9 -35 23.5t-29 19.5q-28 19 -51 19q-24 0 -42 -18t-13 -78h-154q1 120 54 177q52 57 145 57z" />
    <glyph glyph-name="Odieresis" unicode="&#xd6;" horiz-adv-x="1538" 
d="M768 -29q-164 0 -288 33t-207 116q-83 82 -123 225q-41 144 -41 360q0 224 44 370q43 143 129 224q87 83 207 112q127 31 279 31q154 0 281 -31q120 -29 207 -112q86 -81 129 -224q45 -149 45 -370q0 -217 -42 -360q-42 -142 -125 -225t-207 -116t-288 -33zM768 150
q117 0 203 19q87 19 147 79t90 169q31 113 31 288q0 179 -31 294q-29 109 -91 169q-61 59 -147 77q-92 19 -202 19q-112 0 -201 -18q-87 -18 -147 -76q-60 -59 -90 -169q-31 -115 -31 -296q0 -175 31 -288q30 -109 90 -169t147 -79q86 -19 201 -19zM465 1575v199h190v-199
h-190zM883 1575v199h190v-199h-190z" />
    <glyph glyph-name="multiply" unicode="&#xd7;" horiz-adv-x="1083" 
d="M305 1018l238 -238l237 240l115 -113l-240 -239l244 -242l-121 -123l-243 244l-238 -238l-113 113l238 237l-236 238z" />
    <glyph glyph-name="Oslash" unicode="&#xd8;" horiz-adv-x="1538" 
d="M381 41q-137 69 -205 226q-67 155 -67 438q0 224 44 370q43 143 129 224q87 83 207 112q127 31 279 31q60 0 130 -5q52 -4 118 -18l53 117h178l-80 -172q127 -69 195 -224q68 -156 68 -435q0 -217 -42 -360q-42 -142 -125 -225t-207 -116t-288 -33q-130 0 -231 21
l-76 -168h-180zM299 705q0 -208 41 -323q40 -114 121 -167l477 1036q-83 13 -170 13q-112 0 -201 -18q-87 -18 -147 -76q-60 -59 -90 -169q-31 -115 -31 -296zM768 150q117 0 203 19q87 19 147 79t90 169q31 113 31 288q0 204 -39 318t-110 169l-476 -1032q38 -7 74 -8
q52 -2 80 -2z" />
    <glyph glyph-name="Ugrave" unicode="&#xd9;" horiz-adv-x="1384" 
d="M119 1413h186v-919q0 -100 25 -169q25 -67 72 -106q48 -39 121 -54q72 -15 169 -15q96 0 168 15t120 54q49 40 73 106t24 169v919h189v-919q0 -268 -143 -396q-142 -127 -431 -127t-431 127t-142 396v919zM360 1847h250l152 -311h-137z" />
    <glyph glyph-name="Uacute" unicode="&#xda;" horiz-adv-x="1384" 
d="M119 1413h186v-919q0 -100 25 -169q25 -67 72 -106q48 -39 121 -54q72 -15 169 -15q96 0 168 15t120 54q49 40 73 106t24 169v919h189v-919q0 -268 -143 -396q-142 -127 -431 -127t-431 127t-142 396v919zM625 1536l155 311h252l-270 -311h-137z" />
    <glyph glyph-name="Ucircumflex" unicode="&#xdb;" horiz-adv-x="1384" 
d="M119 1413h186v-919q0 -100 25 -169q25 -67 72 -106q48 -39 121 -54q72 -15 169 -15q96 0 168 15t120 54q49 40 73 106t24 169v919h189v-919q0 -268 -143 -396q-142 -127 -431 -127t-431 127t-142 396v919zM553 1540h-199l332 330l330 -330h-197l-133 148z" />
    <glyph glyph-name="Udieresis" unicode="&#xdc;" horiz-adv-x="1384" 
d="M119 1413h186v-919q0 -100 25 -169q25 -67 72 -106q48 -39 121 -54q72 -15 169 -15q96 0 168 15t120 54q49 40 73 106t24 169v919h189v-919q0 -268 -143 -396q-142 -127 -431 -127t-431 127t-142 396v919zM387 1575v199h191v-199h-191zM805 1575v199h190v-199h-190z" />
    <glyph glyph-name="Yacute" unicode="&#xdd;" horiz-adv-x="1353" 
d="M229 1413l455 -770l446 770h213l-569 -967v-446h-188v446l-576 967h219zM610 1536l156 311h252l-270 -311h-138z" />
    <glyph glyph-name="Thorn" unicode="&#xde;" horiz-adv-x="1288" 
d="M1208 737q0 -263 -114 -385q-114 -121 -353 -121h-426v-231h-186v1413h186v-201h422q251 0 361 -109t110 -366zM315 1034v-624h426q72 0 121 16q52 17 86 54q34 36 52 101q18 63 18 156t-14 146q-15 56 -48 91q-32 33 -86 47q-51 13 -133 13h-422z" />
    <glyph glyph-name="germandbls" unicode="&#xdf;" horiz-adv-x="1140" 
d="M129 961q0 139 33 231q34 93 92 147q60 55 143 79q84 24 185 24q109 0 191 -28q79 -27 129 -74q52 -49 73 -105q22 -59 22 -125q0 -117 -48 -186q-50 -72 -120 -101v-24q38 -11 83 -37q39 -23 72 -69q32 -45 50 -112q19 -73 19 -169q0 -211 -98 -312q-97 -100 -281 -100
h-201v152h178q38 0 79 9q40 9 73 39q32 29 53 86t21 150q0 293 -211 293h-172v148h174q72 0 112 56q41 58 41 136q0 46 -10 85q-11 42 -37 71q-27 30 -74 48q-44 17 -118 17q-66 0 -112 -14q-52 -16 -87 -51q-36 -36 -56 -101t-20 -163v-961h-178v961z" />
    <glyph glyph-name="agrave" unicode="&#xe0;" horiz-adv-x="1110" 
d="M436 -29q-73 0 -141 17q-66 17 -112 55q-44 37 -72 100q-27 61 -27 152q0 59 16 114q16 56 60 100q46 46 119 72q77 27 194 27q71 0 100 -1q14 0 41.5 -0.5t40.5 -1.5q39 -1 75 -3q10 0 36.5 -1.5t42.5 -2.5v96q0 114 -58 160q-59 47 -196 47q-58 0 -108 -8
q-44 -7 -77 -32q-34 -26 -52 -63q-20 -40 -27 -102h-172q11 103 43 171q33 70 87 110q53 40 131 58q76 18 175 18q204 0 317 -82q115 -83 115 -277v-694h-178v104h-21q-77 -76 -162 -104q-87 -29 -190 -29zM496 123q57 0 111 10q58 11 102 40q45 30 72 82q28 54 28 134v78
q-78 5 -145 6q-90 2 -125 2q-97 0 -147 -14q-57 -16 -83 -38q-30 -25 -38 -56q-9 -33 -9 -70q0 -102 57 -138t177 -36zM227 1479h250l152 -312h-137z" />
    <glyph glyph-name="aacute" unicode="&#xe1;" horiz-adv-x="1110" 
d="M436 -29q-73 0 -141 17q-66 17 -112 55q-44 37 -72 100q-27 61 -27 152q0 59 16 114q16 56 60 100q46 46 119 72q77 27 194 27q71 0 100 -1q14 0 41.5 -0.5t40.5 -1.5q39 -1 75 -3q10 0 36.5 -1.5t42.5 -2.5v96q0 114 -58 160q-59 47 -196 47q-58 0 -108 -8
q-44 -7 -77 -32q-34 -26 -52 -63q-20 -40 -27 -102h-172q11 103 43 171q33 70 87 110q53 40 131 58q76 18 175 18q204 0 317 -82q115 -83 115 -277v-694h-178v104h-21q-77 -76 -162 -104q-87 -29 -190 -29zM496 123q57 0 111 10q58 11 102 40q45 30 72 82q28 54 28 134v78
q-78 5 -145 6q-90 2 -125 2q-97 0 -147 -14q-57 -16 -83 -38q-30 -25 -38 -56q-9 -33 -9 -70q0 -102 57 -138t177 -36zM485 1167l156 312h252l-270 -312h-138z" />
    <glyph glyph-name="acircumflex" unicode="&#xe2;" horiz-adv-x="1110" 
d="M436 -29q-73 0 -141 17q-66 17 -112 55q-44 37 -72 100q-27 61 -27 152q0 59 16 114q16 56 60 100q46 46 119 72q77 27 194 27q71 0 100 -1q14 0 41.5 -0.5t40.5 -1.5q39 -1 75 -3q10 0 36.5 -1.5t42.5 -2.5v96q0 114 -58 160q-59 47 -196 47q-58 0 -108 -8
q-44 -7 -77 -32q-34 -26 -52 -63q-20 -40 -27 -102h-172q11 103 43 171q33 70 87 110q53 40 131 58q76 18 175 18q204 0 317 -82q115 -83 115 -277v-694h-178v104h-21q-77 -76 -162 -104q-87 -29 -190 -29zM496 123q57 0 111 10q58 11 102 40q45 30 72 82q28 54 28 134v78
q-78 5 -145 6q-90 2 -125 2q-97 0 -147 -14q-57 -16 -83 -38q-30 -25 -38 -56q-9 -33 -9 -70q0 -102 57 -138t177 -36zM416 1171h-199l332 330l330 -330h-197l-133 148z" />
    <glyph glyph-name="atilde" unicode="&#xe3;" horiz-adv-x="1110" 
d="M436 -29q-73 0 -141 17q-66 17 -112 55q-44 37 -72 100q-27 61 -27 152q0 59 16 114q16 56 60 100q46 46 119 72q77 27 194 27q71 0 100 -1q14 0 41.5 -0.5t40.5 -1.5q39 -1 75 -3q10 0 36.5 -1.5t42.5 -2.5v96q0 114 -58 160q-59 47 -196 47q-58 0 -108 -8
q-44 -7 -77 -32q-34 -26 -52 -63q-20 -40 -27 -102h-172q11 103 43 171q33 70 87 110q53 40 131 58q76 18 175 18q204 0 317 -82q115 -83 115 -277v-694h-178v104h-21q-77 -76 -162 -104q-87 -29 -190 -29zM496 123q57 0 111 10q58 11 102 40q45 30 72 82q28 54 28 134v78
q-78 5 -145 6q-90 2 -125 2q-97 0 -147 -14q-57 -16 -83 -38q-30 -25 -38 -56q-9 -33 -9 -70q0 -102 57 -138t177 -36zM416 1450q47 0 86 -18q26 -12 72 -40q23 -14 62 -40q28 -19 48 -19q29 0 44 20t11 72h154q0 -119 -49 -178t-142 -59q-48 0 -87 19q-40 19 -74 43
q-13 9 -35 23.5t-29 19.5q-29 20 -51 20q-23 0 -42 -19q-17 -17 -13 -77h-154q1 120 54 177q52 56 145 56z" />
    <glyph glyph-name="adieresis" unicode="&#xe4;" horiz-adv-x="1110" 
d="M436 -29q-73 0 -141 17q-66 17 -112 55q-44 37 -72 100q-27 61 -27 152q0 59 16 114q16 56 60 100q46 46 119 72q77 27 194 27q71 0 100 -1q14 0 41.5 -0.5t40.5 -1.5q39 -1 75 -3q10 0 36.5 -1.5t42.5 -2.5v96q0 114 -58 160q-59 47 -196 47q-58 0 -108 -8
q-44 -7 -77 -32q-34 -26 -52 -63q-20 -40 -27 -102h-172q11 103 43 171q33 70 87 110q53 40 131 58q76 18 175 18q204 0 317 -82q115 -83 115 -277v-694h-178v104h-21q-77 -76 -162 -104q-87 -29 -190 -29zM496 123q57 0 111 10q58 11 102 40q45 30 72 82q28 54 28 134v78
q-78 5 -145 6q-90 2 -125 2q-97 0 -147 -14q-57 -16 -83 -38q-30 -25 -38 -56q-9 -33 -9 -70q0 -102 57 -138t177 -36zM252 1206v199h190v-199h-190zM670 1206v199h190v-199h-190z" />
    <glyph glyph-name="aring" unicode="&#xe5;" horiz-adv-x="1110" 
d="M436 -29q-73 0 -141 17q-66 17 -112 55q-44 37 -72 100q-27 61 -27 152q0 59 16 114q16 56 60 100q46 46 119 72q77 27 194 27q71 0 100 -1q14 0 41.5 -0.5t40.5 -1.5q39 -1 75 -3q10 0 36.5 -1.5t42.5 -2.5v96q0 114 -58 160q-59 47 -196 47q-58 0 -108 -8
q-44 -7 -77 -32q-34 -26 -52 -63q-20 -40 -27 -102h-172q11 103 43 171q33 70 87 110q53 40 131 58q76 18 175 18q204 0 317 -82q115 -83 115 -277v-694h-178v104h-21q-77 -76 -162 -104q-87 -29 -190 -29zM496 123q57 0 111 10q58 11 102 40q45 30 72 82q28 54 28 134v78
q-78 5 -145 6q-90 2 -125 2q-97 0 -147 -14q-57 -16 -83 -38q-30 -25 -38 -56q-9 -33 -9 -70q0 -102 57 -138t177 -36zM557 1262q94 0 94 92q0 90 -94 90q-96 0 -96 -90q0 -92 96 -92zM557 1151q-113 0 -171 49t-58 154q0 202 229 202q111 0 169 -49t58 -153
q0 -105 -58 -154t-169 -49z" />
    <glyph glyph-name="ae" unicode="&#xe6;" horiz-adv-x="1859" 
d="M829 598v96q0 114 -63 160q-64 47 -211 47q-61 0 -108 -9q-44 -9 -77 -32q-33 -24 -52 -63q-19 -40 -27 -105h-172q12 104 45 173t87 111q52 41 130 59q76 18 174 18q134 0 229 -34q97 -35 152 -106q60 77 149 108q91 32 211 32q226 0 346 -112q119 -111 119 -359v-127
h-753q2 -102 22 -165q21 -64 59 -102q35 -35 91 -51q49 -14 120 -14q111 0 182 34q72 35 87 138h176q-12 -93 -48 -154q-37 -63 -92 -99q-57 -37 -134 -54q-79 -17 -171 -17q-140 0 -238 40q-101 41 -157 139q-74 -107 -181 -143q-108 -36 -232 -36q-90 0 -167 17
q-75 16 -129 54t-83 98q-29 61 -29 147q0 60 15 117q15 56 56 100q39 42 109 68t180 26h385zM520 123q58 0 108 11q57 13 98 44q45 34 73 91q28 58 30 151v35h-321q-78 0 -126 -12q-50 -12 -75 -32q-26 -20 -36 -53q-9 -30 -9 -67q0 -98 64 -133t194 -35zM1296 901
q-61 0 -112 -12q-52 -12 -89 -45q-40 -35 -61 -92t-26 -154h573q0 91 -19 148q-20 60 -57 94t-90 48q-51 13 -119 13z" />
    <glyph glyph-name="ccedilla" unicode="&#xe7;" horiz-adv-x="1124" 
d="M1047 334q-23 -191 -127 -272q-106 -82 -273 -89v-36q92 -23 130 -71q38 -49 38 -120q0 -97 -69 -154t-171 -57q-54 0 -96 13q-40 12 -71 32v152q39 -34 78 -49q38 -15 75 -15q46 0 74 25q27 24 27 69t-29 77q-28 30 -109 52v82q-100 6 -183 37q-79 30 -133 93
q-56 65 -82 161q-28 103 -28 242q0 156 32 263t94 169q64 64 154 89q93 26 210 26q94 0 172 -18q79 -18 136 -59q56 -40 95 -110q35 -64 51 -170h-178q-10 60 -35 102q-23 38 -60 63t-82 32q-50 8 -99 8q-74 0 -132 -15t-99 -59q-39 -42 -60 -120t-21 -201q0 -119 21 -194
q21 -76 60 -116q42 -43 99 -58q58 -15 132 -15q55 0 103 9q47 9 85 33q39 25 62 64t34 105h175z" />
    <glyph glyph-name="egrave" unicode="&#xe8;" horiz-adv-x="1146" 
d="M1051 444h-777q1 -94 25 -160q23 -64 62 -99q40 -35 98 -49q55 -13 129 -13q110 0 181 34q72 35 87 138h176q-12 -93 -48 -154q-37 -63 -92 -99q-57 -38 -133 -54q-79 -17 -171 -17q-117 0 -210 26q-92 26 -154 88t-94 165q-32 104 -32 256q0 156 32 263t94 169
q64 64 154 89q93 26 208 26q224 0 345 -112q120 -111 120 -359v-138zM586 901q-66 0 -121 -12q-53 -12 -95 -47q-40 -34 -65 -96t-29 -158h594q0 96 -19 154q-20 63 -56 97q-37 35 -90 49q-51 13 -119 13zM256 1479h250l151 -312h-137z" />
    <glyph glyph-name="eacute" unicode="&#xe9;" horiz-adv-x="1146" 
d="M1051 444h-777q1 -94 25 -160q23 -64 62 -99q40 -35 98 -49q55 -13 129 -13q110 0 181 34q72 35 87 138h176q-12 -93 -48 -154q-37 -63 -92 -99q-57 -38 -133 -54q-79 -17 -171 -17q-117 0 -210 26q-92 26 -154 88t-94 165q-32 104 -32 256q0 156 32 263t94 169
q64 64 154 89q93 26 208 26q224 0 345 -112q120 -111 120 -359v-138zM586 901q-66 0 -121 -12q-53 -12 -95 -47q-40 -34 -65 -96t-29 -158h594q0 96 -19 154q-20 63 -56 97q-37 35 -90 49q-51 13 -119 13zM516 1167l156 312h252l-271 -312h-137z" />
    <glyph glyph-name="ecircumflex" unicode="&#xea;" horiz-adv-x="1146" 
d="M1051 444h-777q1 -94 25 -160q23 -64 62 -99q40 -35 98 -49q55 -13 129 -13q110 0 181 34q72 35 87 138h176q-12 -93 -48 -154q-37 -63 -92 -99q-57 -38 -133 -54q-79 -17 -171 -17q-117 0 -210 26q-92 26 -154 88t-94 165q-32 104 -32 256q0 156 32 263t94 169
q64 64 154 89q93 26 208 26q224 0 345 -112q120 -111 120 -359v-138zM586 901q-66 0 -121 -12q-53 -12 -95 -47q-40 -34 -65 -96t-29 -158h594q0 96 -19 154q-20 63 -56 97q-37 35 -90 49q-51 13 -119 13zM446 1171h-198l332 330l329 -330h-196l-133 148z" />
    <glyph glyph-name="edieresis" unicode="&#xeb;" horiz-adv-x="1146" 
d="M1051 444h-777q1 -94 25 -160q23 -64 62 -99q40 -35 98 -49q55 -13 129 -13q110 0 181 34q72 35 87 138h176q-12 -93 -48 -154q-37 -63 -92 -99q-57 -38 -133 -54q-79 -17 -171 -17q-117 0 -210 26q-92 26 -154 88t-94 165q-32 104 -32 256q0 156 32 263t94 169
q64 64 154 89q93 26 208 26q224 0 345 -112q120 -111 120 -359v-138zM586 901q-66 0 -121 -12q-53 -12 -95 -47q-40 -34 -65 -96t-29 -158h594q0 96 -19 154q-20 63 -56 97q-37 35 -90 49q-51 13 -119 13zM281 1206v199h190v-199h-190zM698 1206v199h191v-199h-191z" />
    <glyph glyph-name="igrave" unicode="&#xec;" horiz-adv-x="452" 
d="M315 1024v-1024h-178v1024h178zM-102 1479h249l152 -312h-137z" />
    <glyph glyph-name="iacute" unicode="&#xed;" horiz-adv-x="452" 
d="M315 1024v-1024h-178v1024h178zM158 1167l155 312h252l-270 -312h-137z" />
    <glyph glyph-name="icircumflex" unicode="&#xee;" horiz-adv-x="452" 
d="M315 1024v-1024h-178v1024h178zM86 1171h-199l332 330l330 -330h-197l-133 148z" />
    <glyph glyph-name="idieresis" unicode="&#xef;" horiz-adv-x="452" 
d="M315 1024v-1024h-178v1024h178zM-78 1206v199h191v-199h-191zM340 1206v199h190v-199h-190z" />
    <glyph glyph-name="eth" unicode="&#xf0;" horiz-adv-x="1175" 
d="M543 1534l-41 -121l196 -59q146 -45 224 -125q77 -78 112 -187q36 -110 40 -237q5 -145 5 -283q0 -163 -32 -266q-33 -106 -96 -169q-62 -62 -156 -89q-95 -27 -217 -27q-114 0 -206 25q-88 24 -151 85q-62 60 -92 160q-31 102 -31 246q0 149 33 243q34 97 89 151
q57 55 135 76q83 22 171 22q120 0 208 -32q89 -32 141 -109h20l-7 77q-4 48 -29 102q-23 51 -75 101t-147 80l-191 59l-43 -129l-147 46l43 131l-121 38l53 154l121 -37l41 121zM578 123q82 0 138 14q63 16 101 54q43 43 63 112q21 72 21 184q0 105 -23 168q-24 67 -67 104
t-102 52q-56 14 -131 14q-78 0 -133 -13q-56 -13 -94 -51q-37 -37 -57 -104q-20 -68 -20 -170q0 -112 21 -184t58 -112q36 -38 95 -54q53 -14 130 -14z" />
    <glyph glyph-name="ntilde" unicode="&#xf1;" horiz-adv-x="1138" 
d="M838 719q0 113 -67 148q-65 34 -191 34q-131 0 -199 -58q-69 -59 -74 -188v-655h-178v1024h178v-102h21q56 71 135 101q78 30 182 30q79 0 153 -16q67 -15 116 -53q48 -38 75 -102q27 -65 27 -163v-719h-178v719zM432 1450q47 0 86 -18q30 -14 73 -40q12 -7 61 -40
q28 -19 48 -19q29 0 44 20q16 21 12 72h153q0 -119 -49 -178t-141 -59q-48 0 -87 19q-43 21 -75 43q-14 9 -37 25t-26 18q-29 20 -52 20t-42 -19q-17 -17 -13 -77h-154q1 119 55 177q52 56 144 56z" />
    <glyph glyph-name="ograve" unicode="&#xf2;" horiz-adv-x="1177" 
d="M588 123q76 0 134 15q56 14 98 58q42 43 62 116q21 75 21 194q0 124 -21 200t-62 120q-43 46 -99 60q-60 15 -133 15q-74 0 -132 -15t-99 -59q-39 -42 -60 -120t-21 -201q0 -119 21 -194q21 -76 60 -116q42 -43 99 -58q58 -15 132 -15zM588 1053q119 0 212 -26
q89 -25 153 -89q63 -63 95 -169q31 -103 31 -263q0 -156 -31 -256q-31 -101 -95 -165q-63 -63 -153 -88q-93 -26 -212 -26q-117 0 -210 26q-92 26 -154 88t-94 165q-32 104 -32 256q0 156 32 263t94 169q64 64 154 89q93 26 210 26zM260 1479h250l152 -312h-138z" />
    <glyph glyph-name="oacute" unicode="&#xf3;" horiz-adv-x="1177" 
d="M588 123q76 0 134 15q56 14 98 58q42 43 62 116q21 75 21 194q0 124 -21 200t-62 120q-43 46 -99 60q-60 15 -133 15q-74 0 -132 -15t-99 -59q-39 -42 -60 -120t-21 -201q0 -119 21 -194q21 -76 60 -116q42 -43 99 -58q58 -15 132 -15zM588 1053q119 0 212 -26
q89 -25 153 -89q63 -63 95 -169q31 -103 31 -263q0 -156 -31 -256q-31 -101 -95 -165q-63 -63 -153 -88q-93 -26 -212 -26q-117 0 -210 26q-92 26 -154 88t-94 165q-32 104 -32 256q0 156 32 263t94 169q64 64 154 89q93 26 210 26zM520 1167l156 312h252l-271 -312h-137z
" />
    <glyph glyph-name="ocircumflex" unicode="&#xf4;" horiz-adv-x="1177" 
d="M588 123q76 0 134 15q56 14 98 58q42 43 62 116q21 75 21 194q0 124 -21 200t-62 120q-43 46 -99 60q-60 15 -133 15q-74 0 -132 -15t-99 -59q-39 -42 -60 -120t-21 -201q0 -119 21 -194q21 -76 60 -116q42 -43 99 -58q58 -15 132 -15zM588 1053q119 0 212 -26
q89 -25 153 -89q63 -63 95 -169q31 -103 31 -263q0 -156 -31 -256q-31 -101 -95 -165q-63 -63 -153 -88q-93 -26 -212 -26q-117 0 -210 26q-92 26 -154 88t-94 165q-32 104 -32 256q0 156 32 263t94 169q64 64 154 89q93 26 210 26zM451 1171h-199l332 330l329 -330h-196
l-133 148z" />
    <glyph glyph-name="otilde" unicode="&#xf5;" horiz-adv-x="1177" 
d="M588 123q76 0 134 15q56 14 98 58q42 43 62 116q21 75 21 194q0 124 -21 200t-62 120q-43 46 -99 60q-60 15 -133 15q-74 0 -132 -15t-99 -59q-39 -42 -60 -120t-21 -201q0 -119 21 -194q21 -76 60 -116q42 -43 99 -58q58 -15 132 -15zM588 1053q119 0 212 -26
q89 -25 153 -89q63 -63 95 -169q31 -103 31 -263q0 -156 -31 -256q-31 -101 -95 -165q-63 -63 -153 -88q-93 -26 -212 -26q-117 0 -210 26q-92 26 -154 88t-94 165q-32 104 -32 256q0 156 32 263t94 169q64 64 154 89q93 26 210 26zM451 1450q47 0 86 -18q26 -12 72 -40
q23 -14 62 -40q28 -19 48 -19q29 0 44 20t11 72h154q0 -119 -49 -178t-142 -59q-48 0 -87 19q-43 21 -75 43q-14 9 -37 25t-26 18q-29 20 -51 20q-23 0 -42 -19q-17 -17 -13 -77h-154q1 120 54 177q52 56 145 56z" />
    <glyph glyph-name="odieresis" unicode="&#xf6;" horiz-adv-x="1177" 
d="M588 123q76 0 134 15q56 14 98 58q42 43 62 116q21 75 21 194q0 124 -21 200t-62 120q-43 46 -99 60q-60 15 -133 15q-74 0 -132 -15t-99 -59q-39 -42 -60 -120t-21 -201q0 -119 21 -194q21 -76 60 -116q42 -43 99 -58q58 -15 132 -15zM588 1053q119 0 212 -26
q89 -25 153 -89q63 -63 95 -169q31 -103 31 -263q0 -156 -31 -256q-31 -101 -95 -165q-63 -63 -153 -88q-93 -26 -212 -26q-117 0 -210 26q-92 26 -154 88t-94 165q-32 104 -32 256q0 156 32 263t94 169q64 64 154 89q93 26 210 26zM285 1206v199h190v-199h-190zM702 1206
v199h191v-199h-191z" />
    <glyph glyph-name="divide" unicode="&#xf7;" horiz-adv-x="1083" 
d="M424 227v230h233v-230h-233zM424 870v230h233v-230h-233zM924 584h-766v159h766v-159z" />
    <glyph glyph-name="oslash" unicode="&#xf8;" horiz-adv-x="1177" 
d="M588 1053q80 0 155 -13l68 148h174l-92 -203q92 -57 139 -172t47 -307q0 -156 -31 -256q-31 -101 -95 -165q-63 -63 -153 -88q-93 -26 -212 -26q-74 0 -152 13l-76 -168h-176l101 221q-94 57 -140 168q-47 114 -47 301q0 156 32 263t94 169q64 64 154 89q93 26 210 26z
M276 506q0 -120 20 -195q19 -72 60 -116l320 700q-39 6 -88 6q-74 0 -132 -15t-99 -59q-39 -42 -60 -120t-21 -201zM588 123q76 0 134 15q56 14 98 58q42 43 62 116q21 75 21 194q0 124 -21 200q-20 73 -63 119l-317 -698q19 -4 42 -4h44z" />
    <glyph glyph-name="ugrave" unicode="&#xf9;" horiz-adv-x="1138" 
d="M301 305q0 -59 14 -93q15 -36 44 -55q30 -19 72 -27q39 -7 97 -7q56 0 110 12q51 11 97 43q42 29 70 84q26 51 26 135v627h179v-1024h-179v102h-20q-61 -63 -135 -96q-78 -35 -187 -35q-76 0 -150 16q-69 15 -116 53q-46 37 -73 102t-27 163v719h178v-719zM242 1479h250
l151 -312h-137z" />
    <glyph glyph-name="uacute" unicode="&#xfa;" horiz-adv-x="1138" 
d="M301 305q0 -59 14 -93q15 -36 44 -55q30 -19 72 -27q39 -7 97 -7q56 0 110 12q51 11 97 43q42 29 70 84q26 51 26 135v627h179v-1024h-179v102h-20q-61 -63 -135 -96q-78 -35 -187 -35q-76 0 -150 16q-69 15 -116 53q-46 37 -73 102t-27 163v719h178v-719zM502 1167
l155 312h252l-270 -312h-137z" />
    <glyph glyph-name="ucircumflex" unicode="&#xfb;" horiz-adv-x="1138" 
d="M301 305q0 -59 14 -93q15 -36 44 -55q30 -19 72 -27q39 -7 97 -7q56 0 110 12q51 11 97 43q42 29 70 84q26 51 26 135v627h179v-1024h-179v102h-20q-61 -63 -135 -96q-78 -35 -187 -35q-76 0 -150 16q-69 15 -116 53q-46 37 -73 102t-27 163v719h178v-719zM430 1171h-199
l332 330l330 -330h-197l-133 148z" />
    <glyph glyph-name="udieresis" unicode="&#xfc;" horiz-adv-x="1138" 
d="M301 305q0 -59 14 -93q15 -36 44 -55q30 -19 72 -27q39 -7 97 -7q56 0 110 12q51 11 97 43q42 29 70 84q26 51 26 135v627h179v-1024h-179v102h-20q-61 -63 -135 -96q-78 -35 -187 -35q-76 0 -150 16q-69 15 -116 53q-46 37 -73 102t-27 163v719h178v-719zM266 1206v199
h191v-199h-191zM684 1206v199h190v-199h-190z" />
    <glyph glyph-name="yacute" unicode="&#xfd;" horiz-adv-x="1099" 
d="M483 59l-469 965h195l362 -774l322 774h192l-610 -1393h-184zM481 1167l156 312h252l-271 -312h-137z" />
    <glyph glyph-name="thorn" unicode="&#xfe;" horiz-adv-x="1183" 
d="M659 -29q-101 0 -186 30q-86 30 -145 101h-21v-471h-178v1782h178v-491h21q59 71 145 101q85 30 186 30q97 0 180 -22q77 -20 134 -82q55 -60 84 -166q28 -103 28 -271t-28 -271q-29 -106 -84 -166q-57 -62 -134 -82q-83 -22 -180 -22zM596 901q-60 0 -107 -11
q-52 -12 -91 -41q-40 -30 -64 -79q-26 -53 -27 -127v-246q0 -83 24 -135q26 -56 63 -84q43 -32 92 -43q52 -12 110 -12q83 0 143 12t98 53q37 39 55 118q17 72 17 206t-17 206q-18 79 -55 118q-38 41 -98 53t-143 12z" />
    <glyph glyph-name="ydieresis" unicode="&#xff;" horiz-adv-x="1099" 
d="M483 59l-469 965h195l362 -774l322 774h192l-610 -1393h-184zM246 1206v199h190v-199h-190zM664 1206v199h190v-199h-190z" />
    <glyph glyph-name="Amacron" unicode="&#x100;" horiz-adv-x="1355" 
d="M616 1413h129l601 -1413h-205l-109 266h-710l-111 -266h-201zM393 436h570l-281 690zM993 1593h-631v152h631v-152z" />
    <glyph glyph-name="amacron" unicode="&#x101;" horiz-adv-x="1110" 
d="M436 -29q-73 0 -141 17q-66 17 -112 55q-44 37 -72 100q-27 61 -27 152q0 59 16 114q16 56 60 100q46 46 119 72q77 27 194 27q71 0 100 -1q14 0 41.5 -0.5t40.5 -1.5q39 -1 75 -3q10 0 36.5 -1.5t42.5 -2.5v96q0 114 -58 160q-59 47 -196 47q-58 0 -108 -8
q-44 -7 -77 -32q-34 -26 -52 -63q-20 -40 -27 -102h-172q11 103 43 171q33 70 87 110q53 40 131 58q76 18 175 18q204 0 317 -82q115 -83 115 -277v-694h-178v104h-21q-77 -76 -162 -104q-87 -29 -190 -29zM496 123q57 0 111 10q58 11 102 40q45 30 72 82q28 54 28 134v78
q-78 5 -145 6q-90 2 -125 2q-97 0 -147 -14q-57 -16 -83 -38q-30 -25 -38 -56q-9 -33 -9 -70q0 -102 57 -138t177 -36zM870 1225h-630v151h630v-151z" />
    <glyph glyph-name="Abreve" unicode="&#x102;" horiz-adv-x="1355" 
d="M616 1413h129l601 -1413h-205l-109 266h-710l-111 -266h-201zM393 436h570l-281 690zM680 1536q-155 0 -228 71t-73 218h145q0 -83 36 -117q37 -35 120 -35q81 0 118 35q36 34 36 117h147q0 -147 -74 -218t-227 -71z" />
    <glyph glyph-name="abreve" unicode="&#x103;" horiz-adv-x="1110" 
d="M436 -29q-73 0 -141 17q-66 17 -112 55q-44 37 -72 100q-27 61 -27 152q0 59 16 114q16 56 60 100q46 46 119 72q77 27 194 27q71 0 100 -1q14 0 41.5 -0.5t40.5 -1.5q39 -1 75 -3q10 0 36.5 -1.5t42.5 -2.5v96q0 114 -58 160q-59 47 -196 47q-58 0 -108 -8
q-44 -7 -77 -32q-34 -26 -52 -63q-20 -40 -27 -102h-172q11 103 43 171q33 70 87 110q53 40 131 58q76 18 175 18q204 0 317 -82q115 -83 115 -277v-694h-178v104h-21q-77 -76 -162 -104q-87 -29 -190 -29zM496 123q57 0 111 10q58 11 102 40q45 30 72 82q28 54 28 134v78
q-78 5 -145 6q-90 2 -125 2q-97 0 -147 -14q-57 -16 -83 -38q-30 -25 -38 -56q-9 -33 -9 -70q0 -102 57 -138t177 -36zM555 1167q-155 0 -228 71t-73 218h145q0 -82 36 -117q35 -34 120 -34q83 0 118 34q36 35 36 117h147q0 -147 -74 -218t-227 -71z" />
    <glyph glyph-name="Aogonek" unicode="&#x104;" horiz-adv-x="1355" 
d="M1141 0l-109 266h-710l-111 -266h-201l606 1413h129l601 -1413q-73 -29 -110 -56q-39 -29 -59 -60q-21 -32 -25 -55q-5 -28 -5 -42q0 -49 31 -75q29 -25 79 -25q25 0 55 13q32 14 64 50v-149q-68 -50 -151 -50q-61 0 -105 21q-41 20 -69 51q-26 29 -39 66t-13 65
q0 91 44 149q42 56 133 97h-35zM393 436h570l-281 690z" />
    <glyph glyph-name="aogonek" unicode="&#x105;" horiz-adv-x="1110" 
d="M809 0v104h-21q-77 -76 -162 -104q-87 -29 -190 -29q-73 0 -141 17q-66 17 -112 55q-44 37 -72 100q-27 61 -27 152q0 59 16 114q16 56 60 100q46 46 119 72q77 27 194 27q71 0 100 -1q14 0 41.5 -0.5t40.5 -1.5q39 -1 75 -3q10 0 36.5 -1.5t42.5 -2.5v96q0 114 -58 160
q-59 47 -196 47q-58 0 -108 -8q-44 -7 -77 -32q-34 -26 -52 -63q-20 -40 -27 -102h-172q11 103 43 171q33 70 87 110q53 40 131 58q76 18 175 18q204 0 317 -82q115 -83 115 -277v-694q-71 -28 -109 -56q-40 -30 -60 -60t-24 -55q-6 -34 -6 -42q0 -49 31 -75q29 -25 80 -25
q24 0 54 13q34 14 65 50v-149q-68 -50 -152 -50q-60 0 -104 21q-43 21 -70 51q-26 29 -39 66q-12 35 -12 65q0 91 44 149q43 56 132 97h-8zM496 123q57 0 111 10q58 11 102 40q45 30 72 82q28 54 28 134v78q-78 5 -145 6q-90 2 -125 2q-97 0 -147 -14q-57 -16 -83 -38
q-30 -25 -38 -56q-9 -33 -9 -70q0 -102 57 -138t177 -36z" />
    <glyph glyph-name="Cacute" unicode="&#x106;" horiz-adv-x="1454" 
d="M1364 463q-12 -145 -60 -239t-126 -151q-77 -56 -187 -79t-241 -23q-160 0 -280 33t-200 116q-80 82 -120 225q-41 144 -41 360q0 228 43 370q44 145 124 224q84 83 202 112q124 31 272 31q127 0 239 -22q106 -21 185 -77q78 -55 124 -148q48 -97 60 -234h-199
q-12 96 -46 155t-85 92q-49 32 -122 44q-70 12 -156 12q-111 0 -195 -18q-83 -18 -140 -76q-56 -57 -86 -169q-30 -111 -30 -296q0 -179 30 -288q30 -110 86 -169q57 -60 140 -79q82 -19 195 -19q85 0 157 12t124 46q53 35 87 95q35 63 47 160h199zM682 1536l156 311h252
l-271 -311h-137z" />
    <glyph glyph-name="cacute" unicode="&#x107;" horiz-adv-x="1124" 
d="M1047 334q-12 -102 -50 -172q-39 -72 -95 -112q-58 -42 -138 -60q-84 -19 -176 -19q-117 0 -210 26q-92 26 -154 88t-94 165q-32 104 -32 256q0 156 32 263t94 169q64 64 154 89q93 26 210 26q94 0 172 -18q79 -18 136 -59q56 -40 95 -110q35 -64 51 -170h-178
q-10 60 -35 102q-23 38 -60 63t-82 32q-50 8 -99 8q-74 0 -132 -15t-99 -59q-39 -42 -60 -120t-21 -201q0 -119 21 -194q21 -76 60 -116q42 -43 99 -58q58 -15 132 -15q55 0 103 9q47 9 85 33q39 25 62 64t34 105h175zM518 1167l156 312h252l-271 -312h-137z" />
    <glyph glyph-name="Cdotaccent" unicode="&#x10a;" horiz-adv-x="1454" 
d="M1364 463q-12 -145 -60 -239t-126 -151q-77 -56 -187 -79t-241 -23q-160 0 -280 33t-200 116q-80 82 -120 225q-41 144 -41 360q0 228 43 370q44 145 124 224q84 83 202 112q124 31 272 31q127 0 239 -22q106 -21 185 -77q78 -55 124 -148q48 -97 60 -234h-199
q-12 96 -46 155t-85 92q-49 32 -122 44q-70 12 -156 12q-111 0 -195 -18q-83 -18 -140 -76q-56 -57 -86 -169q-30 -111 -30 -296q0 -179 30 -288q30 -110 86 -169q57 -60 140 -79q82 -19 195 -19q85 0 157 12t124 46q53 35 87 95q35 63 47 160h199zM651 1581v193h197v-193
h-197z" />
    <glyph glyph-name="cdotaccent" unicode="&#x10b;" horiz-adv-x="1124" 
d="M1047 334q-12 -102 -50 -172q-39 -72 -95 -112q-58 -42 -138 -60q-84 -19 -176 -19q-117 0 -210 26q-92 26 -154 88t-94 165q-32 104 -32 256q0 156 32 263t94 169q64 64 154 89q93 26 210 26q94 0 172 -18q79 -18 136 -59q56 -40 95 -110q35 -64 51 -170h-178
q-10 60 -35 102q-23 38 -60 63t-82 32q-50 8 -99 8q-74 0 -132 -15t-99 -59q-39 -42 -60 -120t-21 -201q0 -119 21 -194q21 -76 60 -116q42 -43 99 -58q58 -15 132 -15q55 0 103 9q47 9 85 33q39 25 62 64t34 105h175zM487 1212v193h197v-193h-197z" />
    <glyph glyph-name="Ccaron" unicode="&#x10c;" horiz-adv-x="1454" 
d="M1364 463q-12 -145 -60 -239t-126 -151q-77 -56 -187 -79t-241 -23q-160 0 -280 33t-200 116q-80 82 -120 225q-41 144 -41 360q0 228 43 370q44 145 124 224q84 83 202 112q124 31 272 31q127 0 239 -22q106 -21 185 -77q78 -55 124 -148q48 -97 60 -234h-199
q-12 96 -46 155t-85 92q-49 32 -122 44q-70 12 -156 12q-111 0 -195 -18q-83 -18 -140 -76q-56 -57 -86 -169q-30 -111 -30 -296q0 -179 30 -288q30 -110 86 -169q57 -60 140 -79q82 -19 195 -19q85 0 157 12t124 46q53 35 87 95q35 63 47 160h199zM414 1831h209l120 -123
l136 123h208l-344 -297z" />
    <glyph glyph-name="ccaron" unicode="&#x10d;" horiz-adv-x="1124" 
d="M1047 334q-12 -102 -50 -172q-39 -72 -95 -112q-58 -42 -138 -60q-84 -19 -176 -19q-117 0 -210 26q-92 26 -154 88t-94 165q-32 104 -32 256q0 156 32 263t94 169q64 64 154 89q93 26 210 26q94 0 172 -18q79 -18 136 -59q56 -40 95 -110q35 -64 51 -170h-178
q-10 60 -35 102q-23 38 -60 63t-82 32q-50 8 -99 8q-74 0 -132 -15t-99 -59q-39 -42 -60 -120t-21 -201q0 -119 21 -194q21 -76 60 -116q42 -43 99 -58q58 -15 132 -15q55 0 103 9q47 9 85 33q39 25 62 64t34 105h175zM250 1462h209l121 -123l135 123h209l-344 -297z" />
    <glyph glyph-name="Dcaron" unicode="&#x10e;" horiz-adv-x="1423" 
d="M129 1413h528q157 0 278 -27q123 -27 206 -103q84 -77 128 -215q44 -140 44 -363q0 -208 -41 -346q-40 -137 -123 -216q-83 -80 -205 -111q-125 -32 -287 -32h-528v1413zM657 178q113 0 200 18q89 18 145 73q61 59 90 160q30 103 30 276q0 184 -30 289q-30 104 -90 160
q-59 55 -145 68q-84 13 -200 13h-342v-1057h342zM375 1831h209l121 -123l135 123h209l-344 -297z" />
    <glyph glyph-name="dcaron" unicode="&#x10f;" horiz-adv-x="1255" 
d="M522 -29q-94 0 -177 22q-77 20 -134 82q-55 60 -84 166q-29 107 -29 271t29 271q29 106 84 166q57 62 134 82q83 22 177 22q104 0 189 -30q86 -30 145 -101h21v491h178v-1413h-178v102h-21q-59 -71 -145 -101q-85 -30 -189 -30zM588 123q60 0 105 11q51 12 90 40
q40 28 66 79q27 51 28 128v262q-1 75 -28 127q-25 49 -66 79q-38 29 -90 41q-45 11 -105 11q-84 0 -144 -12q-59 -12 -97 -53q-37 -39 -55 -118q-18 -76 -18 -206t18 -206q18 -79 55 -118q38 -41 97 -53q60 -12 144 -12zM1153 1479h236l-125 -312h-111v312z" />
    <glyph glyph-name="Dcroat" unicode="&#x110;" horiz-adv-x="1509" 
d="M20 807h195v606h528q157 0 278 -27q123 -27 206 -103q84 -77 128 -215q44 -140 44 -363q0 -208 -41 -346q-40 -137 -123 -216q-83 -80 -205 -111q-125 -32 -287 -32h-528v647h-195v160zM743 178q113 0 200 18q90 19 146 73q59 58 89 160q30 103 30 276q0 184 -30 289
q-30 106 -89 160q-59 55 -146 68q-84 13 -200 13h-342v-428h357v-160h-357v-469h342z" />
    <glyph glyph-name="dcroat" unicode="&#x111;" horiz-adv-x="1185" 
d="M522 -29q-94 0 -177 22q-77 20 -134 82q-55 60 -84 166q-29 107 -29 271t29 271q29 106 84 166q57 62 134 82q83 22 177 22q104 0 189 -30q86 -30 145 -101h21v233h-367v156h367v102h178v-102h112v-156h-112v-1155h-178v102h-21q-59 -71 -145 -101q-85 -30 -189 -30z
M588 123q60 0 105 11q51 12 90 40q40 28 66 79q27 51 28 128v262q-1 75 -28 127q-25 49 -66 79q-38 29 -90 41q-45 11 -105 11q-84 0 -144 -12q-59 -12 -97 -53q-37 -39 -55 -118q-18 -76 -18 -206t18 -206q18 -79 55 -118q38 -41 97 -53q60 -12 144 -12z" />
    <glyph glyph-name="Emacron" unicode="&#x112;" horiz-adv-x="1202" 
d="M1104 0h-975v1413h973v-178h-787v-434h768v-176h-768v-447h789v-178zM956 1593h-630v152h630v-152z" />
    <glyph glyph-name="emacron" unicode="&#x113;" horiz-adv-x="1146" 
d="M1051 444h-777q1 -94 25 -160q23 -64 62 -99q40 -35 98 -49q55 -13 129 -13q110 0 181 34q72 35 87 138h176q-12 -93 -48 -154q-37 -63 -92 -99q-57 -38 -133 -54q-79 -17 -171 -17q-117 0 -210 26q-92 26 -154 88t-94 165q-32 104 -32 256q0 156 32 263t94 169
q64 64 154 89q93 26 208 26q224 0 345 -112q120 -111 120 -359v-138zM586 901q-66 0 -121 -12q-53 -12 -95 -47q-40 -34 -65 -96t-29 -158h594q0 96 -19 154q-20 63 -56 97q-37 35 -90 49q-51 13 -119 13zM899 1225h-631v151h631v-151z" />
    <glyph glyph-name="Edotaccent" unicode="&#x116;" horiz-adv-x="1202" 
d="M1104 0h-975v1413h973v-178h-787v-434h768v-176h-768v-447h789v-178zM543 1581v193h196v-193h-196z" />
    <glyph glyph-name="edotaccent" unicode="&#x117;" horiz-adv-x="1146" 
d="M1051 444h-777q1 -94 25 -160q23 -64 62 -99q40 -35 98 -49q55 -13 129 -13q110 0 181 34q72 35 87 138h176q-12 -93 -48 -154q-37 -63 -92 -99q-57 -38 -133 -54q-79 -17 -171 -17q-117 0 -210 26q-92 26 -154 88t-94 165q-32 104 -32 256q0 156 32 263t94 169
q64 64 154 89q93 26 208 26q224 0 345 -112q120 -111 120 -359v-138zM586 901q-66 0 -121 -12q-53 -12 -95 -47q-40 -34 -65 -96t-29 -158h594q0 96 -19 154q-20 63 -56 97q-37 35 -90 49q-51 13 -119 13zM485 1212v193h197v-193h-197z" />
    <glyph glyph-name="Eogonek" unicode="&#x118;" horiz-adv-x="1202" 
d="M129 0v1413h973v-178h-787v-434h768v-176h-768v-447h789v-178q-73 -29 -110 -56q-39 -29 -59 -60q-21 -32 -25 -55q-5 -28 -5 -42q0 -49 31 -75q29 -25 80 -25q24 0 54 13q34 14 65 50v-149q-68 -50 -152 -50q-61 0 -104 21t-70 51q-26 29 -39 66q-12 35 -12 65
q0 91 44 149q43 56 132 97h-805z" />
    <glyph glyph-name="eogonek" unicode="&#x119;" horiz-adv-x="1146" 
d="M1051 444h-777q1 -94 25 -160q23 -64 62 -99q40 -35 98 -49q55 -13 129 -13q110 0 181 34q72 35 87 138h176q-17 -134 -82 -204q-66 -71 -172 -99q-63 -24 -99 -54q-32 -27 -53 -58q-17 -26 -22 -52q-4 -21 -4 -41q0 -49 31 -75q29 -25 80 -25q24 0 54 13q32 14 64 50
v-149q-68 -50 -151 -50q-62 0 -105 21q-41 20 -69 51q-26 29 -39 66q-12 35 -12 65q0 76 30 127t90 90q-113 1 -203 29q-92 28 -150 89q-62 65 -91 164q-31 105 -31 253q0 156 32 263t94 169q64 64 154 89q93 26 208 26q224 0 345 -112q120 -111 120 -359v-138zM586 901
q-66 0 -121 -12q-53 -12 -95 -47q-40 -34 -65 -96t-29 -158h594q0 96 -19 154q-20 63 -56 97q-37 35 -90 49q-51 13 -119 13z" />
    <glyph glyph-name="Ecaron" unicode="&#x11a;" horiz-adv-x="1202" 
d="M1104 0h-975v1413h973v-178h-787v-434h768v-176h-768v-447h789v-178zM303 1831h209l121 -123l135 123h209l-344 -297z" />
    <glyph glyph-name="ecaron" unicode="&#x11b;" horiz-adv-x="1146" 
d="M1051 444h-777q1 -94 25 -160q23 -64 62 -99q40 -35 98 -49q55 -13 129 -13q110 0 181 34q72 35 87 138h176q-12 -93 -48 -154q-37 -63 -92 -99q-57 -38 -133 -54q-79 -17 -171 -17q-117 0 -210 26q-92 26 -154 88t-94 165q-32 104 -32 256q0 156 32 263t94 169
q64 64 154 89q93 26 208 26q224 0 345 -112q120 -111 120 -359v-138zM586 901q-66 0 -121 -12q-53 -12 -95 -47q-40 -34 -65 -96t-29 -158h594q0 96 -19 154q-20 63 -56 97q-37 35 -90 49q-51 13 -119 13zM248 1462h209l121 -123l135 123h209l-344 -297z" />
    <glyph glyph-name="Gbreve" unicode="&#x11e;" horiz-adv-x="1490" 
d="M745 741h637v-217q0 -158 -48 -264t-134 -171q-84 -63 -202 -91q-116 -27 -248 -27q-160 0 -280 33q-119 33 -201 116q-80 82 -121 225q-39 137 -39 360q0 228 43 370q44 145 124 224q84 83 202 112q124 31 272 31q129 0 244 -22q109 -21 189 -77q79 -55 127 -148
t60 -234h-196q-15 96 -49 155t-88 92q-52 32 -126 44q-72 12 -161 12q-111 0 -195 -18q-83 -18 -140 -76q-56 -57 -86 -169q-30 -111 -30 -296q0 -179 30 -288q30 -110 86 -169q57 -60 140 -79q82 -19 195 -19q85 0 166 15t144 57q60 40 99 115q37 71 37 187v45h-451v172z
M748 1536q-156 0 -229 71t-73 218h146q0 -83 36 -117q37 -35 120 -35q80 0 117 35q36 34 36 117h148q0 -147 -74 -218t-227 -71z" />
    <glyph glyph-name="gbreve" unicode="&#x11f;" horiz-adv-x="1183" 
d="M877 164h-21q-61 -74 -145 -104q-83 -29 -189 -29q-101 0 -177 20q-79 21 -134 77q-56 57 -84 157q-29 102 -29 258t29 257q28 98 84 155q55 56 134 77q80 21 177 21q104 0 189 -30q86 -30 145 -101h21v102h178v-913q0 -145 -33 -244q-33 -98 -96 -157t-156 -83
q-92 -24 -213 -24q-99 0 -173 14q-81 15 -137 47q-57 32 -95 87q-37 54 -48 134h177q18 -79 93 -105q76 -26 183 -26q77 0 137 15q61 15 100 53q40 38 61 108q22 72 22 181v53zM588 182q56 0 105 12q52 13 90 38q39 26 66 78t28 126v209q-1 75 -28 127q-25 50 -66 78
q-39 28 -90 40q-45 11 -105 11q-89 0 -144 -11q-60 -12 -97 -49q-36 -36 -55 -109q-18 -70 -18 -189t18 -190t55 -108q38 -38 97 -50q65 -13 144 -13zM592 1167q-155 0 -228 71t-73 218h145q0 -82 36 -117q35 -34 120 -34q83 0 118 34t35 117h148q0 -147 -74 -218t-227 -71z
" />
    <glyph glyph-name="Gdotaccent" unicode="&#x120;" horiz-adv-x="1490" 
d="M745 741h637v-217q0 -158 -48 -264t-134 -171q-84 -63 -202 -91q-116 -27 -248 -27q-160 0 -280 33q-119 33 -201 116q-80 82 -121 225q-39 137 -39 360q0 228 43 370q44 145 124 224q84 83 202 112q124 31 272 31q129 0 244 -22q109 -21 189 -77q79 -55 127 -148
t60 -234h-196q-15 96 -49 155t-88 92q-52 32 -126 44q-72 12 -161 12q-111 0 -195 -18q-83 -18 -140 -76q-56 -57 -86 -169q-30 -111 -30 -296q0 -179 30 -288q30 -110 86 -169q57 -60 140 -79q82 -19 195 -19q85 0 166 15t144 57q60 40 99 115q37 71 37 187v45h-451v172z
M649 1581v193h197v-193h-197z" />
    <glyph glyph-name="gdotaccent" unicode="&#x121;" horiz-adv-x="1183" 
d="M877 164h-21q-61 -74 -145 -104q-83 -29 -189 -29q-101 0 -177 20q-79 21 -134 77q-56 57 -84 157q-29 102 -29 258t29 257q28 98 84 155q55 56 134 77q80 21 177 21q104 0 189 -30q86 -30 145 -101h21v102h178v-913q0 -145 -33 -244q-33 -98 -96 -157t-156 -83
q-92 -24 -213 -24q-99 0 -173 14q-81 15 -137 47q-57 32 -95 87q-37 54 -48 134h177q18 -79 93 -105q76 -26 183 -26q77 0 137 15q61 15 100 53q40 38 61 108q22 72 22 181v53zM588 182q56 0 105 12q52 13 90 38q39 26 66 78t28 126v209q-1 75 -28 127q-25 50 -66 78
q-39 28 -90 40q-45 11 -105 11q-89 0 -144 -11q-60 -12 -97 -49q-36 -36 -55 -109q-18 -70 -18 -189t18 -190t55 -108q38 -38 97 -50q65 -13 144 -13zM494 1212v193h196v-193h-196z" />
    <glyph glyph-name="Gcommaaccent" unicode="&#x122;" horiz-adv-x="1490" 
d="M745 741h637v-217q0 -158 -48 -264t-134 -171q-84 -63 -202 -91q-116 -27 -248 -27q-160 0 -280 33q-119 33 -201 116q-80 82 -121 225q-39 137 -39 360q0 228 43 370q44 145 124 224q84 83 202 112q124 31 272 31q129 0 244 -22q109 -21 189 -77q79 -55 127 -148
t60 -234h-196q-15 96 -49 155t-88 92q-52 32 -126 44q-72 12 -161 12q-111 0 -195 -18q-83 -18 -140 -76q-56 -57 -86 -169q-30 -111 -30 -296q0 -179 30 -288q30 -110 86 -169q57 -60 140 -79q82 -19 195 -19q85 0 166 15t144 57q60 40 99 115q37 71 37 187v45h-451v172z
M635 -539l84 211h-86v226h229v-195l-145 -242h-82z" />
    <glyph glyph-name="gcommaaccent" unicode="&#x123;" horiz-adv-x="1183" 
d="M877 164h-21q-61 -74 -145 -104q-83 -29 -189 -29q-101 0 -177 20q-79 21 -134 77q-56 57 -84 157q-29 102 -29 258t29 257q28 98 84 155q55 56 134 77q80 21 177 21q104 0 189 -30q86 -30 145 -101h21v102h178v-913q0 -145 -33 -244q-33 -98 -96 -157t-156 -83
q-92 -24 -213 -24q-99 0 -173 14q-81 15 -137 47q-57 32 -95 87q-37 54 -48 134h177q18 -79 93 -105q76 -26 183 -26q77 0 137 15q61 15 100 53q40 38 61 108q22 72 22 181v53zM588 182q56 0 105 12q52 13 90 38q39 26 66 78t28 126v209q-1 75 -28 127q-25 50 -66 78
q-39 28 -90 40q-45 11 -105 11q-89 0 -144 -11q-60 -12 -97 -49q-36 -36 -55 -109q-18 -70 -18 -189t18 -190t55 -108q38 -38 97 -50q65 -13 144 -13zM676 1628l-84 -211h86v-225h-229v194l145 242h82z" />
    <glyph glyph-name="Hbar" unicode="&#x126;" horiz-adv-x="1441" 
d="M1292 1186h115v-160h-115v-1026h-186v625h-770v-625h-186v1026h-115v160h115v227h186v-227h770v227h186v-227zM336 801h770v225h-770v-225z" />
    <glyph glyph-name="hbar" unicode="&#x127;" horiz-adv-x="1138" 
d="M838 719q0 113 -67 148q-65 34 -191 34q-131 0 -199 -58q-69 -59 -74 -188v-655h-178v1155h-123v156h123v102h178v-102h357v-156h-357v-233h21q56 71 135 101q78 30 182 30q79 0 153 -16q67 -15 116 -53q48 -38 75 -102q27 -65 27 -163v-719h-178v719z" />
    <glyph glyph-name="Imacron" unicode="&#x12a;" horiz-adv-x="444" 
d="M315 0h-186v1413h186v-1413zM537 1593h-631v152h631v-152z" />
    <glyph glyph-name="imacron" unicode="&#x12b;" horiz-adv-x="452" 
d="M315 1024v-1024h-178v1024h178zM541 1225h-631v151h631v-151z" />
    <glyph glyph-name="Iogonek" unicode="&#x12e;" horiz-adv-x="444" 
d="M129 0v1413h186v-1413q-71 -28 -109 -56q-40 -30 -60 -60t-24 -55q-5 -28 -5 -42q0 -49 30 -75q29 -25 80 -25q25 0 55 13q32 14 64 50v-149q-68 -50 -151 -50q-61 0 -105 21q-43 21 -70 51q-25 27 -38 66q-13 37 -13 65q0 91 44 149q43 56 132 97h-16z" />
    <glyph glyph-name="iogonek" unicode="&#x12f;" horiz-adv-x="452" 
d="M137 0v1024h178v-1024q-71 -28 -109 -56q-40 -30 -60 -60t-24 -55q-5 -28 -5 -42q0 -49 30 -75q29 -25 80 -25q25 0 55 13q32 14 64 50v-149q-68 -50 -151 -50q-61 0 -105 21q-43 21 -70 51q-25 27 -38 66q-13 37 -13 65q0 91 44 149q43 56 132 97h-8zM129 1212v193h195
v-193h-195z" />
    <glyph glyph-name="Idotaccent" unicode="&#x130;" horiz-adv-x="444" 
d="M315 0h-186v1413h186v-1413zM123 1581v193h196v-193h-196z" />
    <glyph glyph-name="dotlessi" unicode="&#x131;" horiz-adv-x="452" 
d="M315 1024v-1024h-178v1024h178z" />
    <glyph glyph-name="Kcommaaccent" unicode="&#x136;" horiz-adv-x="1251" 
d="M1001 0l-446 637h-240v-637h-186v1413h186v-608h240l422 608h233l-497 -682l528 -731h-240zM512 -539l84 211h-86v226h229v-195l-145 -242h-82z" />
    <glyph glyph-name="kcommaaccent" unicode="&#x137;" horiz-adv-x="1040" 
d="M303 602h162l334 422h202l-395 -492l416 -532h-213l-342 453h-164v-453h-174v1413h174v-811zM406 -539l83 211h-86v226h230v-195l-146 -242h-81z" />
    <glyph glyph-name="Lacute" unicode="&#x139;" horiz-adv-x="1130" 
d="M1110 0h-981v1413h186v-1235h795v-178zM158 1536l155 311h252l-270 -311h-137z" />
    <glyph glyph-name="lacute" unicode="&#x13a;" horiz-adv-x="436" 
d="M307 0h-178v1413h178v-1413zM150 1475l155 311h252l-270 -311h-137z" />
    <glyph glyph-name="Lcommaaccent" unicode="&#x13b;" horiz-adv-x="1130" 
d="M1110 0h-981v1413h186v-1235h795v-178zM502 -539l84 211h-86v226h229v-195l-145 -242h-82z" />
    <glyph glyph-name="lcommaaccent" unicode="&#x13c;" horiz-adv-x="436" 
d="M307 0h-178v1413h178v-1413zM104 -539l84 211h-86v226h230v-195l-146 -242h-82z" />
    <glyph glyph-name="Lcaron" unicode="&#x13d;" horiz-adv-x="1130" 
d="M1110 0h-981v1413h186v-1235h795v-178zM741 1413h238l-127 -487h-111v487z" />
    <glyph glyph-name="lcaron" unicode="&#x13e;" horiz-adv-x="507" 
d="M307 0h-178v1413h178v-1413zM406 1479h235l-125 -312h-110v312z" />
    <glyph glyph-name="Ldot" unicode="&#x13f;" horiz-adv-x="1130" 
d="M1110 0h-981v1413h186v-1235h795v-178zM645 594v229h234v-229h-234z" />
    <glyph glyph-name="ldot" unicode="&#x140;" horiz-adv-x="722" 
d="M307 0h-178v1413h178v-1413zM442 588v229h234v-229h-234z" />
    <glyph glyph-name="Lslash" unicode="&#x141;" horiz-adv-x="1230" 
d="M1210 0h-981v541l-200 -68v180l200 68v692h187v-629l391 136v-181l-391 -135v-426h794v-178z" />
    <glyph glyph-name="lslash" unicode="&#x142;" horiz-adv-x="630" 
d="M408 780l184 64v-180l-184 -64v-600h-179v539l-190 -66v180l190 66v694h179v-633z" />
    <glyph glyph-name="Nacute" unicode="&#x143;" horiz-adv-x="1443" 
d="M244 1413l889 -1071v1071h182v-1413h-123l-883 1061v-1061h-180v1413h115zM655 1536l156 311h252l-270 -311h-138z" />
    <glyph glyph-name="nacute" unicode="&#x144;" horiz-adv-x="1138" 
d="M838 719q0 113 -67 148q-65 34 -191 34q-131 0 -199 -58q-69 -59 -74 -188v-655h-178v1024h178v-102h21q56 71 135 101q78 30 182 30q79 0 153 -16q67 -15 116 -53q48 -38 75 -102q27 -65 27 -163v-719h-178v719zM502 1167l155 312h252l-270 -312h-137z" />
    <glyph glyph-name="Ncommaaccent" unicode="&#x145;" horiz-adv-x="1443" 
d="M244 1413l889 -1071v1071h182v-1413h-123l-883 1061v-1061h-180v1413h115zM610 -539l84 211h-86v226h230v-195l-146 -242h-82z" />
    <glyph glyph-name="ncommaaccent" unicode="&#x146;" horiz-adv-x="1138" 
d="M838 719q0 113 -67 148q-65 34 -191 34q-131 0 -199 -58q-69 -59 -74 -188v-655h-178v1024h178v-102h21q56 71 135 101q78 30 182 30q79 0 153 -16q67 -15 116 -53q48 -38 75 -102q27 -65 27 -163v-719h-178v719zM457 -539l84 211h-86v226h229v-195l-145 -242h-82z" />
    <glyph glyph-name="Ncaron" unicode="&#x147;" horiz-adv-x="1443" 
d="M244 1413l889 -1071v1071h182v-1413h-123l-883 1061v-1061h-180v1413h115zM385 1831h209l121 -123l135 123h209l-344 -297z" />
    <glyph glyph-name="ncaron" unicode="&#x148;" horiz-adv-x="1138" 
d="M838 719q0 113 -67 148q-65 34 -191 34q-131 0 -199 -58q-69 -59 -74 -188v-655h-178v1024h178v-102h21q56 71 135 101q78 30 182 30q79 0 153 -16q67 -15 116 -53q48 -38 75 -102q27 -65 27 -163v-719h-178v719zM233 1462h209l121 -123l135 123h209l-344 -297z" />
    <glyph glyph-name="Omacron" unicode="&#x14c;" horiz-adv-x="1538" 
d="M768 -29q-164 0 -288 33t-207 116q-83 82 -123 225q-41 144 -41 360q0 224 44 370q43 143 129 224q87 83 207 112q127 31 279 31q154 0 281 -31q120 -29 207 -112q86 -81 129 -224q45 -149 45 -370q0 -217 -42 -360q-42 -142 -125 -225t-207 -116t-288 -33zM768 150
q117 0 203 19q87 19 147 79t90 169q31 113 31 288q0 179 -31 294q-29 109 -91 169q-61 59 -147 77q-92 19 -202 19q-112 0 -201 -18q-87 -18 -147 -76q-60 -59 -90 -169q-31 -115 -31 -296q0 -175 31 -288q30 -109 90 -169t147 -79q86 -19 201 -19zM1083 1593h-630v152h630
v-152z" />
    <glyph glyph-name="omacron" unicode="&#x14d;" horiz-adv-x="1177" 
d="M588 123q76 0 134 15q56 14 98 58q42 43 62 116q21 75 21 194q0 124 -21 200t-62 120q-43 46 -99 60q-60 15 -133 15q-74 0 -132 -15t-99 -59q-39 -42 -60 -120t-21 -201q0 -119 21 -194q21 -76 60 -116q42 -43 99 -58q58 -15 132 -15zM588 1053q119 0 212 -26
q89 -25 153 -89q63 -63 95 -169q31 -103 31 -263q0 -156 -31 -256q-31 -101 -95 -165q-63 -63 -153 -88q-93 -26 -212 -26q-117 0 -210 26q-92 26 -154 88t-94 165q-32 104 -32 256q0 156 32 263t94 169q64 64 154 89q93 26 210 26zM903 1225h-631v151h631v-151z" />
    <glyph glyph-name="Ohungarumlaut" unicode="&#x150;" horiz-adv-x="1538" 
d="M768 -29q-164 0 -288 33t-207 116q-83 82 -123 225q-41 144 -41 360q0 224 44 370q43 143 129 224q87 83 207 112q127 31 279 31q154 0 281 -31q120 -29 207 -112q86 -81 129 -224q45 -149 45 -370q0 -217 -42 -360q-42 -142 -125 -225t-207 -116t-288 -33zM768 150
q117 0 203 19q87 19 147 79t90 169q31 113 31 288q0 179 -31 294q-29 109 -91 169q-61 59 -147 77q-92 19 -202 19q-112 0 -201 -18q-87 -18 -147 -76q-60 -59 -90 -169q-31 -115 -31 -296q0 -175 31 -288q30 -109 90 -169t147 -79q86 -19 201 -19zM592 1540l74 330h188
l-145 -330h-117zM848 1540l135 330h215l-219 -330h-131z" />
    <glyph glyph-name="ohungarumlaut" unicode="&#x151;" horiz-adv-x="1177" 
d="M588 123q76 0 134 15q56 14 98 58q42 43 62 116q21 75 21 194q0 124 -21 200t-62 120q-43 46 -99 60q-60 15 -133 15q-74 0 -132 -15t-99 -59q-39 -42 -60 -120t-21 -201q0 -119 21 -194q21 -76 60 -116q42 -43 99 -58q58 -15 132 -15zM588 1053q119 0 212 -26
q89 -25 153 -89q63 -63 95 -169q31 -103 31 -263q0 -156 -31 -256q-31 -101 -95 -165q-63 -63 -153 -88q-93 -26 -212 -26q-117 0 -210 26q-92 26 -154 88t-94 165q-32 104 -32 256q0 156 32 263t94 169q64 64 154 89q93 26 210 26zM403 1171l74 330h189l-146 -330h-117z
M659 1171l136 330h215l-219 -330h-132z" />
    <glyph glyph-name="OE" unicode="&#x152;" horiz-adv-x="1992" 
d="M1890 1235h-749v-434h733v-176h-733v-447h751v-178h-1126q-162 0 -287 32q-124 32 -206 111q-83 79 -123 216q-41 138 -41 346q0 223 44 363q44 139 129 215t206 103t278 27h1124v-178zM954 178v1057h-188q-116 0 -200 -13q-85 -13 -146 -68q-60 -54 -90 -160
q-31 -108 -31 -289q0 -169 31 -276q30 -102 89 -160q56 -55 146 -73q89 -18 201 -18h188z" />
    <glyph glyph-name="oe" unicode="&#x153;" horiz-adv-x="1953" 
d="M1395 -29q-139 0 -241 36t-163 124q-61 -88 -162 -124t-241 -36q-117 0 -210 26q-92 26 -154 88t-94 165q-32 104 -32 256q0 156 32 263t94 169q64 64 154 89q93 26 210 26q140 0 242 -36q101 -36 161 -126q62 90 163 126q102 36 239 36q224 0 344 -112
q118 -111 118 -359v-138h-774q1 -94 25 -160q23 -64 62 -99q40 -35 98 -49q55 -13 129 -13q54 0 105 8q44 7 85 30q38 21 62 59q25 38 32 95h176q-12 -98 -49 -163q-38 -67 -96 -106q-57 -38 -139 -57q-79 -18 -176 -18zM588 123q76 0 134 15q56 14 98 58q42 43 62 116
q21 75 21 194v24q-2 116 -24 188q-22 71 -64 113q-41 41 -98 56q-53 14 -129 14q-74 0 -132 -15t-99 -59q-39 -42 -60 -120t-21 -201q0 -119 21 -194q21 -76 60 -116q42 -43 99 -58q58 -15 132 -15zM1393 901q-65 0 -121 -12q-55 -12 -96 -47q-40 -34 -65 -96
q-23 -59 -28 -158h594q0 96 -19 154q-20 63 -56 97q-36 35 -91 49q-51 13 -118 13z" />
    <glyph glyph-name="Racute" unicode="&#x154;" horiz-adv-x="1337" 
d="M1018 0l-346 492h-357v-492h-186v1413h629q253 0 364 -104q113 -105 113 -351q0 -212 -90 -328t-262 -134l366 -496h-231zM315 1235v-584h447q69 0 123 14t88 48q35 35 53 94q18 60 18 151t-14 140q-16 56 -48 84q-35 30 -89 42q-51 11 -135 11h-443zM598 1536l156 311
h252l-271 -311h-137z" />
    <glyph glyph-name="racute" unicode="&#x155;" horiz-adv-x="770" 
d="M737 1028v-164l-51 2q-114 5 -188 -18t-116 -72q-41 -49 -58 -124q-17 -77 -17 -171v-481h-178v1024h178v-176h21q52 98 135 139q84 41 225 41h49zM371 1167l155 312h252l-270 -312h-137z" />
    <glyph glyph-name="Rcommaaccent" unicode="&#x156;" horiz-adv-x="1337" 
d="M1018 0l-346 492h-357v-492h-186v1413h629q253 0 364 -104q113 -105 113 -351q0 -212 -90 -328t-262 -134l366 -496h-231zM315 1235v-584h447q69 0 123 14t88 48q35 35 53 94q18 60 18 151t-14 140q-16 56 -48 84q-35 30 -89 42q-51 11 -135 11h-443zM526 -539l84 211
h-86v226h230v-195l-146 -242h-82z" />
    <glyph glyph-name="rcommaaccent" unicode="&#x157;" horiz-adv-x="770" 
d="M737 1028v-164l-51 2q-114 5 -188 -18t-116 -72q-41 -49 -58 -124q-17 -77 -17 -171v-481h-178v1024h178v-176h21q52 98 135 139q84 41 225 41h49zM106 -539l84 211h-86v226h230v-195l-146 -242h-82z" />
    <glyph glyph-name="Rcaron" unicode="&#x158;" horiz-adv-x="1337" 
d="M1018 0l-346 492h-357v-492h-186v1413h629q253 0 364 -104q113 -105 113 -351q0 -212 -90 -328t-262 -134l366 -496h-231zM315 1235v-584h447q69 0 123 14t88 48q35 35 53 94q18 60 18 151t-14 140q-16 56 -48 84q-35 30 -89 42q-51 11 -135 11h-443zM328 1831h209
l120 -123l136 123h208l-344 -297z" />
    <glyph glyph-name="rcaron" unicode="&#x159;" horiz-adv-x="770" 
d="M737 1028v-164l-51 2q-114 5 -188 -18t-116 -72q-41 -49 -58 -124q-17 -77 -17 -171v-481h-178v1024h178v-176h21q52 98 135 139q84 41 225 41h49zM104 1462h209l121 -123l135 123h209l-344 -297z" />
    <glyph glyph-name="Sacute" unicode="&#x15a;" horiz-adv-x="1347" 
d="M651 -29q-129 0 -234 24q-104 24 -181 81q-75 56 -119 151q-42 92 -47 236h198q4 -97 35 -160q29 -59 82 -95q50 -34 119 -46q68 -12 147 -12q123 0 199 16q77 16 123 47q43 29 62 74q18 43 18 98q0 56 -19 96q-18 37 -51 60q-33 22 -77 36q-33 10 -93 23l-373 74
q-165 33 -244 133t-79 242q0 79 27 151q26 70 92 125q65 54 168 85q107 32 262 32q126 0 232 -23q102 -22 179 -78q75 -55 119 -148q43 -92 49 -232h-194q-6 96 -38 157q-31 58 -82 91q-48 31 -118 43q-67 12 -147 12q-116 0 -186 -18q-72 -18 -108 -47q-38 -30 -51 -69
q-14 -40 -14 -81q0 -82 44 -135q42 -50 147 -72l379 -76q85 -17 159 -46q67 -26 116 -72q45 -42 70 -107q23 -60 23 -156q0 -93 -32 -171t-102 -130q-72 -53 -183 -83q-112 -30 -277 -30zM608 1536l156 311h252l-271 -311h-137z" />
    <glyph glyph-name="sacute" unicode="&#x15b;" horiz-adv-x="1071" 
d="M532 901q-74 0 -118 -10q-49 -11 -75 -30q-27 -19 -39 -47q-11 -25 -11 -60q0 -59 42 -89q43 -31 111 -47l275 -53q135 -28 199 -94q65 -67 65 -184q0 -145 -103 -230q-104 -86 -348 -86q-92 0 -176 19q-80 18 -140 60q-59 41 -96 112q-36 70 -44 172h174q6 -65 30 -105
t61 -64t87 -33q49 -9 104 -9q84 0 136 12q54 12 85 33q33 22 44 50q12 30 12 67q0 61 -39 90q-40 29 -104 45l-287 57q-124 27 -191 92q-69 66 -69 185q0 67 23 119q24 54 74 95q48 39 129 62t189 23q92 0 170 -18q81 -19 136 -59q57 -42 93 -110q37 -69 44 -170h-178
q-6 60 -29 102q-21 38 -57 63q-35 25 -81 32q-50 8 -98 8zM467 1167l156 312h251l-270 -312h-137z" />
    <glyph glyph-name="Scedilla" unicode="&#x15e;" horiz-adv-x="1347" 
d="M1245 385q0 -91 -27 -164t-92 -127q-66 -55 -163 -84q-104 -31 -246 -37v-36q92 -23 130 -71q38 -49 38 -120q0 -97 -69 -154t-171 -57q-54 0 -96 13t-72 32v152q39 -33 79 -49q38 -15 75 -15q46 0 74 25q26 23 26 69q0 45 -29 77q-28 31 -108 52v82q-116 4 -212 32
q-95 27 -164 84q-68 56 -106 149q-38 92 -42 225h198q4 -97 35 -160q29 -59 82 -95q50 -34 119 -46q68 -12 147 -12q123 0 199 16q77 16 123 47q43 29 62 74q18 43 18 98q0 56 -19 96q-18 37 -51 60q-33 22 -77 36q-33 10 -93 23l-373 74q-165 33 -244 133t-79 242
q0 79 27 151q26 70 92 125q65 54 168 85q107 32 262 32q126 0 232 -23q102 -22 179 -78q75 -55 119 -148q43 -92 49 -232h-194q-6 96 -38 157q-31 58 -82 91q-48 31 -118 43q-67 12 -147 12q-116 0 -186 -18q-72 -18 -108 -47q-38 -30 -51 -69q-14 -40 -14 -81
q0 -82 44 -135q42 -50 147 -72l379 -76q85 -17 159 -46q67 -26 116 -72q45 -42 70 -107q23 -60 23 -156z" />
    <glyph glyph-name="scedilla" unicode="&#x15f;" horiz-adv-x="1071" 
d="M532 901q-74 0 -118 -10q-49 -11 -75 -30q-27 -19 -39 -47q-11 -25 -11 -60q0 -59 42 -89q43 -31 111 -47l275 -53q135 -28 199 -94q65 -67 65 -184q0 -135 -89 -218q-90 -84 -296 -96v-36q92 -23 130 -71q38 -49 38 -120q0 -97 -69 -154t-171 -57q-54 0 -96 13t-72 32
v152q39 -33 79 -49q37 -15 75 -15q46 0 74 25q26 23 26 69t-28 77q-28 30 -109 52v82q-80 6 -155 28q-67 20 -122 64q-52 42 -84 108q-32 67 -38 161h174q6 -65 30 -105t61 -64t87 -33q49 -9 104 -9q84 0 136 12q54 12 85 33q33 22 44 50q12 30 12 67q0 61 -39 90
q-40 29 -104 45l-287 57q-124 27 -191 92q-69 66 -69 185q0 67 23 119q24 54 74 95q48 39 129 62t189 23q92 0 170 -18q81 -19 136 -59q57 -42 93 -110q37 -69 44 -170h-178q-6 60 -29 102q-21 38 -57 63q-35 25 -81 32q-50 8 -98 8z" />
    <glyph glyph-name="Scaron" unicode="&#x160;" horiz-adv-x="1347" 
d="M651 -29q-129 0 -234 24q-104 24 -181 81q-75 56 -119 151q-42 92 -47 236h198q4 -97 35 -160q29 -59 82 -95q50 -34 119 -46q68 -12 147 -12q123 0 199 16q77 16 123 47q43 29 62 74q18 43 18 98q0 56 -19 96q-18 37 -51 60q-33 22 -77 36q-33 10 -93 23l-373 74
q-165 33 -244 133t-79 242q0 79 27 151q26 70 92 125q65 54 168 85q107 32 262 32q126 0 232 -23q102 -22 179 -78q75 -55 119 -148q43 -92 49 -232h-194q-6 96 -38 157q-31 58 -82 91q-48 31 -118 43q-67 12 -147 12q-116 0 -186 -18q-72 -18 -108 -47q-38 -30 -51 -69
q-14 -40 -14 -81q0 -82 44 -135q42 -50 147 -72l379 -76q85 -17 159 -46q67 -26 116 -72q45 -42 70 -107q23 -60 23 -156q0 -93 -32 -171t-102 -130q-72 -53 -183 -83q-112 -30 -277 -30zM338 1831h209l121 -123l135 123h209l-344 -297z" />
    <glyph glyph-name="scaron" unicode="&#x161;" horiz-adv-x="1071" 
d="M532 901q-74 0 -118 -10q-49 -11 -75 -30q-27 -19 -39 -47q-11 -25 -11 -60q0 -59 42 -89q43 -31 111 -47l275 -53q135 -28 199 -94q65 -67 65 -184q0 -145 -103 -230q-104 -86 -348 -86q-92 0 -176 19q-80 18 -140 60q-59 41 -96 112q-36 70 -44 172h174q6 -65 30 -105
t61 -64t87 -33q49 -9 104 -9q84 0 136 12q54 12 85 33q33 22 44 50q12 30 12 67q0 61 -39 90q-40 29 -104 45l-287 57q-124 27 -191 92q-69 66 -69 185q0 67 23 119q24 54 74 95q48 39 129 62t189 23q92 0 170 -18q81 -19 136 -59q57 -42 93 -110q37 -69 44 -170h-178
q-6 60 -29 102q-21 38 -57 63q-35 25 -81 32q-50 8 -98 8zM199 1462h209l120 -123l136 123h208l-344 -297z" />
    <glyph glyph-name="Tcedilla" unicode="&#x162;" horiz-adv-x="1261" 
d="M1235 1235h-512v-1235h-33v-63q92 -23 130 -71q38 -49 38 -120q0 -98 -68 -154q-69 -57 -172 -57q-54 0 -96 13q-40 12 -71 32v152q39 -34 78 -49q37 -15 75 -15q46 0 74 25q27 24 27 69t-29 77q-28 30 -109 52v109h-30v1235h-510v178h1208v-178z" />
    <glyph glyph-name="tcedilla" unicode="&#x163;" horiz-adv-x="798" 
d="M756 0h-207v-63q91 -22 129 -71q37 -47 37 -120q0 -97 -68 -154t-170 -57q-54 0 -96 13t-72 32v152q39 -34 78 -49q37 -15 74 -15q47 0 75 25q27 24 27 69q0 46 -28 77t-111 52v117q-112 21 -174 93q-62 73 -62 225v546h-161v152h161v328h179v-328h389v-152h-389v-546
q0 -106 53 -141q50 -33 153 -33h183v-152z" />
    <glyph glyph-name="Tcaron" unicode="&#x164;" horiz-adv-x="1261" 
d="M1235 1235h-512v-1235h-186v1235h-510v178h1208v-178zM293 1831h209l121 -123l135 123h209l-344 -297z" />
    <glyph glyph-name="tcaron" unicode="&#x165;" horiz-adv-x="798" 
d="M756 0h-217q-84 0 -147 16q-62 16 -109 55t-70 100q-25 66 -25 155v546h-161v152h161v328h179v-328h389v-152h-389v-546q0 -106 53 -141q50 -33 153 -33h183v-152zM520 1479h236l-125 -312h-111v312z" />
    <glyph glyph-name="Umacron" unicode="&#x16a;" horiz-adv-x="1384" 
d="M119 1413h186v-919q0 -100 25 -169q25 -67 72 -106q48 -39 121 -54q72 -15 169 -15q96 0 168 15t120 54q49 40 73 106t24 169v919h189v-919q0 -268 -143 -396q-142 -127 -431 -127t-431 127t-142 396v919zM1008 1593h-631v152h631v-152z" />
    <glyph glyph-name="umacron" unicode="&#x16b;" horiz-adv-x="1138" 
d="M301 305q0 -59 14 -93q15 -36 44 -55q30 -19 72 -27q39 -7 97 -7q56 0 110 12q51 11 97 43q42 29 70 84q26 51 26 135v627h179v-1024h-179v102h-20q-61 -63 -135 -96q-78 -35 -187 -35q-76 0 -150 16q-69 15 -116 53q-46 37 -73 102t-27 163v719h178v-719zM885 1225h-631
v151h631v-151z" />
    <glyph glyph-name="Uring" unicode="&#x16e;" horiz-adv-x="1384" 
d="M119 1413h186v-919q0 -100 25 -169q25 -67 72 -106q48 -39 121 -54q72 -15 169 -15q96 0 168 15t120 54q49 40 73 106t24 169v919h189v-919q0 -268 -143 -396q-142 -127 -431 -127t-431 127t-142 396v919zM692 1630q94 0 94 92q0 90 -94 90q-96 0 -96 -90q0 -92 96 -92z
M692 1520q-113 0 -171 49t-58 153q0 203 229 203q111 0 169 -49q59 -50 59 -154q0 -103 -59 -153q-58 -49 -169 -49z" />
    <glyph glyph-name="uring" unicode="&#x16f;" horiz-adv-x="1138" 
d="M301 305q0 -59 14 -93q15 -36 44 -55q30 -19 72 -27q39 -7 97 -7q56 0 110 12q51 11 97 43q42 29 70 84q26 51 26 135v627h179v-1024h-179v102h-20q-61 -63 -135 -96q-78 -35 -187 -35q-76 0 -150 16q-69 15 -116 53q-46 37 -73 102t-27 163v719h178v-719zM571 1262
q95 0 95 92q0 90 -95 90q-96 0 -96 -90q0 -92 96 -92zM571 1151q-113 0 -171 49t-58 154q0 202 229 202q111 0 169 -49q59 -50 59 -153q0 -104 -59 -154q-58 -49 -169 -49z" />
    <glyph glyph-name="Uhungarumlaut" unicode="&#x170;" horiz-adv-x="1384" 
d="M119 1413h186v-919q0 -100 25 -169q25 -67 72 -106q48 -39 121 -54q72 -15 169 -15q96 0 168 15t120 54q49 40 73 106t24 169v919h189v-919q0 -268 -143 -396q-142 -127 -431 -127t-431 127t-142 396v919zM516 1540l74 330h188l-145 -330h-117zM772 1540l135 330h215
l-219 -330h-131z" />
    <glyph glyph-name="uhungarumlaut" unicode="&#x171;" horiz-adv-x="1138" 
d="M301 305q0 -59 14 -93q15 -36 44 -55q30 -19 72 -27q39 -7 97 -7q56 0 110 12q51 11 97 43q42 29 70 84q26 51 26 135v627h179v-1024h-179v102h-20q-61 -63 -135 -96q-78 -35 -187 -35q-76 0 -150 16q-69 15 -116 53q-46 37 -73 102t-27 163v719h178v-719zM385 1171
l74 330h188l-145 -330h-117zM641 1171l135 330h215l-219 -330h-131z" />
    <glyph glyph-name="Uogonek" unicode="&#x172;" horiz-adv-x="1384" 
d="M119 1413h186v-919q0 -100 25 -169q25 -67 72 -106q48 -39 121 -54q72 -15 169 -15q96 0 168 15t120 54q49 40 73 106t24 169v919h189v-919q0 -424 -373 -502q-63 -28 -96 -55q-33 -28 -53 -57q-16 -23 -21 -52q-4 -21 -4 -41q0 -49 31 -75q29 -25 79 -25q25 0 55 13
q32 14 64 50v-149q-68 -50 -151 -50q-61 0 -105 21q-41 20 -69 51q-26 29 -39 66t-13 65q0 74 31 127q30 51 90 90q-289 0 -431 127t-142 396v919z" />
    <glyph glyph-name="uogonek" unicode="&#x173;" horiz-adv-x="1138" 
d="M831 0v102h-20q-61 -63 -135 -96q-78 -35 -187 -35q-76 0 -150 16q-69 15 -116 53q-46 37 -73 102t-27 163v719h178v-719q0 -59 14 -93q15 -36 44 -55q30 -19 72 -27q39 -7 97 -7q56 0 110 12q51 11 97 43q42 29 70 84q26 51 26 135v627h179v-1024q-73 -29 -110 -56
q-39 -29 -59 -60q-21 -32 -25 -55q-5 -28 -5 -42q0 -49 31 -75q29 -25 80 -25q24 0 54 13q32 14 64 50v-149q-68 -50 -151 -50q-61 0 -105 21q-41 20 -69 51q-26 29 -39 66q-12 35 -12 65q0 91 44 149q43 56 132 97h-9z" />
    <glyph glyph-name="Ydieresis" unicode="&#x178;" horiz-adv-x="1353" 
d="M229 1413l455 -770l446 770h213l-569 -967v-446h-188v446l-576 967h219zM375 1575v199h190v-199h-190zM793 1575v199h190v-199h-190z" />
    <glyph glyph-name="Zacute" unicode="&#x179;" horiz-adv-x="1204" 
d="M1145 0h-1086v106l797 1129h-731v178h1005v-98l-800 -1137h815v-178zM535 1536l155 311h252l-270 -311h-137z" />
    <glyph glyph-name="zacute" unicode="&#x17a;" horiz-adv-x="940" 
d="M43 104l584 768h-539v152h778v-90l-596 -782h627v-152h-854v104zM401 1167l156 312h252l-270 -312h-138z" />
    <glyph glyph-name="Zdotaccent" unicode="&#x17b;" horiz-adv-x="1204" 
d="M1145 0h-1086v106l797 1129h-731v178h1005v-98l-800 -1137h815v-178zM504 1581v193h196v-193h-196z" />
    <glyph glyph-name="zdotaccent" unicode="&#x17c;" horiz-adv-x="940" 
d="M43 104l584 768h-539v152h778v-90l-596 -782h627v-152h-854v104zM373 1212v193h196v-193h-196z" />
    <glyph glyph-name="Zcaron" unicode="&#x17d;" horiz-adv-x="1204" 
d="M1145 0h-1086v106l797 1129h-731v178h1005v-98l-800 -1137h815v-178zM266 1831h209l121 -123l135 123h209l-344 -297z" />
    <glyph glyph-name="zcaron" unicode="&#x17e;" horiz-adv-x="940" 
d="M43 104l584 768h-539v152h778v-90l-596 -782h627v-152h-854v104zM133 1462h209l121 -123l135 123h209l-344 -297z" />
    <glyph glyph-name="uni018F" unicode="&#x18f;" horiz-adv-x="1474" 
d="M733 1442q147 0 268 -31q115 -29 199 -112q82 -81 124 -224q42 -144 42 -370q0 -219 -40 -360q-41 -144 -119 -225q-81 -84 -197 -116q-118 -33 -277 -33q-131 0 -245 27q-113 27 -198 91t-133 171q-48 106 -48 264v228h1067q-4 167 -35 271q-30 103 -87 155
q-57 53 -136 69q-82 17 -185 17q-89 0 -159 -12q-71 -12 -122 -44q-52 -33 -86 -92t-49 -155h-196q12 140 59 234q46 92 125 148t185 77q113 22 243 22zM733 150q97 0 173 15q77 15 132 61t88 130q32 82 43 222h-874v-54q0 -116 37 -187q39 -74 97 -115q60 -42 139 -57
q80 -15 165 -15z" />
    <glyph glyph-name="florin" unicode="&#x192;" horiz-adv-x="989" 
d="M172 -242q96 0 138 47t42 170v897h-219v152h219v47q0 67 16 134q15 63 52 109q36 45 95 72t144 27h201v-151h-198q-71 0 -102 -48q-30 -46 -30 -143v-47h330v-152h-330v-897q0 -192 -85 -280t-271 -88h-41v151h39z" />
    <glyph glyph-name="uni01DD" unicode="&#x1dd;" horiz-adv-x="1146" 
d="M98 569h774q-1 99 -23 165q-21 63 -61 102q-37 36 -94 51q-52 14 -123 14q-113 0 -181 -34q-70 -35 -99 -138h-176q39 183 151 253q113 71 305 71q116 0 206 -26q91 -26 150 -88q61 -64 92 -165q32 -104 32 -256q0 -158 -33 -263q-33 -106 -95 -168t-154 -89
q-91 -27 -208 -27q-224 0 -344 112q-119 111 -119 359v127zM561 123q66 0 121 12q56 12 96 45q42 34 65 92q22 56 27 154h-594q0 -90 21 -149q22 -61 57 -93q38 -35 89 -48t118 -13z" />
    <glyph glyph-name="Scommaaccent" unicode="&#x218;" horiz-adv-x="1347" 
d="M651 -29q-129 0 -234 24q-104 24 -181 81q-75 56 -119 151q-42 92 -47 236h198q4 -97 35 -160q29 -59 82 -95q50 -34 119 -46q68 -12 147 -12q123 0 199 16q77 16 123 47q43 29 62 74q18 43 18 98q0 56 -19 96q-18 37 -51 60q-33 22 -77 36q-33 10 -93 23l-373 74
q-165 33 -244 133t-79 242q0 79 27 151q26 70 92 125q65 54 168 85q107 32 262 32q126 0 232 -23q102 -22 179 -78q75 -55 119 -148q43 -92 49 -232h-194q-6 96 -38 157q-31 58 -82 91q-48 31 -118 43q-67 12 -147 12q-116 0 -186 -18q-72 -18 -108 -47q-38 -30 -51 -69
q-14 -40 -14 -81q0 -82 44 -135q42 -50 147 -72l379 -76q85 -17 159 -46q67 -26 116 -72q45 -42 70 -107q23 -60 23 -156q0 -93 -32 -171t-102 -130q-72 -53 -183 -83q-112 -30 -277 -30zM545 -539l84 211h-86v226h229v-195l-145 -242h-82z" />
    <glyph glyph-name="scommaaccent" unicode="&#x219;" horiz-adv-x="1071" 
d="M532 901q-74 0 -118 -10q-49 -11 -75 -30q-27 -19 -39 -47q-11 -25 -11 -60q0 -59 42 -89q43 -31 111 -47l275 -53q135 -28 199 -94q65 -67 65 -184q0 -145 -103 -230q-104 -86 -348 -86q-92 0 -176 19q-80 18 -140 60q-59 41 -96 112q-36 70 -44 172h174q6 -65 30 -105
t61 -64t87 -33q49 -9 104 -9q84 0 136 12q54 12 85 33q33 22 44 50q12 30 12 67q0 61 -39 90q-40 29 -104 45l-287 57q-124 27 -191 92q-69 66 -69 185q0 67 23 119q24 54 74 95q48 39 129 62t189 23q92 0 170 -18q81 -19 136 -59q57 -42 93 -110q37 -69 44 -170h-178
q-6 60 -29 102q-21 38 -57 63q-35 25 -81 32q-50 8 -98 8zM422 -539l84 211h-86v226h229v-195l-145 -242h-82z" />
    <glyph glyph-name="Tcommaaccent" unicode="&#x21a;" horiz-adv-x="1261" 
d="M1235 1235h-512v-1235h-186v1235h-510v178h1208v-178zM518 -539l84 211h-86v226h229v-195l-145 -242h-82z" />
    <glyph glyph-name="tcommaaccent" unicode="&#x21b;" horiz-adv-x="798" 
d="M756 0h-217q-84 0 -147 16q-62 16 -109 55t-70 100q-25 66 -25 155v546h-161v152h161v328h179v-328h389v-152h-389v-546q0 -106 53 -141q50 -33 153 -33h183v-152zM375 -539l84 211h-86v226h229v-195l-145 -242h-82z" />
    <glyph glyph-name="uni0259" unicode="&#x259;" horiz-adv-x="1146" 
d="M98 569h774q-1 99 -23 165q-21 63 -61 102q-37 36 -94 51q-52 14 -123 14q-113 0 -181 -34q-70 -35 -99 -138h-176q39 183 151 253q113 71 305 71q116 0 206 -26q91 -26 150 -88q61 -64 92 -165q32 -104 32 -256q0 -158 -33 -263q-33 -106 -95 -168t-154 -89
q-91 -27 -208 -27q-224 0 -344 112q-119 111 -119 359v127zM561 123q66 0 121 12q56 12 96 45q42 34 65 92q22 56 27 154h-594q0 -90 21 -149q22 -61 57 -93q38 -35 89 -48t118 -13z" />
    <glyph glyph-name="afii57929" unicode="&#x2bc;" horiz-adv-x="483" 
d="M117 1479h235l-125 -312h-110v312z" />
    <glyph glyph-name="circumflex" unicode="&#x2c6;" horiz-adv-x="909" 
d="M315 1171h-198l332 330l329 -330h-196l-133 148z" />
    <glyph glyph-name="caron" unicode="&#x2c7;" horiz-adv-x="907" 
d="M117 1462h209l120 -123l136 123h209l-345 -297z" />
    <glyph glyph-name="breve" unicode="&#x2d8;" horiz-adv-x="835" 
d="M418 1167q-156 0 -229 71q-72 70 -72 218h145q0 -82 36 -117q35 -34 120 -34q83 0 118 34t35 117h148q0 -147 -74 -218t-227 -71z" />
    <glyph glyph-name="dotaccent" unicode="&#x2d9;" horiz-adv-x="430" 
d="M117 1212v193h196v-193h-196z" />
    <glyph glyph-name="ring" unicode="&#x2da;" horiz-adv-x="690" 
d="M346 1262q94 0 94 92q0 90 -94 90q-96 0 -96 -90q0 -92 96 -92zM346 1151q-113 0 -171 49t-58 154q0 202 229 202q111 0 169 -49t58 -153q0 -105 -58 -154t-169 -49z" />
    <glyph glyph-name="ogonek" unicode="&#x2db;" horiz-adv-x="610" 
d="M293 109h72l98 -109q-73 -29 -110 -56q-39 -29 -59 -60q-21 -32 -25 -55q-5 -28 -5 -42q0 -49 31 -75q29 -25 80 -25q24 0 54 13q34 14 65 50v-149q-68 -50 -152 -50q-60 0 -104 21q-43 21 -70 51q-26 29 -39 66q-12 35 -12 65q0 91 44 149q43 56 132 97v109z" />
    <glyph glyph-name="tilde" unicode="&#x2dc;" horiz-adv-x="909" 
d="M315 1450q47 0 86 -18q30 -14 73 -40q23 -14 62 -40q28 -19 48 -19q29 0 44 20t11 72h154q0 -117 -50 -178q-49 -59 -141 -59q-48 0 -87 19q-43 21 -75 43q-14 9 -37 25t-26 18q-29 20 -51 20q-23 0 -42 -19q-18 -18 -14 -77h-153q1 120 54 177q52 56 144 56z" />
    <glyph glyph-name="hungarumlaut" unicode="&#x2dd;" horiz-adv-x="839" 
d="M117 1171l73 330h189l-146 -330h-116zM373 1171l135 330h215l-219 -330h-131z" />
    <glyph glyph-name="acutecomb" unicode="&#x301;" horiz-adv-x="0" 
d="M-657 1167l155 312h252l-270 -312h-137z" />
    <glyph glyph-name="uni0394" unicode="&#x394;" horiz-adv-x="1339" 
d="M608 1413h129l600 -1413h-1335zM274 170h787l-389 936z" />
    <glyph glyph-name="uni0394" unicode="&#x2206;" horiz-adv-x="1339" 
d="M608 1413h129l600 -1413h-1335zM274 170h787l-389 936z" />
    <glyph glyph-name="uni03A9" unicode="&#x3a9;" horiz-adv-x="1458" 
d="M842 446q112 12 185 46q72 34 110 82t52 117q13 64 13 149q0 102 -15 181q-15 78 -65 133t-142 83q-95 29 -251 29q-154 0 -250 -29q-92 -28 -143 -83q-50 -55 -65 -133q-15 -79 -15 -181q0 -85 13 -149q14 -66 52 -117q37 -49 108 -82q73 -34 185 -46v-446h-485v160h338
v151q-111 24 -189 71q-78 48 -124 114q-48 70 -67 153t-19 191q0 143 28 254q28 110 103 190q74 79 202 119q131 41 328 41q198 0 327 -41q126 -40 202 -119t104 -190q29 -114 29 -254q0 -103 -21 -190q-22 -90 -66 -154q-46 -68 -123 -114q-77 -47 -190 -71v-151h336v-160
h-485v446z" />
    <glyph glyph-name="uni03A9" unicode="&#x2126;" horiz-adv-x="1458" 
d="M842 446q112 12 185 46q72 34 110 82t52 117q13 64 13 149q0 102 -15 181q-15 78 -65 133t-142 83q-95 29 -251 29q-154 0 -250 -29q-92 -28 -143 -83q-50 -55 -65 -133q-15 -79 -15 -181q0 -85 13 -149q14 -66 52 -117q37 -49 108 -82q73 -34 185 -46v-446h-485v160h338
v151q-111 24 -189 71q-78 48 -124 114q-48 70 -67 153t-19 191q0 143 28 254q28 110 103 190q74 79 202 119q131 41 328 41q198 0 327 -41q126 -40 202 -119t104 -190q29 -114 29 -254q0 -103 -21 -190q-22 -90 -66 -154q-46 -68 -123 -114q-77 -47 -190 -71v-151h336v-160
h-485v446z" />
    <glyph glyph-name="pi" unicode="&#x3c0;" horiz-adv-x="1091" 
d="M854 467q0 -86 8 -150q7 -56 25 -94q16 -34 44 -48q26 -13 64 -13v-162h-37q-147 0 -210 111q-64 113 -64 333v426h-340v-870h-180v870h-121v154h952v-154h-141v-403z" />
    <glyph glyph-name="uni0400" unicode="&#x400;" horiz-adv-x="1202" 
d="M1104 0h-975v1413h973v-178h-787v-434h768v-176h-768v-447h789v-178zM309 1847h250l152 -311h-138z" />
    <glyph glyph-name="afii10023" unicode="&#x401;" horiz-adv-x="1202" 
d="M1104 0h-975v1413h973v-178h-787v-434h768v-176h-768v-447h789v-178zM336 1575v199h190v-199h-190zM754 1575v199h190v-199h-190z" />
    <glyph glyph-name="afii10051" unicode="&#x402;" horiz-adv-x="1554" 
d="M1475 430q0 -104 -26 -190q-26 -85 -84 -143q-59 -59 -153 -90q-96 -32 -229 -32v179q92 0 152 18q58 17 93 54q33 35 47 88q13 51 13 118q0 76 -21 127t-60 82q-38 31 -90 44q-51 13 -116 13q-89 0 -151 -7q-77 -9 -127 -21v-670h-186v1235h-510v178h1208v-178h-512
v-393q94 16 126 22q70 13 155 13q218 0 345 -107q126 -106 126 -340z" />
    <glyph glyph-name="afii10052" unicode="&#x403;" horiz-adv-x="1134" 
d="M1083 1235h-768v-1235h-186v1413h954v-178zM557 1536l156 311h252l-271 -311h-137z" />
    <glyph glyph-name="afii10053" unicode="&#x404;" horiz-adv-x="1435" 
d="M1346 463q-12 -143 -59 -239q-46 -94 -124 -151q-77 -56 -183 -79q-107 -23 -239 -23q-157 0 -276 33q-118 33 -198 116q-78 81 -119 225q-39 137 -39 360q0 226 42 370q42 145 123 224q84 83 200 112q122 31 267 31q126 0 236 -22q103 -21 181 -77q77 -56 123 -148
t58 -234h-198q-12 95 -45 155q-32 58 -83 92q-47 32 -119 44q-69 12 -153 12q-94 0 -179 -16q-78 -15 -134 -63t-87 -139q-33 -95 -40 -245h694v-176h-694q6 -150 38 -245q31 -93 87 -144t135 -69q75 -17 180 -17q86 0 155 12t121 46t86 95t46 160h197z" />
    <glyph glyph-name="afii10054" unicode="&#x405;" horiz-adv-x="1347" 
d="M651 -29q-129 0 -234 24q-104 24 -181 81q-75 56 -119 151q-42 92 -47 236h198q4 -97 35 -160q29 -59 82 -95q50 -34 119 -46q68 -12 147 -12q123 0 199 16q77 16 123 47q43 29 62 74q18 43 18 98q0 56 -19 96q-18 37 -51 60q-33 22 -77 36q-33 10 -93 23l-373 74
q-165 33 -244 133t-79 242q0 79 27 151q26 70 92 125q65 54 168 85q107 32 262 32q126 0 232 -23q102 -22 179 -78q75 -55 119 -148q43 -92 49 -232h-194q-6 96 -38 157q-31 58 -82 91q-48 31 -118 43q-67 12 -147 12q-116 0 -186 -18q-72 -18 -108 -47q-38 -30 -51 -69
q-14 -40 -14 -81q0 -82 44 -135q42 -50 147 -72l379 -76q85 -17 159 -46q67 -26 116 -72q45 -42 70 -107q23 -60 23 -156q0 -93 -32 -171t-102 -130q-72 -53 -183 -83q-112 -30 -277 -30z" />
    <glyph glyph-name="afii10055" unicode="&#x406;" horiz-adv-x="444" 
d="M315 0h-186v1413h186v-1413z" />
    <glyph glyph-name="afii10056" unicode="&#x407;" horiz-adv-x="444" 
d="M315 0h-186v1413h186v-1413zM-82 1575v199h191v-199h-191zM336 1575v199h190v-199h-190z" />
    <glyph glyph-name="afii10057" unicode="&#x408;" horiz-adv-x="1253" 
d="M260 463q12 -98 42 -160q29 -60 75 -95q44 -34 103 -46q58 -12 132 -12q104 0 168 26q66 27 103 76q35 47 51 119q14 64 14 155v709h-794v178h981v-887q0 -123 -28 -229q-27 -103 -90 -175q-64 -74 -162 -112q-99 -39 -243 -39q-120 0 -214 24q-97 25 -165 81
q-70 58 -110 151q-41 96 -53 236h190z" />
    <glyph glyph-name="afii10058" unicode="&#x409;" horiz-adv-x="2125" 
d="M434 821q0 -243 -17 -390q-18 -157 -57 -253q-39 -97 -103 -137q-65 -41 -161 -41h-47v182q61 0 102 29q39 27 63 105q25 78 32 213q8 146 8 354v530h932v-555h395q249 0 356 -100q109 -101 109 -320q0 -227 -115 -333q-114 -105 -350 -105h-582v1235h-565v-414z
M1186 680v-502h395q137 0 205 56q69 57 69 204q0 75 -14 118q-16 48 -47 74q-33 27 -86 39q-48 11 -131 11h-391z" />
    <glyph glyph-name="afii10059" unicode="&#x40a;" horiz-adv-x="2177" 
d="M1237 858h395q252 0 359 -100q108 -100 108 -320q0 -228 -114 -333t-351 -105h-583v625h-736v-625h-186v1413h186v-612h736v612h186v-555zM1237 680v-502h397q137 0 205 56q70 58 70 204q0 72 -15 118q-16 48 -47 74q-33 27 -86 39q-48 11 -131 11h-393z" />
    <glyph glyph-name="afii10060" unicode="&#x40b;" horiz-adv-x="1554" 
d="M1235 1235h-512v-393q101 19 118 22q65 13 146 13q225 0 356 -117q132 -118 132 -359v-401h-187v401q0 83 -22 139q-22 55 -63 92t-96 51q-57 15 -122 15q-75 0 -141 -8q-54 -7 -121 -20v-670h-186v1235h-510v178h1208v-178z" />
    <glyph glyph-name="afii10061" unicode="&#x40c;" horiz-adv-x="1251" 
d="M1001 0l-446 637h-240v-637h-186v1413h186v-608h240l422 608h233l-497 -682l528 -731h-240zM559 1536l156 311h252l-271 -311h-137z" />
    <glyph glyph-name="uni040D" unicode="&#x40d;" horiz-adv-x="1370" 
d="M315 354l818 1059h108v-1413h-186v1057l-819 -1057h-107v1413h186v-1059zM354 1847h250l152 -311h-138z" />
    <glyph glyph-name="afii10062" unicode="&#x40e;" horiz-adv-x="1296" 
d="M426 0l149 311l-565 1102h213l451 -893l409 893h203l-655 -1413h-205zM651 1505q-175 0 -255 71q-79 70 -79 202h160q0 -64 41 -91q42 -28 133 -28t133 28q41 27 41 91h160q0 -132 -78 -202q-79 -71 -256 -71z" />
    <glyph glyph-name="afii10145" unicode="&#x40f;" horiz-adv-x="1314" 
d="M1188 0h-436v-354h-187v354h-436v1413h186v-1235h686v1235h187v-1413z" />
    <glyph glyph-name="afii10017" unicode="&#x410;" horiz-adv-x="1355" 
d="M616 1413h129l601 -1413h-205l-109 266h-710l-111 -266h-201zM393 436h570l-281 690z" />
    <glyph glyph-name="afii10018" unicode="&#x411;" horiz-adv-x="1323" 
d="M1221 444q0 -228 -114 -336t-349 -108h-629v1413h991v-178h-805v-363h441q250 0 357 -103q108 -104 108 -325zM315 694v-516h443q134 0 204 59q68 58 68 207q0 76 -13 122q-14 49 -46 77t-86 40q-48 11 -131 11h-439z" />
    <glyph glyph-name="afii10019" unicode="&#x412;" horiz-adv-x="1333" 
d="M983 713q69 -7 119 -38q50 -30 81 -72q30 -41 46 -95q14 -49 14 -111q0 -207 -115 -302t-350 -95h-649v1413h621q240 0 347 -88t107 -295q0 -105 -61 -188q-62 -85 -160 -113v-16zM315 627v-449h463q137 0 206 48t69 175q0 67 -15 110q-16 46 -47 70t-86 35t-131 11h-459
zM315 1235v-436h439q128 0 194 51t66 180q0 61 -14 101q-13 37 -44 62q-30 24 -82 33q-51 9 -124 9h-435z" />
    <glyph glyph-name="afii10020" unicode="&#x413;" horiz-adv-x="1134" 
d="M1083 1235h-768v-1235h-186v1413h954v-178z" />
    <glyph glyph-name="afii10021" unicode="&#x414;" horiz-adv-x="1507" 
d="M1286 178h182v-532h-188v354h-1063v-354h-186v532h139q48 65 77 129q29 65 46 157t21 217q5 140 5 310v422h967v-1235zM502 932q0 -150 -8 -276q-7 -103 -24 -206q-15 -90 -39 -154q-26 -71 -56 -118h725v1057h-598v-303z" />
    <glyph glyph-name="afii10022" unicode="&#x415;" horiz-adv-x="1202" 
d="M1104 0h-975v1413h973v-178h-787v-434h768v-176h-768v-447h789v-178z" />
    <glyph glyph-name="afii10024" unicode="&#x416;" horiz-adv-x="1671" 
d="M928 1413v-606h127l358 606h217l-418 -682l439 -731h-230l-360 639h-133v-639h-185v639h-133l-362 -639h-228l437 729l-418 684h219l356 -606h129v606h185z" />
    <glyph glyph-name="afii10025" unicode="&#x417;" horiz-adv-x="1351" 
d="M1262 399q0 -204 -139 -316t-437 -112q-123 0 -233 23q-111 23 -189 79q-81 58 -128 151q-49 96 -56 239h196q7 -97 45 -163q35 -62 91 -95q53 -32 126 -44q65 -11 148 -11q212 0 297 64q86 65 86 187q0 63 -11 103q-12 44 -41 73t-84 44q-50 14 -140 14h-195v172h190
q82 0 127 19q48 20 72 52q26 34 33 72q8 43 8 82q0 232 -338 232q-67 0 -136 -12q-70 -12 -123 -46q-54 -35 -87 -97q-33 -64 -29 -167h-194q-6 146 39 241q45 94 125 153q78 58 185 82q105 24 220 24q262 0 397 -108q136 -109 136 -298q0 -117 -62 -194t-160 -105v-16
q71 -11 119 -40q50 -30 81 -73q31 -42 46 -96q15 -53 15 -113z" />
    <glyph glyph-name="afii10026" unicode="&#x418;" horiz-adv-x="1370" 
d="M315 354l818 1059h108v-1413h-186v1057l-819 -1057h-107v1413h186v-1059z" />
    <glyph glyph-name="afii10027" unicode="&#x419;" horiz-adv-x="1370" 
d="M315 354l818 1059h108v-1413h-186v1057l-819 -1057h-107v1413h186v-1059zM690 1505q-175 0 -255 71q-79 70 -79 202h160q0 -64 41 -91q42 -28 133 -28t133 28q41 27 41 91h160q0 -132 -78 -202q-79 -71 -256 -71z" />
    <glyph glyph-name="afii10028" unicode="&#x41a;" horiz-adv-x="1251" 
d="M1001 0l-446 637h-240v-637h-186v1413h186v-608h240l422 608h233l-497 -682l528 -731h-240z" />
    <glyph glyph-name="afii10029" unicode="&#x41b;" horiz-adv-x="1347" 
d="M434 821q0 -243 -17 -390q-18 -157 -57 -253q-39 -97 -103 -137q-65 -41 -161 -41h-47v182q61 0 102 29q39 27 63 105q25 78 32 213q8 146 8 354v530h965v-1413h-187v1235h-598v-414z" />
    <glyph glyph-name="afii10030" unicode="&#x41c;" horiz-adv-x="1619" 
d="M315 1081v-1081h-186v1413h133l553 -661l547 661h131v-1413h-186v1077l-496 -581z" />
    <glyph glyph-name="afii10031" unicode="&#x41d;" horiz-adv-x="1400" 
d="M315 801h770v612h187v-1413h-187v625h-770v-625h-186v1413h186v-612z" />
    <glyph glyph-name="afii10032" unicode="&#x41e;" horiz-adv-x="1538" 
d="M768 -29q-164 0 -288 33t-207 116q-83 82 -123 225q-41 144 -41 360q0 224 44 370q43 143 129 224q87 83 207 112q127 31 279 31q154 0 281 -31q120 -29 207 -112q86 -81 129 -224q45 -149 45 -370q0 -217 -42 -360q-42 -142 -125 -225t-207 -116t-288 -33zM768 150
q117 0 203 19q87 19 147 79t90 169q31 113 31 288q0 179 -31 294q-29 109 -91 169q-61 59 -147 77q-92 19 -202 19q-112 0 -201 -18q-87 -18 -147 -76q-60 -59 -90 -169q-31 -115 -31 -296q0 -175 31 -288q30 -109 90 -169t147 -79q86 -19 201 -19z" />
    <glyph glyph-name="afii10033" unicode="&#x41f;" horiz-adv-x="1384" 
d="M1255 0h-188v1235h-752v-1235h-186v1413h1126v-1413z" />
    <glyph glyph-name="afii10034" unicode="&#x420;" horiz-adv-x="1320" 
d="M1241 922q0 -273 -115 -399q-114 -124 -354 -124h-457v-399h-186v1413h641q126 0 214 -27q91 -28 146 -86q57 -60 84 -152q27 -93 27 -226zM315 1235v-660h457q140 0 209 76q70 78 70 271q0 94 -15 154q-15 62 -47 96q-33 36 -86 50q-51 13 -133 13h-455z" />
    <glyph glyph-name="afii10035" unicode="&#x421;" horiz-adv-x="1454" 
d="M1364 463q-12 -145 -60 -239t-126 -151q-77 -56 -187 -79t-241 -23q-160 0 -280 33t-200 116q-80 82 -120 225q-41 144 -41 360q0 228 43 370q44 145 124 224q84 83 202 112q124 31 272 31q127 0 239 -22q106 -21 185 -77q78 -55 124 -148q48 -97 60 -234h-199
q-12 96 -46 155t-85 92q-49 32 -122 44q-70 12 -156 12q-111 0 -195 -18q-83 -18 -140 -76q-56 -57 -86 -169q-30 -111 -30 -296q0 -179 30 -288q30 -110 86 -169q57 -60 140 -79q82 -19 195 -19q85 0 157 12t124 46q53 35 87 95q35 63 47 160h199z" />
    <glyph glyph-name="afii10036" unicode="&#x422;" horiz-adv-x="1261" 
d="M1235 1235h-512v-1235h-186v1235h-510v178h1208v-178z" />
    <glyph glyph-name="afii10037" unicode="&#x423;" horiz-adv-x="1296" 
d="M426 0l149 311l-565 1102h213l451 -893l409 893h203l-655 -1413h-205z" />
    <glyph glyph-name="afii10038" unicode="&#x424;" horiz-adv-x="1812" 
d="M100 737q0 320 142 470q141 149 430 149h141v133h186v-133h142q290 0 431 -149q140 -147 140 -470q0 -341 -141 -499t-410 -158h-162v-156h-186v156h-162q-265 0 -408 158t-143 499zM999 1178v-920h162q85 0 151 24q69 25 113 78q48 57 73 148q26 93 26 229
q0 123 -23 209t-68 135q-47 51 -119 74q-74 23 -173 23h-142zM289 737q0 -139 25 -229q25 -91 73 -148q44 -53 114 -78q66 -24 150 -24h162v920h-141q-99 0 -173 -23q-72 -23 -119 -74q-46 -51 -69 -135q-22 -82 -22 -209z" />
    <glyph glyph-name="afii10039" unicode="&#x425;" horiz-adv-x="1302" 
d="M651 575l-393 -575h-238l521 709l-496 704h236l376 -563l373 563h227l-489 -704l516 -709h-235z" />
    <glyph glyph-name="afii10040" unicode="&#x426;" horiz-adv-x="1421" 
d="M315 178h686v1235h187v-1235h192v-532h-186v354h-1065v1413h186v-1235z" />
    <glyph glyph-name="afii10041" unicode="&#x427;" horiz-adv-x="1277" 
d="M90 1413h186v-485q0 -81 28 -140q27 -56 77 -93q50 -36 118 -51q69 -15 150 -15q97 0 167 7q89 9 147 21v756h186v-1413h-186v487q-24 -4 -72 -11.5t-72 -11.5q-66 -11 -174 -11q-255 0 -404 116q-151 118 -151 359v485z" />
    <glyph glyph-name="afii10042" unicode="&#x428;" horiz-adv-x="1800" 
d="M315 178h492v1235h186v-1235h492v1235h186v-1413h-1542v1413h186v-1235z" />
    <glyph glyph-name="afii10043" unicode="&#x429;" horiz-adv-x="1904" 
d="M315 178h492v1235h186v-1235h492v1235h186v-1235h193v-532h-187v354h-1548v1413h186v-1235z" />
    <glyph glyph-name="afii10044" unicode="&#x42a;" horiz-adv-x="1441" 
d="M1362 438q0 -228 -114 -333t-349 -105h-549v1235h-319v178h506v-555h360q250 0 357 -100q108 -100 108 -320zM537 680v-502h362q136 0 204 56t68 204q0 75 -14 118q-15 48 -46 74q-31 27 -85 39q-48 11 -131 11h-358z" />
    <glyph glyph-name="afii10045" unicode="&#x42b;" horiz-adv-x="1583" 
d="M1085 438q0 -229 -113 -333q-114 -105 -349 -105h-494v1413h186v-555h308q247 0 354 -100q108 -100 108 -320zM315 680v-502h308q136 0 202 56q68 57 68 204q0 73 -13 118q-14 48 -46 74q-33 27 -85 39q-48 11 -131 11h-303zM1454 0h-186v1413h186v-1413z" />
    <glyph glyph-name="afii10046" unicode="&#x42c;" horiz-adv-x="1288" 
d="M1210 438q0 -228 -114 -333t-351 -105h-616v1413h186v-555h428q252 0 359 -100q108 -100 108 -320zM315 680v-502h430q137 0 205 56q70 58 70 204q0 75 -14 118q-15 47 -48 74t-86 39q-48 11 -131 11h-426z" />
    <glyph glyph-name="afii10047" unicode="&#x42d;" horiz-adv-x="1435" 
d="M287 463q12 -99 46 -160t86 -95q51 -34 122 -46q69 -12 153 -12q107 0 182 17q78 18 134 69t87 144q32 95 38 245h-695v176h695q-7 147 -40 242q-31 91 -87 141q-55 49 -135 64q-85 16 -179 16q-83 0 -152 -12q-72 -12 -119 -44q-51 -34 -83 -92q-33 -60 -45 -155h-199
q12 140 59 234q46 92 123 148q78 56 181 77q110 22 235 22q148 0 269 -31q114 -29 198 -112q82 -81 124 -224q42 -144 42 -370q0 -219 -40 -360q-41 -144 -119 -225q-81 -84 -197 -116q-119 -33 -277 -33q-128 0 -237 23q-108 23 -185 79q-78 57 -124 151q-46 93 -58 239
h197z" />
    <glyph glyph-name="afii10048" unicode="&#x42e;" horiz-adv-x="1910" 
d="M1186 -29q-148 0 -259 30q-114 31 -189 103q-76 73 -118 201q-43 131 -49 320h-256v-625h-186v1413h186v-612h258q7 191 54 320q45 124 123 196q77 71 187 98q109 27 249 27q142 0 260 -31q112 -29 193 -112q80 -81 120 -224q41 -146 41 -370q0 -216 -38 -360
q-38 -143 -114 -225q-77 -83 -193 -116q-115 -33 -269 -33zM1186 1264q-104 0 -184 -18q-79 -18 -133 -76q-56 -60 -82 -169q-27 -111 -27 -296q0 -179 27 -288q26 -107 82 -169q54 -60 133 -79q77 -19 184 -19q105 0 182 19q81 20 133 79q55 63 81 169q28 114 28 288
q0 179 -28 294q-26 108 -81 169q-53 59 -133 77q-84 19 -182 19z" />
    <glyph glyph-name="afii10049" unicode="&#x42f;" horiz-adv-x="1302" 
d="M987 0v483h-412l-249 -483h-226l283 500q-281 74 -281 458q0 124 27 209q28 88 85 142q59 56 148 80q90 24 216 24h596v-1413h-187zM291 958q0 -90 15 -148t49 -92t88 -46q59 -13 130 -13h414v576h-409q-85 0 -136 -11q-54 -12 -89 -42q-32 -28 -48 -84q-14 -49 -14 -140
z" />
    <glyph glyph-name="afii10065" unicode="&#x430;" horiz-adv-x="1110" 
d="M436 -29q-73 0 -141 17q-66 17 -112 55q-44 37 -72 100q-27 61 -27 152q0 59 16 114q16 56 60 100q46 46 119 72q77 27 194 27q71 0 100 -1q14 0 41.5 -0.5t40.5 -1.5q39 -1 75 -3q10 0 36.5 -1.5t42.5 -2.5v96q0 114 -58 160q-59 47 -196 47q-58 0 -108 -8
q-44 -7 -77 -32q-34 -26 -52 -63q-20 -40 -27 -102h-172q11 103 43 171q33 70 87 110q53 40 131 58q76 18 175 18q204 0 317 -82q115 -83 115 -277v-694h-178v104h-21q-77 -76 -162 -104q-87 -29 -190 -29zM496 123q57 0 111 10q58 11 102 40q45 30 72 82q28 54 28 134v78
q-78 5 -145 6q-90 2 -125 2q-97 0 -147 -14q-57 -16 -83 -38q-30 -25 -38 -56q-9 -33 -9 -70q0 -102 57 -138t177 -36z" />
    <glyph glyph-name="afii10066" unicode="&#x431;" horiz-adv-x="1175" 
d="M600 -29q-122 0 -217 27q-97 28 -158 89q-64 64 -95 169q-32 108 -32 266q0 167 4 284q5 136 38 240q34 107 112 186q77 78 225 122q56 16 112 31.5t110 31t77 22.5q114 32 168 58l55 -154q-34 -16 -78 -32q-36 -13 -91 -30q-67 -20 -119 -35q-27 -7 -89 -24.5t-83 -23.5
q-100 -29 -152 -78q-55 -52 -78 -102q-23 -51 -28 -103q-1 -12 -3 -29t-3 -28.5t-1 -19.5h21q52 77 140 109t208 32q91 0 174 -22q80 -21 138 -76q59 -56 92 -151q32 -92 32 -243q0 -149 -31 -246q-31 -98 -93 -160q-61 -61 -149 -85q-92 -25 -206 -25zM600 123q75 0 128 14
q58 15 95 54q40 41 59 112q19 70 19 184q0 106 -19 170q-19 65 -58 104q-38 38 -94 51q-55 13 -132 13q-75 0 -131 -14q-59 -15 -102 -52t-67 -104q-24 -66 -24 -168q0 -109 22 -184q21 -71 63 -112q40 -38 103 -54q56 -14 138 -14z" />
    <glyph glyph-name="afii10067" unicode="&#x432;" horiz-adv-x="1069" 
d="M129 1024h494q90 0 158 -22q65 -21 105 -57q39 -35 58 -83q19 -49 19 -96q0 -77 -39 -143t-115 -88v-27q86 -23 133 -86q47 -64 47 -150q0 -56 -18 -106q-17 -47 -59 -86q-40 -37 -101 -58q-64 -22 -147 -22h-535v1024zM307 446v-294h320q88 0 136 32q50 33 50 111
q0 64 -35 108q-34 43 -137 43h-334zM307 872v-282h334q83 0 114 43t31 102q0 64 -33 100q-34 37 -145 37h-301z" />
    <glyph glyph-name="afii10068" unicode="&#x433;" horiz-adv-x="880" 
d="M129 1024h702v-154h-524v-870h-178v1024z" />
    <glyph glyph-name="afii10069" unicode="&#x434;" horiz-adv-x="1218" 
d="M248 1024h774v-870h160v-451h-178v297h-797v-297h-178v451h104q37 22 60 72q21 47 34 121t17 157q4 76 4 180v340zM420 662q0 -189 -24 -313t-64 -195h512v716h-424v-208z" />
    <glyph glyph-name="afii10070" unicode="&#x435;" horiz-adv-x="1146" 
d="M1051 444h-777q1 -94 25 -160q23 -64 62 -99q40 -35 98 -49q55 -13 129 -13q110 0 181 34q72 35 87 138h176q-12 -93 -48 -154q-37 -63 -92 -99q-57 -38 -133 -54q-79 -17 -171 -17q-117 0 -210 26q-92 26 -154 88t-94 165q-32 104 -32 256q0 156 32 263t94 169
q64 64 154 89q93 26 208 26q224 0 345 -112q120 -111 120 -359v-138zM586 901q-66 0 -121 -12q-53 -12 -95 -47q-40 -34 -65 -96t-29 -158h594q0 96 -19 154q-20 63 -56 97q-37 35 -90 49q-51 13 -119 13z" />
    <glyph glyph-name="afii10072" unicode="&#x436;" horiz-adv-x="1441" 
d="M510 608h121v416h178v-416h123l246 416h206l-301 -485l334 -539h-211l-262 455h-135v-455h-178v455h-135l-265 -455h-206l333 539l-301 485h207z" />
    <glyph glyph-name="afii10073" unicode="&#x437;" horiz-adv-x="1062" 
d="M537 901q-55 0 -106 -8q-47 -7 -84 -32q-36 -24 -56 -63q-21 -40 -27 -102h-176q6 104 40 170q35 69 91 110q55 40 137 59q79 18 181 18q114 0 197 -23q82 -23 130 -62q51 -41 71 -91q21 -51 21 -111q0 -86 -37 -145q-36 -58 -106 -86v-27q83 -22 126 -81q44 -59 44 -157
q0 -62 -25 -120q-24 -55 -77 -96q-51 -39 -140 -61q-90 -22 -206 -22q-105 0 -192 19q-83 18 -140 60q-56 41 -90 112q-33 69 -39 172h174q12 -126 82 -169q69 -42 205 -42q135 0 203 37q69 38 69 135q0 66 -34 107q-35 42 -136 42h-217v148h217q83 0 113 42t30 103
q0 35 -9 65q-9 29 -36 52q-28 23 -75 35q-48 12 -123 12z" />
    <glyph glyph-name="afii10074" unicode="&#x438;" horiz-adv-x="1126" 
d="M821 0v700l-588 -700h-104v1024h178v-711l588 711h102v-1024h-176z" />
    <glyph glyph-name="afii10075" unicode="&#x439;" horiz-adv-x="1126" 
d="M821 0v700l-588 -700h-104v1024h178v-711l588 711h102v-1024h-176zM563 1167q-155 0 -228 71t-73 218h146q0 -83 35 -117t120 -34q83 0 118 34q36 35 36 117h147q0 -148 -73 -218q-74 -71 -228 -71z" />
    <glyph glyph-name="afii10076" unicode="&#x43a;" horiz-adv-x="1040" 
d="M307 608h193l299 416h202l-360 -489l381 -535h-213l-309 455h-193v-455h-178v1024h178v-416z" />
    <glyph glyph-name="afii10077" unicode="&#x43b;" horiz-adv-x="1097" 
d="M193 1024h776v-1024h-176v870h-431v-426q0 -223 -64 -333q-64 -111 -212 -111h-37v162q40 0 66 13t44 48q17 33 25 94q9 72 9 150v557z" />
    <glyph glyph-name="afii10078" unicode="&#x43c;" horiz-adv-x="1310" 
d="M307 690v-690h-178v1024h100l426 -506l426 506h101v-1024h-176v690l-353 -399z" />
    <glyph glyph-name="afii10079" unicode="&#x43d;" horiz-adv-x="1144" 
d="M307 608h531v416h178v-1024h-178v455h-531v-455h-178v1024h178v-416z" />
    <glyph glyph-name="afii10080" unicode="&#x43e;" horiz-adv-x="1177" 
d="M588 123q76 0 134 15q56 14 98 58q42 43 62 116q21 75 21 194q0 124 -21 200t-62 120q-43 46 -99 60q-60 15 -133 15q-74 0 -132 -15t-99 -59q-39 -42 -60 -120t-21 -201q0 -119 21 -194q21 -76 60 -116q42 -43 99 -58q58 -15 132 -15zM588 1053q119 0 212 -26
q89 -25 153 -89q63 -63 95 -169q31 -103 31 -263q0 -156 -31 -256q-31 -101 -95 -165q-63 -63 -153 -88q-93 -26 -212 -26q-117 0 -210 26q-92 26 -154 88t-94 165q-32 104 -32 256q0 156 32 263t94 169q64 64 154 89q93 26 210 26z" />
    <glyph glyph-name="afii10081" unicode="&#x43f;" horiz-adv-x="1144" 
d="M129 1024h887v-1024h-178v870h-531v-870h-178v1024z" />
    <glyph glyph-name="afii10082" unicode="&#x440;" horiz-adv-x="1183" 
d="M659 -29q-101 0 -186 30q-86 30 -145 101h-21v-471h-178v1393h178v-102h21q59 71 145 101q85 30 186 30q97 0 180 -22q77 -20 134 -82q55 -60 84 -166q28 -103 28 -271t-28 -271q-29 -106 -84 -166q-57 -62 -134 -82q-83 -22 -180 -22zM596 901q-60 0 -107 -11
q-52 -12 -91 -41q-40 -30 -64 -79q-26 -53 -27 -127v-246q0 -83 24 -135q26 -56 63 -84q43 -32 92 -43q52 -12 110 -12q83 0 143 12t98 53q37 39 55 118q17 72 17 206t-17 206q-18 79 -55 118q-38 41 -98 53t-143 12z" />
    <glyph glyph-name="afii10083" unicode="&#x441;" horiz-adv-x="1124" 
d="M1047 334q-12 -102 -50 -172q-39 -72 -95 -112q-58 -42 -138 -60q-84 -19 -176 -19q-117 0 -210 26q-92 26 -154 88t-94 165q-32 104 -32 256q0 156 32 263t94 169q64 64 154 89q93 26 210 26q94 0 172 -18q79 -18 136 -59q56 -40 95 -110q35 -64 51 -170h-178
q-10 60 -35 102q-23 38 -60 63t-82 32q-50 8 -99 8q-74 0 -132 -15t-99 -59q-39 -42 -60 -120t-21 -201q0 -119 21 -194q21 -76 60 -116q42 -43 99 -58q58 -15 132 -15q55 0 103 9q47 9 85 33q39 25 62 64t34 105h175z" />
    <glyph glyph-name="afii10084" unicode="&#x442;" horiz-adv-x="929" 
d="M901 1024v-154h-348v-870h-176v870h-348v154h872z" />
    <glyph glyph-name="afii10085" unicode="&#x443;" horiz-adv-x="1099" 
d="M483 59l-469 965h195l362 -774l322 774h192l-610 -1393h-184z" />
    <glyph glyph-name="afii10086" unicode="&#x444;" horiz-adv-x="1402" 
d="M791 1049h18q116 0 209 -26q94 -26 156 -88q63 -63 97 -167q34 -103 34 -262q0 -154 -34 -255q-34 -102 -97 -163q-62 -61 -156 -87q-93 -26 -209 -26h-18v-344h-179v344h-20q-116 0 -209 26q-92 26 -155 87q-61 60 -96 163q-34 101 -34 255q0 159 34 262q35 106 96 167
q62 62 155 88t209 26h20v364h179v-364zM612 125v774h-20q-73 0 -133 -15t-101 -59q-42 -45 -62 -119q-22 -80 -22 -200q0 -116 22 -193q21 -72 62 -115q42 -43 101 -58q60 -15 133 -15h20zM791 899v-774h18q75 0 135 15q58 15 100 58q43 44 63 115q21 74 21 193
q0 124 -21 200q-20 73 -63 119q-41 44 -100 59q-60 15 -135 15h-18z" />
    <glyph glyph-name="afii10087" unicode="&#x445;" horiz-adv-x="1028" 
d="M512 406l-281 -406h-213l381 516l-362 508h211l270 -397l262 397h211l-358 -508l377 -516h-219z" />
    <glyph glyph-name="afii10088" unicode="&#x446;" horiz-adv-x="1196" 
d="M307 154h514v870h178v-870h160v-451h-178v297h-852v1024h178v-870z" />
    <glyph glyph-name="afii10089" unicode="&#x447;" horiz-adv-x="1077" 
d="M104 1024h175v-346q0 -85 50 -132q49 -46 160 -46q77 0 141 6q67 6 140 22v496h178v-1024h-178v383q-81 -19 -136 -25q-69 -8 -147 -8q-193 0 -287 87q-96 88 -96 241v346z" />
    <glyph glyph-name="afii10090" unicode="&#x448;" horiz-adv-x="1529" 
d="M307 154h369v870h178v-870h369v870h178v-1024h-1272v1024h178v-870z" />
    <glyph glyph-name="afii10091" unicode="&#x449;" horiz-adv-x="1595" 
d="M307 154h369v870h178v-870h369v870h178v-870h158v-451h-177v297h-1253v1024h178v-870z" />
    <glyph glyph-name="afii10092" unicode="&#x44a;" horiz-adv-x="1153" 
d="M465 1024v-369h283q97 0 163 -24q65 -23 106 -68q39 -42 56 -101q17 -60 17 -124q0 -150 -78 -244t-248 -94h-477v870h-262v154h440zM465 510v-358h264q85 0 135 41q49 40 49 145q0 77 -34 124q-34 48 -138 48h-276z" />
    <glyph glyph-name="afii10093" unicode="&#x44b;" horiz-adv-x="1339" 
d="M539 655q95 0 160 -24q64 -24 105 -68q39 -42 56 -101q17 -60 17 -124q0 -149 -77 -244q-76 -94 -245 -94h-426v1024h178v-369h232zM1210 1024v-1024h-178v1024h178zM307 510v-358h211q83 0 133 41q49 40 49 145q0 78 -33 124q-35 48 -135 48h-225z" />
    <glyph glyph-name="afii10094" unicode="&#x44c;" horiz-adv-x="1034" 
d="M629 655q96 0 162 -24q63 -23 105 -68q39 -42 57 -101q18 -58 18 -124q0 -150 -78 -244t-248 -94h-516v1024h178v-369h322zM307 510v-358h301q85 0 135 41t50 145q0 75 -35 124q-34 48 -137 48h-314z" />
    <glyph glyph-name="afii10095" unicode="&#x44d;" horiz-adv-x="1124" 
d="M846 594q-6 93 -31 156q-23 58 -63 93q-38 34 -94 46q-54 12 -121 12q-50 0 -100 -8q-45 -7 -82 -32t-60 -63q-25 -42 -35 -102h-176q12 104 49 170q39 70 95 110t137 59q78 18 172 18q116 0 209 -26q90 -25 154 -89q61 -61 95 -169q33 -105 33 -263q0 -154 -33 -256
q-33 -103 -95 -165q-63 -63 -154 -88q-93 -26 -209 -26q-93 0 -177 19q-80 18 -138 60q-56 40 -95 112q-37 68 -49 172h174q11 -64 35 -105q24 -40 61 -64q38 -24 85 -33q48 -9 104 -9q69 0 125 12q55 12 94 48q37 34 62 98q24 62 30 159h-432v154h430z" />
    <glyph glyph-name="afii10096" unicode="&#x44e;" horiz-adv-x="1548" 
d="M969 -29q-110 0 -197 23q-85 22 -147 77q-63 55 -97 144q-35 91 -41 225h-180v-440h-178v1024h178v-430h182q10 127 46 219q35 89 96 141q64 54 146 76q87 23 192 23q115 0 207 -26q89 -25 151 -89q61 -63 93 -169q32 -107 32 -263q0 -152 -32 -256q-32 -102 -93 -165
t-151 -88q-92 -26 -207 -26zM969 901q-73 0 -130 -15t-95 -59q-37 -43 -58 -120q-20 -74 -20 -201q0 -123 20 -194q21 -74 58 -116q39 -43 95 -58q57 -15 130 -15t130 15q54 14 95 58q38 41 59 116t21 194q0 124 -21 200q-21 78 -59 120q-41 46 -95 60q-57 15 -130 15z" />
    <glyph glyph-name="afii10097" unicode="&#x44f;" horiz-adv-x="1097" 
d="M791 365h-302l-210 -365h-205l241 383q-103 34 -152 121q-48 86 -48 196q0 70 17 127q19 63 57 104q41 45 106 68q69 25 160 25h514v-1024h-178v365zM291 700q0 -75 32 -130q31 -54 117 -54h351v356h-322q-108 0 -143 -47t-35 -125z" />
    <glyph glyph-name="uni0450" unicode="&#x450;" horiz-adv-x="1146" 
d="M1051 444h-777q1 -94 25 -160q23 -64 62 -99q40 -35 98 -49q55 -13 129 -13q110 0 181 34q72 35 87 138h176q-12 -93 -48 -154q-37 -63 -92 -99q-57 -38 -133 -54q-79 -17 -171 -17q-117 0 -210 26q-92 26 -154 88t-94 165q-32 104 -32 256q0 156 32 263t94 169
q64 64 154 89q93 26 208 26q224 0 345 -112q120 -111 120 -359v-138zM586 901q-66 0 -121 -12q-53 -12 -95 -47q-40 -34 -65 -96t-29 -158h594q0 96 -19 154q-20 63 -56 97q-37 35 -90 49q-51 13 -119 13zM256 1479h250l151 -312h-137z" />
    <glyph glyph-name="afii10071" unicode="&#x451;" horiz-adv-x="1146" 
d="M1051 444h-777q1 -94 25 -160q23 -64 62 -99q40 -35 98 -49q55 -13 129 -13q110 0 181 34q72 35 87 138h176q-12 -93 -48 -154q-37 -63 -92 -99q-57 -38 -133 -54q-79 -17 -171 -17q-117 0 -210 26q-92 26 -154 88t-94 165q-32 104 -32 256q0 156 32 263t94 169
q64 64 154 89q93 26 208 26q224 0 345 -112q120 -111 120 -359v-138zM586 901q-66 0 -121 -12q-53 -12 -95 -47q-40 -34 -65 -96t-29 -158h594q0 96 -19 154q-20 63 -56 97q-37 35 -90 49q-51 13 -119 13zM281 1206v199h190v-199h-190zM698 1206v199h191v-199h-191z" />
    <glyph glyph-name="afii10099" unicode="&#x452;" horiz-adv-x="1142" 
d="M311 1255h371v-155h-371v-332h21q56 71 135 101q78 30 182 30q84 0 153 -15q66 -14 117 -54q47 -36 74 -102q27 -64 27 -163v-590q0 -192 -69 -280t-220 -88h-63v151h61q59 0 86 47q27 46 27 170v590q0 114 -67 149q-65 34 -191 34q-131 0 -202 -62t-71 -197v-489h-178
v1100h-108v155h108v158h178v-158z" />
    <glyph glyph-name="afii10100" unicode="&#x453;" horiz-adv-x="880" 
d="M129 1024h702v-154h-524v-870h-178v1024zM430 1167l156 312h252l-271 -312h-137z" />
    <glyph glyph-name="afii10101" unicode="&#x454;" horiz-adv-x="1124" 
d="M709 440h-430q6 -99 28 -159q23 -62 63 -98q41 -36 94 -48q54 -12 124 -12q55 0 103 9q47 9 85 33q39 25 62 64t34 105h175q-12 -102 -50 -172q-39 -72 -95 -112q-58 -42 -138 -60q-84 -19 -176 -19q-117 0 -210 26q-92 26 -154 88t-94 165q-32 104 -32 256q0 156 32 263
t94 169q64 64 154 89q93 26 210 26q94 0 172 -18q79 -18 136 -59q56 -40 95 -110q35 -64 51 -170h-178q-10 60 -35 102q-23 38 -60 63t-82 32q-50 8 -99 8q-68 0 -122 -12q-55 -12 -93 -46q-40 -35 -63 -93t-31 -156h430v-154z" />
    <glyph glyph-name="afii10102" unicode="&#x455;" horiz-adv-x="1071" 
d="M532 901q-74 0 -118 -10q-49 -11 -75 -30q-27 -19 -39 -47q-11 -25 -11 -60q0 -59 42 -89q43 -31 111 -47l275 -53q135 -28 199 -94q65 -67 65 -184q0 -145 -103 -230q-104 -86 -348 -86q-92 0 -176 19q-80 18 -140 60q-59 41 -96 112q-36 70 -44 172h174q6 -65 30 -105
t61 -64t87 -33q49 -9 104 -9q84 0 136 12q54 12 85 33q33 22 44 50q12 30 12 67q0 61 -39 90q-40 29 -104 45l-287 57q-124 27 -191 92q-69 66 -69 185q0 67 23 119q24 54 74 95q48 39 129 62t189 23q92 0 170 -18q81 -19 136 -59q57 -42 93 -110q37 -69 44 -170h-178
q-6 60 -29 102q-21 38 -57 63q-35 25 -81 32q-50 8 -98 8z" />
    <glyph glyph-name="afii10103" unicode="&#x456;" horiz-adv-x="452" 
d="M315 1024v-1024h-178v1024h178zM129 1212v193h195v-193h-195z" />
    <glyph glyph-name="afii10104" unicode="&#x457;" horiz-adv-x="452" 
d="M315 1024v-1024h-178v1024h178zM-78 1206v199h191v-199h-191zM340 1206v199h190v-199h-190z" />
    <glyph glyph-name="afii10105" unicode="&#x458;" horiz-adv-x="456" 
d="M29 -242q59 0 86 47q26 45 26 170v1049h178v-1049q0 -193 -68 -280q-69 -88 -220 -88h-17v151h15zM133 1212v193h195v-193h-195z" />
    <glyph glyph-name="afii10106" unicode="&#x459;" horiz-adv-x="1646" 
d="M193 1024h743v-369h305q96 0 162 -24q63 -23 105 -68q40 -43 58 -101q17 -55 17 -124q0 -150 -78 -244t-248 -94h-499v870h-396v-426q0 -223 -64 -333q-64 -111 -212 -111h-37v162q40 0 66 13t44 48q17 33 25 94q9 72 9 150v557zM936 510v-358h285q86 0 136 41t50 145
q0 75 -35 124q-35 48 -139 48h-297z" />
    <glyph glyph-name="afii10107" unicode="&#x45a;" horiz-adv-x="1691" 
d="M1286 655q96 0 162 -24q63 -23 105 -68q40 -43 58 -101q17 -55 17 -124q0 -150 -78 -244t-247 -94h-498v455h-498v-455h-178v1024h178v-416h498v416h176v-369h305zM981 510v-358h287q85 0 135 41q49 40 49 145q0 75 -35 124q-35 48 -137 48h-299z" />
    <glyph glyph-name="afii10108" unicode="&#x45b;" horiz-adv-x="1142" 
d="M311 1255h371v-155h-371v-332h21q56 71 135 101q78 30 182 30q84 0 153 -15q66 -14 117 -54q47 -36 74 -102q27 -64 27 -163v-565h-178v565q0 114 -67 149q-65 34 -191 34q-129 0 -199 -59t-74 -187v-502h-178v1100h-108v155h108v158h178v-158z" />
    <glyph glyph-name="afii10109" unicode="&#x45c;" horiz-adv-x="1040" 
d="M307 608h193l299 416h202l-360 -489l381 -535h-213l-309 455h-193v-455h-178v1024h178v-416zM442 1167l156 312h252l-270 -312h-138z" />
    <glyph glyph-name="uni045D" unicode="&#x45d;" horiz-adv-x="1138" 
d="M301 305q0 -59 14 -93q15 -36 44 -55q30 -19 72 -27q39 -7 97 -7q56 0 110 12q51 11 97 43q42 29 70 84q26 51 26 135v627h179v-1024h-179v102h-20q-61 -63 -135 -96q-78 -35 -187 -35q-76 0 -150 16q-69 15 -116 53q-46 37 -73 102t-27 163v719h178v-719zM242 1479h250
l151 -312h-137z" />
    <glyph glyph-name="afii10110" unicode="&#x45e;" horiz-adv-x="1099" 
d="M483 59l-469 965h195l362 -774l322 774h192l-610 -1393h-184zM551 1167q-155 0 -228 71t-73 218h145q0 -82 36 -117q35 -34 120 -34q83 0 118 34q36 35 36 117h147q0 -147 -74 -218t-227 -71z" />
    <glyph glyph-name="afii10193" unicode="&#x45f;" horiz-adv-x="1126" 
d="M475 0h-346v1024h178v-870h512v870h178v-1024h-346v-297h-176v297z" />
    <glyph glyph-name="afii10146" unicode="&#x462;" horiz-adv-x="1452" 
d="M1372 438q0 -227 -115 -333q-114 -105 -350 -105h-547v1065h-321v178h321v170h187v-170h336v-178h-336v-207h360q250 0 357 -100q108 -100 108 -320zM547 680v-502h360q138 0 206 56q69 57 69 204q0 72 -15 118q-16 48 -47 74q-33 27 -86 39q-48 11 -131 11h-356z" />
    <glyph glyph-name="afii10194" unicode="&#x463;" horiz-adv-x="1103" 
d="M236 1024v389h178v-389h313v-154h-313v-215h284q96 0 162 -24q65 -23 106 -68q39 -42 56 -101q16 -57 16 -124q0 -150 -76 -244t-247 -94h-479v870h-211v154h211zM414 510v-358h264q85 0 135 41q49 40 49 145q0 75 -35 124q-34 48 -137 48h-276z" />
    <glyph glyph-name="afii10147" unicode="&#x472;" horiz-adv-x="1538" 
d="M768 -29q-164 0 -288 33t-207 116q-83 82 -123 225q-41 144 -41 360q0 224 44 370q43 143 129 224q87 83 207 112q127 31 279 31q154 0 281 -31q120 -29 207 -112q86 -81 129 -224q45 -149 45 -370q0 -217 -42 -360q-42 -142 -125 -225t-207 -116t-288 -33zM768 150
q114 0 193 17q83 18 143 69q58 49 93 144q34 91 40 245h-936q6 -154 40 -245q35 -95 93 -144q60 -51 144 -69q79 -17 190 -17zM768 1264q-101 0 -189 -16q-84 -15 -142 -63q-59 -48 -93 -139q-36 -94 -43 -245h934q-7 150 -42 242q-35 93 -93 141q-59 49 -143 64
q-88 16 -189 16z" />
    <glyph glyph-name="afii10195" unicode="&#x473;" horiz-adv-x="1177" 
d="M588 1053q119 0 212 -26q89 -25 153 -89q63 -63 95 -169q31 -103 31 -263q0 -156 -31 -256q-31 -101 -95 -165q-63 -63 -153 -88q-93 -26 -212 -26q-117 0 -210 26q-92 26 -154 88t-94 165q-32 104 -32 256q0 156 32 263t94 169q64 64 154 89q93 26 210 26zM588 123
q74 0 127 13q56 14 95 50q38 35 63 102q23 63 28 167h-625q5 -103 27 -167q23 -64 63 -102q40 -37 96 -50q55 -13 126 -13zM588 901q-71 0 -119 -11q-55 -13 -92 -44q-41 -34 -64 -90q-25 -58 -32 -148h618q-7 88 -34 148q-26 59 -65 89q-41 32 -93 44q-53 12 -119 12z" />
    <glyph glyph-name="afii10148" unicode="&#x474;" horiz-adv-x="1390" 
d="M748 0h-125l-613 1413h213l465 -1100l367 910q40 110 104 165q63 54 168 54h43v-182q-58 0 -95 -28t-61 -93z" />
    <glyph glyph-name="afii10196" unicode="&#x475;" horiz-adv-x="1095" 
d="M14 1024h197l342 -764l217 533q27 64 45 104q22 48 48 80q25 30 69 50q38 17 106 17h37v-161q-51 0 -81 -35q-27 -31 -66 -117l-322 -731h-108z" />
    <glyph glyph-name="afii10050" unicode="&#x490;" horiz-adv-x="1134" 
d="M1083 1235h-768v-1235h-186v1413h770v354h184v-532z" />
    <glyph glyph-name="afii10098" unicode="&#x491;" horiz-adv-x="880" 
d="M831 870h-524v-870h-178v1024h524v297h178v-451z" />
    <glyph glyph-name="uni0492" unicode="&#x492;" horiz-adv-x="1271" 
d="M1219 1235h-770v-444h434v-177h-434v-614h-187v614h-239v177h239v622h957v-178z" />
    <glyph glyph-name="uni0493" unicode="&#x493;" horiz-adv-x="905" 
d="M154 455h-113v153h113v416h702v-154h-524v-262h368v-153h-368v-455h-178v455z" />
    <glyph glyph-name="uni0496" unicode="&#x496;" horiz-adv-x="1742" 
d="M1421 0l-360 639h-133v-639h-185v639h-133l-362 -639h-228l437 729l-418 684h219l356 -606h129v606h185v-606h127l358 606h217l-418 -682l332 -553h156v-532h-187v354h-92z" />
    <glyph glyph-name="uni0497" unicode="&#x497;" horiz-adv-x="1486" 
d="M1206 0l-262 455h-135v-455h-178v455h-135l-265 -455h-206l333 539l-301 485h207l246 -416h121v416h178v-416h123l246 416h206l-301 -485l238 -385h129v-451h-178v297h-66z" />
    <glyph glyph-name="uni0498" unicode="&#x498;" horiz-adv-x="1351" 
d="M602 -27q-110 6 -203 35q-90 28 -160 86q-68 56 -111 148q-42 90 -48 221h196q7 -97 45 -163q35 -62 91 -95q53 -32 126 -44q65 -11 148 -11q212 0 297 64q86 65 86 187q0 63 -11 103q-12 44 -41 73t-84 44q-50 14 -140 14h-195v172h190q82 0 127 19q48 20 72 52
q26 34 33 72q8 43 8 82q0 232 -338 232q-67 0 -136 -12q-70 -12 -123 -46q-54 -35 -87 -97q-33 -64 -29 -167h-194q-6 146 39 241q45 94 125 153q78 58 185 82q105 24 220 24q262 0 397 -108q136 -109 136 -298q0 -117 -62 -194t-160 -105v-16q71 -11 119 -40q50 -30 81 -73
q31 -42 46 -96q15 -53 15 -113q0 -186 -115 -296q-114 -110 -359 -128v-329h-186v327z" />
    <glyph glyph-name="uni0499" unicode="&#x499;" horiz-adv-x="1062" 
d="M451 -25q-175 12 -271 93q-94 79 -106 266h174q12 -126 82 -169q69 -42 205 -42q135 0 203 37q69 38 69 135q0 66 -34 107q-35 42 -136 42h-217v148h217q83 0 113 42t30 103q0 35 -9 65q-9 29 -36 52q-28 23 -75 35q-48 12 -123 12q-55 0 -106 -8q-47 -7 -84 -32
q-36 -24 -56 -63q-21 -40 -27 -102h-176q6 104 40 170q35 69 91 110q55 40 137 59q79 18 181 18q114 0 197 -23q82 -23 130 -62q51 -41 71 -91q21 -51 21 -111q0 -86 -37 -145q-36 -58 -106 -86v-27q83 -22 126 -81q44 -59 44 -157q0 -119 -82 -198q-84 -81 -272 -97v-272
h-178v272z" />
    <glyph glyph-name="uni049A" unicode="&#x49a;" horiz-adv-x="1310" 
d="M1001 0l-446 637h-240v-637h-186v1413h186v-608h240l422 608h233l-497 -682l399 -553h156v-532h-187v354h-80z" />
    <glyph glyph-name="uni049B" unicode="&#x49b;" horiz-adv-x="1067" 
d="M809 0l-309 455h-193v-455h-178v1024h178v-416h193l299 416h202l-360 -489l270 -381h119v-451h-178v297h-43z" />
    <glyph glyph-name="uni049C" unicode="&#x49c;" horiz-adv-x="1310" 
d="M315 801h109v286h172v-286h76l372 612h218l-439 -694l457 -719h-236l-378 627h-70v-310h-172v310h-109v-627h-186v1413h186v-612z" />
    <glyph glyph-name="uni049D" unicode="&#x49d;" horiz-adv-x="1077" 
d="M307 608h94v244h148v-244h74l215 416h192l-278 -489l299 -535h-193l-246 455h-63v-238h-148v238h-94v-455h-178v1024h178v-416z" />
    <glyph glyph-name="uni04A0" unicode="&#x4a0;" horiz-adv-x="1478" 
d="M1225 0l-447 637h-239v-637h-187v1235h-319v178h506v-608h239l422 608h234l-498 -682l528 -731h-239z" />
    <glyph glyph-name="uni04A1" unicode="&#x4a1;" horiz-adv-x="1177" 
d="M449 608h192l299 416h203l-361 -489l381 -535h-213l-309 455h-192v-455h-179v870h-245v154h424v-416z" />
    <glyph glyph-name="uni04A2" unicode="&#x4a2;" horiz-adv-x="1509" 
d="M1085 0v625h-770v-625h-186v1413h186v-612h770v612h187v-1235h194v-532h-186v354h-195z" />
    <glyph glyph-name="uni04A3" unicode="&#x4a3;" horiz-adv-x="1220" 
d="M838 0v455h-531v-455h-178v1024h178v-416h531v416h178v-870h168v-451h-178v297h-168z" />
    <glyph glyph-name="uni04AA" unicode="&#x4aa;" horiz-adv-x="1452" 
d="M662 -25q-133 7 -241 48q-105 40 -173 122q-71 86 -105 221t-34 339q0 228 43 370q44 145 124 224q84 83 202 112q124 31 272 31q127 0 239 -22q106 -21 185 -77q78 -55 124 -148q48 -97 60 -234h-199q-12 96 -46 155t-85 92q-49 32 -122 44q-70 12 -156 12
q-111 0 -195 -18q-83 -18 -140 -76q-56 -57 -86 -169q-30 -111 -30 -296q0 -179 30 -288q30 -110 86 -169q57 -60 140 -79q82 -19 195 -19q85 0 157 12t124 46q53 35 87 95q35 63 47 160h199q-12 -133 -52 -221q-41 -91 -106 -147q-66 -57 -155 -85q-92 -29 -203 -35v-329
h-186v329z" />
    <glyph glyph-name="uni04AB" unicode="&#x4ab;" horiz-adv-x="1124" 
d="M504 -25q-94 7 -174 40q-75 31 -127 95t-78 159q-27 97 -27 237q0 156 32 263t94 169q64 64 154 89q93 26 210 26q94 0 172 -18q79 -18 136 -59q56 -40 95 -110q35 -64 51 -170h-178q-10 60 -35 102q-23 38 -60 63t-82 32q-50 8 -99 8q-74 0 -132 -15t-99 -59
q-39 -42 -60 -120t-21 -201q0 -119 21 -194q21 -76 60 -116q42 -43 99 -58q58 -15 132 -15q55 0 103 9q47 9 85 33q39 25 62 64t34 105h175q-21 -180 -116 -261t-249 -98v-272h-178v272z" />
    <glyph glyph-name="uni04AE" unicode="&#x4ae;" horiz-adv-x="1353" 
d="M229 1413l455 -770l446 770h213l-569 -967v-446h-188v446l-576 967h219z" />
    <glyph glyph-name="uni04AF" unicode="&#x4af;" horiz-adv-x="1093" 
d="M639 70v-439h-178v447l-447 946h197l344 -764l332 764h192z" />
    <glyph glyph-name="uni04B0" unicode="&#x4b0;" horiz-adv-x="1353" 
d="M229 1413l455 -774l446 774h213l-542 -921h313v-177h-340v-315h-188v315h-342v177h315l-549 921h219z" />
    <glyph glyph-name="uni04B1" unicode="&#x4b1;" horiz-adv-x="1093" 
d="M885 0h-246v-369h-178v369h-244v154h207l-410 870h197l344 -764l332 764h192l-403 -870h209v-154z" />
    <glyph glyph-name="uni04B2" unicode="&#x4b2;" horiz-adv-x="1374" 
d="M651 575l-393 -575h-238l521 709l-496 704h236l376 -563l373 563h227l-489 -704l385 -531h178v-532h-186v354h-96z" />
    <glyph glyph-name="uni04B3" unicode="&#x4b3;" horiz-adv-x="1085" 
d="M512 406l-281 -406h-213l381 516l-362 508h211l270 -397l262 397h211l-358 -508l264 -362h152v-451h-179v297h-79z" />
    <glyph glyph-name="uni04B6" unicode="&#x4b6;" horiz-adv-x="1386" 
d="M963 0v487q-24 -4 -72 -11.5t-72 -11.5q-66 -11 -174 -11q-255 0 -404 116q-151 118 -151 359v485h186v-485q0 -81 28 -140q27 -56 77 -93q50 -36 118 -51q69 -15 150 -15q97 0 167 7q89 9 147 21v756h186v-1235h194v-532h-186v354h-194z" />
    <glyph glyph-name="uni04B7" unicode="&#x4b7;" horiz-adv-x="1153" 
d="M770 0v383q-81 -19 -136 -25q-69 -8 -147 -8q-193 0 -287 87q-96 88 -96 241v346h175v-346q0 -85 50 -132q49 -46 160 -46q77 0 141 6q67 6 140 22v496h178v-870h168v-451h-178v297h-168z" />
    <glyph glyph-name="uni04B8" unicode="&#x4b8;" horiz-adv-x="1284" 
d="M90 1413h186v-485q0 -136 72 -205q73 -70 193 -88v307h172v-313q88 5 134 11q67 8 122 19v754h186v-1413h-186v487q-20 -4 -60 -10t-60 -10q-52 -9 -136 -14v-271h-172v277q-210 22 -331 137q-120 114 -120 332v485z" />
    <glyph glyph-name="uni04B9" unicode="&#x4b9;" horiz-adv-x="1083" 
d="M102 1024h179v-346q0 -79 40 -123q41 -46 130 -53v241h147v-241q54 6 86 10q47 7 92 16v496h178v-1024h-178v383q-23 -5 -89 -17q-41 -7 -89 -12v-225h-147v221q-176 11 -262 95q-87 85 -87 233v346z" />
    <glyph glyph-name="uni04BA" unicode="&#x4ba;" horiz-adv-x="1277" 
d="M129 0v1413h186v-487q25 4 73.5 12t68.5 11q72 12 174 12q256 0 406 -117q151 -118 151 -359v-485h-187v485q0 84 -27 141q-26 55 -77 92q-50 36 -118 51q-69 15 -150 15q-101 0 -171 -7q-88 -9 -143 -21v-756h-186z" />
    <glyph glyph-name="uni04BB" unicode="&#x4bb;" horiz-adv-x="1138" 
d="M838 719q0 113 -67 148q-65 34 -191 34q-131 0 -199 -58q-69 -59 -74 -188v-655h-178v1413h178v-491h21q56 71 135 101q78 30 182 30q79 0 153 -16q67 -15 116 -53q48 -38 75 -102q27 -65 27 -163v-719h-178v719z" />
    <glyph glyph-name="uni04C0" unicode="&#x4c0;" horiz-adv-x="444" 
d="M315 0h-186v1413h186v-1413z" />
    <glyph glyph-name="uni04CF" unicode="&#x4cf;" horiz-adv-x="436" 
d="M307 0h-178v1413h178v-1413z" />
    <glyph glyph-name="uni04D8" unicode="&#x4d8;" horiz-adv-x="1474" 
d="M733 1442q147 0 268 -31q115 -29 199 -112q82 -81 124 -224q42 -144 42 -370q0 -219 -40 -360q-41 -144 -119 -225q-81 -84 -197 -116q-118 -33 -277 -33q-131 0 -245 27q-113 27 -198 91t-133 171q-48 106 -48 264v228h1067q-4 167 -35 271q-30 103 -87 155
q-57 53 -136 69q-82 17 -185 17q-89 0 -159 -12q-71 -12 -122 -44q-52 -33 -86 -92t-49 -155h-196q12 140 59 234q46 92 125 148t185 77q113 22 243 22zM733 150q97 0 173 15q77 15 132 61t88 130q32 82 43 222h-874v-54q0 -116 37 -187q39 -74 97 -115q60 -42 139 -57
q80 -15 165 -15z" />
    <glyph glyph-name="afii10846" unicode="&#x4d9;" horiz-adv-x="1146" 
d="M98 569h774q-1 99 -23 165q-21 63 -61 102q-37 36 -94 51q-52 14 -123 14q-113 0 -181 -34q-70 -35 -99 -138h-176q39 183 151 253q113 71 305 71q116 0 206 -26q91 -26 150 -88q61 -64 92 -165q32 -104 32 -256q0 -158 -33 -263q-33 -106 -95 -168t-154 -89
q-91 -27 -208 -27q-224 0 -344 112q-119 111 -119 359v127zM561 123q66 0 121 12q56 12 96 45q42 34 65 92q22 56 27 154h-594q0 -90 21 -149q22 -61 57 -93q38 -35 89 -48t118 -13z" />
    <glyph glyph-name="uni04E2" unicode="&#x4e2;" horiz-adv-x="1370" 
d="M315 354l818 1059h108v-1413h-186v1057l-819 -1057h-107v1413h186v-1059zM1001 1593h-630v152h630v-152z" />
    <glyph glyph-name="uni04E3" unicode="&#x4e3;" horiz-adv-x="1126" 
d="M821 0v700l-588 -700h-104v1024h178v-711l588 711h102v-1024h-176zM879 1225h-631v151h631v-151z" />
    <glyph glyph-name="uni04E8" unicode="&#x4e8;" horiz-adv-x="1538" 
d="M768 -29q-164 0 -288 33t-207 116q-83 82 -123 225q-41 144 -41 360q0 224 44 370q43 143 129 224q87 83 207 112q127 31 279 31q154 0 281 -31q120 -29 207 -112q86 -81 129 -224q45 -149 45 -370q0 -217 -42 -360q-42 -142 -125 -225t-207 -116t-288 -33zM768 150
q114 0 193 17q83 18 143 69q58 49 93 144q34 91 40 245h-936q6 -154 40 -245q35 -95 93 -144q60 -51 144 -69q79 -17 190 -17zM768 1264q-101 0 -189 -16q-84 -15 -142 -63q-59 -48 -93 -139q-36 -94 -43 -245h934q-7 150 -42 242q-35 93 -93 141q-59 49 -143 64
q-88 16 -189 16z" />
    <glyph glyph-name="uni04E9" unicode="&#x4e9;" horiz-adv-x="1177" 
d="M588 1053q119 0 212 -26q89 -25 153 -89q63 -63 95 -169q31 -103 31 -263q0 -156 -31 -256q-31 -101 -95 -165q-63 -63 -153 -88q-93 -26 -212 -26q-117 0 -210 26q-92 26 -154 88t-94 165q-32 104 -32 256q0 156 32 263t94 169q64 64 154 89q93 26 210 26zM588 123
q74 0 127 13q56 14 95 50q38 35 63 102q23 63 28 167h-625q5 -103 27 -167q23 -64 63 -102q40 -37 96 -50q55 -13 126 -13zM588 901q-71 0 -119 -11q-55 -13 -92 -44q-41 -34 -64 -90q-25 -58 -32 -148h618q-7 88 -34 148q-26 59 -65 89q-41 32 -93 44q-53 12 -119 12z" />
    <glyph glyph-name="uni04EE" unicode="&#x4ee;" horiz-adv-x="1296" 
d="M426 0l149 311l-565 1102h213l451 -893l409 893h203l-655 -1413h-205zM967 1593h-631v152h631v-152z" />
    <glyph glyph-name="uni04EF" unicode="&#x4ef;" horiz-adv-x="1099" 
d="M483 59l-469 965h195l362 -774l322 774h192l-610 -1393h-184zM864 1225h-631v151h631v-151z" />
    <glyph glyph-name="uni1E9E" unicode="&#x1e9e;" horiz-adv-x="1386" 
d="M129 942q0 258 121 379t368 121q50 0 94 -4q8 -1 116 -13q46 -5 155 -20q27 -4 207 -31v-141l-375 -387l170 -43q82 -22 141 -52q61 -31 105 -80q43 -47 64 -114q22 -69 22 -158q0 -205 -96 -316q-97 -112 -332 -112q-87 0 -165 20q-76 19 -132 69t-86 136
q-30 87 -29 216h187q0 -88 17 -136q18 -50 48 -79t73 -38q42 -9 87 -9q73 0 118 16t71 48t36 78q10 44 10 107q0 69 -17 111q-19 47 -48 76q-31 31 -75 49q-48 20 -97 31l-258 65v137l338 367q-94 12 -210 23q-82 8 -136 8q-77 0 -134 -15q-60 -16 -95 -51q-38 -38 -57 -99
q-20 -65 -20 -159v-942h-186v942z" />
    <glyph glyph-name="uni2010" unicode="&#x2010;" horiz-adv-x="845" 
d="M762 473h-678v160h678v-160z" />
    <glyph glyph-name="uni2011" unicode="&#x2011;" horiz-adv-x="845" 
d="M762 473h-678v160h678v-160z" />
    <glyph glyph-name="figuredash" unicode="&#x2012;" horiz-adv-x="1083" 
d="M924 584h-766v159h766v-159z" />
    <glyph glyph-name="endash" unicode="&#x2013;" horiz-adv-x="913" 
d="M831 473h-747v160h747v-160z" />
    <glyph glyph-name="emdash" unicode="&#x2014;" horiz-adv-x="1288" 
d="M1204 473h-1120v160h1120v-160z" />
    <glyph glyph-name="quoteleft" unicode="&#x2018;" horiz-adv-x="403" 
d="M238 1098h79v-230h-229v199l148 346h116z" />
    <glyph glyph-name="quoteright" unicode="&#x2019;" horiz-adv-x="403" 
d="M51 868l113 316h-78v229h229v-199l-147 -346h-117z" />
    <glyph glyph-name="quotesinglbase" unicode="&#x201a;" horiz-adv-x="403" 
d="M51 -315l113 315h-78v229h229v-198l-147 -346h-117z" />
    <glyph glyph-name="quotedblleft" unicode="&#x201c;" horiz-adv-x="722" 
d="M559 1098h80v-230h-231v199l149 346h115zM238 1098h79v-230h-229v199l148 346h116z" />
    <glyph glyph-name="quotedblright" unicode="&#x201d;" horiz-adv-x="722" 
d="M373 868l110 316h-77v229h231v-199l-150 -346h-114zM51 868l113 316h-78v229h229v-199l-147 -346h-117z" />
    <glyph glyph-name="quotedblbase" unicode="&#x201e;" horiz-adv-x="722" 
d="M373 -315l110 315h-77v229h231v-198l-150 -346h-114zM51 -315l113 315h-78v229h229v-198l-147 -346h-117z" />
    <glyph glyph-name="dagger" unicode="&#x2020;" horiz-adv-x="995" 
d="M877 903h-285v-1087h-186v1087h-287v160h287v473h186v-473h285v-160z" />
    <glyph glyph-name="daggerdbl" unicode="&#x2021;" horiz-adv-x="995" 
d="M877 391h-285v-575h-186v575h-287v160h287v352h-287v160h287v473h186v-473h285v-160h-285v-352h285v-160z" />
    <glyph glyph-name="bullet" unicode="&#x2022;" horiz-adv-x="692" 
d="M344 473l-233 234l237 237l234 -233z" />
    <glyph glyph-name="ellipsis" unicode="&#x2026;" horiz-adv-x="1462" 
d="M614 0v229h234v-229h-234zM1143 0v229h233v-229h-233zM88 0v229h234v-229h-234z" />
    <glyph glyph-name="perthousand" unicode="&#x2030;" horiz-adv-x="2207" 
d="M1169 1413h150l-942 -1413h-152zM381 1292q-33 0 -60 -8q-23 -7 -43 -33q-19 -25 -26 -70q-8 -50 -8 -122q0 -71 8 -119q8 -45 26 -70q19 -25 43 -32q31 -9 60 -9t60 9q24 7 43 32q18 24 27 70q9 45 9 119q0 75 -9 122q-9 46 -27 70q-20 26 -43 33q-27 8 -60 8zM381 692
q-75 0 -131 18q-55 18 -91 58t-54 113q-17 68 -17 178q0 109 20 183q20 76 56 114q38 41 91 57q56 17 126 17t126 -17q53 -16 91 -57q36 -38 56 -114q20 -74 20 -183q0 -106 -18 -178q-19 -75 -54 -113q-37 -40 -92 -58q-56 -18 -129 -18zM1165 584q-29 0 -60 -9
q-24 -7 -43 -32t-26 -71q-8 -50 -8 -122q0 -71 8 -119q7 -44 26 -69q20 -26 43 -33q27 -8 60 -8q34 0 61 8q23 7 43 33q17 22 26 69q10 50 10 119q0 70 -10 122q-9 49 -26 71q-19 25 -43 32q-31 9 -61 9zM1165 -16q-79 0 -131 17q-55 18 -91 58q-34 39 -53 113
q-18 72 -18 178q0 110 20 184t56 113q39 42 91 58t126 16t126 -16t91 -58q37 -40 57 -113q19 -70 19 -184q0 -110 -17 -178q-18 -73 -55 -113t-92 -58q-52 -17 -129 -17zM1860 584q-30 0 -61 -9q-24 -7 -43 -32q-17 -23 -25 -71q-9 -56 -9 -122q0 -65 9 -119q8 -46 25 -69
q20 -26 43 -33q27 -8 61 -8q33 0 60 8q23 7 43 33q18 24 27 69t9 119q0 76 -9 122q-9 47 -27 71q-19 25 -43 32q-31 9 -60 9zM1860 -16q-79 0 -131 17q-57 18 -92 58q-34 39 -53 113q-17 68 -17 178q0 114 19 184q20 74 56 113q39 42 92 58q52 16 126 16t126 -16t91 -58
q36 -39 56 -113q19 -70 19 -184q0 -110 -17 -178q-19 -75 -54 -113q-37 -40 -92 -58q-52 -17 -129 -17z" />
    <glyph glyph-name="guilsinglleft" unicode="&#x2039;" horiz-adv-x="579" 
d="M500 25l-420 401v168l420 401v-211l-295 -272l295 -272v-215z" />
    <glyph glyph-name="guilsinglright" unicode="&#x203a;" horiz-adv-x="579" 
d="M375 512l-295 272v211l420 -401v-168l-420 -401v215z" />
    <glyph glyph-name="fraction" unicode="&#x2044;" horiz-adv-x="186" 
d="M492 1413h149l-942 -1413h-154z" />
    <glyph glyph-name="uni2070" unicode="&#x2070;" horiz-adv-x="679" 
d="M340 1536q-33 0 -60 -8q-23 -7 -43 -33q-19 -25 -26 -71q-8 -50 -8 -121t8 -119q8 -45 26 -70q20 -26 43 -33q27 -8 60 -8t60 8q23 7 43 33q18 24 27 70q9 45 9 119q0 75 -9 121q-9 47 -27 71q-20 26 -43 33q-27 8 -60 8zM340 936q-79 0 -131 17q-54 18 -91 59
q-35 39 -53 112q-18 72 -18 179q0 109 20 183t56 113q39 42 91 58t126 16t126 -16t91 -58q36 -39 56 -113t20 -183q0 -107 -18 -179q-18 -74 -54 -112q-39 -42 -92 -59q-52 -17 -129 -17z" />
    <glyph glyph-name="uni2074" unicode="&#x2074;" horiz-adv-x="679" 
d="M422 1057h-383v102l430 500h111v-467h67v-135h-67v-105h-158v105zM422 1192v215l-186 -215h186z" />
    <glyph glyph-name="uni2075" unicode="&#x2075;" horiz-adv-x="679" 
d="M342 936q-67 0 -112 11q-50 12 -86 39q-34 25 -56 76q-20 46 -20 120h157q0 -76 34 -97q33 -20 83 -20q83 0 107 29q24 28 24 86q0 56 -20 82t-99 26h-241v371h479v-137h-340v-111h125q80 0 128 -16q51 -17 78 -47q28 -31 38 -74q10 -41 10 -96q0 -117 -65 -180
q-63 -62 -224 -62z" />
    <glyph glyph-name="uni2076" unicode="&#x2076;" horiz-adv-x="679" 
d="M342 936q-137 0 -218 51t-81 191q0 42 9 78q8 34 29 70q20 35 49 70q22 26 71 79l172 184h184l-229 -236l-19 -22l4 -4q31 14 68 14q146 0 200 -61q54 -62 54 -170q0 -115 -65 -180q-64 -64 -228 -64zM342 1288q-88 0 -115 -28q-26 -27 -26 -82q0 -52 26 -78
q27 -27 113 -27q87 0 114 27t27 78q0 54 -25 82t-114 28z" />
    <glyph glyph-name="uni2077" unicode="&#x2077;" horiz-adv-x="589" 
d="M111 952l278 570h-364v137h542v-107l-282 -600h-174z" />
    <glyph glyph-name="uni2078" unicode="&#x2078;" horiz-adv-x="679" 
d="M344 1262q-67 0 -105 -22q-36 -21 -36 -73q0 -46 27 -70t114 -24q84 0 111 24q26 23 26 70q0 52 -35 73q-36 22 -102 22zM344 1384q63 0 87 18t24 58q0 41 -26 59q-24 17 -85 17q-65 0 -88 -17q-25 -19 -25 -59t24 -58t89 -18zM344 936q-161 0 -229 53t-68 156
q0 155 156 178v8q-67 12 -97 54t-30 102q0 90 63 138t205 48q139 0 202 -48q62 -47 62 -138q0 -60 -30 -102t-95 -54v-8q158 -23 158 -178q0 -103 -69 -156q-70 -53 -228 -53z" />
    <glyph glyph-name="uni2079" unicode="&#x2079;" horiz-adv-x="679" 
d="M375 1186l20 28l-2 5q-21 -8 -36 -10q-20 -3 -35 -3q-149 0 -214 65t-65 159q0 117 66 180t229 63q137 0 217 -51t80 -190q0 -38 -8 -75q-7 -32 -26 -67q-15 -28 -42 -68q-24 -36 -57 -81l-135 -189h-183zM342 1331q85 0 113 28q26 26 26 75q0 48 -26 74q-28 28 -115 28
q-86 0 -113 -27q-26 -26 -26 -75q0 -48 27 -75q28 -28 114 -28z" />
    <glyph glyph-name="uni207A" unicode="&#x207a;" horiz-adv-x="688" 
d="M416 1561v-177h172v-137h-172v-176h-144v176h-172v137h172v177h144z" />
    <glyph glyph-name="uni207B" unicode="&#x207b;" horiz-adv-x="688" 
d="M588 1247h-488v137h488v-137z" />
    <glyph glyph-name="uni207C" unicode="&#x207c;" horiz-adv-x="688" 
d="M586 1380h-482v138h482v-138zM586 1116h-482v137h482v-137z" />
    <glyph glyph-name="uni207D" unicode="&#x207d;" horiz-adv-x="493" 
d="M276 1321q0 -87 16 -157q15 -64 38 -111t51 -67q29 -21 55 -21v-146q-142 0 -227 130q-86 131 -86 372q0 235 86 365q85 129 227 129v-146q-26 0 -55 -21q-27 -20 -51 -66t-38 -109q-16 -70 -16 -152z" />
    <glyph glyph-name="uni207E" unicode="&#x207e;" horiz-adv-x="493" 
d="M217 1321q0 86 -15 152q-14 63 -38 109t-51 66q-28 21 -56 21v146q143 0 228 -129q86 -130 86 -365q0 -241 -86 -372q-85 -130 -228 -130v146q27 0 56 21q28 20 51 67t38 111q15 66 15 157z" />
    <glyph glyph-name="uni2080" unicode="&#x2080;" horiz-adv-x="679" 
d="M340 338q-33 0 -60 -8q-23 -7 -43 -33q-19 -25 -26 -71q-8 -50 -8 -122q0 -70 8 -118q8 -45 26 -70q20 -26 43 -33q27 -8 60 -8t60 8q23 7 43 33q18 24 27 70q9 45 9 118q0 76 -9 122q-9 47 -27 71q-20 26 -43 33q-27 8 -60 8zM340 -262q-79 0 -131 17q-54 18 -91 59
q-35 39 -53 111q-18 71 -18 179q0 110 20 184t56 113q39 42 91 58t126 16t126 -16t91 -58q36 -39 56 -113t20 -184q0 -108 -18 -179q-19 -73 -54 -111q-39 -42 -92 -59q-52 -17 -129 -17z" />
    <glyph glyph-name="uni2081" unicode="&#x2081;" horiz-adv-x="413" 
d="M324 -246h-162v428h-107v137h47q35 0 52 23q16 22 16 64v55h154v-707z" />
    <glyph glyph-name="uni2082" unicode="&#x2082;" horiz-adv-x="679" 
d="M348 94q56 46 75 79q21 36 21 83q0 40 -20 63q-22 25 -84 25q-22 0 -41 -4q-20 -4 -35 -16q-14 -11 -22 -36q-8 -24 -6 -63h-160q-2 73 16 120q18 49 54 77q37 29 86 41q50 12 110 12q80 0 128 -16q50 -17 80 -45t42 -67q12 -38 12 -83q0 -71 -27 -128q-25 -53 -100 -111
l-166 -129v-5h307v-137h-557v103z" />
    <glyph glyph-name="uni2083" unicode="&#x2083;" horiz-adv-x="679" 
d="M344 -262q-68 0 -118 11q-54 12 -93 39q-38 27 -60 76q-22 50 -22 120h158q0 -72 38 -90q40 -19 97 -19q78 0 105 27q26 26 26 80q0 50 -22 73q-23 25 -93 25h-118v108l139 136h-295v137h502v-105l-178 -161h6q108 -2 162 -57q53 -55 53 -156q0 -118 -63 -181t-224 -63z
" />
    <glyph glyph-name="uni2084" unicode="&#x2084;" horiz-adv-x="679" 
d="M422 -141h-383v102l430 500h111v-467h67v-135h-67v-105h-158v105zM422 -6v215l-186 -215h186z" />
    <glyph glyph-name="uni2085" unicode="&#x2085;" horiz-adv-x="679" 
d="M342 -262q-67 0 -112 11q-50 12 -86 39q-34 25 -56 76q-20 46 -20 120h157q0 -76 34 -97q33 -20 83 -20q83 0 107 29t24 86q0 55 -20 81q-21 27 -99 27h-241v371h479v-137h-340v-111h125q80 0 128 -16q51 -17 78 -47q28 -31 38 -74q10 -41 10 -96q0 -117 -65 -180
q-63 -62 -224 -62z" />
    <glyph glyph-name="uni2086" unicode="&#x2086;" horiz-adv-x="679" 
d="M342 -262q-137 0 -218 51t-81 191q0 42 9 78q8 34 29 70q20 35 49 70q14 17 71 78l172 185h184l-229 -236l-19 -22l4 -4q31 14 68 14q146 0 200 -61t54 -170q0 -115 -65 -180q-64 -64 -228 -64zM342 90q-88 0 -115 -29q-26 -27 -26 -81q0 -52 26 -78q27 -27 113 -27
q87 0 114 27t27 78q0 53 -25 81q-26 29 -114 29z" />
    <glyph glyph-name="uni2087" unicode="&#x2087;" horiz-adv-x="589" 
d="M111 -246l278 570h-364v137h542v-107l-282 -600h-174z" />
    <glyph glyph-name="uni2088" unicode="&#x2088;" horiz-adv-x="679" 
d="M344 63q-69 0 -105 -21t-36 -73q0 -46 27 -70t114 -24q84 0 111 24q26 23 26 70q0 52 -35 73q-34 21 -102 21zM344 186q63 0 87 18t24 58q0 41 -26 59q-24 17 -85 17q-65 0 -88 -17q-25 -19 -25 -59t24 -58t89 -18zM344 -262q-161 0 -229 53t-68 156q0 156 156 178v8
q-67 12 -97 54t-30 102q0 90 63 138t205 48q139 0 202 -48q62 -47 62 -138q0 -60 -30 -102t-95 -54v-8q158 -23 158 -178q0 -104 -69 -156q-70 -53 -228 -53z" />
    <glyph glyph-name="uni2089" unicode="&#x2089;" horiz-adv-x="679" 
d="M375 -12l20 28l-2 4q-17 -6 -36 -9t-35 -3q-149 0 -214 65t-65 158q0 118 66 181t229 63q137 0 217 -51t80 -191q0 -37 -8 -74q-7 -32 -26 -67q-15 -27 -42 -68q-24 -36 -57 -81l-135 -189h-183zM342 133q85 0 113 28q26 26 26 75q0 48 -26 74q-28 28 -115 28
q-86 0 -113 -27q-26 -26 -26 -75q0 -48 27 -75q28 -28 114 -28z" />
    <glyph glyph-name="uni208A" unicode="&#x208a;" horiz-adv-x="688" 
d="M416 352v-176h172v-137h-172v-176h-144v176h-172v137h172v176h144z" />
    <glyph glyph-name="uni208B" unicode="&#x208b;" horiz-adv-x="688" 
d="M588 39h-488v137h488v-137z" />
    <glyph glyph-name="uni208C" unicode="&#x208c;" horiz-adv-x="688" 
d="M586 172h-482v137h482v-137zM586 -92h-482v137h482v-137z" />
    <glyph glyph-name="uni208D" unicode="&#x208d;" horiz-adv-x="493" 
d="M276 113q0 -87 16 -157q15 -66 38 -112q22 -45 51 -66q30 -22 55 -22v-145q-142 0 -227 130q-86 131 -86 372q0 234 86 364q85 129 227 129v-145q-25 0 -55 -22q-28 -21 -51 -65q-23 -45 -38 -110q-16 -70 -16 -151z" />
    <glyph glyph-name="uni208E" unicode="&#x208e;" horiz-adv-x="493" 
d="M217 113q0 85 -15 151q-15 65 -38 110q-23 44 -51 65q-30 22 -56 22v145q143 0 228 -129q86 -130 86 -364q0 -241 -86 -372q-85 -130 -228 -130v145q26 0 56 22q29 21 51 66q23 46 38 112t15 157z" />
    <glyph glyph-name="Euro" unicode="&#x20ac;" 
d="M809 467h-432q15 -101 43 -163q28 -61 70 -96q41 -34 99 -46q57 -12 126 -12q74 0 134 12q62 12 104 46q46 36 73 95q29 63 41 160h197q-10 -143 -53 -239q-42 -94 -112 -151q-69 -56 -167 -79t-217 -23q-113 0 -205 23q-91 23 -157 80t-108 152q-43 97 -61 241h-153v174
h141q-2 22 -1 32t1 32v75h-141v176h155q18 143 63 242q44 95 111 149q65 52 157 74q88 21 198 21q114 0 215 -22q95 -21 165 -77q68 -55 110 -148q41 -92 52 -234h-196q-11 92 -40 155q-26 57 -72 92q-42 32 -102 44q-59 12 -132 12q-67 0 -125 -11q-55 -10 -98 -43
q-44 -33 -72 -93q-28 -58 -43 -161h432v-176h-447v-75v-64h447v-174z" />
    <glyph glyph-name="uni20B4" unicode="&#x20b4;" 
d="M657 -29q-157 0 -264 26q-105 25 -165 72q-62 48 -85 109q-24 63 -24 139q0 93 55 166h-100v174h1171v-174h-854q-36 -22 -57 -57q-23 -38 -23 -96q0 -38 13 -74q12 -32 49 -56t104 -37q65 -13 180 -13q80 0 152 8q67 8 114 33q44 24 69 72q23 46 22 122h198
q2 -122 -35 -199q-38 -80 -110 -127q-71 -46 -175 -67t-235 -21zM1245 764h-1171v174h811q94 49 94 156q0 36 -10 66q-11 32 -44 54q-34 22 -98 36q-65 14 -168 14q-51 0 -121 -9q-57 -7 -102 -32q-41 -22 -66 -70q-24 -45 -18 -119h-194q-6 119 29 195q36 78 105 126
q68 47 163 67q97 20 204 20q149 0 248 -27q98 -27 157 -72q58 -45 82 -106q23 -59 23 -129q0 -99 -59 -170h135v-174z" />
    <glyph glyph-name="uni20B8" unicode="&#x20b8;" 
d="M1264 956h-510v-956h-187v956h-512v179h1209v-179zM1264 1235h-1209v178h1209v-178z" />
    <glyph glyph-name="uni20BD" unicode="&#x20bd;" 
d="M1075 184h-643v-184h-186v184h-170v178h170v146h-170v176h170v729h534q251 0 361 -107t110 -341q0 -239 -114 -348q-113 -109 -355 -109h-350v-146h643v-178zM432 1235v-551h350q140 0 209 60q70 61 70 221q0 79 -14 128q-15 53 -48 84t-86 45q-51 13 -133 13h-348z" />
    <glyph glyph-name="uni20BF" unicode="&#x20bf;" 
d="M367 -141v141h-246v1413h244v125h174v-125h186v125h174v-137q157 -24 228 -113t71 -258q0 -118 -68 -195q-69 -78 -174 -106v-16q152 -21 216 -103q65 -83 65 -213q0 -177 -84 -271q-85 -96 -254 -118v-149h-172v141h-188v-141h-172zM309 627v-449h463q136 0 205 48
q70 49 70 175q0 67 -15 110q-16 46 -47 70t-86 35t-131 11h-459zM309 1235v-436h439q128 0 194 51t66 180q0 61 -14 101q-13 37 -44 62q-30 24 -82 33q-51 9 -125 9h-434z" />
    <glyph glyph-name="afii61352" unicode="&#x2116;" horiz-adv-x="2304" 
d="M2144 494h-596v159h596v-159zM244 1413l889 -1071v1071h182v-1413h-123l-883 1061v-1061h-180v1413h115zM1847 950q77 0 112 34q36 35 36 132q0 104 -37 141t-111 37q-77 0 -113 -37t-36 -141q0 -97 36 -132q35 -34 113 -34zM1847 811q-137 0 -225 78t-88 227
q0 159 88 238q89 80 225 80q135 0 224 -80q88 -79 88 -238q0 -149 -88 -227q-89 -78 -224 -78z" />
    <glyph glyph-name="trademark" unicode="&#x2122;" horiz-adv-x="1525" 
d="M868 1204v-436h-153v717h100l275 -334l278 334h98v-717h-151v434l-225 -252zM0 1485h612v-137h-227v-580h-158v580h-227v137z" />
    <glyph glyph-name="uni2150" unicode="&#x2150;" horiz-adv-x="1351" 
d="M1028 1413h150l-942 -1413h-152zM324 707h-162v428h-107v137h47q36 0 52 22t16 64v55h154v-706zM872 0l279 569h-365v138h543v-107l-282 -600h-175z" />
    <glyph glyph-name="uni2151" unicode="&#x2151;" horiz-adv-x="1396" 
d="M1092 233l20 29l-2 4q-16 -6 -36 -9t-36 -3q-150 0 -214 64t-64 159q0 118 65 180q67 64 230 64q137 0 217 -51t80 -191q0 -34 -9 -75q-7 -34 -25 -66q-18 -33 -42 -69t-57 -81l-136 -188h-182zM1028 1413h150l-942 -1413h-152zM324 707h-162v428h-107v137h47q36 0 52 22
t16 64v55h154v-706zM1059 379q84 0 112 28q27 27 27 74q0 48 -27 75q-28 28 -114 28t-113 -27q-26 -26 -26 -76q0 -47 27 -74q28 -28 114 -28z" />
    <glyph glyph-name="uni2152" unicode="&#x2152;" horiz-adv-x="1843" 
d="M1028 1413h150l-942 -1413h-152zM324 707h-162v428h-107v137h47q36 0 52 22t16 64v55h154v-706zM1040 0h-161v428h-107v137h47q34 0 51 23t17 63v56h153v-707zM1503 584q-29 0 -60 -9q-24 -7 -43 -32t-26 -71q-8 -50 -8 -122q0 -71 8 -119q7 -44 26 -69q20 -26 43 -33
q27 -8 60 -8q34 0 61 8q23 7 43 33q17 22 26 69q9 45 9 119q0 76 -9 122q-9 49 -26 71q-19 25 -43 32q-31 9 -61 9zM1503 -16q-79 0 -131 17q-55 18 -91 58q-34 39 -53 113q-18 72 -18 178q0 110 20 184t56 113q39 42 91 58t126 16t126 -16t91 -58q37 -40 57 -113
q19 -70 19 -184q0 -110 -17 -178q-18 -73 -55 -113t-92 -58q-52 -17 -129 -17z" />
    <glyph glyph-name="onethird" unicode="&#x2153;" horiz-adv-x="1396" 
d="M1028 1413h150l-942 -1413h-152zM324 707h-162v428h-107v137h47q36 0 52 22t16 64v55h154v-706zM1061 -16q-69 0 -118 11q-54 12 -93 39q-38 27 -60 76q-22 50 -22 119h158q0 -72 38 -90t97 -18q78 0 104 26q27 27 27 80q0 49 -23 74t-92 25h-119v108l140 135h-295v138
h502v-105l-179 -162h7q108 -2 161 -56q54 -56 54 -157q0 -117 -63 -180t-224 -63z" />
    <glyph glyph-name="twothirds" unicode="&#x2154;" horiz-adv-x="1529" 
d="M1161 1413h150l-942 -1413h-152zM348 1047q57 47 75 78q21 36 21 83q0 41 -20 64q-21 24 -84 24q-22 0 -41 -4q-20 -4 -35 -16q-14 -11 -22 -36q-7 -24 -6 -62h-160q-2 72 16 119q18 49 54 77q37 29 86 41q50 12 110 12q80 0 128 -16q50 -17 80 -45t42 -67q12 -37 12 -82
q0 -71 -27 -128q-26 -55 -100 -112l-166 -129v-4h307v-137h-557v102zM1194 -16q-68 0 -118 11q-54 12 -93 39q-38 27 -60 76q-22 50 -22 119h158q0 -72 38 -90q37 -18 97 -18q78 0 104 26q27 27 27 80q0 51 -22 74q-23 25 -93 25h-118v108l139 135h-295v138h502v-105
l-178 -162h6q108 -2 161 -56q54 -56 54 -157q0 -117 -63 -180t-224 -63z" />
    <glyph glyph-name="uni2155" unicode="&#x2155;" horiz-adv-x="1396" 
d="M1028 1413h150l-942 -1413h-152zM324 707h-162v428h-107v137h47q36 0 52 22t16 64v55h154v-706zM1059 -16q-67 0 -112 11q-50 12 -86 39q-34 25 -56 76q-21 48 -21 119h158q0 -75 34 -96q33 -20 83 -20q82 0 106 28q25 30 25 86q0 55 -21 82t-98 27h-242v371h480v-138
h-340v-110h125q77 0 128 -17q50 -17 77 -47q28 -31 38 -73q11 -46 11 -97q0 -116 -65 -179q-63 -62 -224 -62z" />
    <glyph glyph-name="uni2156" unicode="&#x2156;" horiz-adv-x="1548" 
d="M1180 1413h149l-942 -1413h-151zM348 1047q57 47 75 78q21 36 21 83q0 41 -20 64q-21 24 -84 24q-22 0 -41 -4q-20 -4 -35 -16q-14 -11 -22 -36q-7 -24 -6 -62h-160q-2 72 16 119q18 49 54 77q37 29 86 41q50 12 110 12q80 0 128 -16q50 -17 80 -45t42 -67q12 -37 12 -82
q0 -71 -27 -128q-26 -55 -100 -112l-166 -129v-4h307v-137h-557v102zM1210 -16q-66 0 -111 11q-50 12 -86 39q-35 27 -57 76q-20 46 -20 119h158q0 -76 33 -96t83 -20q83 0 107 28t24 86q0 56 -20 82q-21 27 -98 27h-242v371h479v-138h-340v-110h125q77 0 128 -17t78 -47
q28 -31 38 -73q10 -41 10 -97q0 -116 -64 -179q-63 -62 -225 -62z" />
    <glyph glyph-name="uni2157" unicode="&#x2157;" horiz-adv-x="1529" 
d="M1161 1413h150l-942 -1413h-152zM344 690q-68 0 -118 11q-54 12 -93 39q-38 27 -60 76q-22 50 -22 120h158q0 -72 38 -90q40 -19 97 -19q78 0 105 27q26 26 26 80q0 51 -22 74q-22 24 -93 24h-118v109l139 135h-295v137h502v-104l-178 -162h6q109 -2 162 -56
q53 -55 53 -157q0 -117 -63 -180q-64 -64 -224 -64zM1192 -16q-67 0 -112 11q-50 12 -86 39q-34 25 -56 76q-20 46 -20 119h157q0 -75 34 -96q33 -20 83 -20q82 0 106 28q25 30 25 86t-20 82q-21 27 -99 27h-241v371h479v-138h-340v-110h125q77 0 128 -17t78 -47
q26 -29 37 -73q11 -46 11 -97q0 -116 -65 -179q-63 -62 -224 -62z" />
    <glyph glyph-name="uni2158" unicode="&#x2158;" horiz-adv-x="1548" 
d="M1180 1413h149l-942 -1413h-151zM422 811h-383v102l430 500h111v-467h67v-135h-67v-104h-158v104zM422 946v215l-186 -215h186zM1210 -16q-66 0 -111 11q-50 12 -86 39q-35 27 -57 76q-20 46 -20 119h158q0 -76 33 -96t83 -20q83 0 107 28t24 86q0 56 -20 82
q-21 27 -98 27h-242v371h479v-138h-340v-110h125q77 0 128 -17t78 -47q28 -31 38 -73q10 -41 10 -97q0 -116 -64 -179q-63 -62 -225 -62z" />
    <glyph glyph-name="uni2159" unicode="&#x2159;" 
d="M981 -16q-137 0 -218 51t-81 190q0 43 9 79q8 34 29 70q18 32 49 69q22 26 71 79l172 185h184l-229 -236l-19 -22l4 -5q33 15 68 15q146 0 200 -62t54 -170q0 -114 -65 -179q-64 -64 -228 -64zM1028 1413h150l-942 -1413h-152zM324 707h-162v428h-107v137h47q36 0 52 22
t16 64v55h154v-706zM981 336q-88 0 -115 -29q-26 -27 -26 -82q0 -52 26 -78t113 -26q88 0 114 26q27 27 27 78q0 54 -25 82q-26 29 -114 29z" />
    <glyph glyph-name="uni215A" unicode="&#x215a;" horiz-adv-x="1452" 
d="M1114 -16q-137 0 -218 51t-81 190q0 43 9 79q8 34 29 70q18 32 49 69q22 26 71 79l172 185h184l-229 -236l-19 -22l4 -5q33 15 68 15q146 0 200 -62t54 -170q0 -114 -65 -179q-64 -64 -228 -64zM342 690q-67 0 -112 11q-50 12 -86 39q-34 25 -56 76q-20 46 -20 120h157
q0 -75 34 -96q35 -21 83 -21q83 0 107 29q24 28 24 86q0 56 -20 82t-99 26h-241v371h479v-137h-340v-111h125q80 0 128 -16q51 -17 78 -47q28 -31 38 -74q10 -41 10 -96q0 -116 -65 -179t-224 -63zM1161 1413h150l-942 -1413h-152zM1114 336q-88 0 -115 -29q-26 -27 -26 -82
q0 -52 26 -78t113 -26q88 0 114 26q27 27 27 78q0 54 -25 82q-26 29 -114 29z" />
    <glyph glyph-name="oneeighth" unicode="&#x215b;" horiz-adv-x="1396" 
d="M1028 1413h150l-942 -1413h-152zM324 707h-162v428h-107v137h47q36 0 52 22t16 64v55h154v-706zM1061 309q-70 0 -106 -21q-35 -20 -35 -73q0 -47 27 -71q26 -23 114 -23q84 0 110 23q27 24 27 71q0 52 -35 73t-102 21zM1061 432q63 0 87 18q23 17 23 58q0 40 -25 58
q-26 18 -85 18q-64 0 -88 -18q-25 -19 -25 -58q0 -40 24 -58t89 -18zM1061 -16q-162 0 -230 53q-67 52 -67 156q0 155 156 178v8q-67 12 -97 54t-30 102q0 90 63 138t205 48q139 0 202 -48q62 -47 62 -138q0 -59 -31 -102q-30 -42 -94 -54v-8q158 -23 158 -178
q0 -103 -69 -156q-70 -53 -228 -53z" />
    <glyph glyph-name="threeeighths" unicode="&#x215c;" horiz-adv-x="1529" 
d="M1161 1413h150l-942 -1413h-152zM344 690q-68 0 -118 11q-54 12 -93 39q-38 27 -60 76q-22 50 -22 120h158q0 -72 38 -90q40 -19 97 -19q78 0 105 27q26 26 26 80q0 51 -22 74q-22 24 -93 24h-118v109l139 135h-295v137h502v-104l-178 -162h6q109 -2 162 -56
q53 -55 53 -157q0 -117 -63 -180q-64 -64 -224 -64zM1194 309q-69 0 -105 -21t-36 -73q0 -47 27 -71q26 -23 114 -23q85 0 111 23t26 71q0 52 -35 73q-34 21 -102 21zM1194 432q63 0 87 18t24 58t-26 58q-25 18 -85 18q-64 0 -88 -18q-25 -19 -25 -58q0 -40 24 -58t89 -18z
M1194 -16q-161 0 -229 53t-68 156q0 155 156 178v8q-67 12 -97 54t-30 102q0 90 63 138t205 48q139 0 202 -48q62 -47 62 -138q0 -59 -31 -102q-30 -42 -94 -54v-8q158 -23 158 -178q0 -103 -69 -156q-70 -53 -228 -53z" />
    <glyph glyph-name="fiveeighths" unicode="&#x215d;" horiz-adv-x="1529" 
d="M1161 1413h150l-942 -1413h-152zM342 690q-67 0 -112 11q-50 12 -86 39q-34 25 -56 76q-20 46 -20 120h157q0 -75 34 -96q35 -21 83 -21q83 0 107 29q24 28 24 86q0 56 -20 82t-99 26h-241v371h479v-137h-340v-111h125q80 0 128 -16q51 -17 78 -47q28 -31 38 -74
q10 -41 10 -96q0 -116 -65 -179t-224 -63zM1194 309q-69 0 -105 -21t-36 -73q0 -47 27 -71q26 -23 114 -23q85 0 111 23t26 71q0 52 -35 73q-34 21 -102 21zM1194 432q63 0 87 18t24 58t-26 58q-25 18 -85 18q-64 0 -88 -18q-25 -19 -25 -58q0 -40 24 -58t89 -18zM1194 -16
q-161 0 -229 53t-68 156q0 155 156 178v8q-67 12 -97 54t-30 102q0 90 63 138t205 48q139 0 202 -48q62 -47 62 -138q0 -59 -31 -102q-30 -42 -94 -54v-8q158 -23 158 -178q0 -103 -69 -156q-70 -53 -228 -53z" />
    <glyph glyph-name="seveneighths" unicode="&#x215e;" horiz-adv-x="1386" 
d="M1018 1413h149l-942 -1413h-151zM111 707l278 569h-364v137h542v-106l-282 -600h-174zM1051 309q-70 0 -106 -21t-36 -73q0 -46 28 -71q26 -23 114 -23q84 0 110 23q27 24 27 71q0 52 -35 73t-102 21zM1051 432q63 0 87 18q23 17 23 58q0 40 -25 58q-26 18 -85 18
q-64 0 -88 -18q-25 -19 -25 -58q0 -40 24 -58t89 -18zM1051 -16q-162 0 -230 53q-67 52 -67 156q0 156 155 178v8q-66 12 -96 54q-31 43 -31 102q0 89 64 138q63 48 205 48q138 0 201 -48t63 -138q0 -59 -31 -102q-30 -42 -94 -54v-8q158 -23 158 -178q0 -103 -69 -156
q-70 -53 -228 -53z" />
    <glyph glyph-name="partialdiff" unicode="&#x2202;" horiz-adv-x="1124" 
d="M500 -29q-89 0 -167 23q-77 22 -132 69q-56 47 -86 123q-31 79 -31 181q0 88 22 192q22 107 78 201t147 159q91 64 228 64q91 0 166 -35q74 -35 123 -112h20q-2 111 -58 205q-57 95 -198 167l-352 183l78 143l340 -180q75 -38 142 -90q68 -52 117 -121q51 -71 79 -163
q28 -91 28 -220q0 -146 -29 -282q-30 -142 -94 -253q-65 -113 -169 -183q-106 -71 -252 -71zM500 129q77 0 141 38q66 39 108 100q44 64 68 146q25 86 25 171q0 74 -24 122q-25 50 -60 75q-38 27 -81 39q-40 11 -85 11q-105 0 -170 -52q-64 -51 -101 -126q-38 -77 -49 -152
q-12 -79 -12 -132q0 -123 63 -182q62 -58 177 -58z" />
    <glyph glyph-name="product" unicode="&#x220f;" horiz-adv-x="1402" 
d="M1309 1233h-127v-1602h-189v1602h-563v-1602h-188v1602h-127v180h1194v-180z" />
    <glyph glyph-name="summation" unicode="&#x2211;" horiz-adv-x="1191" 
d="M57 1325v88h1024v-180h-753l379 -690l-400 -731h846v-181h-1114v99l448 813z" />
    <glyph glyph-name="minus" unicode="&#x2212;" horiz-adv-x="1083" 
d="M924 584h-766v159h766v-159z" />
    <glyph glyph-name="uni2215" unicode="&#x2215;" horiz-adv-x="1083" 
d="M844 1536h184l-786 -1720h-187z" />
    <glyph glyph-name="radical" unicode="&#x221a;" horiz-adv-x="1531" 
d="M543 -184l-504 1208h184l424 -1018l701 1530h184l-787 -1720h-202z" />
    <glyph glyph-name="infinity" unicode="&#x221e;" horiz-adv-x="1107" 
d="M338 287q-79 0 -131 17q-55 18 -91 60t-54 113q-17 68 -17 178q0 109 20 183q20 72 56 113q39 44 91 58q54 15 126 15t125 -15q51 -14 90 -57q40 43 91 57q54 15 126 15t126 -15q52 -14 91 -58q36 -41 56 -113q20 -74 20 -183q0 -110 -17 -178q-18 -71 -55 -113
q-38 -42 -92 -60q-52 -17 -129 -17q-74 0 -127 15q-52 15 -90 56q-35 -41 -89 -56t-126 -15zM338 887q-33 0 -62 -8q-24 -7 -44 -33q-17 -23 -25 -70q-8 -48 -8 -121q0 -70 8 -118q8 -47 25 -71q19 -27 44 -34q29 -8 62 -8t60 8q24 7 43 34q18 25 27 71q9 45 9 118
q0 76 -9 121q-9 46 -27 70q-20 26 -43 33q-27 8 -60 8zM770 887q-33 0 -60 -8q-23 -7 -43 -33q-18 -25 -26 -70q-8 -48 -8 -121q0 -70 8 -118q7 -45 26 -71q19 -27 43 -34q27 -8 60 -8t60 8q24 7 43 34q18 25 27 71q9 45 9 118q0 76 -9 121q-9 46 -27 70q-20 26 -43 33
q-27 8 -60 8z" />
    <glyph glyph-name="integral" unicode="&#x222b;" horiz-adv-x="905" 
d="M362 1296q0 68 16 135q15 62 52 108t95 73q56 26 145 26h147v-151h-145q-72 0 -102 -47q-29 -45 -29 -144v-1321q0 -192 -85 -280t-272 -88h-94v151h92q97 0 139 47q41 45 41 170v1321z" />
    <glyph glyph-name="approxequal" unicode="&#x2248;" horiz-adv-x="1083" 
d="M346 1053q75 0 127 -34q54 -36 98 -75q45 -40 84 -75q37 -33 82 -33q38 0 63 31q26 32 38 130h163q-21 -175 -83 -246q-64 -73 -183 -73q-72 0 -124 34q-54 36 -95 75q-47 45 -83 76q-40 34 -87 34q-17 0 -34 -5q-12 -4 -29 -22q-14 -15 -25 -47q-10 -29 -18 -82h-162
q23 170 86 241t182 71zM346 643q75 0 127 -34q58 -38 98 -74q45 -41 84 -75q38 -34 82 -34q37 0 63 32t38 130h163q-21 -176 -83 -247q-64 -73 -183 -73q-72 0 -124 34q-51 34 -95 76q-47 45 -83 76q-39 33 -87 33q-17 0 -34 -5q-14 -4 -29 -21q-14 -15 -25 -47
q-10 -29 -18 -82h-162q22 169 86 240q63 71 182 71z" />
    <glyph glyph-name="notequal" unicode="&#x2260;" horiz-adv-x="1083" 
d="M924 371h-416l-80 -217h-172l82 217h-180v159h239l103 271h-342v160h403l80 208h166l-78 -208h195v-160h-254l-103 -271h357v-159z" />
    <glyph glyph-name="lessequal" unicode="&#x2264;" horiz-adv-x="1083" 
d="M924 354l-766 346v181l766 346v-180l-607 -259l607 -258v-176zM924 233v-172l-766 347v167z" />
    <glyph glyph-name="greaterequal" unicode="&#x2265;" horiz-adv-x="1083" 
d="M764 788l-606 259v180l766 -346v-181l-766 -346v176zM924 408l-766 -347v172l766 342v-167z" />
    <glyph glyph-name="lozenge" unicode="&#x25ca;" horiz-adv-x="1067" 
d="M457 -176l-353 794l353 795h155l351 -795l-351 -794h-155zM532 1196l-247 -578l247 -577l246 577z" />
    <glyph glyph-name="uniF400" unicode="&#xf400;" horiz-adv-x="0" 
d="M-657 1167l155 312h252l-270 -312h-137z" />
    <glyph glyph-name="uniF401" unicode="&#xf401;" horiz-adv-x="0" 
d="M-836 1536l156 311h252l-270 -311h-138z" />
    <glyph glyph-name="uniF406" unicode="&#xf406;" horiz-adv-x="827" 
d="M414 1536q-156 0 -229 71q-72 71 -72 218h145q0 -83 36 -117q37 -35 120 -35q80 0 117 35q36 34 36 117h148q0 -147 -74 -218t-227 -71z" />
    <glyph glyph-name="uniF407" unicode="&#xf407;" horiz-adv-x="632" 
d="M352 -63q92 -23 130 -71q38 -49 38 -120q0 -98 -68 -154q-69 -57 -171 -57q-55 0 -97 13q-40 12 -71 32v152q39 -34 78 -49q37 -15 75 -15q46 0 74 25q27 24 27 69t-29 77q-28 30 -109 52v158h123v-112z" />
    <glyph glyph-name="uniF408" unicode="&#xf408;" horiz-adv-x="901" 
d="M311 1540h-198l331 330l330 -330h-196l-134 148z" />
    <glyph glyph-name="uniF409" unicode="&#xf409;" horiz-adv-x="454" 
d="M115 -539l84 211h-86v226h229v-195l-145 -242h-82z" />
    <glyph glyph-name="uniF40A" unicode="&#xf40a;" horiz-adv-x="475" 
d="M113 1413h237l-127 -487h-110v487z" />
    <glyph glyph-name="uniF40B" unicode="&#xf40b;" horiz-adv-x="421" 
d="M113 1581v193h196v-193h-196z" />
    <glyph glyph-name="uniF40C" unicode="&#xf40c;" horiz-adv-x="681" 
d="M342 1630q94 0 94 92q0 90 -94 90q-96 0 -96 -90q0 -92 96 -92zM342 1520q-113 0 -171 49t-58 153q0 203 229 203q111 0 169 -49t58 -154q0 -104 -58 -153t-169 -49z" />
    <glyph glyph-name="uniF40D" unicode="&#xf40d;" horiz-adv-x="901" 
d="M311 1819q45 0 86 -19q30 -14 73 -40q12 -7 61 -40q27 -18 49 -18q29 0 44 19q16 20 11 73h153q0 -119 -49 -178q-49 -60 -141 -60q-45 0 -87 20q-43 21 -75 43q-14 9 -37 25t-26 18q-28 19 -51 19q-24 0 -42 -18t-14 -78h-153q1 120 54 177t144 57z" />
    <glyph glyph-name="uniF40E" unicode="&#xf40e;" horiz-adv-x="602" 
d="M289 109h71l99 -109q-73 -29 -110 -56q-39 -29 -59 -60q-21 -32 -25 -55q-5 -28 -5 -42q0 -49 31 -75q29 -25 80 -25q24 0 54 13q32 14 64 50v-149q-68 -50 -151 -50q-62 0 -105 21q-41 20 -69 51q-26 29 -39 66q-12 35 -12 65q0 91 44 149q43 56 132 97v109z" />
    <glyph glyph-name="zero.tab" unicode="&#xf4e0;" 
d="M659 1264q-94 0 -166 -20t-118 -79q-47 -61 -71 -169q-23 -105 -23 -291q0 -179 23 -284q24 -108 71 -169q46 -60 118 -81q71 -21 166 -21q97 0 167 21q72 21 118 81q47 61 71 169q23 105 23 284q0 186 -23 291q-24 108 -71 169q-46 59 -118 79t-167 20zM659 -29
q-142 0 -252 35q-108 35 -179 119q-69 82 -104 225q-34 139 -34 355q0 222 37 364q38 144 109 226q73 84 178 115q108 32 245 32q138 0 246 -32q105 -31 178 -115q71 -82 109 -226q37 -142 37 -364q0 -212 -35 -355q-34 -141 -105 -225t-178 -119q-108 -35 -252 -35z" />
    <glyph glyph-name="one.tab" unicode="&#xf4e1;" 
d="M207 180h459v641h-445v180h291q79 0 119 46q39 45 39 129v258h184v-1254h371v-180h-1018v180z" />
    <glyph glyph-name="two.tab" unicode="&#xf4e2;" 
d="M750 655q105 89 163 178q56 86 56 189q0 51 -14 98t-47 77q-34 31 -93 49q-60 18 -153 18q-65 0 -125 -12q-61 -12 -105 -46q-47 -36 -70 -97q-24 -64 -20 -167h-195q-6 145 32 241q37 93 108 153q68 57 166 82q96 24 209 24q146 0 247 -32q100 -32 156 -88
q57 -57 81 -133q23 -73 23 -167q0 -80 -17 -139q-19 -67 -54 -123q-38 -60 -96 -117q-67 -65 -140 -121l-418 -334v-10h752v-178h-1079v135z" />
    <glyph glyph-name="three.tab" unicode="&#xf4e3;" 
d="M666 -29q-123 0 -229 23q-103 22 -179 79t-118 151q-43 96 -44 239h199q0 -100 30 -163q30 -62 79 -95q47 -31 118 -44q62 -11 144 -11q110 0 181 18q69 18 110 54q41 37 56 88q15 52 15 122q0 73 -11 118q-12 51 -48 84q-35 32 -107 51q-65 17 -186 17h-178v136l379 397
h-713v178h962v-141l-413 -422h92q205 -1 311 -109q105 -107 105 -311q0 -107 -29 -194q-29 -86 -95 -145t-172 -89q-109 -31 -259 -31z" />
    <glyph glyph-name="four.tab" unicode="&#xf4e4;" 
d="M930 215h-856v156l872 1042h172v-1020h131v-178h-131v-215h-188v215zM930 393v729l-611 -729h611z" />
    <glyph glyph-name="five.tab" unicode="&#xf4e5;" 
d="M737 913q152 0 244 -32t148 -94q55 -61 74 -146q20 -88 20 -192q0 -113 -30 -202q-31 -91 -95 -151q-66 -62 -172 -93q-108 -32 -260 -32q-123 0 -229 23q-103 22 -179 79t-118 151t-42 239h197q1 -98 31 -163q28 -62 78 -95q47 -31 118 -44q62 -11 144 -11q112 0 181 19
q70 19 110 58q41 39 56 95t15 129q0 74 -12 128q-12 53 -48 91q-35 36 -100 55q-63 18 -168 18h-489v670h936v-178h-760v-322h350z" />
    <glyph glyph-name="six.tab" unicode="&#xf4e6;" 
d="M664 -29q-131 0 -239 24q-107 24 -183 79q-77 56 -117 148q-41 94 -41 233q0 87 18 158q17 68 58 140q39 69 97 139q67 80 140 159l328 362h236l-426 -467q-2 -3 -20 -23q-7 -8 -21 -30l4 -6q45 15 110 26q63 11 117 11q145 0 243 -33q95 -32 156 -93q60 -60 84 -146
q25 -89 25 -191q0 -115 -30 -206t-97 -154q-65 -60 -176 -96q-106 -34 -266 -34zM662 762q-117 0 -192 -21q-77 -22 -117 -60q-42 -40 -58 -96q-16 -55 -16 -130q0 -76 16 -131q17 -60 58 -96q41 -37 116 -58q70 -20 190 -20q119 0 189 20q74 21 117 58q42 36 59 96
q16 55 16 131q0 78 -14 131q-15 58 -55 96q-39 37 -115 59q-74 21 -194 21z" />
    <glyph glyph-name="seven.tab" unicode="&#xf4e7;" 
d="M389 0l574 1235h-832v178h1047v-141l-578 -1272h-211z" />
    <glyph glyph-name="eight.tab" unicode="&#xf4e8;" 
d="M666 666q-198 0 -300 -63t-102 -204q0 -59 18 -106q19 -49 62 -79q45 -32 123 -48q76 -16 199 -16t197 16q77 17 122 48q44 31 63 79q17 44 17 106q0 142 -101 204q-102 63 -298 63zM666 836q97 0 161 13q65 13 105 41q38 27 55 69q17 43 17 98q0 117 -75 162t-263 45
t-265 -45q-75 -44 -75 -162q0 -57 16 -98q17 -43 56 -69q42 -28 105 -41q62 -13 163 -13zM666 1442q279 0 404 -94q126 -94 126 -279q0 -115 -60 -196t-178 -105v-14q146 -30 223 -119q76 -88 76 -242q0 -104 -32 -181q-33 -79 -104 -132q-73 -55 -183 -81
q-117 -28 -272 -28q-158 0 -275 28q-110 26 -183 81q-71 53 -104 132q-32 77 -32 181q0 154 76 242q77 89 223 119v14q-117 24 -177 105q-61 82 -61 196q0 185 126 279q125 94 407 94z" />
    <glyph glyph-name="nine.tab" unicode="&#xf4e9;" 
d="M815 475l37 53l-4 9q-52 -13 -109 -19q-61 -6 -112 -6q-149 0 -251 34q-106 35 -168 93q-65 60 -94 141q-30 82 -30 178q0 112 31 205q30 90 98 152q66 61 176 94q108 33 266 33q131 0 240 -23q106 -22 181 -78q76 -56 116 -147q41 -93 41 -231q0 -86 -18 -155
q-19 -73 -51 -134q-33 -64 -84 -136q-55 -78 -117 -161l-271 -377h-231zM662 676q114 0 188 18q73 18 116 56q41 37 58 90q16 51 16 123q0 73 -16 128q-16 57 -58 94t-116 57q-75 20 -191 20q-113 0 -188 -20q-73 -20 -117 -57q-42 -36 -59 -93q-16 -54 -16 -127
q0 -65 16 -116q17 -53 59 -91q45 -41 118 -61q75 -21 190 -21z" />
    <glyph glyph-name="dollar.tab" unicode="&#xf4ec;" 
d="M750 -141v166q-30 -2 -45 -2h-46h-49q-17 0 -47 2v-166h-174v198q-128 40 -203 137q-74 95 -80 269h199q4 -81 33 -134t75 -80q48 -28 109 -38q60 -10 137 -10q109 0 172 14q71 16 106 41q37 26 52 65q15 37 15 84q0 96 -56 140q-54 42 -137 59l-354 76q-161 35 -237 129
q-77 95 -77 229q0 103 55 192q53 86 191 130v178h174v-149q28 2 43 3t45 1q33 0 49 -1q8 0 25 -1t25 -2v149h174v-184q117 -40 183 -134q67 -94 67 -259h-195q0 83 -26 133q-25 49 -69 76q-46 29 -105 36q-64 8 -128 8q-108 0 -167 -14q-61 -14 -96 -39q-33 -23 -44 -56
q-10 -30 -10 -67q0 -78 42 -125q41 -46 138 -67l360 -76q160 -35 241 -119t81 -245q0 -133 -62 -223q-63 -91 -210 -132v-192h-174z" />
    <glyph glyph-name="Euro.tab" unicode="&#xf4ed;" 
d="M809 467h-432q15 -101 43 -163q28 -61 70 -96q41 -34 99 -46q57 -12 126 -12q74 0 134 12q62 12 104 46q46 36 73 95q29 63 41 160h197q-10 -143 -53 -239q-42 -94 -112 -151q-69 -56 -167 -79t-217 -23q-113 0 -205 23q-91 23 -157 80t-108 152q-43 97 -61 241h-153v174
h141q-2 22 -1 32t1 32v75h-141v176h155q18 143 63 242q44 95 111 149q65 52 157 74q88 21 198 21q114 0 215 -22q95 -21 165 -77q68 -55 110 -148q41 -92 52 -234h-196q-11 92 -40 155q-26 57 -72 92q-42 32 -102 44q-59 12 -132 12q-67 0 -125 -11q-55 -10 -98 -43
q-44 -33 -72 -93q-28 -58 -43 -161h432v-176h-447v-139h447v-174z" />
    <glyph glyph-name="cent.tab" unicode="&#xf4ee;" 
d="M580 -238v215q-95 7 -170 41t-124 96q-51 65 -76 158q-26 98 -26 234q0 138 26 239q25 96 76 163q50 65 124 98q75 34 170 41v196h178v-194q154 -15 251 -94t121 -259h-178q-11 63 -34 102q-22 37 -61 63q-37 25 -82 32q-50 8 -99 8q-76 0 -133 -15t-98 -59
q-39 -42 -60 -120q-20 -74 -20 -201q0 -123 20 -194q21 -76 60 -116q42 -43 98 -58q57 -15 133 -15q55 0 103 9q47 9 85 33q39 25 62 64q24 41 35 105h174q-21 -182 -120 -263t-257 -96v-213h-178z" />
    <glyph glyph-name="sterling.tab" unicode="&#xf4ef;" 
d="M1188 508h-717v-330h717v-178h-1079v178h176v330h-176v176h176v283q0 240 98 357q99 118 322 118q103 0 187 -23q82 -22 140 -77t85 -147q28 -98 24 -234h-193q4 93 -11 155q-14 58 -47 92q-30 31 -79 44q-47 12 -106 12q-135 0 -185 -71q-49 -70 -49 -226v-283h717v-176
z" />
    <glyph glyph-name="yen.tab" unicode="&#xf4fa;" 
d="M1106 178h-348v-178h-189v178h-352v174h352v142h-352v174h268l-438 745h219l402 -702l391 702h215l-434 -745h266v-174h-348v-142h348v-174z" />
    <glyph glyph-name="florin.tab" unicode="&#xf4fb;" 
d="M336 -242q96 0 138 47t42 170v897h-219v152h219v47q0 71 15 134q15 61 53 109q36 45 95 72t144 27h201v-151h-199q-70 0 -101 -48q-30 -46 -30 -143v-47h330v-152h-330v-897q0 -192 -85 -280t-271 -88h-41v151h39z" />
    <glyph glyph-name="uni20B4.tab" unicode="&#xf4fc;" 
d="M657 -29q-157 0 -264 26q-105 25 -165 72q-62 48 -85 109q-24 63 -24 139q0 93 55 166h-100v174h1171v-174h-854q-36 -22 -57 -57q-23 -38 -23 -96q0 -38 13 -74q12 -32 49 -56t104 -37q65 -13 180 -13q80 0 152 8q67 8 114 33q44 24 69 72q23 46 22 122h198
q2 -122 -35 -199q-38 -80 -110 -127q-71 -46 -175 -67t-235 -21zM1245 764h-1171v174h811q94 49 94 156q0 36 -10 66q-11 32 -44 54q-34 22 -98 36q-65 14 -168 14q-51 0 -121 -9q-57 -7 -102 -32q-41 -22 -66 -70q-24 -45 -18 -119h-194q-6 119 29 195q36 78 105 126
q68 47 163 67q97 20 204 20q149 0 248 -27q98 -27 157 -72q58 -45 82 -106q23 -59 23 -129q0 -99 -59 -170h135v-174z" />
    <glyph glyph-name="uni20BD.tab" unicode="&#xf4fd;" 
d="M1075 184h-643v-184h-186v184h-170v178h170v146h-170v176h170v729h534q251 0 361 -107t110 -341q0 -239 -114 -348q-113 -109 -355 -109h-350v-146h643v-178zM432 1235v-551h350q140 0 209 60q70 61 70 221q0 79 -14 128q-15 53 -48 84t-86 45q-51 13 -133 13h-348z" />
    <glyph glyph-name="uni20B8.tab" unicode="&#xf5f3;" 
d="M1264 956h-510v-956h-187v956h-512v179h1209v-179zM1264 1235h-1209v178h1209v-178z" />
    <glyph glyph-name="uniF6BA" unicode="&#xf6ba;" horiz-adv-x="845" 
d="M762 596h-678v160h678v-160z" />
    <glyph glyph-name="uniF6BB" unicode="&#xf6bb;" horiz-adv-x="913" 
d="M831 596h-747v160h747v-160z" />
    <glyph glyph-name="uniF6BC" unicode="&#xf6bc;" horiz-adv-x="1288" 
d="M1204 596h-1120v160h1120v-160z" />
    <glyph glyph-name="uniF6C3" unicode="&#xf6c3;" horiz-adv-x="462" 
d="M119 -539l84 211h-86v226h229v-195l-145 -242h-82z" />
    <glyph glyph-name="uniF6C9" unicode="&#xf6c9;" horiz-adv-x="632" 
d="M113 1536l155 311h252l-270 -311h-137z" />
    </font>
</defs>
</svg>
